<?xml version="1.0" encoding="utf-8"?>
<!-- Generator: Adobe Illustrator 22.0.1, SVG Export Plug-In . SVG Version: 6.00 Build 0)  -->
<svg version="1.1" xmlns="http://www.w3.org/2000/svg" xmlns:xlink="http://www.w3.org/1999/xlink" x="0px" y="0px"
	 viewBox="0 0 554.7 537.7" style="enable-background:new 0 0 554.7 537.7;" xml:space="preserve">
<style type="text/css">
	.st0{fill:#B8C1C1;}
	.st1{fill:#CAD4D4;}
	.st2{fill:#CBD5D4;}
	.st3{fill:#B7B8AB;}
	.st4{fill:#BCBCBB;}
	.st5{fill:#9B9C9D;}
	.st6{display:none;}
	.st7{font-family:'BlissPro';}
	.st8{font-size:18px;}
	.st9{display:inline;}
</style>
<g id="Level_2">
	<g>
		<g>
			<g>
				<path class="st0" d="M455,372c-0.5,0-1.1,0-1.7,0.1l-108.9,16.5l-56.8,8.6L91.3,427.1c-3.7,0.6-6.8,2.9-8.4,6.3
					s-1.3,7.3,0.8,10.5l16.1,25.2l4.9,7.7l20,31.3c2,3.2,5.6,5.1,9.3,5.1c0.6,0,1.2-0.1,1.9-0.2l85.6-14.6l124.4-21.3l45.8-7.8
					l130.1-22.2c4.2-0.7,7.7-3.9,8.8-8c1.1-4.2-0.3-8.6-3.7-11.3l-39.4-32.3l-25.6-21C460,372.9,457.5,372,455,372L455,372z"/>
			</g>
		</g>
		<g>
			<polygon class="st1" points="369.1,421.8 480.6,404.1 455,383 346,399.6 			"/>
		</g>
		<polygon class="st2" points="369.1,421.8 480.6,404.1 455,383 346,399.6 		"/>
		<g>
			<polygon class="st1" points="354.9,424.1 480.6,404.1 520,436.3 389.9,458.6 			"/>
		</g>
		<polygon class="st2" points="354.9,424.1 480.6,404.1 520,436.3 389.9,458.6 		"/>
		<g>
			<polygon class="st1" points="354.9,424.1 310.8,431.1 344.1,466.4 389.9,458.6 			"/>
		</g>
		<polygon class="st2" points="354.9,424.1 310.8,431.1 344.1,466.4 389.9,458.6 		"/>
		<g>
			<polygon class="st3" points="289.2,408.2 92.9,438 109.1,463.2 114,470.9 196.8,457.6 219.7,487.7 344.1,466.4 317.4,438.1 
				310.8,431.1 369.1,421.8 346,399.6 			"/>
		</g>
		<g>
			<polygon class="st1" points="196.8,457.6 114,470.9 134.1,502.3 219.7,487.7 			"/>
		</g>
		<g>
			<polygon class="st1" points="196.8,457.6 114,470.9 134.1,502.3 219.7,487.7 			"/>
		</g>
		<polygon class="st2" points="196.8,457.6 114,470.9 134.1,502.3 219.7,487.7 		"/>
		<polygon class="st4" points="454.7,384.1 95.6,438.6 94.6,437 454.7,382.3 		"/>
		<polygon class="st4" points="480.3,405.1 314.3,431.6 312.8,430 480.3,403.4 		"/>
		<polygon class="st4" points="196.4,458.7 116.7,471.5 115.7,469.9 196.4,456.9 		"/>
		<polygon class="st5" points="134.1,502.3 92.9,438 92.9,436.2 134.1,500.5 		"/>
		<polygon class="st5" points="217.9,486.9 196.4,458.7 196.4,456.9 217.9,485.2 		"/>
		<polygon class="st5" points="342.1,465.7 308.8,430.4 308.8,428.7 342.1,464 		"/>
		<polygon class="st5" points="387.8,457.9 354.6,425.1 354.6,423.4 387.8,456.2 		"/>
		<polygon class="st5" points="365.4,419.6 345.7,400.6 345.7,398.9 366.9,419.4 		"/>
		<polygon class="st5" points="517.7,435.7 454.7,384.1 454.7,382.3 517.7,434 		"/>
		<g>
			<path class="st0" d="M454.7,382.3l23.6,19.3L369.4,419l-21.2-20.5L454.7,382.3 M455,381.3L346,397.8l23,22.2l111.6-17.8
				L455,381.3L455,381.3z"/>
			<path class="st0" d="M480.3,403.4l37.3,30.6l-127.5,21.8L357,423L480.3,403.4 M480.6,402.3l-125.7,20l35,34.5L520,434.6
				L480.6,402.3L480.6,402.3z"/>
			<path class="st0" d="M354.6,423.4l33.2,32.8l-43.3,7.4L312.8,430L354.6,423.4 M354.9,422.3l-44.1,7l33.3,35.3l45.8-7.8
				L354.9,422.3L354.9,422.3z"/>
			<path class="st0" d="M345.7,398.9l21.2,20.5l-56.3,9l-1.9,0.3l1.3,1.4l6.6,7l25.4,26.9l-122,20.8l-22.5-29.6l-0.4-0.5l-0.6,0.1
				l-82.1,13.3l-4.6-7.2L94.6,437l194.7-29.6L345.7,398.9 M346,397.8l-56.8,8.6L92.9,436.2l16.1,25.2l4.9,7.7l82.8-13.4l22.9,30.1
				l124.4-21.3l-26.7-28.3l-6.6-7l58.2-9.3L346,397.8L346,397.8z"/>
			<path class="st0" d="M196.4,456.9l21.5,28.3l-83.3,14.2l-18.9-29.5L196.4,456.9 M196.8,455.8L114,469.2l20,31.3l85.6-14.6
				L196.8,455.8L196.8,455.8z"/>
		</g>
		<polygon class="st4" points="520,436.3 134.1,502.3 134.1,500.5 520,434.6 		"/>
		<text transform="matrix(1 0 0 1 14.8977 417.4607)" class="st6 st7 st8">Level 2</text>
	</g>
</g>
<g id="Level_3">
	<g>
		<text transform="matrix(1 0 0 1 14.8977 330.2904)" class="st6 st7 st8">Level 3</text>
		<g>
			<g>
				<path class="st0" d="M527.2,343.9l-15.8-13.2l-21.6-18l-27.6-23.1c-2-1.7-4.5-2.6-7.1-2.6c-0.6,0-1.1,0-1.7,0.1l-13.7,2.1
					l-13.7,2.1l-13.7,2.1c-4.2,0.6-7.7,3.7-8.9,7.8c0,0.1,0,0.2-0.1,0.3l-26.7,4.2l-1.9,0.3l-2.3-2.2c-2.1-2-4.8-3-7.6-3
					c-0.6,0-1.1,0-1.7,0.1l-14.2,2.2l-14.3,2.2l-14.5,2.2l-14.5,2.2l-14.4,2.2l-14.6,2.3l-15.1,2.3l-14.8,2.3l-22.7,3.5l-15.4,2.4
					l-15.3,2.4l-7.9,1.2c-3.9,0.6-7.1,3.2-8.6,6.8c-0.2,0.5-0.4,1.1-0.5,1.7l-17.1,2.7l-9.2,1.4l-0.7-1c-2.1-2.9-5.4-4.6-8.9-4.6
					c-0.6,0-1.1,0-1.7,0.1l-16,2.5l-16.1,2.5L90.7,343c-3.7,0.6-6.8,3-8.4,6.4c-1.5,3.4-1.2,7.4,0.8,10.5l17.9,27.5l24.3,37.2
					c2.1,3.1,5.5,5,9.2,5c0.6,0,1.2-0.1,1.9-0.2l17.3-3l17.4-3l16.8-2.9l18.9-3.2l6.4-1.1l8.7-1.5l8.2-1.4l6.3-1.1l18.4-3.2l16-2.7
					l16.2-2.8l16.2-2.8l0.6-0.1l15.2-2.6l85.2-14.6l19.1-3.3l17.4-3l1.3-0.2l14.8-2.5l22-3.8l6.9-1.2l36.5-6.3
					c4.2-0.7,7.6-3.8,8.8-8C531.9,351.1,530.5,346.7,527.2,343.9z"/>
			</g>
		</g>
		<path class="st3" d="M504.4,339.2l-21.6-18l-27.6-23.1l-13.7,2.1l-13.7,2.1l-13.7,2.1l6.4,5.6l-14.1,2.2l-27.9,4.3l-7.2,1.1
			l-6.2-5.9l-14.2,2.2l-14.3,2.2l-14.5,2.2l-14.5,2.2l-14.4,2.2l-14.6,2.3l-15.1,2.3l-14.8,2.3l-22.7,3.5l-15.4,2.4l-15.3,2.4
			l-7.9,1.2l5,6.3l-31.1,4.9l-15.9,2.5v0l-4.6-6.5l-16,2.5l-16.1,2.5l-16.1,2.5l17.9,27.5h0l24.3,37.2l17.3-3l17.4-3l16.8-2.9
			l18.9-3.2l6.4-1.1l8.7-1.5l8.2-1.4l6.3-1.1l18.4-3.2l16-2.7l0,0l16.2-2.8l0,0l16.2-2.8l0.6-0.1l15.2-2.6l85.2-14.6l19.1-3.3v0
			l17.4-3l1.3-0.2l14.8-2.5l22-3.8l6.9-1.2l36.5-6.3L504.4,339.2z"/>
		<polygon class="st1" points="122,371.2 105.5,373.8 92.1,353.3 108.3,350.8 		"/>
		<polygon class="st1" points="122,371.2 138.5,368.6 124.4,348.3 108.3,350.8 		"/>
		<polygon class="st1" points="154.8,366 138.5,368.6 124.4,348.3 140.3,345.9 		"/>
		<polygon class="st1" points="154.8,366 170.9,363.4 160.9,349.9 145,352.3 		"/>
		<polygon class="st1" points="202.5,358.3 170.9,363.4 160.9,349.9 192,345 		"/>
		<polygon class="st1" points="202.5,358.3 210.6,357 195,337.5 187,338.7 		"/>
		<polygon class="st1" points="226.2,354.6 242,352 225.7,332.7 210.2,335.1 		"/>
		<polygon class="st1" points="259.4,341.8 236.4,345.4 225.7,332.7 248.4,329.2 		"/>
		<polygon class="st1" points="265.2,348.3 280.2,345.9 263.2,326.9 248.4,329.2 		"/>
		<polygon class="st1" points="295.7,343.5 280.2,345.9 263.2,326.9 278.3,324.6 		"/>
		<polygon class="st1" points="295.7,343.5 310.6,341.1 292.9,322.4 278.3,324.6 		"/>
		<polygon class="st1" points="325.3,338.7 310.6,341.1 292.9,322.4 307.4,320.1 		"/>
		<polygon class="st1" points="325.3,338.7 340.2,336.4 321.9,317.9 307.4,320.1 		"/>
		<polygon class="st1" points="354.9,334 340.2,336.4 321.9,317.9 336.4,315.7 		"/>
		<polygon class="st1" points="354.9,334 369.5,331.7 350.7,313.5 336.4,315.7 		"/>
		<polygon class="st1" points="383.9,329.4 369.5,331.7 350.7,313.5 364.9,311.3 		"/>
		<polygon class="st1" points="377.5,323.2 384.7,322.1 378.3,316 371.1,317.2 		"/>
		<polygon class="st1" points="377.5,323.2 384.7,322.1 391.2,328.2 383.9,329.4 		"/>
		<polygon class="st1" points="406.2,311.7 378.3,316 391.2,328.2 419.5,323.7 		"/>
		<polygon class="st1" points="406.2,311.7 420.3,309.5 433.8,321.4 419.5,323.7 		"/>
		<polygon class="st1" points="427.6,301.7 413.9,303.8 433.8,321.4 447.8,319.2 		"/>
		<polygon class="st1" points="427.6,301.7 441.3,299.6 461.7,317 447.8,319.2 		"/>
		<polygon class="st1" points="455,297.5 441.3,299.6 468.6,322.9 482.7,320.6 		"/>
		<polygon class="st1" points="504.2,338.6 489.9,341 468.6,322.9 482.7,320.6 		"/>
		<polygon class="st1" points="504.2,338.6 482.8,342.2 498.3,355.5 520,351.8 		"/>
		<polygon class="st1" points="454.5,339.7 475.8,336.2 498.3,355.5 476.6,359.2 		"/>
		<polygon class="st1" points="454.5,339.7 432.9,343.3 454.6,363 476.6,359.2 		"/>
		<polygon class="st1" points="418.5,345.7 432.9,343.3 454.6,363 439.8,365.5 		"/>
		<polygon class="st1" points="405,333.1 368.4,339 402.1,372 439.8,365.5 		"/>
		<polygon class="st1" points="270.8,354.8 368.4,339 402.1,372 301.1,389.3 		"/>
		<polygon class="st1" points="270.8,354.8 255.2,357.3 266.7,370.8 282.5,368.2 		"/>
		<polygon class="st1" points="301.1,389.3 284.9,392.1 266.7,370.8 282.5,368.2 		"/>
		<polygon class="st1" points="268.7,394.9 284.9,392.1 272.2,377.2 256.3,379.9 		"/>
		<polygon class="st1" points="268.7,394.9 252.7,397.6 235.2,376 250.8,373.4 		"/>
		<polygon class="st1" points="185.7,409.2 169,412 143.4,375.4 159.5,372.8 		"/>
		<polygon class="st1" points="151.6,415 169,412 143.4,375.4 126.7,378.1 		"/>
		<polygon class="st1" points="151.6,415 134.3,418 110.1,380.8 126.7,378.1 		"/>
		<polygon class="st1" points="239.5,359.8 224.1,362.3 235.2,376 250.8,373.4 		"/>
		<polygon class="st1" points="200.2,366.2 205.5,373 197.2,374.4 219.3,403.4 227.9,401.9 234.3,400.8 252.7,397.6 224.1,362.3 		
			"/>
		<polygon class="st1" points="184,368.8 189.2,375.7 197.6,374.3 219.8,403.3 211.1,404.8 204.7,405.9 185.8,409.1 159.6,372.8 		
			"/>
		<polygon class="st1" points="454.5,339.7 475.8,336.2 461.6,324 440.6,327.4 		"/>
		<polygon class="st1" points="251.6,343 236.4,345.4 242,352 257.3,349.6 		"/>
		<polygon class="st1" points="195,337.5 204.9,349.9 213,348.6 218.8,355.7 226.2,354.6 210.2,335.1 		"/>
		<polygon class="st1" points="218.8,355.7 210.6,357 204.9,349.9 213,348.6 		"/>
		<polygon class="st2" points="122,371.2 105.5,373.8 92.1,353.3 108.3,350.8 		"/>
		<polygon class="st2" points="122,371.2 138.5,368.6 124.4,348.3 108.3,350.8 		"/>
		<polygon class="st2" points="154.8,366 138.5,368.6 124.4,348.3 140.3,345.9 		"/>
		<polygon class="st2" points="154.8,366 170.9,363.4 160.9,349.9 145,352.3 		"/>
		<polygon class="st2" points="202.5,358.3 170.9,363.4 160.9,349.9 192,345 		"/>
		<polygon class="st2" points="202.5,358.3 210.6,357 195,337.5 187,338.7 		"/>
		<polygon class="st2" points="226.2,354.6 242,352 225.7,332.7 210.2,335.1 		"/>
		<polygon class="st2" points="259.4,341.8 236.4,345.4 225.7,332.7 248.4,329.2 		"/>
		<polygon class="st2" points="265.2,348.3 280.2,345.9 263.2,326.9 248.4,329.2 		"/>
		<polygon class="st2" points="295.7,343.5 280.2,345.9 263.2,326.9 278.3,324.6 		"/>
		<polygon class="st2" points="295.7,343.5 310.6,341.1 292.9,322.4 278.3,324.6 		"/>
		<polygon class="st2" points="325.3,338.7 310.6,341.1 292.9,322.4 307.4,320.1 		"/>
		<polygon class="st2" points="325.3,338.7 340.2,336.4 321.9,317.9 307.4,320.1 		"/>
		<polygon class="st2" points="354.9,334 340.2,336.4 321.9,317.9 336.4,315.7 		"/>
		<polygon class="st2" points="354.9,334 369.5,331.7 350.7,313.5 336.4,315.7 		"/>
		<polygon class="st2" points="383.9,329.4 369.5,331.7 350.7,313.5 364.9,311.3 		"/>
		<polygon class="st2" points="377.5,323.2 384.7,322.1 378.3,316 371.1,317.2 		"/>
		<polygon class="st2" points="377.5,323.2 384.7,322.1 391.2,328.2 383.9,329.4 		"/>
		<polygon class="st2" points="406.2,311.7 378.3,316 391.2,328.2 419.5,323.7 		"/>
		<polygon class="st2" points="406.2,311.7 420.3,309.5 433.8,321.4 419.5,323.7 		"/>
		<polygon class="st2" points="427.6,301.7 413.9,303.8 433.8,321.4 447.8,319.2 		"/>
		<polygon class="st2" points="427.6,301.7 441.3,299.6 461.7,317 447.8,319.2 		"/>
		<polygon class="st2" points="455,297.5 441.3,299.6 468.6,322.9 482.7,320.6 		"/>
		<polygon class="st2" points="504.2,338.6 489.9,341 468.6,322.9 482.7,320.6 		"/>
		<polygon class="st2" points="504.2,338.6 482.8,342.2 498.3,355.5 520,351.8 		"/>
		<polygon class="st2" points="454.5,339.7 475.8,336.2 498.3,355.5 476.6,359.2 		"/>
		<polygon class="st2" points="454.5,339.7 432.9,343.3 454.6,363 476.6,359.2 		"/>
		<polygon class="st2" points="418.5,345.7 432.9,343.3 454.6,363 439.8,365.5 		"/>
		<polygon class="st2" points="405,333.1 368.4,339 402.1,372 439.8,365.5 		"/>
		<polygon class="st2" points="270.8,354.8 368.4,339 402.1,372 301.1,389.3 		"/>
		<polygon class="st2" points="270.8,354.8 255.2,357.3 266.7,370.8 282.5,368.2 		"/>
		<polygon class="st2" points="301.1,389.3 284.9,392.1 266.7,370.8 282.5,368.2 		"/>
		<polygon class="st2" points="268.7,394.9 284.9,392.1 272.2,377.2 256.3,379.9 		"/>
		<polygon class="st2" points="268.7,394.9 252.7,397.6 235.2,376 250.8,373.4 		"/>
		<polygon class="st2" points="185.7,409.2 169,412 143.4,375.4 159.5,372.8 		"/>
		<polygon class="st2" points="151.6,415 169,412 143.4,375.4 126.7,378.1 		"/>
		<polygon class="st2" points="151.6,415 134.3,418 110.1,380.8 126.7,378.1 		"/>
		<polygon class="st2" points="239.5,359.8 224.1,362.3 235.2,376 250.8,373.4 		"/>
		<polygon class="st2" points="200.2,366.2 205.5,373 197.2,374.4 219.3,403.4 227.9,401.9 234.3,400.8 252.7,397.6 224.1,362.3 		
			"/>
		<polygon class="st2" points="184,368.8 189.2,375.7 197.6,374.3 219.8,403.3 211.1,404.8 204.7,405.9 185.8,409.1 159.6,372.8 		
			"/>
		<polygon class="st2" points="454.5,339.7 475.8,336.2 461.6,324 440.6,327.4 		"/>
		<polygon class="st2" points="251.6,343 236.4,345.4 242,352 257.3,349.6 		"/>
		<polygon class="st2" points="195,337.5 204.9,349.9 213,348.6 218.8,355.7 226.2,354.6 210.2,335.1 		"/>
		<polygon class="st2" points="218.8,355.7 210.6,357 204.9,349.9 213,348.6 		"/>
		<polygon class="st5" points="105.5,373.8 92.1,353.3 92.1,351.8 105.5,372.3 		"/>
		<polygon class="st5" points="120.3,370.4 107.8,351.9 107.8,350.4 120.3,368.9 		"/>
		<polygon class="st4" points="94.7,353.9 107.8,351.9 107.8,350.4 93.8,352.5 		"/>
		<polygon class="st4" points="112.6,381.4 183.5,369.9 183.5,368.4 111.7,380 		"/>
		<polygon class="st4" points="110.9,351.4 139.9,347 139.9,345.4 110,350 		"/>
		<polygon class="st4" points="147.7,352.9 191.6,346.1 191.6,344.5 146.7,351.5 		"/>
		<polygon class="st4" points="190,339.2 364.5,312.3 364.5,310.8 188.9,337.9 		"/>
		<polygon class="st4" points="374.6,317.6 420,310.5 420,309 373.2,316.3 		"/>
		<polygon class="st4" points="417.7,304.3 454.8,298.6 454.8,297 416.2,303 		"/>
		<polygon class="st5" points="136.7,367.8 123.9,349.4 123.9,347.9 136.7,366.3 		"/>
		<polygon class="st5" points="153,365.2 139.9,347 139.9,345.4 153,363.7 		"/>
		<polygon class="st5" points="169.1,362.7 160.4,350.9 160.4,349.4 169.1,361.1 		"/>
		<polygon class="st5" points="200.7,357.6 191.6,346.1 191.6,344.5 200.7,356.1 		"/>
		<polygon class="st5" points="190.9,343.6 187,338.7 187,337.1 192,343.4 		"/>
		<polygon class="st5" points="208.8,356.3 194.6,338.5 194.6,337 208.8,354.8 		"/>
		<polygon class="st5" points="216.9,355 212.6,349.7 212.6,348.2 216.9,353.5 		"/>
		<polygon class="st5" points="224.3,353.8 209.8,336.2 209.8,334.6 224.3,352.3 		"/>
		<polygon class="st5" points="240.1,351.3 225.3,333.8 225.3,332.2 240.1,349.8 		"/>
		<polygon class="st5" points="255.4,348.9 251.2,344.1 251.2,342.6 255.4,347.3 		"/>
		<polygon class="st5" points="257.5,341.1 248,330.3 248,328.7 257.5,339.5 		"/>
		<polygon class="st5" points="265.2,348.3 259.4,341.8 259.4,340.2 265.2,346.8 		"/>
		<polygon class="st5" points="278.3,345.2 262.8,328 262.8,326.5 278.3,343.7 		"/>
		<polygon class="st5" points="293.7,342.8 277.9,325.7 277.9,324.1 293.7,341.2 		"/>
		<polygon class="st5" points="308.6,340.4 292.6,323.4 292.6,321.9 308.6,338.8 		"/>
		<polygon class="st5" points="323.3,338 307,321.2 307,319.6 323.3,336.5 		"/>
		<polygon class="st5" points="338.1,335.7 321.5,319 321.5,317.4 338.1,334.1 		"/>
		<polygon class="st5" points="352.8,333.3 336,316.7 336,315.2 352.8,331.8 		"/>
		<polygon class="st5" points="367.4,331 350.4,314.5 350.4,313 367.4,329.5 		"/>
		<polygon class="st5" points="381.8,328.7 364.5,312.3 364.5,310.8 381.8,327.2 		"/>
		<polygon class="st5" points="389.1,327.5 378,317.1 378,315.6 389.1,326 		"/>
		<polygon class="st5" points="417.3,323 405.9,312.8 405.9,311.2 417.3,321.5 		"/>
		<polygon class="st5" points="431.6,320.8 420,310.5 420,309 431.6,319.2 		"/>
		<polygon class="st5" points="445.5,318.5 427.3,302.8 427.3,301.2 445.5,317 		"/>
		<polygon class="st5" points="459.4,316.3 441,300.7 441,299.1 459.4,314.8 		"/>
		<polygon class="st5" points="489.9,341 461.7,317 461.7,315.4 489.9,339.4 		"/>
		<polygon class="st5" points="496,354.9 461.3,325 461.3,323.5 496,353.3 		"/>
		<polygon class="st5" points="453,338.4 440.6,327.4 440.6,325.8 454.5,338.2 		"/>
		<polygon class="st5" points="474.3,358.6 454.2,340.8 454.2,339.2 474.3,357 		"/>
		<polygon class="st5" points="452.4,362.3 432.6,344.3 432.6,342.8 452.4,360.8 		"/>
		<polygon class="st5" points="437.7,364.9 404.6,334.2 404.6,332.6 437.7,363.3 		"/>
		<polygon class="st5" points="400,371.3 368.1,340.1 368.1,338.5 400,369.8 		"/>
		<polygon class="st5" points="299.2,388.7 270.4,355.9 270.4,354.3 299.2,387.1 		"/>
		<polygon class="st5" points="283,391.4 271.8,378.3 271.8,376.8 283,389.9 		"/>
		<polygon class="st5" points="266.8,394.2 239.1,360.9 239.1,359.4 266.8,392.7 		"/>
		<polygon class="st5" points="250.9,396.9 223.7,363.4 223.7,361.9 250.9,395.4 		"/>
		<polygon class="st5" points="205.5,373 200.2,366.2 200.2,364.6 205.5,371.5 		"/>
		<polygon class="st5" points="218,402.6 197.1,375.4 197.1,373.9 218,401 		"/>
		<polygon class="st5" points="188.7,376.8 183.5,369.9 183.5,368.4 188.7,375.2 		"/>
		<polygon class="st5" points="183.9,408.4 159,373.9 159,372.3 183.9,406.9 		"/>
		<polygon class="st5" points="167.3,411.3 143,376.5 143,374.9 167.3,409.7 		"/>
		<polygon class="st5" points="149.9,414.3 126.2,379.2 126.2,377.6 149.9,412.7 		"/>
		<polygon class="st5" points="134.3,418 104.9,372.8 104.2,370.3 134.3,416.4 		"/>
		<polygon class="st5" points="271.1,375.9 255.2,357.3 255.2,355.8 272.2,375.7 		"/>
		<polygon class="st5" points="517.7,351.1 454.8,298.6 454.8,297 517.7,349.6 		"/>
		<polygon class="st5" points="418.8,308.2 413.9,303.8 413.9,302.3 420.3,307.9 		"/>
		<g>
			<path class="st0" d="M107.8,350.4l12.5,18.5l-14.3,2.3l-12.2-18.7L107.8,350.4 M108.3,349.3l-16.1,2.5l13.4,20.5l16.5-2.6
				L108.3,349.3L108.3,349.3z"/>
			<path class="st0" d="M123.9,347.9l12.8,18.4l-14.2,2.3L110,350L123.9,347.9 M124.4,346.8l-16.1,2.5l13.8,20.4l16.5-2.6
				L124.4,346.8L124.4,346.8z"/>
			<path class="st0" d="M139.9,345.4l13.2,18.3l-14.1,2.3l-12.8-18.4L139.9,345.4 M140.3,344.3l-16,2.5l14.1,20.2l16.3-2.6
				L140.3,344.3L140.3,344.3z"/>
			<path class="st0" d="M160.4,349.4l8.7,11.7l-13.9,2.2l-8.5-11.8L160.4,349.4 M160.9,348.3l-15.9,2.5l9.8,13.6l16.1-2.6
				L160.9,348.3L160.9,348.3z"/>
			<path class="st0" d="M191.6,344.5l9.1,11.5l-29.3,4.7l-8.7-11.7L191.6,344.5 M192,343.4l-31.1,4.9l10.1,13.5l31.6-5L192,343.4
				L192,343.4z"/>
			<path class="st0" d="M194.5,337l14.2,17.8l-5.8,0.9l-14.1-17.9L194.5,337 M195,335.9l-7.9,1.2l15.5,19.7l8.1-1.3L195,335.9
				L195,335.9z"/>
			<path class="st0" d="M225.3,332.2l14.8,17.5l-13.4,2.1l-14.5-17.7L225.3,332.2 M225.7,331.2l-15.4,2.4l16,19.5l15.8-2.5
				L225.7,331.2L225.7,331.2z"/>
			<path class="st0" d="M248,328.7l9.5,10.8l-20.7,3.3l-9.2-10.9L248,328.7 M248.4,327.7l-22.7,3.5l10.7,12.7l23-3.6L248.4,327.7
				L248.4,327.7z"/>
			<path class="st0" d="M262.8,326.5l15.5,17.2l-12.7,2l-15.2-17.3L262.8,326.5 M263.2,325.4l-14.8,2.3l16.8,19.1l15.1-2.4
				L263.2,325.4L263.2,325.4z"/>
			<path class="st0" d="M277.9,324.1l15.8,17.1l-13.1,2.1l-15.5-17.2L277.9,324.1 M278.3,323.1l-15.1,2.3l17.1,19l15.5-2.5
				L278.3,323.1L278.3,323.1z"/>
			<path class="st0" d="M292.6,321.9l16,17l-12.5,2l-15.7-17.1L292.6,321.9 M292.9,320.8l-14.6,2.3l17.4,18.9l14.9-2.4L292.9,320.8
				L292.9,320.8z"/>
			<path class="st0" d="M307,319.6l16.3,16.8l-12.3,2l-16-17L307,319.6 M307.4,318.6l-14.4,2.2l17.7,18.7l14.7-2.4L307.4,318.6
				L307.4,318.6z"/>
			<path class="st0" d="M321.5,317.4l16.5,16.7l-12.4,2l-16.3-16.8L321.5,317.4 M321.9,316.3l-14.5,2.2l18,18.6l14.8-2.4
				L321.9,316.3L321.9,316.3z"/>
			<path class="st0" d="M336,315.2l16.8,16.6l-12.3,2L324,317L336,315.2 M336.4,314.1l-14.5,2.2l18.2,18.5l14.7-2.4L336.4,314.1
				L336.4,314.1z"/>
			<path class="st0" d="M350.4,313l17,16.5l-12.1,1.9l-16.8-16.6L350.4,313 M350.7,311.9l-14.3,2.2l18.5,18.3l14.6-2.3L350.7,311.9
				L350.7,311.9z"/>
			<path class="st0" d="M364.5,310.8l17.3,16.4l-11.9,1.9l-17-16.5L364.5,310.8 M364.9,309.7l-14.2,2.2l18.8,18.2l14.4-2.3
				L364.9,309.7L364.9,309.7z"/>
			<path class="st0" d="M378,315.6l4.6,4.3l-4.7,0.7l-4.6-4.3L378,315.6 M378.3,314.5l-7.2,1.1l6.4,6.1l7.3-1.1L378.3,314.5
				L378.3,314.5z"/>
			<path class="st0" d="M384.4,321.6l4.7,4.4l-4.8,0.8l-4.7-4.4L384.4,321.6 M384.7,320.5l-7.3,1.1l6.5,6.2l7.3-1.2L384.7,320.5
				L384.7,320.5z"/>
			<path class="st0" d="M405.9,311.2l11.4,10.3l-25.7,4.1l-11.1-10.4L405.9,311.2 M406.2,310.1l-27.9,4.3l13,12.2l28.2-4.5
				L406.2,310.1L406.2,310.1z"/>
			<path class="st0" d="M420,309l11.6,10.2l-11.8,1.9l-11.4-10.3L420,309 M420.3,307.9l-14.1,2.2l13.3,12l14.3-2.3L420.3,307.9
				L420.3,307.9z"/>
			<path class="st0" d="M427.3,301.2l18.1,15.7l-11.4,1.8L416.2,303L427.3,301.2 M427.6,300.2l-13.7,2.1l19.9,17.6l13.9-2.2
				L427.6,300.2L427.6,300.2z"/>
			<path class="st0" d="M441,299.1l18.4,15.6l-11.3,1.8l-18.1-15.7L441,299.1 M441.3,298.1l-13.7,2.1l20.1,17.5l13.9-2.2
				L441.3,298.1L441.3,298.1z"/>
			<path class="st0" d="M454.8,297l25.6,21.4l-11.4,1.8l-25.3-21.5L454.8,297 M455,296l-13.7,2.1l27.3,23.2l14.1-2.3L455,296
				L455,296z"/>
			<path class="st0" d="M482.4,320.1l19.5,16.3l-11.7,2l-19.3-16.4L482.4,320.1 M482.7,319l-14.1,2.3l21.3,18.1l14.3-2.4L482.7,319
				L482.7,319z"/>
			<path class="st0" d="M503.9,338.1l13.7,11.5l-19.1,3.3l-13.5-11.6L503.9,338.1 M504.2,337l-21.4,3.6l15.5,13.3l21.7-3.7
				L504.2,337L504.2,337z"/>
			<path class="st0" d="M475.5,335.7l20.5,17.6l-19.1,3.3l-20.1-17.8L475.5,335.7 M475.8,334.6l-21.3,3.5l22.1,19.5l21.7-3.7
				L475.8,334.6L475.8,334.6z"/>
			<path class="st0" d="M454.2,339.2l20.1,17.8l-19.4,3.3l-19.8-18L454.2,339.2 M454.5,338.2l-21.6,3.6l21.7,19.7l22-3.8
				L454.5,338.2L454.5,338.2z"/>
			<path class="st0" d="M432.6,342.8l19.8,18l-12.3,2.1l-19.5-18.1L432.6,342.8 M432.9,341.7l-14.5,2.4l21.4,19.9l14.8-2.5
				L432.9,341.7L432.9,341.7z"/>
			<path class="st0" d="M404.6,332.6l33,30.7l-35.2,6l-31.9-31.2L404.6,332.6 M405,331.6l-36.5,5.9l33.7,33l37.7-6.5L405,331.6
				L405,331.6z"/>
			<path class="st0" d="M368.1,338.5l31.9,31.2l-98.5,16.9l-28.7-32.8L368.1,338.5 M368.4,337.5l-97.6,15.8l30.3,34.5l101-17.3
				L368.4,337.5L368.4,337.5z"/>
			<path class="st0" d="M270.4,354.3l10.2,11.6l-13.5,2.2l-10-11.7L270.4,354.3 M270.8,353.2l-15.6,2.5l11.5,13.5l15.8-2.6
				L270.8,353.2L270.8,353.2z"/>
			<path class="st0" d="M282.2,367.7l17,19.4l-13.9,2.4l-16.7-19.6L282.2,367.7 M282.5,366.6l-15.8,2.6l18.2,21.3l16.2-2.8
				L282.5,366.6L282.5,366.6z"/>
			<path class="st0" d="M271.8,376.8l11.2,13.1l-13.9,2.4l-11-13.2L271.8,376.8 M272.2,375.7l-16,2.7l12.5,15l16.2-2.8L272.2,375.7
				L272.2,375.7z"/>
			<path class="st0" d="M250.4,372.9l16.4,19.7l-13.7,2.4L237,375.1L250.4,372.9 M250.8,371.8l-15.7,2.6l17.6,21.7l16-2.7
				L250.8,371.8L250.8,371.8z"/>
			<path class="st0" d="M159,372.3l24.9,34.6l-14.5,2.5l-24.3-34.8L159,372.3 M159.5,371.2l-16.1,2.6l25.6,36.6l16.7-2.9
				L159.5,371.2L159.5,371.2z"/>
			<path class="st0" d="M143,374.9l24.3,34.8l-15.2,2.6l-23.7-35.1L143,374.9 M143.4,373.8l-16.8,2.7l24.9,36.9l17.4-3L143.4,373.8
				L143.4,373.8z"/>
			<path class="st0" d="M126.2,377.6l23.7,35.1l-15.1,2.6L111.7,380L126.2,377.6 M126.7,376.5l-16.6,2.7l24.3,37.2l17.3-3
				L126.7,376.5L126.7,376.5z"/>
			<path class="st0" d="M239.1,359.4l9.8,11.8l-13.4,2.2l-9.6-11.9L239.1,359.4 M239.5,358.3l-15.4,2.5l11.1,13.6l15.7-2.6
				L239.5,358.3L239.5,358.3z"/>
			<path class="st0" d="M223.7,361.9l27.2,33.5l-16.8,2.9l-6.3,1.1l-8,1.4L199,373.6l6.7-1.1l1.7-0.3l-1-1.3l-4.3-5.5L223.7,361.9
				 M224.1,360.8l-23.9,3.9l5.3,6.8l-8.4,1.4l22.2,29l8.6-1.5l6.3-1.1l18.4-3.2L224.1,360.8L224.1,360.8z"/>
			<path class="st0" d="M183.5,368.4l4.8,6.4l0.4,0.5l0.6-0.1l7.8-1.3L218,401l-7,1.2l-6.4,1.1l-18.3,3.1l-24.9-34.6L183.5,368.4
				 M184,367.3l-24.7,4l25.9,36.4l19.6-3.4l6.4-1.1l8.7-1.5l-22.2-29l-8.4,1.4L184,367.3L184,367.3z"/>
			<path class="st0" d="M461.3,323.5l12.2,10.5l-18.7,3.1l-12-10.6L461.3,323.5 M461.6,322.4l-21.1,3.4l13.9,12.3l21.3-3.5
				L461.6,322.4L461.6,322.4z"/>
			<path class="st0" d="M251.2,342.6l4.1,4.8l-13,2.1l-4.1-4.8L251.2,342.6 M251.6,341.5l-15.3,2.4l5.6,6.6l15.4-2.5L251.6,341.5
				L251.6,341.5z"/>
			<path class="st0" d="M209.8,334.6l14.5,17.7l-5.1,0.8l-5.4-6.7l-0.4-0.4l-0.6,0.1l-7.5,1.2l-8.5-10.7L209.8,334.6 M210.2,333.6
				l-15.3,2.4l10,12.5l8.1-1.3l5.8,7.1l7.4-1.2L210.2,333.6L210.2,333.6z"/>
			<path class="st0" d="M212.6,348.2l4.3,5.3l-5.9,0.9l-4.3-5.3L212.6,348.2 M213,347.1l-8.1,1.3l5.7,7.1l8.2-1.3L213,347.1
				L213,347.1z"/>
		</g>
		<polygon class="st0" points="134.8,415.3 105,369.6 104.2,370.3 134.3,416.4 		"/>
		<polygon class="st4" points="472.4,323.2 482.4,321.6 482.4,320.1 470.9,321.9 		"/>
		<polygon class="st4" points="444.3,327.8 461.3,325 461.3,323.5 442.8,326.5 		"/>
		<polygon class="st4" points="422,346.1 475.5,337.2 475.5,335.7 420.6,344.8 		"/>
		<polygon class="st4" points="486.6,342.6 503.9,339.7 503.9,338.1 485.1,341.3 		"/>
		<polygon class="st4" points="265.2,348.3 461.7,317 461.7,315.4 265.2,346.8 		"/>
		<polygon class="st4" points="107.5,373.5 257.3,349.6 257.3,348 106.6,372.1 		"/>
		<polygon class="st4" points="134.3,418 520,351.8 520,350.2 134.3,416.4 		"/>
		<polygon class="st4" points="379.6,322.3 384.4,321.6 384.4,323.1 381,323.7 		"/>
		<polygon class="st4" points="207.9,350.5 206.8,349.1 212.6,348.2 212.6,349.7 		"/>
		<polygon class="st4" points="239.4,346 238.3,344.6 251.2,342.6 251.2,344.1 		"/>
		<polygon class="st4" points="252.8,342.8 251.6,341.5 259.4,340.2 259.4,341.8 		"/>
		<polygon class="st4" points="188.7,376.8 207.4,373.8 207.4,372.2 188.7,375.2 		"/>
		<polygon class="st4" points="203.1,366.7 239.1,360.9 239.1,359.4 202,365.4 		"/>
		<polygon class="st4" points="238.1,376.5 250.4,374.5 250.4,372.9 237,375.1 		"/>
		<polygon class="st4" points="259.3,380.4 271.8,378.3 271.8,376.8 258.1,379.1 		"/>
		<polygon class="st4" points="269.8,371.3 282.2,369.2 282.2,367.7 268.6,369.9 		"/>
		<polygon class="st4" points="258.3,357.8 404.6,334.2 404.6,332.6 257.1,356.5 		"/>
	</g>
</g>
<g id="Level_4">
	<g>
		<g>
			<path class="st0" d="M497.8,247.6L483,235.3l-27.8-23.1l-14,2.2l-13.9,2.2l-13.9,2.2l6.4,5.7l-14,2.2l-28.3,4.5l-7.2,1.1
				l-6.1-5.8l-21.3,3.3l-14.6,2.3l-14.5,2.2l-14.7,2.3l-14.7,2.3l-14.7,2.3l-15.1,2.3l-15,2.3l-15.2,2.4l-15.2,2.4l-4.8,0.7
				l-3.1,0.5l-7.5,1.2l-7.8,1.2l-30,4.7l-11.7,1.8l-4,0.6l-16,2.5l-14.4,2.2l-16.5,2.6l17.3,26.9l7.1,11.1l6.8,10.6l10.1,15.6
				l24.7-4.2l12.8-2.2l13-2.2l12.4-2.1l13.1-2.2l14.5-2.5l17.1-2.9l16.4-2.8l16.2-2.8l16.3-2.8l16.1-2.8l16.1-2.8l15.7-2.7l15.7-2.7
				l15.7-2.7l15.4-2.6l15.6-2.7l4.4-0.8l3.3-0.6l7.6-1.3l15-2.6l14.9-2.6l15-2.6l14.7-2.5l11-1.9l3.7-0.6l7.4-1.3l22.1-3.8
				L497.8,247.6z"/>
			<g>
				<g>
					<path class="st0" d="M455.3,200.2c-0.6,0-1.2,0-1.8,0.1l-14,2.2l-13.9,2.2l-13.9,2.2c-4.5,0.7-8.2,3.9-9.6,8.2l-26.3,4.1
						l-1.4,0.2l-1.8-1.7c-2.2-2.1-5.2-3.3-8.3-3.3c-0.6,0-1.2,0-1.8,0.1l-21.3,3.3l-14.6,2.3l-14.5,2.2l-14.7,2.3l-14.7,2.3
						l-14.7,2.3l-15.1,2.3l-15,2.3l-15.2,2.4l-15.2,2.4l-4.8,0.7l-3.1,0.5l-7.5,1.2l-7.8,1.2l-30,4.7l-11.7,1.8l-4,0.6l-16,2.5
						l-14.4,2.2l-16.5,2.6c-4,0.6-7.4,3.2-9.1,6.9c-1.7,3.7-1.3,8,0.9,11.4l17.3,26.9l7.1,11.1l6.8,10.6l10.1,15.6
						c2.2,3.5,6.1,5.5,10.1,5.5c0.7,0,1.4-0.1,2-0.2l24.7-4.2l12.8-2.2l13-2.2l12.4-2.1l13.1-2.2l14.5-2.5l17.1-2.9l16.4-2.8
						l16.2-2.8l16.3-2.8l16.1-2.8l16.1-2.8l15.7-2.7l15.7-2.7l15.7-2.7l15.4-2.6l15.6-2.7l4.4-0.8l3.3-0.6l7.6-1.3l15-2.6l14.9-2.6
						l15-2.6l14.7-2.5l11-1.9l3.7-0.6l7.4-1.3l22.1-3.8c4.6-0.8,8.3-4.2,9.6-8.7c1.2-4.5-0.3-9.3-3.9-12.3l-22.7-18.9L490.7,226
						l-27.8-23.1C460.8,201.1,458,200.2,455.3,200.2L455.3,200.2z"/>
				</g>
			</g>
		</g>
		<path class="st3" d="M497.5,247.4l-14.8-12.3L454.9,212l-14,2.2l-13.9,2.2l-13.9,2.2l6.4,5.7l-14,2.2l-28.3,4.5l-7.2,1.1l-6.1-5.8
			l-21.3,3.3l-14.6,2.3l-14.5,2.2l-14.7,2.3l-14.7,2.3l-14.7,2.3l-15.1,2.3l-15,2.3l-15.2,2.4l-15.2,2.4l-4.8,0.7l-3.1,0.5l-7.5,1.2
			l-7.8,1.2l-30,4.7l-11.7,1.8l-4,0.6l-16,2.5l-14.4,2.2l-16.5,2.6l17.3,26.9l7.1,11.1l6.8,10.6l10.1,15.6l24.7-4.2l12.8-2.2l13-2.2
			l12.4-2.1l13.1-2.2l14.5-2.5L242,314l16.4-2.8l16.2-2.8l16.3-2.8l16.1-2.8l16.1-2.8l15.7-2.7l15.7-2.7l15.7-2.7l15.4-2.6l15.6-2.7
			l4.4-0.8l3.3-0.6l7.6-1.3l15-2.6l14.9-2.6l15-2.6l14.7-2.5l11-1.9l3.7-0.6l7.4-1.3l22.1-3.8L497.5,247.4z"/>
		<g>
			<polygon class="st1" points="127.5,292.4 110.4,295.1 93.1,268.2 109.6,265.7 			"/>
			<polygon class="st1" points="123.2,285.9 137.9,283.6 124.1,263.4 109.6,265.7 			"/>
			<polygon class="st1" points="154.3,280.9 137.9,283.6 124.1,263.4 140.1,260.9 			"/>
			<polygon class="st1" points="147.1,270.8 151.1,270.2 144,260.3 140.1,260.9 			"/>
			<polygon class="st1" points="170.3,278.4 158.3,280.3 144,260.3 155.7,258.5 			"/>
			<polygon class="st1" points="170.3,278.4 201,273.4 185.7,253.9 155.7,258.5 			"/>
			<polygon class="st1" points="208.9,272.2 201,273.4 185.7,253.9 193.5,252.6 			"/>
			<polygon class="st1" points="208.9,272.2 216.6,270.9 211.1,264.2 203.6,265.4 			"/>
			<polygon class="st1" points="204.1,251 201,251.5 193.5,252.6 203.6,265.4 211.1,264.2 216.6,270.9 224.6,269.6 208.9,250.2 			
				"/>
			<polygon class="st1" points="224.6,269.6 240.2,267.1 224.1,247.9 208.9,250.2 			"/>
			<polygon class="st1" points="255.7,264.6 240.2,267.1 224.1,247.9 239.3,245.5 			"/>
			<polygon class="st1" points="255.7,264.6 271.1,262.2 254.3,243.2 239.3,245.5 			"/>
			<polygon class="st1" points="286.5,259.7 271.1,262.2 254.3,243.2 269.4,240.8 			"/>
			<polygon class="st1" points="286.5,259.7 301.5,257.3 284.1,238.6 269.4,240.8 			"/>
			<polygon class="st1" points="316.5,254.9 301.5,257.3 284.1,238.6 298.8,236.3 			"/>
			<polygon class="st1" points="316.5,254.9 331.5,252.5 313.5,234 298.8,236.3 			"/>
			<polygon class="st1" points="346.3,250.1 331.5,252.5 313.5,234 328,231.7 			"/>
			<polygon class="st1" points="346.3,250.1 361.3,247.7 342.7,229.5 328,231.7 			"/>
			<polygon class="st1" points="383,244.2 361.3,247.7 342.7,229.5 363.9,226.1 			"/>
			<polygon class="st1" points="383,244.2 390.3,243 383.6,236.8 376.4,237.9 			"/>
			<polygon class="st1" points="370.1,232 377.3,230.8 383.6,236.8 376.4,237.9 			"/>
			<polygon class="st1" points="405.6,226.4 377.3,230.8 390.3,243 419,238.4 			"/>
			<polygon class="st1" points="405.6,226.4 419.6,224.2 433.2,236.2 419,238.4 			"/>
			<polygon class="st1" points="427.1,216.3 413.2,218.5 433.2,236.2 447.3,233.9 			"/>
			<polygon class="st1" points="427.1,216.3 440.9,214.2 461.5,231.6 447.3,233.9 			"/>
			<polygon class="st1" points="454.9,212 440.9,214.2 468.3,237.4 482.7,235.1 			"/>
			<polygon class="st1" points="497.5,247.4 475.8,251 461.2,238.6 482.7,235.1 			"/>
			<polygon class="st1" points="497.5,247.4 475.8,251 498,270.1 520.2,266.3 			"/>
			<polygon class="st1" points="475.7,258.4 468.5,252.2 454.1,254.6 475.9,273.9 487,272 490.7,271.4 498,270.1 482.9,257.2 			"/>
			<polygon class="st1" points="439.6,257 454.1,254.6 475.9,273.9 461.2,276.4 			"/>
			<polygon class="st1" points="439.6,257 425,259.4 446.3,279 461.2,276.4 			"/>
			<polygon class="st1" points="396.7,249.1 411.1,246.7 446.3,279 431.3,281.6 			"/>
			<polygon class="st1" points="396.7,249.1 382.2,251.4 416.3,284.2 431.3,281.6 			"/>
			<polygon class="st1" points="381.5,259.1 374.8,252.6 367.5,253.8 401.1,286.8 405.4,286 408.7,285.5 416.3,284.2 388.9,257.9 
							"/>
			<polygon class="st1" points="352.4,256.2 367.5,253.8 401.1,286.8 385.5,289.4 			"/>
			<polygon class="st1" points="352.4,256.2 337.6,258.7 370.1,292.1 385.5,289.4 			"/>
			<polygon class="st1" points="322.4,261.1 337.6,258.7 370.1,292.1 354.4,294.8 			"/>
			<polygon class="st1" points="322.4,261.1 307.3,263.6 338.7,297.5 354.4,294.8 			"/>
			<polygon class="st1" points="292.2,266 307.3,263.6 338.7,297.5 323,300.1 			"/>
			<polygon class="st1" points="292.2,266 276.7,268.5 307,302.9 323,300.1 			"/>
			<polygon class="st1" points="261.2,271 276.7,268.5 307,302.9 290.9,305.7 			"/>
			<polygon class="st1" points="261.2,271 245.5,273.6 274.7,308.4 290.9,305.7 			"/>
			<polygon class="st1" points="229.9,276.1 245.5,273.6 274.7,308.4 258.5,311.2 			"/>
			<polygon class="st1" points="229.9,276.1 214.1,278.7 242,314 258.5,311.2 			"/>
			<polygon class="st1" points="197.6,281.3 214.1,278.7 242,314 224.9,317 			"/>
			<polygon class="st1" points="213.4,301.9 199.1,304.3 210.4,319.5 224.9,317 			"/>
			<polygon class="st1" points="186.2,306.5 199.1,304.3 210.4,319.5 197.3,321.7 			"/>
			<polygon class="st1" points="186.2,306.5 174,308.5 184.9,323.8 197.3,321.7 			"/>
			<polygon class="st1" points="161.2,310.7 174,308.5 184.9,323.8 171.9,326.1 			"/>
			<polygon class="st1" points="161.2,310.7 148.7,312.8 159.1,328.3 171.9,326.1 			"/>
			<polygon class="st1" points="124.4,316.9 148.7,312.8 159.1,328.3 134.4,332.5 			"/>
			<polygon class="st1" points="124.4,316.9 141.9,313.9 134.9,303.4 117.5,306.2 			"/>
			<polygon class="st1" points="110.4,295.1 127.6,292.4 134.9,303.4 117.5,306.2 			"/>
			<polygon class="st1" points="197.6,281.3 166.8,286.3 177.2,300.7 208.5,295.5 			"/>
			<polygon class="st1" points="158.4,287.7 166.8,286.3 174.4,296.9 165.9,298.3 			"/>
			<polygon class="st1" points="454.1,247.1 468.4,244.8 461.2,238.6 447,240.9 			"/>
			<polygon class="st1" points="454.1,247.1 446.9,248.3 439.9,242.1 447,240.9 			"/>
			<polygon class="st1" points="147.1,270.8 151.1,270.2 158.3,280.3 154.3,280.9 			"/>
		</g>
		<polygon class="st2" ng-class="{'pulsate': $ctrl.company.comproom == '4081'}" points="127.5,292.4 110.4,295.1 93.1,268.2 109.6,265.7 		"/>
		<polygon class="st2" ng-class="{'pulsate': $ctrl.company.comproom == '4085'}" points="123.2,285.9 137.9,283.6 124.1,263.4 109.6,265.7 		"/>
		<polygon class="st2" ng-class="{'pulsate': $ctrl.company.comproom == '4087'}" points="154.3,280.9 137.9,283.6 124.1,263.4 140.1,260.9 		"/>
		<polygon class="st2" points="147.1,270.8 151.1,270.2 144,260.3 140.1,260.9 		"/>
		<polygon class="st2" points="170.3,278.4 158.3,280.3 144,260.3 155.7,258.5 		"/>
		<polygon class="st2" points="170.3,278.4 201,273.4 185.7,253.9 155.7,258.5 		"/>
		<polygon class="st2" points="208.9,272.2 201,273.4 185.7,253.9 193.5,252.6 		"/>
		<polygon class="st2" points="208.9,272.2 216.6,270.9 211.1,264.2 203.6,265.4 		"/>
		<polygon class="st2" points="204.1,251 201,251.5 193.5,252.6 203.6,265.4 211.1,264.2 216.6,270.9 224.6,269.6 208.9,250.2 		"/>
		<polygon class="st2" points="224.6,269.6 240.2,267.1 224.1,247.9 208.9,250.2 		"/>
		<polygon class="st2" ng-class="{'pulsate': $ctrl.company.comproom == '4007'}" points="255.7,264.6 240.2,267.1 224.1,247.9 239.3,245.5 		"/>
		<polygon class="st2" ng-class="{'pulsate': $ctrl.company.comproom == '4009'}" points="255.7,264.6 271.1,262.2 254.3,243.2 239.3,245.5 		"/>
		<polygon class="st2" ng-class="{'pulsate': $ctrl.company.comproom == '4011'}" points="286.5,259.7 271.1,262.2 254.3,243.2 269.4,240.8 		"/>
		<polygon class="st2" ng-class="{'pulsate': $ctrl.company.comproom == '4013'}" points="286.5,259.7 301.5,257.3 284.1,238.6 269.4,240.8 		"/>
		<polygon class="st2" ng-class="{'pulsate': $ctrl.company.comproom == '4014'}"  points="316.5,254.9 301.5,257.3 284.1,238.6 298.8,236.3 		"/>
		<polygon class="st2" ng-class="{'pulsate': $ctrl.company.comproom == '4015'}"  points="316.5,254.9 331.5,252.5 313.5,234 298.8,236.3 		"/>
		<polygon class="st2" ng-class="{'pulsate': $ctrl.company.comproom == '4016'}" points="346.3,250.1 331.5,252.5 313.5,234 328,231.7 		"/>
		<polygon class="st2" ng-class="{'pulsate': $ctrl.company.comproom == '4017'}" points="346.3,250.1 361.3,247.7 342.7,229.5 328,231.7 		"/>
		<polygon class="st2" ng-class="{'pulsate': $ctrl.company.comproom == '4019'}" points="383,244.2 361.3,247.7 342.7,229.5 363.9,226.1 		"/>
		<polygon class="st2" points="383,244.2 390.3,243 383.6,236.8 376.4,237.9 		"/>
		<polygon class="st2" points="370.1,232 377.3,230.8 383.6,236.8 376.4,237.9 		"/>
		<polygon class="st2" points="405.6,226.4 377.3,230.8 390.3,243 419,238.4 		"/>
		<polygon class="st2" points="405.6,226.4 419.6,224.2 433.2,236.2 419,238.4 		"/>
		<polygon class="st2" ng-class="{'pulsate': $ctrl.company.comproom == '4021'}" points="427.1,216.3 413.2,218.5 433.2,236.2 447.3,233.9 		"/>
		<polygon class="st2" ng-class="{'pulsate': $ctrl.company.comproom == '4023'}" points="427.1,216.3 440.9,214.2 461.5,231.6 447.3,233.9 		"/>
		<polygon class="st2" ng-class="{'pulsate': $ctrl.company.comproom == '4025'}" points="454.9,212 440.9,214.2 468.3,237.4 482.7,235.1 		"/>
		<polygon class="st2" ng-class="{'pulsate': $ctrl.company.comproom == '4029'}" points="497.5,247.4 475.8,251 461.2,238.6 482.7,235.1 		"/>
		<polygon class="st2" ng-class="{'pulsate': $ctrl.company.comproom == '4031'}" points="497.5,247.4 475.8,251 498,270.1 520.2,266.3 		"/>
		<polygon class="st2" ng-class="{'pulsate': $ctrl.company.comproom == '4033'}" points="475.7,258.4 468.5,252.2 454.1,254.6 475.9,273.9 487,272 490.7,271.4 498,270.1 482.9,257.2 		"/>
		<polygon class="st2" ng-class="{'pulsate': $ctrl.company.comproom == '4037'}" points="439.6,257 454.1,254.6 475.9,273.9 461.2,276.4 		"/>
		<polygon class="st2" ng-class="{'pulsate': $ctrl.company.comproom == '4038'}" points="439.6,257 425,259.4 446.3,279 461.2,276.4 		"/>
		<polygon class="st2" ng-class="{'pulsate': $ctrl.company.comproom == '4039'}" points="396.7,249.1 411.1,246.7 446.3,279 431.3,281.6 		"/>
		<polygon class="st2" ng-class="{'pulsate': $ctrl.company.comproom == '4040'}" points="396.7,249.1 382.2,251.4 416.3,284.2 431.3,281.6 		"/>
		<polygon class="st2" ng-class="{'pulsate': $ctrl.company.comproom == '4041'}" points="381.5,259.1 374.8,252.6 367.5,253.8 401.1,286.8 405.4,286 408.7,285.5 416.3,284.2 388.9,257.9 		"/>
		<polygon class="st2" ng-class="{'pulsate': $ctrl.company.comproom == '4042'}" points="352.4,256.2 367.5,253.8 401.1,286.8 385.5,289.4 		"/>
		<polygon class="st2" ng-class="{'pulsate': $ctrl.company.comproom == '4043'}" points="352.4,256.2 337.6,258.7 370.1,292.1 385.5,289.4 		"/>
		<polygon class="st2" ng-class="{'pulsate': $ctrl.company.comproom == '4044'}" points="322.4,261.1 337.6,258.7 370.1,292.1 354.4,294.8 		"/>
		<polygon class="st2" ng-class="{'pulsate': $ctrl.company.comproom == '4045'}" points="322.4,261.1 307.3,263.6 338.7,297.5 354.4,294.8 		"/>
		<polygon class="st2" ng-class="{'pulsate': $ctrl.company.comproom == '4046'}" points="292.2,266 307.3,263.6 338.7,297.5 323,300.1 		"/>
		<polygon class="st2" ng-class="{'pulsate': $ctrl.company.comproom == '4047'}" points="292.2,266 276.7,268.5 307,302.9 323,300.1 		"/>
		<polygon class="st2" ng-class="{'pulsate': $ctrl.company.comproom == '4049'}" points="261.2,271 276.7,268.5 307,302.9 290.9,305.7 		"/>
		<polygon class="st2" ng-class="{'pulsate': $ctrl.company.comproom == '4051'}" points="261.2,271 245.5,273.6 274.7,308.4 290.9,305.7 		"/>
		<polygon class="st2" ng-class="{'pulsate': $ctrl.company.comproom == '4052'}" points="229.9,276.1 245.5,273.6 274.7,308.4 258.5,311.2 		"/>
		<polygon class="st2" ng-class="{'pulsate': $ctrl.company.comproom == '4053'}" points="229.9,276.1 214.1,278.7 242,314 258.5,311.2 		"/>
		<polygon class="st2" ng-class="{'pulsate': $ctrl.company.comproom == '4054'}" points="197.6,281.3 214.1,278.7 242,314 224.9,317 		"/>
		<polygon class="st2" ng-class="{'pulsate': $ctrl.company.comproom == '4065'}" points="213.4,301.9 199.1,304.3 210.4,319.5 224.9,317 		"/>
		<polygon class="st2" ng-class="{'pulsate': $ctrl.company.comproom == '4067'}" points="186.2,306.5 199.1,304.3 210.4,319.5 197.3,321.7 		"/>
		<polygon class="st2" ng-class="{'pulsate': $ctrl.company.comproom == '4069'}" points="186.2,306.5 174,308.5 184.9,323.8 197.3,321.7 		"/>
		<polygon class="st2" ng-class="{'pulsate': $ctrl.company.comproom == '4071'}" points="161.2,310.7 174,308.5 184.9,323.8 171.9,326.1 		"/>
		<polygon class="st2" ng-class="{'pulsate': $ctrl.company.comproom == '4073'}" points="161.2,310.7 148.7,312.8 159.1,328.3 171.9,326.1 		"/>
		<polygon class="st2" ng-class="{'pulsate': $ctrl.company.comproom == '4073'}" points="124.4,316.9 148.7,312.8 159.1,328.3 134.4,332.5 		"/>
		<polygon class="st2" ng-class="{'pulsate': $ctrl.company.comproom == '4075'}" points="124.4,316.9 141.9,313.9 134.9,303.4 117.5,306.2 		"/>
		<polygon class="st2" ng-class="{'pulsate': $ctrl.company.comproom == '4077'}" points="110.4,295.1 127.6,292.4 134.9,303.4 117.5,306.2 		"/>
		<polygon class="st2" ng-class="{'pulsate': $ctrl.company.comproom == '4079'}" points="197.6,281.3 166.8,286.3 177.2,300.7 208.5,295.5 		"/>
		<polygon class="st2" points="158.4,287.7 166.8,286.3 174.4,296.9 165.9,298.3 		"/>
		<polygon class="st2" points="454.1,247.1 468.4,244.8 461.2,238.6 447,240.9 		"/>
		<polygon class="st2" points="454.1,247.1 446.9,248.3 439.9,242.1 447,240.9 		"/>
		<polygon class="st2" points="147.1,270.8 151.1,270.2 158.3,280.3 154.3,280.9 		"/>
		<polygon class="st4" points="363.6,227.2 95.8,268.8 94.8,267.2 363.6,225.5 		"/>
		<polygon class="st5" points="134.4,332.5 93.1,268.2 93.1,266.5 134.4,330.7 		"/>
		<polygon class="st5" points="139.2,311.6 109.2,266.8 109.2,265 140.3,311.4 		"/>
		<polygon class="st5" points="136.2,282.8 123.6,264.5 123.6,262.8 136.2,281.1 		"/>
		<polygon class="st4" points="372.2,230.9 419.3,223.5 419.3,225.2 373.8,232.4 		"/>
		<polygon class="st4" points="415.4,217.4 454.6,211.3 454.6,213.1 417.1,218.9 		"/>
		<polygon class="st5" points="152.5,280.2 139.6,262 139.6,260.3 152.5,278.4 		"/>
		<polygon class="st5" points="156.6,279.5 143.6,261.4 143.6,259.7 156.6,277.8 		"/>
		<polygon class="st5" points="168.5,277.6 155.2,259.6 155.2,257.8 168.5,275.9 		"/>
		<polygon class="st5" points="199.1,272.7 185.3,254.9 185.3,253.2 199.1,271 		"/>
		<polygon class="st5" points="207.1,271.4 193.1,253.7 193.1,252 207.1,269.7 		"/>
		<polygon class="st5" points="214.7,270.2 210.7,265.2 210.7,263.5 214.7,268.5 		"/>
		<polygon class="st5" points="222.8,268.9 208.5,251.3 208.5,249.6 222.8,267.2 		"/>
		<polygon class="st5" points="238.3,266.4 223.7,249 223.7,247.2 238.3,264.7 		"/>
		<polygon class="st5" points="253.5,264 238.9,246.6 238.9,244.8 253.8,262.2 		"/>
		<polygon class="st5" points="269.1,261.5 253.9,244.3 253.9,242.5 269.1,259.7 		"/>
		<polygon class="st5" points="284.5,259 269,241.9 269,240.2 284.5,257.3 		"/>
		<polygon class="st5" points="299.5,256.6 283.7,239.6 283.7,237.9 299.5,254.9 		"/>
		<polygon class="st5" points="314.5,254.2 298.5,237.3 298.5,235.6 314.5,252.4 		"/>
		<polygon class="st5" points="329.5,251.8 313.2,235.1 313.2,233.3 329.5,250 		"/>
		<polygon class="st5" points="344.2,249.4 327.7,232.8 327.7,231.1 344.2,247.7 		"/>
		<polygon class="st5" points="359.1,247 342.3,230.5 342.3,228.8 359.1,245.3 		"/>
		<polygon class="st5" points="380.8,243.6 363.6,227.2 363.6,225.5 380.8,241.8 		"/>
		<polygon class="st5" points="388.1,242.4 377,231.9 377,230.1 388.1,240.6 		"/>
		<polygon class="st5" points="416.8,237.8 405.3,227.4 405.3,225.7 416.8,236 		"/>
		<polygon class="st5" points="430.9,235.5 419.3,225.2 419.3,223.5 430.9,233.8 		"/>
		<polygon class="st4" points="161.3,288.3 160.2,286.7 374.5,251.9 374.5,253.7 		"/>
		<polygon class="st5" points="417.9,222.7 413.2,218.5 413.2,216.7 419.6,222.4 		"/>
		<polygon class="st5" points="445.1,233.2 426.7,217.4 426.7,215.6 445.1,231.5 		"/>
		<polygon class="st5" points="459.2,231 440.6,215.2 440.6,213.5 459.2,229.2 		"/>
		<polygon class="st5" points="468.3,237.4 461.5,231.6 461.5,229.9 468.3,235.7 		"/>
		<polygon class="st4" points="428.7,259.8 427.1,258.3 468.2,251.5 468.2,253.3 		"/>
		<polygon class="st4" points="385.9,251.8 384.3,250.3 410.8,246 410.8,247.8 		"/>
		<polygon class="st4" points="381.2,260.2 381.2,258.4 388.6,257.2 388.6,258.9 		"/>
		<polygon class="st5" points="446.9,248.3 439.9,242.1 439.9,240.3 446.9,246.5 		"/>
		<polygon class="st5" points="482.9,257.2 468.4,244.8 468.4,243 482.9,255.4 		"/>
		<polygon class="st5" points="495.8,269.5 482.6,258.2 482.6,256.5 495.8,267.8 		"/>
		<polygon class="st5" points="475.4,259.5 468.2,253.3 468.2,251.5 475.4,257.7 		"/>
		<polygon class="st5" points="473.7,273.3 453.7,255.7 453.7,253.9 473.7,271.5 		"/>
		<polygon class="st5" points="459,275.8 439.3,258 439.3,256.3 459,274.1 		"/>
		<polygon class="st5" points="444.1,278.4 410.8,247.8 410.8,246 444.1,276.6 		"/>
		<polygon class="st5" points="429.2,280.9 396.4,250.1 396.4,248.4 429.2,279.2 		"/>
		<polygon class="st5" points="388.9,257.9 382.2,251.4 382.2,249.7 388.9,256.1 		"/>
		<polygon class="st5" points="381.2,260.2 374.5,253.7 374.5,251.9 381.2,258.4 		"/>
		<polygon class="st5" points="414.2,283.5 388.6,258.9 388.6,257.2 414.2,281.8 		"/>
		<polygon class="st5" points="399,286.1 367.1,254.9 367.1,253.1 399,284.4 		"/>
		<polygon class="st5" points="383.4,288.8 352.1,257.3 352.1,255.6 383.4,287 		"/>
		<polygon class="st5" points="368,291.4 337.2,259.7 337.2,258 368,289.7 		"/>
		<polygon class="st5" points="352.4,294.1 322.1,262.2 322.1,260.4 352.4,292.3 		"/>
		<polygon class="st5" points="336.7,296.8 306.9,264.6 306.9,262.9 336.7,295 		"/>
		<polygon class="st5" points="321.1,299.5 291.8,267.1 291.8,265.3 321.1,297.7 		"/>
		<polygon class="st5" points="305.1,302.2 276.3,269.6 276.3,267.9 305.1,300.5 		"/>
		<polygon class="st5" points="289,305 260.8,272.1 260.8,270.4 289,303.2 		"/>
		<polygon class="st5" points="272.8,307.8 245.1,274.7 245.1,272.9 272.8,306 		"/>
		<polygon class="st5" points="256.6,310.5 229.5,277.2 229.5,275.4 256.6,308.8 		"/>
		<polygon class="st4" points="127.1,317.4 126,315.9 213,301.3 213,303 		"/>
		<polygon class="st5" points="240.2,313.3 213.7,279.8 213.7,278 240.2,311.6 		"/>
		<polygon class="st5" points="206.7,294.8 197.2,282.4 197.2,280.7 206.7,293 		"/>
		<polygon class="st5" points="213.4,301.9 208.5,295.5 208.5,293.7 213.4,300.2 		"/>
		<polygon class="st5" points="223.1,316.3 213,303 213,301.3 223.1,314.5 		"/>
		<polygon class="st5" points="208.6,318.8 198.7,305.4 198.7,303.7 208.6,317 		"/>
		<polygon class="st5" points="195.5,321 185.8,307.6 185.8,305.8 195.5,319.3 		"/>
		<polygon class="st5" points="183.2,323.1 173.6,309.6 173.6,307.9 183.2,321.4 		"/>
		<polygon class="st5" points="170.2,325.4 160.8,311.8 160.8,310 170.2,323.6 		"/>
		<polygon class="st5" points="157.4,327.5 148.2,313.9 148.2,312.1 157.4,325.8 		"/>
		<polygon class="st5" points="172.7,296.1 166.4,287.4 166.4,285.7 172.7,294.4 		"/>
		<polygon class="st5" points="165.9,298.3 158.4,287.7 158.4,286 165.9,296.5 		"/>
		<polygon class="st5" points="177.2,300.7 174.4,296.9 174.4,295.1 177.2,298.9 		"/>
		<polygon class="st5" points="517.9,265.7 454.6,213.1 454.6,211.3 517.9,264 		"/>
		<polygon class="st4" points="443.8,242.4 442.1,241 482.4,234.4 482.4,236.2 		"/>
		<polygon class="st4" points="479.7,251.4 478,249.9 497.2,246.8 497.2,248.5 		"/>
		<polygon class="st4" points="475.4,259.5 475.4,257.7 482.6,256.5 482.6,258.2 		"/>
		<polygon class="st4" points="461.5,231.6 124.2,285.8 123.2,284.2 461.5,229.9 		"/>
		<polygon class="st4" points="380.1,238.3 378.5,236.8 383.3,236.1 383.3,237.8 		"/>
		<polygon class="st4" points="210.7,263.5 210.7,265.2 206.6,265.9 205.4,264.3 		"/>
		<polygon class="st4" points="150.6,269.5 150.6,271.3 149.9,271.4 148.8,269.8 		"/>
		<polygon class="st5" points="466.1,244.1 460.9,239.7 460.9,237.9 466.1,242.4 		"/>
		<polygon class="st5" points="451.8,246.5 446.7,242 446.7,240.2 451.8,244.7 		"/>
		<polygon class="st4" points="165.9,298.3 165.9,296.5 174.4,295.1 174.4,296.9 		"/>
		<polygon class="st4" points="177.2,300.7 177.2,298.9 208.5,293.7 208.5,295.5 		"/>
		<polygon class="st4" points="113.1,295.7 112.1,294.1 127.1,291.7 127.1,293.5 		"/>
		<polygon class="st4" points="120.2,306.8 119.2,305.2 134.4,302.7 134.4,304.5 		"/>
		<polygon class="st4" points="134.4,332.5 134.4,330.7 520.2,264.6 520.2,266.3 		"/>
		<polygon class="st4" points="446.9,248.3 446.9,246.5 468.4,243 468.4,244.8 		"/>
		<g>
			<path class="st0" d="M109.2,265l16.6,24.9l-14.9,2.4l-16.1-25.1L109.2,265 M109.6,263.9l-16.5,2.6l17.3,26.9l17.1-2.8
				L109.6,263.9L109.6,263.9z"/>
			<path class="st0" d="M123.6,262.8l12.6,18.3l-12.6,2l-12.3-18.4L123.6,262.8 M124.1,261.7l-14.4,2.2l13.5,20.2l14.8-2.4
				L124.1,261.7L124.1,261.7z"/>
			<path class="st0" d="M139.6,260.3l12.9,18.2l-14.1,2.3l-12.6-18.3L139.6,260.3 M140.1,259.2l-16,2.5l13.8,20.1l16.3-2.6
				L140.1,259.2L140.1,259.2z"/>
			<path class="st0" d="M143.6,259.7l5.8,8l-1.8,0.3l-5.7-8L143.6,259.7 M144,258.6l-4,0.6l7,9.9l4-0.6L144,258.6L144,258.6z"/>
			<path class="st0" d="M155.2,257.8l13.2,18l-9.7,1.6l-13-18.1L155.2,257.8 M155.7,256.8l-11.7,1.8l14.3,19.9l11.9-1.9L155.7,256.8
				L155.7,256.8z"/>
			<path class="st0" d="M185.3,253.2l13.8,17.8l-28.4,4.6l-13.2-18L185.3,253.2 M185.7,252.1l-30,4.7l14.6,19.8l30.7-4.9
				L185.7,252.1L185.7,252.1z"/>
			<path class="st0" d="M193.1,252l14,17.7l-5.7,0.9l-13.8-17.8L193.1,252 M193.5,250.9l-7.8,1.2l15.2,19.6l8-1.3L193.5,250.9
				L193.5,250.9z"/>
			<path class="st0" d="M210.7,263.5l4,5l-5.4,0.9l-3.9-5L210.7,263.5 M211.1,262.4l-7.6,1.2l5.4,6.8l7.6-1.2L211.1,262.4
				L211.1,262.4z"/>
			<path class="st0" d="M208.5,249.6l14.3,17.6l-5.8,0.9l-5.1-6.3l-0.4-0.5l-0.6,0.1l-7,1.1l-8.6-10.9l5.8-0.9l3.1-0.5L208.5,249.6
				 M208.9,248.5l-4.8,0.7l-3.1,0.5l-7.5,1.2l10.1,12.7l7.6-1.2l5.4,6.8l8.1-1.3L208.9,248.5L208.9,248.5z"/>
			<path class="st0" d="M223.7,247.2l14.6,17.5l-13.2,2.1l-14.3-17.6L223.7,247.2 M224.1,246.1l-15.2,2.4l15.8,19.4l15.5-2.5
				L224.1,246.1L224.1,246.1z"/>
			<path class="st0" d="M238.9,244.8l14.9,17.3l-13.2,2.1L226,246.9L238.9,244.8 M239.3,243.8l-15.2,2.4l16.1,19.3l15.6-2.5
				L239.3,243.8L239.3,243.8z"/>
			<path class="st0" d="M253.9,242.5l15.2,17.2l-13,2.1l-14.9-17.3L253.9,242.5 M254.3,241.4l-15,2.3l16.4,19.1l15.4-2.5
				L254.3,241.4L254.3,241.4z"/>
			<path class="st0" d="M269,240.2l15.5,17.1l-13,2.1l-15.2-17.2L269,240.2 M269.4,239.1l-15.1,2.3l16.7,19l15.4-2.5L269.4,239.1
				L269.4,239.1z"/>
			<path class="st0" d="M283.7,237.9l15.8,17l-12.6,2l-15.5-17.1L283.7,237.9 M284.1,236.8l-14.7,2.3l17.1,18.9l15-2.4L284.1,236.8
				L284.1,236.8z"/>
			<path class="st0" d="M298.5,235.6l16,16.9l-12.6,2l-15.7-17L298.5,235.6 M298.8,234.5l-14.7,2.3l17.4,18.7l15-2.4L298.8,234.5
				L298.8,234.5z"/>
			<path class="st0" d="M313.2,233.3l16.3,16.7l-12.6,2l-16-16.9L313.2,233.3 M313.5,232.2l-14.7,2.3l17.7,18.6l15-2.4L313.5,232.2
				L313.5,232.2z"/>
			<path class="st0" d="M327.7,231.1l16.6,16.6l-12.3,2l-16.3-16.7L327.7,231.1 M328,230l-14.5,2.2l18,18.5l14.8-2.4L328,230
				L328,230z"/>
			<path class="st0" d="M342.3,228.8l16.8,16.5l-12.5,2l-16.6-16.6L342.3,228.8 M342.7,227.7L328,230l18.3,18.4l14.9-2.4
				L342.7,227.7L342.7,227.7z"/>
			<path class="st0" d="M363.6,225.5l17.2,16.3l-19.2,3.1l-16.8-16.5L363.6,225.5 M363.9,224.4l-21.3,3.3l18.6,18.2l21.7-3.5
				L363.9,224.4L363.9,224.4z"/>
			<path class="st0" d="M383.3,236.1l4.8,4.5l-4.8,0.8l-4.8-4.6L383.3,236.1 M383.6,235l-7.3,1.2l6.6,6.3l7.3-1.2L383.6,235
				L383.6,235z"/>
			<path class="st0" d="M377,230.1l4.5,4.2l-4.8,0.8l-4.5-4.2L377,230.1 M377.3,229.1l-7.2,1.1l6.3,6l7.3-1.2L377.3,229.1
				L377.3,229.1z"/>
			<path class="st0" d="M405.3,225.7l11.5,10.3l-26.2,4.2l-11.2-10.5L405.3,225.7 M405.6,224.6l-28.3,4.5l13,12.2l28.7-4.6
				L405.6,224.6L405.6,224.6z"/>
			<path class="st0" d="M419.3,223.5l11.6,10.3l-11.6,1.9l-11.5-10.3L419.3,223.5 M419.6,222.4l-14,2.2l13.4,12.1l14.1-2.3
				L419.6,222.4L419.6,222.4z"/>
			<path class="st0" d="M426.7,215.6l18.3,15.8l-11.6,1.9l-18.1-15.9L426.7,215.6 M427.1,214.6l-13.9,2.2l20,17.7l14.2-2.3
				L427.1,214.6L427.1,214.6z"/>
			<path class="st0" d="M440.6,213.5l18.5,15.7l-11.5,1.9l-18.3-15.8L440.6,213.5 M440.9,212.4l-13.9,2.2l20.3,17.5l14.1-2.3
				L440.9,212.4L440.9,212.4z"/>
			<path class="st0" d="M454.6,211.3l25.7,21.4l-11.7,1.9l-25.4-21.5L454.6,211.3 M454.9,210.3l-14,2.2l27.4,23.3l14.3-2.3
				L454.9,210.3L454.9,210.3z"/>
			<path class="st0" d="M482.4,234.4l12.8,10.6l-19.1,3.2l-12.5-10.7L482.4,234.4 M482.7,233.4l-21.4,3.5l14.5,12.4l21.7-3.6
				L482.7,233.4L482.7,233.4z"/>
			<path class="st0" d="M497.2,246.8l20.7,17.2l-19.5,3.3L478,249.9L497.2,246.8 M497.5,245.7l-21.7,3.6l22.3,19.1l22.1-3.8
				L497.5,245.7L497.5,245.7z"/>
			<path class="st0" d="M468.2,251.5l6.8,5.9l0.4,0.3l0.5-0.1l6.8-1.1l13.1,11.3l-5.3,0.9l-3.7,0.6l-10.6,1.8l-20-17.6L468.2,251.5
				 M468.5,250.4l-14.4,2.4l21.9,19.3l11-1.9l3.7-0.6l7.4-1.3l-15.1-12.9l-7.3,1.2L468.5,250.4L468.5,250.4z"/>
			<path class="st0" d="M453.7,253.9l20,17.6l-12.2,2.1l-19.7-17.7L453.7,253.9 M454.1,252.8l-14.4,2.4l21.6,19.5l14.7-2.5
				L454.1,252.8L454.1,252.8z"/>
			<path class="st0" d="M439.3,256.3l19.7,17.8l-12.5,2.1l-19.4-17.9L439.3,256.3 M439.6,255.2l-14.7,2.4l21.3,19.6l15-2.6
				L439.6,255.2L439.6,255.2z"/>
			<path class="st0" d="M410.8,246l33.3,30.6l-12.4,2.1L398.9,248L410.8,246 M411.1,245l-14.4,2.3l34.6,32.5l14.9-2.6L411.1,245
				L411.1,245z"/>
			<path class="st0" d="M396.4,248.4l32.8,30.8l-12.6,2.2l-32.3-31L396.4,248.4 M396.7,247.3l-14.5,2.4l34.1,32.7l15-2.6
				L396.7,247.3L396.7,247.3z"/>
			<path class="st0" d="M374.5,251.9l6.3,6.1l0.4,0.4l0.5-0.1l6.9-1.1l25.6,24.6l-5.6,1l-3.3,0.6l-3.9,0.7l-31.8-31.2L374.5,251.9
				 M374.8,250.9l-7.4,1.2l33.6,33l4.4-0.8l3.3-0.6l7.6-1.3l-27.4-26.3l-7.4,1.2L374.8,250.9L374.8,250.9z"/>
			<path class="st0" d="M367.1,253.1l31.8,31.2l-13.1,2.3l-31.3-31.4L367.1,253.1 M367.5,252.1l-15,2.4l33.1,33.2l15.6-2.7
				L367.5,252.1L367.5,252.1z"/>
			<path class="st0" d="M352.1,255.6l31.3,31.5l-13,2.2l-30.8-31.7L352.1,255.6 M352.4,254.5l-14.9,2.4l32.5,33.4l15.4-2.6
				L352.4,254.5L352.4,254.5z"/>
			<path class="st0" d="M337.2,258l30.8,31.7l-13.3,2.3L324.5,260L337.2,258 M337.6,256.9l-15.1,2.5l32,33.7l15.7-2.7L337.6,256.9
				L337.6,256.9z"/>
			<path class="st0" d="M322.1,260.4l30.3,31.9l-13.3,2.3l-29.8-32.1L322.1,260.4 M322.4,259.4l-15.1,2.5l31.4,33.9l15.7-2.7
				L322.4,259.4L322.4,259.4z"/>
			<path class="st0" d="M306.9,262.9l29.8,32.1l-13.3,2.3L294.1,265L306.9,262.9 M307.3,261.8l-15.1,2.5l30.9,34.1l15.7-2.7
				L307.3,261.8L307.3,261.8z"/>
			<path class="st0" d="M291.8,265.3l29.3,32.4l-13.7,2.4l-28.7-32.6L291.8,265.3 M292.2,264.3l-15.5,2.5l30.3,34.4l16.1-2.8
				L292.2,264.3L292.2,264.3z"/>
			<path class="st0" d="M276.3,267.9l28.8,32.6l-13.7,2.4L263.1,270L276.3,267.9 M276.7,266.8l-15.5,2.5l29.7,34.6l16.1-2.8
				L276.7,266.8L276.7,266.8z"/>
			<path class="st0" d="M260.8,270.4l28.2,32.9l-14,2.4l-27.6-33.1L260.8,270.4 M261.2,269.3l-15.7,2.5l29.1,34.9l16.3-2.8
				L261.2,269.3L261.2,269.3z"/>
			<path class="st0" d="M245.1,272.9l27.7,33.1l-13.9,2.4l-27.1-33.3L245.1,272.9 M245.5,271.8l-15.6,2.5l28.5,35.1l16.2-2.8
				L245.5,271.8L245.5,271.8z"/>
			<path class="st0" d="M229.5,275.4l27.1,33.3l-14.2,2.4l-26.5-33.6L229.5,275.4 M229.9,274.4l-15.8,2.6l27.9,35.4l16.4-2.8
				L229.9,274.4L229.9,274.4z"/>
			<path class="st0" d="M213.7,278l26.5,33.6l-14.8,2.5l-25.9-33.8L213.7,278 M214.1,276.9l-16.4,2.7l27.3,35.6l17.1-2.9
				L214.1,276.9L214.1,276.9z"/>
			<path class="st0" d="M213,301.3l10.1,13.2l-12.3,2.1l-9.9-13.3L213,301.3 M213.4,300.2l-14.3,2.4l11.3,15.1l14.5-2.5L213.4,300.2
				L213.4,300.2z"/>
			<path class="st0" d="M198.7,303.7l9.9,13.3l-10.9,1.9l-9.8-13.4L198.7,303.7 M199.1,302.6l-12.9,2.2l11.1,15.2l13.1-2.2
				L199.1,302.6L199.1,302.6z"/>
			<path class="st0" d="M185.8,305.8l9.8,13.4l-10.2,1.7l-9.6-13.5L185.8,305.8 M186.2,304.8l-12.2,2l10.9,15.3l12.4-2.1
				L186.2,304.8L186.2,304.8z"/>
			<path class="st0" d="M173.6,307.9l9.6,13.5l-10.8,1.9l-9.4-13.6L173.6,307.9 M174,306.8l-12.8,2.1l10.7,15.4l13-2.2L174,306.8
				L174,306.8z"/>
			<path class="st0" d="M160.8,310l9.4,13.6l-10.6,1.8l-9.2-13.6L160.8,310 M161.2,308.9l-12.6,2.1l10.5,15.5l12.8-2.2L161.2,308.9
				L161.2,308.9z"/>
			<path class="st0" d="M148.2,312.1l9.2,13.7l-22.5,3.9l-8.9-13.8L148.2,312.1 M148.7,311l-24.3,4.1l10.1,15.6l24.7-4.2L148.7,311
				L148.7,311z"/>
			<path class="st0" d="M134.4,302.7l5.8,8.7l-15.4,2.6l-5.7-8.8L134.4,302.7 M134.9,301.6l-17.4,2.9l6.8,10.6l17.6-2.9L134.9,301.6
				L134.9,301.6z"/>
			<path class="st0" d="M127.1,291.7l6.1,9.2l-15.2,2.5l-6-9.3L127.1,291.7 M127.6,290.6l-17.1,2.8l7.1,11.1l17.4-2.9L127.6,290.6
				L127.6,290.6z"/>
			<path class="st0" d="M197.2,280.7l9.4,12.3l-29,4.8l-9-12.5L197.2,280.7 M197.6,279.6l-30.8,5l10.3,14.3l31.3-5.2L197.6,279.6
				L197.6,279.6z"/>
			<path class="st0" d="M166.4,285.7l6.3,8.7l-6.3,1l-6.2-8.7L166.4,285.7 M166.8,284.6l-8.4,1.4l7.5,10.6l8.5-1.4L166.8,284.6
				L166.8,284.6z"/>
			<path class="st0" d="M460.9,237.9l5.2,4.5l-11.7,1.9l-5.2-4.5L460.9,237.9 M461.2,236.8l-14.2,2.3l7.1,6.2l14.3-2.4L461.2,236.8
				L461.2,236.8z"/>
			<path class="st0" d="M446.7,240.2l5.2,4.5l-4.6,0.8l-5.1-4.5L446.7,240.2 M447,239.2l-7.1,1.2l7.1,6.2l7.2-1.2L447,239.2
				L447,239.2z"/>
			<path class="st0" d="M150.6,269.5l5.9,8.3l-1.8,0.3l-5.9-8.3L150.6,269.5 M151.1,268.4l-4,0.6l7.2,10.1l4-0.6L151.1,268.4
				L151.1,268.4z"/>
		</g>
		<text transform="matrix(1 0 0 1 14.8977 244.3017)" class="st6 st7 st8">Level 4</text>
	</g>
</g>
<g id="Level_5" class="st6">
	<g class="st9">
		<g>
			<g>
				<path class="st0" d="M528.8,174L491,142.1c0,0,0,0,0,0l-28.4-23.7c-1.8-1.5-4.1-2.3-6.4-2.3c-0.5,0-1,0-1.6,0.1l-13.9,2.2
					c0,0,0,0,0,0l-13.6,2.1l-14.1,2.2c-3.9,0.6-7,3.4-8.1,7.1c-0.1,0.4-0.2,0.7-0.2,1.1l-1.8,0.3l-28.2,4.5l-2.3,0.4l-2.7-2.5
					c-1.9-1.8-4.4-2.8-6.9-2.8c-0.5,0-1,0-1.6,0.1l-21.4,3.4l-14.4,2.3l-14.3,2.2l-14.8,2.3l-14.5,2.3l-14.4,2.3l-22.6,3.5
					c0,0,0,0,0,0l-3.4,0.5l-4.1,0.6l-14.7,2.3c0,0,0,0,0,0l-15.2,2.4l-5.6,0.9l-1.9,0.3l-7.6,1.2c-3.5,0.6-6.5,3-7.8,6.3
					c-0.3,0.7-0.5,1.4-0.6,2.2l-25.1,4l-9.3,1.5l-1.1-1.5c-1.9-2.7-5-4.2-8.2-4.2c-0.5,0-1,0-1.6,0.1l-46.9,7.4
					c-3.4,0.5-6.2,2.7-7.6,5.8c-1.4,3.1-1.1,6.7,0.8,9.6l17.9,27.6l24.1,37.1c1.9,2.9,5.1,4.6,8.4,4.6c0.6,0,1.1,0,1.7-0.1
					l75.1-12.8l24.7-4.2l24-4.1l16-2.7l15.9-2.7l15.9-2.7l16.1-2.8l15.4-2.6l15.9-2.7l15.3-2.6l45.8-7.8l15.3-2.6l14.8-2.5l15-2.6
					l14.9-2.5l24.8-4.2l21.8-3.7c3.9-0.7,7-3.5,8-7.3C533.1,180.5,531.8,176.5,528.8,174z"/>
			</g>
		</g>
		<path class="st3" d="M484.5,148.6l-28.4-23.7l-13.9,2.2l-13.6,2.1l-14.1,2.2l6.6,5.9l-2.4,0.4l-14.3,2.3l-28.2,4.5l-7.2,1.1
			l-6.3-6l-21.4,3.4l-14.4,2.3l-14.3,2.2l-14.8,2.3l-14.5,2.3l-14.4,2.3l-22.6,3.5l-3.4,0.5l-4.1,0.6l-20.3,3.2l-9.6,1.5l-5.6,0.9
			l-1.9,0.3l-7.6,1.2l5,6.3l-7.4,1.2l-31.1,4.9l-15.4,2.4l0.8,1.1l-5.5-7.6l-46.9,7.4l17.9,27.6l24.1,37.1l75.1-12.8l24.7-4.2
			l24-4.1l16-2.7l15.9-2.7l15.9-2.7l16.1-2.8l15.4-2.6l15.9-2.7l15.3-2.6l45.8-7.8l15.3-2.6l14.8-2.5l15-2.6l14.9-2.5l24.8-4.2
			l21.8-3.7L484.5,148.6z"/>
		<g>
			<polygon class="st1" points="159.6,201.5 111.3,209.4 93.3,181.8 140.2,174.5 			"/>
			<polygon class="st1" points="183.5,197.6 111.3,209.4 135.4,246.4 210.5,233.6 			"/>
			<polygon class="st1" points="183.5,197.6 207.2,193.8 235.2,229.4 210.5,233.6 			"/>
			<polygon class="st1" points="230.4,190 207.2,193.8 235.2,229.4 259.2,225.3 			"/>
			<polygon class="st1" points="230.4,190 245.8,187.5 275.2,222.6 259.2,225.3 			"/>
			<polygon class="st1" points="261.2,185 245.8,187.5 275.2,222.6 291.2,219.9 			"/>
			<polygon class="st1" points="261.2,185 276.5,182.5 307.1,217.2 291.2,219.9 			"/>
			<polygon class="st1" points="292.1,180 276.5,182.5 307.1,217.2 323.3,214.4 			"/>
			<polygon class="st1" points="292.1,180 306.9,177.5 338.6,211.8 323.3,214.4 			"/>
			<polygon class="st1" points="322.2,175.1 306.9,177.5 338.6,211.8 354.5,209.1 			"/>
			<polygon class="st1" points="322.2,175.1 337,172.6 369.9,206.5 354.5,209.1 			"/>
			<polygon class="st1" points="381.2,165.5 337,172.6 369.9,206.5 415.7,198.7 			"/>
			<polygon class="st1" points="381.2,165.5 395.9,163.1 431,196.1 415.7,198.7 			"/>
			<polygon class="st1" points="410.3,160.7 395.9,163.1 431,196.1 445.8,193.5 			"/>
			<polygon class="st1" points="410.3,160.7 424.7,158.4 460.8,191 445.8,193.5 			"/>
			<polygon class="st1" points="439.1,156 424.7,158.4 460.8,191 475.7,188.5 			"/>
			<polygon class="st1" points="439.1,156 463.1,152.1 500.5,184.2 475.7,188.5 			"/>
			<polygon class="st1" points="484.5,148.6 463.1,152.1 500.5,184.2 522.3,180.5 			"/>
			<polygon class="st1" points="484.5,148.6 470.2,151 442.1,127.1 456.1,124.9 			"/>
			<polygon class="st1" points="449.3,147.2 463.1,144.9 442.1,127.1 428.6,129.3 			"/>
			<polygon class="st1" points="449.3,147.2 434.9,149.5 414.5,131.5 428.6,129.3 			"/>
			<polygon class="st1" points="425.3,143.8 427.9,143.3 421.1,137.3 418.5,137.7 			"/>
			<polygon class="st1" points="425.3,143.8 427.9,143.3 434.9,149.5 432.2,149.9 			"/>
			<polygon class="st1" points="418.5,137.7 404.4,140 417.9,152.2 432.2,149.9 			"/>
			<polygon class="st1" points="376.2,144.4 404.4,140 417.9,152.2 389.3,156.8 			"/>
			<polygon class="st1" points="376.2,144.4 369,145.6 375.5,151.8 382.7,150.6 			"/>
			<polygon class="st1" points="389.3,156.8 382,158 375.5,151.8 382.7,150.6 			"/>
			<polygon class="st1" points="360.1,161.6 382,158 362.7,139.6 341.3,143 			"/>
			<polygon class="st1" points="360.1,161.6 345.4,163.9 326.8,145.2 341.3,143 			"/>
			<polygon class="st1" points="330.8,166.3 345.4,163.9 326.8,145.2 312.6,147.5 			"/>
			<polygon class="st1" points="330.8,166.3 315.7,168.7 297.8,149.8 312.6,147.5 			"/>
			<polygon class="st1" points="300.9,171.1 315.7,168.7 297.8,149.8 283.3,152.1 			"/>
			<polygon class="st1" points="300.9,171.1 278.5,174.7 280.1,166.7 268.9,154.3 283.3,152.1 			"/>
			<polygon class="st1" points="263.2,177.2 278.5,174.7 280.1,166.7 268.9,154.3 246.3,157.9 			"/>
			<polygon class="st1" points="225,183.4 240.5,180.8 224.2,161.4 209,163.8 			"/>
			<polygon class="st1" points="209.5,185.9 217.2,184.6 211.8,177.9 204.2,179.1 			"/>
			<polygon class="st1" points="209.5,185.9 202,187.1 191.5,173.7 198.9,172.5 			"/>
			<polygon class="st1" points="170.4,192.2 202,187.1 191.5,173.7 160.4,178.6 			"/>
			<polygon class="st1" points="170.4,192.2 154.7,194.7 144.9,181 160.4,178.6 			"/>
			<polygon class="st1" points="203.3,164.7 201.4,165 193.9,166.1 204.2,179.1 211.8,177.9 217.2,184.6 225,183.4 209,163.8 			"/>
			<polygon class="st1" points="255.5,178.4 240.5,180.8 235.2,174.4 250,172.1 			"/>
			<polygon class="st1" points="243,158.4 238.9,159.1 224.2,161.4 235.2,174.4 250,172.1 255.5,178.4 263.2,177.2 246.3,157.9 			
				"/>
		</g>
		<polygon class="st2" points="159.6,201.5 111.3,209.4 93.3,181.8 140.2,174.5 		"/>
		<polygon class="st2" points="183.5,197.6 111.3,209.4 135.4,246.4 210.5,233.6 		"/>
		<polygon class="st2" points="183.5,197.6 207.2,193.8 235.2,229.4 210.5,233.6 		"/>
		<polygon class="st2" points="230.4,190 207.2,193.8 235.2,229.4 259.2,225.3 		"/>
		<polygon class="st2" points="230.4,190 245.8,187.5 275.2,222.6 259.2,225.3 		"/>
		<polygon class="st2" points="261.2,185 245.8,187.5 275.2,222.6 291.2,219.9 		"/>
		<polygon class="st2" points="261.2,185 276.5,182.5 307.1,217.2 291.2,219.9 		"/>
		<polygon class="st2" points="292.1,180 276.5,182.5 307.1,217.2 323.3,214.4 		"/>
		<polygon class="st2" points="292.1,180 306.9,177.5 338.6,211.8 323.3,214.4 		"/>
		<polygon class="st2" points="322.2,175.1 306.9,177.5 338.6,211.8 354.5,209.1 		"/>
		<polygon class="st2" points="322.2,175.1 337,172.6 369.9,206.5 354.5,209.1 		"/>
		<polygon class="st2" points="381.2,165.5 337,172.6 369.9,206.5 415.7,198.7 		"/>
		<polygon class="st2" points="381.2,165.5 395.9,163.1 431,196.1 415.7,198.7 		"/>
		<polygon class="st2" points="410.3,160.7 395.9,163.1 431,196.1 445.8,193.5 		"/>
		<polygon class="st2" points="410.3,160.7 424.7,158.4 460.8,191 445.8,193.5 		"/>
		<polygon class="st2" points="439.1,156 424.7,158.4 460.8,191 475.7,188.5 		"/>
		<polygon class="st2" points="439.1,156 463.1,152.1 500.5,184.2 475.7,188.5 		"/>
		<polygon class="st2" points="484.5,148.6 463.1,152.1 500.5,184.2 522.3,180.5 		"/>
		<polygon class="st2" points="484.5,148.6 470.2,151 442.1,127.1 456.1,124.9 		"/>
		<polygon class="st2" points="449.3,147.2 463.1,144.9 442.1,127.1 428.6,129.3 		"/>
		<polygon class="st2" points="449.3,147.2 434.9,149.5 414.5,131.5 428.6,129.3 		"/>
		<polygon class="st2" points="425.3,143.8 427.9,143.3 421.1,137.3 418.5,137.7 		"/>
		<polygon class="st2" points="425.3,143.8 427.9,143.3 434.9,149.5 432.2,149.9 		"/>
		<polygon class="st2" points="418.5,137.7 404.4,140 417.9,152.2 432.2,149.9 		"/>
		<polygon class="st2" points="376.2,144.4 404.4,140 417.9,152.2 389.3,156.8 		"/>
		<polygon class="st2" points="376.2,144.4 369,145.6 375.5,151.8 382.7,150.6 		"/>
		<polygon class="st2" points="389.3,156.8 382,158 375.5,151.8 382.7,150.6 		"/>
		<polygon class="st2" points="360.1,161.6 382,158 362.7,139.6 341.3,143 		"/>
		<polygon class="st2" points="360.1,161.6 345.4,163.9 326.8,145.2 341.3,143 		"/>
		<polygon class="st2" points="330.8,166.3 345.4,163.9 326.8,145.2 312.6,147.5 		"/>
		<polygon class="st2" points="330.8,166.3 315.7,168.7 297.8,149.8 312.6,147.5 		"/>
		<polygon class="st2" points="300.9,171.1 315.7,168.7 297.8,149.8 283.3,152.1 		"/>
		<polygon class="st2" points="300.9,171.1 278.5,174.7 280.1,166.7 268.9,154.3 283.3,152.1 		"/>
		<polygon class="st2" points="263.2,177.2 278.5,174.7 280.1,166.7 268.9,154.3 246.3,157.9 		"/>
		<polygon class="st2" points="225,183.4 240.5,180.8 224.2,161.4 209,163.8 		"/>
		<polygon class="st2" points="209.5,185.9 217.2,184.6 211.8,177.9 204.2,179.1 		"/>
		<polygon class="st2" points="209.5,185.9 202,187.1 191.5,173.7 198.9,172.5 		"/>
		<polygon class="st2" points="170.4,192.2 202,187.1 191.5,173.7 160.4,178.6 		"/>
		<polygon class="st2" points="170.4,192.2 154.7,194.7 144.9,181 160.4,178.6 		"/>
		<polygon class="st2" points="203.3,164.7 201.4,165 193.9,166.1 204.2,179.1 211.8,177.9 217.2,184.6 225,183.4 209,163.8 		"/>
		<polygon class="st2" points="255.5,178.4 240.5,180.8 235.2,174.4 250,172.1 		"/>
		<polygon class="st2" points="243,158.4 238.9,159.1 224.2,161.4 235.2,174.4 250,172.1 255.5,178.4 263.2,177.2 246.3,157.9 		"/>
		<polygon class="st5" points="158.2,201.7 139.9,175.3 139.9,173.7 158.2,199.4 		"/>
		<polygon class="st4" points="95.6,182.3 139.9,175.3 139.9,173.7 94.7,180.8 		"/>
		<polygon class="st4" points="147.3,181.4 159.7,179.5 160,177.9 146.3,180 		"/>
		<polygon class="st4" points="162.8,179 190.8,174.5 191.1,172.9 161.8,177.6 		"/>
		<polygon class="st4" points="194,174.1 198.3,173.4 198.6,171.8 192.9,172.7 		"/>
		<polygon class="st4" points="196.4,166.5 208.3,164.7 208.6,163 195.3,165.1 		"/>
		<polygon class="st4" points="211.5,164.2 223.6,162.3 223.9,160.6 210.4,162.8 		"/>
		<polygon class="st4" points="226.9,161.7 245.7,158.8 246,157.2 225.7,160.4 		"/>
		<polygon class="st4" points="237.8,174.8 249.4,172.9 249.7,171.3 236.7,173.4 		"/>
		<polygon class="st4" points="206.4,179.6 211.2,178.8 211.5,177.2 205.6,178.1 		"/>
		<polygon class="st4" points="249.1,158.3 268.3,155.2 268.6,153.6 247.9,156.9 		"/>
		<polygon class="st4" points="271.7,154.7 282.7,153 283,151.4 270.5,153.3 		"/>
		<polygon class="st4" points="285.9,152.5 297.2,150.7 297.5,149.1 284.9,151.1 		"/>
		<polygon class="st4" points="300.6,150.2 312,148.4 312.3,146.8 299.4,148.8 		"/>
		<polygon class="st4" points="315.5,147.8 326.3,146.1 326.6,144.5 314.2,146.5 		"/>
		<polygon class="st4" points="329.7,145.6 340.7,143.9 341,142.2 328.5,144.2 		"/>
		<polygon class="st4" points="344.2,143.3 362.2,140.5 362.5,138.9 342.9,141.9 		"/>
		<polygon class="st4" points="371.8,145.9 375.6,145.3 375.9,143.7 370.7,144.5 		"/>
		<polygon class="st4" points="379,144.8 403.9,140.8 404.2,139.2 377.9,143.4 		"/>
		<polygon class="st4" points="407.1,140.4 420.6,138.2 420.9,136.6 406.2,138.9 		"/>
		<polygon class="st4" points="417.1,131.9 455.5,125.8 455.8,124.2 416.3,130.3 		"/>
		<polygon class="st5" points="168.7,191.6 159.7,179.5 160,177.9 169,190 		"/>
		<polygon class="st5" points="200.2,186.5 190.8,174.5 191.1,172.9 200.5,184.9 		"/>
		<polygon class="st5" points="207.8,185.3 198.3,173.4 198.6,171.8 208,183.7 		"/>
		<polygon class="st5" points="197.5,171.1 193.6,166.2 193.9,164.6 198.9,170.9 		"/>
		<polygon class="st5" points="215.5,184.1 211.2,178.8 211.5,177.2 215.8,182.5 		"/>
		<polygon class="st5" points="223.2,182.8 208.3,164.7 208.6,163 223.5,181.2 		"/>
		<polygon class="st5" points="238.7,180.3 223.6,162.3 223.9,160.6 239,178.7 		"/>
		<polygon class="st5" points="253.7,178 249.4,172.9 249.7,171.3 254,176.4 		"/>
		<polygon class="st5" points="135.4,246.4 93.3,181.8 93.3,180.3 135.4,244.9 		"/>
		<polygon class="st5" points="261.6,175.1 246,157.2 245.7,158.8 246,159.1 260.1,175.3 		"/>
		<polygon class="st5" points="268.3,155.2 268.6,153.6 279.2,165.4 278.9,167 		"/>
		<polygon class="st5" points="279.5,172.2 279.5,172.2 280.9,164.9 280.6,166.5 		"/>
		<polygon class="st5" points="282.7,153 283,151.4 299.3,169 297.8,169.2 		"/>
		<polygon class="st5" points="297.2,150.7 297.5,149.1 314.1,166.6 313.8,168.2 		"/>
		<polygon class="st5" points="312,148.4 312.3,146.8 329.2,164.2 328.9,165.8 		"/>
		<polygon class="st5" points="326.3,146.1 326.6,144.5 343.8,161.8 343.5,163.4 		"/>
		<polygon class="st5" points="340.7,143.9 341,142.2 358.5,159.4 358.2,161.1 		"/>
		<polygon class="st5" points="362.2,140.5 362.5,138.9 380.3,155.9 380,157.5 		"/>
		<polygon class="st5" points="375.6,145.3 375.9,143.7 387.6,154.7 387.3,156.3 		"/>
		<polygon class="st5" points="403.9,140.8 404.2,139.2 416.2,150.1 415.9,151.7 		"/>
		<polygon class="st5" points="418,138.6 418.3,137 430.5,147.8 430.2,149.4 		"/>
		<polygon class="st5" points="420.6,138.2 420.9,136.6 433.1,147.4 432.8,149 		"/>
		<polygon class="st5" points="414.2,131.5 414.5,129.9 421.1,135.7 419.3,136 		"/>
		<polygon class="st5" points="428,130.1 428.3,128.5 447.4,145.1 447.2,146.7 		"/>
		<polygon class="st5" points="441.6,128 441.9,126.4 461.3,142.9 461,144.5 		"/>
		<polygon class="st5" points="462.8,145 463.1,143.3 470.2,149.4 469.9,151 		"/>
		<polygon class="st4" points="155.6,194.6 462.8,145 463.1,143.3 154.7,193.1 		"/>
		<polygon class="st5" points="260.6,185.9 260.8,184.3 289.7,217.8 289.4,219.4 		"/>
		<polygon class="st5" points="455.5,125.8 455.8,124.2 520.8,178.4 520.5,180 		"/>
		<polygon class="st4" points="378.5,152 382.2,151.5 382.5,149.9 377.2,150.7 		"/>
		<polygon class="st4" points="113.5,209.8 483.9,149.5 484.2,147.9 112.6,208.4 		"/>
		<polygon class="st5" points="462.6,153 462.8,151.4 498.7,182.2 498.4,183.8 		"/>
		<polygon class="st5" points="206.6,194.7 206.9,193.1 233.7,227.3 233.4,228.9 		"/>
		<polygon class="st5" points="183.1,198.5 183.1,196.9 209.1,231.5 209.1,233.1 		"/>
		<polygon class="st5" points="245.2,188.4 245.5,186.8 273.7,220.5 273.4,222.1 		"/>
		<polygon class="st5" points="229.7,190.9 230,189.3 257.7,223.2 257.4,224.8 		"/>
		<polygon class="st5" points="275.9,183.4 276.2,181.8 305.6,215.1 305.3,216.7 		"/>
		<polygon class="st5" points="306.3,178.4 306.6,176.8 337,209.7 336.8,211.3 		"/>
		<polygon class="st5" points="291.5,180.8 291.8,179.2 321.7,212.3 321.4,213.9 		"/>
		<polygon class="st5" points="321.6,175.9 321.9,174.3 352.9,207 352.7,208.6 		"/>
		<polygon class="st5" points="336.4,173.5 336.7,171.9 368.3,204.4 368,206 		"/>
		<polygon class="st5" points="380.6,166.3 380.9,164.7 414,196.6 413.7,198.2 		"/>
		<polygon class="st5" points="395.4,163.9 395.7,162.3 429.2,194 429,195.6 		"/>
		<polygon class="st5" points="409.7,161.6 410,160 444.1,191.5 443.8,193.1 		"/>
		<polygon class="st5" points="424.2,159.2 424.5,157.6 459,188.9 458.7,190.5 		"/>
		<polygon class="st5" points="438.6,156.9 438.9,155.3 473.9,186.4 473.6,188 		"/>
		<g>
			<g>
				<path class="st0" d="M139.9,173.7l18.4,25.6l-46.6,7.6l-17-26.1L139.9,173.7 M140.2,172.9l-46.9,7.4l17.9,27.6l48.3-7.9
					L140.2,172.9L140.2,172.9z"/>
				<path class="st0" d="M183.1,196.9l25.9,34.6L135.8,244l-23.2-35.6L183.1,196.9 M183.5,196.1l-72.2,11.8l24.1,37.1l75.1-12.8
					L183.5,196.1L183.5,196.1z"/>
				<path class="st0" d="M206.9,193.1l26.8,34.2l-22.9,3.9l-25.9-34.6L206.9,193.1 M207.2,192.2l-23.8,3.9l27,36l24.7-4.2
					L207.2,192.2L207.2,192.2z"/>
				<path class="st0" d="M230,189.3l27.7,33.9l-22.2,3.8l-26.8-34.2L230,189.3 M230.4,188.4l-23.1,3.8l27.9,35.7l24-4.1L230.4,188.4
					L230.4,188.4z"/>
				<path class="st0" d="M245.5,186.8l28.3,33.7l-14.2,2.4L231.8,189L245.5,186.8 M245.8,185.9l-15.4,2.5l28.8,35.3l16-2.7
					L245.8,185.9L245.8,185.9z"/>
				<path class="st0" d="M260.8,184.3l28.8,33.5l-14.1,2.4l-28.2-33.7L260.8,184.3 M261.2,183.4l-15.4,2.5l29.4,35.1l15.9-2.7
					L261.2,183.4L261.2,183.4z"/>
				<path class="st0" d="M276.2,181.8l29.4,33.3l-14.1,2.4L262.7,184L276.2,181.8 M276.5,180.9l-15.4,2.5l30,34.9l15.9-2.7
					L276.5,180.9L276.5,180.9z"/>
				<path class="st0" d="M291.8,179.2l29.9,33.1l-14.3,2.4l-29.4-33.3L291.8,179.2 M292.1,178.4l-15.6,2.5l30.6,34.7l16.1-2.8
					L292.1,178.4L292.1,178.4z"/>
				<path class="st0" d="M306.6,176.8l30.5,32.9l-13.5,2.3l-29.9-33.1L306.6,176.8 M306.9,176l-14.8,2.4l31.2,34.5l15.4-2.6
					L306.9,176L306.9,176z"/>
				<path class="st0" d="M321.9,174.3l31,32.7l-14,2.4l-30.5-32.9L321.9,174.3 M322.2,173.5l-15.3,2.5l31.8,34.3l15.9-2.7
					L322.2,173.5L322.2,173.5z"/>
				<path class="st0" d="M336.7,171.9l31.5,32.5l-13.4,2.3l-31-32.6L336.7,171.9 M337,171.1l-14.8,2.4l32.3,34l15.3-2.6L337,171.1
					L337,171.1z"/>
				<path class="st0" d="M380.9,164.7l33.1,31.9l-43.8,7.5l-31.5-32.4L380.9,164.7 M381.2,163.9l-44.2,7.2l32.9,33.8l45.8-7.8
					L381.2,163.9L381.2,163.9z"/>
				<path class="st0" d="M395.7,162.3l33.6,31.7l-13.3,2.3l-33.1-31.8L395.7,162.3 M395.9,161.5l-14.7,2.4l34.5,33.2l15.3-2.6
					L395.9,161.5L395.9,161.5z"/>
				<path class="st0" d="M410,160l34.1,31.5l-12.9,2.2L397.6,162L410,160 M410.3,159.1l-14.3,2.3l35,33l14.8-2.5L410.3,159.1
					L410.3,159.1z"/>
				<path class="st0" d="M424.5,157.6l34.6,31.3l-13,2.2l-34-31.5L424.5,157.6 M424.7,156.8l-14.5,2.4l35.5,32.8l15-2.6L424.7,156.8
					L424.7,156.8z"/>
				<path class="st0" d="M438.9,155.3l35,31.1l-12.9,2.2l-34.5-31.3L438.9,155.3 M439.1,154.4l-14.4,2.3l36,32.6l14.9-2.5
					L439.1,154.4L439.1,154.4z"/>
				<path class="st0" d="M462.9,151.4l35.8,30.8l-22.8,3.9l-35-31.1L462.9,151.4 M463.1,150.5l-24,3.9l36.6,32.4l24.8-4.2
					L463.1,150.5L463.1,150.5z"/>
				<path class="st0" d="M484.2,147.9l36.5,30.5l-20.1,3.4l-35.8-30.7L484.2,147.9 M484.5,147.1l-21.4,3.5l37.4,32.1l22.1-3.8
					L484.5,147.1L484.5,147.1z"/>
				<path class="st0" d="M455.8,124.2l26.8,22.4l-12.2,2L444,126.1L455.8,124.2 M456.1,123.4l-13.9,2.2l28,23.8l14.3-2.3
					L456.1,123.4L456.1,123.4z"/>
				<path class="st0" d="M441.9,126.4l19.4,16.5l-11.8,1.9l-19.1-16.6L441.9,126.4 M442.1,125.5l-13.6,2.1l20.7,17.9l13.8-2.2
					L442.1,125.5L442.1,125.5z"/>
				<path class="st0" d="M428.3,128.5l19.1,16.6l-12.3,2l-18.8-16.7L428.3,128.5 M428.6,127.7l-14.1,2.2l20.4,18l14.4-2.3
					L428.6,127.7L428.6,127.7z"/>
				<path class="st0" d="M420.9,136.6l5.3,4.6l-0.6,0.1l-5.2-4.7L420.9,136.6 M421.1,135.7l-2.6,0.4l6.8,6l2.6-0.4L421.1,135.7
					L421.1,135.7z"/>
				<path class="st0" d="M427.7,142.6l5.4,4.8l-0.6,0.1l-5.4-4.8L427.7,142.6 M427.9,141.8l-2.6,0.4l7,6.2l2.7-0.4L427.9,141.8
					L427.9,141.8z"/>
				<path class="st0" d="M418.3,137l12.2,10.8l-12.3,2l-12-10.9L418.3,137 M418.5,136.2l-14.1,2.2l13.5,12.3l14.3-2.3L418.5,136.2
					L418.5,136.2z"/>
				<path class="st0" d="M404.2,139.2l12,10.9l-26.6,4.3l-11.7-11L404.2,139.2 M404.4,138.4l-28.2,4.5l13.2,12.4l28.6-4.6
					L404.4,138.4L404.4,138.4z"/>
				<path class="st0" d="M375.9,143.7l5.1,4.8l-5.3,0.8l-5-4.8L375.9,143.7 M376.2,142.9L369,144l6.5,6.2l7.3-1.2L376.2,142.9
					L376.2,142.9z"/>
				<path class="st0" d="M382.5,149.9l5.2,4.9l-5.3,0.9l-5.1-4.9L382.5,149.9 M382.7,149l-7.3,1.2l6.6,6.3l7.3-1.2L382.7,149
					L382.7,149z"/>
				<path class="st0" d="M362.4,138.9l17.9,17l-19.9,3.2l-17.5-17.2L362.4,138.9 M362.7,138l-21.4,3.4l18.9,18.6l21.9-3.5L362.7,138
					L362.7,138z"/>
				<path class="st0" d="M341,142.2l17.5,17.2l-12.8,2.1l-17.2-17.3L341,142.2 M341.3,141.4l-14.4,2.3l18.6,18.7l14.7-2.4
					L341.3,141.4L341.3,141.4z"/>
				<path class="st0" d="M326.6,144.5l17.2,17.3l-12.6,2l-16.9-17.4L326.6,144.5 M326.8,143.7l-14.3,2.2l18.3,18.8l14.6-2.4
					L326.8,143.7L326.8,143.7z"/>
				<path class="st0" d="M312.3,146.8l16.9,17.4l-13.2,2.1l-16.6-17.5L312.3,146.8 M312.6,145.9l-14.8,2.3l17.9,18.9l15.1-2.4
					L312.6,145.9L312.6,145.9z"/>
				<path class="st0" d="M297.5,149.1l16.6,17.5l-12.9,2.1l-16.3-17.6L297.5,149.1 M297.8,148.2l-14.5,2.3l17.6,19l14.8-2.4
					L297.8,148.2L297.8,148.2z"/>
				<path class="st0" d="M283,151.4l16.3,17.6l-19.8,3.2l1.4-6.9l0.1-0.4l-0.3-0.3l-10.2-11.3L283,151.4 M283.3,150.5l-14.4,2.3
					l11.2,12.4l-1.6,8l22.4-3.6L283.3,150.5L283.3,150.5z"/>
				<path class="st0" d="M268.6,153.6l10.6,11.8l-1.4,7.1l-14.4,2.3l-15.6-17.9L268.6,153.6 M268.9,152.8l-22.6,3.5l16.8,19.3
					l15.3-2.5l1.6-8L268.9,152.8L268.9,152.8z"/>
				<path class="st0" d="M223.9,160.6l15.1,18.1l-13.8,2.2l-14.8-18.2L223.9,160.6 M224.2,159.8l-15.2,2.4l16,19.6l15.6-2.5
					L224.2,159.8L224.2,159.8z"/>
				<path class="st0" d="M211.5,177.2l4.2,5.3l-5.9,1l-4.2-5.3L211.5,177.2 M211.8,176.3l-7.7,1.2l5.3,6.7l7.7-1.2L211.8,176.3
					L211.8,176.3z"/>
				<path class="st0" d="M198.6,171.8l9.5,11.9l-5.7,0.9l-9.4-12L198.6,171.8 M198.9,170.9l-7.4,1.2l10.5,13.4l7.5-1.2L198.9,170.9
					L198.9,170.9z"/>
				<path class="st0" d="M191.1,172.9l9.4,12l-29.8,4.8l-9-12.1L191.1,172.9 M191.5,172.1l-31.1,4.9l10,13.6l31.6-5.1L191.5,172.1
					L191.5,172.1z"/>
				<path class="st0" d="M160,177.9l9,12.1l-13.9,2.2l-8.8-12.2L160,177.9 M160.4,177l-15.4,2.4l9.8,13.7l15.7-2.5L160.4,177
					L160.4,177z"/>
				<path class="st0" d="M208.6,163l14.8,18.2l-5.9,1l-5.1-6.3l-0.3-0.4l-0.5,0.1l-7.2,1.2l-9.2-11.6l6.2-1l1.9-0.3L208.6,163
					 M208.9,162.2l-5.6,0.9l-1.9,0.3l-7.6,1.2l10.3,13l7.7-1.2l5.4,6.7l7.7-1.2L208.9,162.2L208.9,162.2z"/>
				<path class="st0" d="M249.7,171.3l4.3,5l-13.1,2.1l-4.2-5L249.7,171.3 M250,170.5l-14.9,2.4l5.4,6.4l15-2.4L250,170.5L250,170.5
					z"/>
				<path class="st0" d="M246,157.2l15.6,17.9l-5.8,0.9l-5.2-6l-0.3-0.3l-0.4,0.1l-14.4,2.3l-9.8-11.6l13.3-2.1l4.1-0.6L246,157.2
					 M246.3,156.3l-3.4,0.5l-4.1,0.6l-14.7,2.3l11,13.1l14.9-2.4l5.5,6.4l7.6-1.2L246.3,156.3L246.3,156.3z"/>
			</g>
		</g>
		<polygon class="st4" points="135.4,246.4 522.3,180.5 522.6,178.9 135.4,244.9 		"/>
		<text transform="matrix(1 0 0 1 14.8977 163.4068)" class="st6 st7 st8">Level 5</text>
	</g>
</g>
<g id="Level_6" class="st6">
	<g class="st9">
		<g>
			<g>
				<path class="st0" d="M454.5,32.2c-0.6,0-1.1,0-1.7,0.1l-18.4,2.8l-36.2,5.6l-9.5,1.5l-27.9,4.3l-28.2,4.4l-28.5,4.4l-28.8,4.4
					l-29.6,4.6l-29.8,4.6l-20.1,3.1l-16.2,2.5l-4,0.6L165,76.7l-10.7,1.7l-41,6.3l-21.5,3.3c-3.7,0.6-6.8,2.9-8.3,6.3
					c-1.5,3.4-1.3,7.3,0.7,10.4l10.5,16.6l11.9,18.8l18,28.4c2,3.2,5.6,5.1,9.3,5.1c0.6,0,1.2-0.1,1.8-0.2l23.1-3.9l22.6-3.8l22-3.7
					l22.4-3.8l21.7-3.7l21.5-3.7l21.2-3.6l21.7-3.7l20.3-3.4l31.4-5.3l30.5-5.2l20.2-3.4l20-3.4l19.7-3.3l19.4-3.3l19.3-3.3l29.5-5
					c4.3-0.7,7.7-3.9,8.8-8s-0.3-8.6-3.7-11.3l-29.3-23.8l-36.7-29.9C459.4,33,457,32.2,454.5,32.2L454.5,32.2z"/>
			</g>
		</g>
		<g>
			<g>
				<path class="st3" d="M491.2,73.1L491.2,73.1l-36.7-29.9L436.1,46l-36.2,5.6l-9.5,1.5l-27.9,4.3l-28.2,4.4l-28.5,4.4L277,70.5
					l-29.6,4.6l-29.8,4.6l-20.1,3.1l-16.2,2.5l-4,0.6l-10.6,1.6l-10.7,1.7l-41,6.3l-21.5,3.3l10.5,16.6l11.9,18.8l18,28.4l23.1-3.9
					l22.6-3.8l22-3.7l22.4-3.8l21.7-3.7l21.5-3.7l21.2-3.6l21.7-3.7l20.3-3.4l31.4-5.3l30.5-5.2l20.2-3.4l20-3.4l19.7-3.3l19.4-3.3
					l19.3-3.3l29.5-5L491.2,73.1z"/>
			</g>
		</g>
		<g>
			<polygon class="st1" points="125.9,112 104,115.4 93.5,98.8 114.9,95.5 			"/>
			<polygon class="st1" points="131.8,120.8 174.1,114 155.9,89.2 114.9,95.5 			"/>
			<polygon class="st1" points="185.1,112.2 174.1,114 155.9,89.2 166.7,87.5 			"/>
			<polygon class="st1" points="178.7,103.6 189.5,101.9 196.1,110.5 185.1,112.2 			"/>
			<polygon class="st1" points="181.3,85.3 177.3,85.9 166.7,87.5 178.7,103.6 189.5,101.9 196.1,110.5 216.9,107.1 197.5,82.8 			
				"/>
			<polygon class="st1" points="216.9,107.1 237.6,103.8 217.6,79.7 197.5,82.8 			"/>
			<polygon class="st1" points="268.2,98.9 237.6,103.8 217.6,79.7 247.4,75.1 			"/>
			<polygon class="st1" points="268.2,98.9 298.7,94 277,70.5 247.4,75.1 			"/>
			<polygon class="st1" points="328.3,89.3 298.7,94 277,70.5 305.8,66.1 			"/>
			<polygon class="st1" points="328.3,89.3 357.6,84.6 334.3,61.7 305.8,66.1 			"/>
			<polygon class="st1" points="386.6,79.9 357.6,84.6 334.3,61.7 362.5,57.3 			"/>
			<polygon class="st1" points="386.6,79.9 415.3,75.3 390.4,53 362.5,57.3 			"/>
			<polygon class="st1" points="410.6,61.1 401,62.6 390.4,53 399.9,51.6 			"/>
			<polygon class="st1" points="425,73.7 462.1,67.8 436.1,46 399.9,51.6 			"/>
			<polygon class="st1" points="471.9,57.3 453.2,60.3 436.1,46 454.5,43.2 			"/>
			<polygon class="st1" points="520.5,96.9 491.1,101.9 462.5,77.7 491.2,73.1 			"/>
			<polygon class="st1" points="471.7,105.2 491.1,101.9 462.5,77.7 443.7,80.8 			"/>
			<polygon class="st1" points="471.7,105.2 452.3,108.5 424.8,83.9 443.7,80.8 			"/>
			<polygon class="st1" points="432.6,111.8 452.3,108.5 424.8,83.9 405.7,87 			"/>
			<polygon class="st1" points="432.6,111.8 412.6,115.2 386.2,90.2 405.7,87 			"/>
			<polygon class="st1" points="392.4,118.7 412.6,115.2 386.2,90.2 366.6,93.4 			"/>
			<polygon class="st1" points="392.4,118.7 362,123.9 337,98.2 366.6,93.4 			"/>
			<polygon class="st1" points="330.5,129.2 362,123.9 337,98.2 306.5,103.1 			"/>
			<polygon class="st1" points="330.5,129.2 310.3,132.6 286.8,106.3 306.5,103.1 			"/>
			<polygon class="st1" points="288.6,136.3 310.3,132.6 286.8,106.3 265.8,109.8 			"/>
			<polygon class="st1" points="288.6,136.3 267.5,139.9 245.3,113.1 265.8,109.8 			"/>
			<polygon class="st1" points="245.9,143.6 267.5,139.9 245.3,113.1 224.4,116.5 			"/>
			<polygon class="st1" points="245.9,143.6 224.2,147.3 203.3,119.9 224.4,116.5 			"/>
			<polygon class="st1" points="201.8,151.1 224.2,147.3 203.3,119.9 181.6,123.5 			"/>
			<polygon class="st1" points="201.8,151.1 179.7,154.8 160.2,127 181.6,123.5 			"/>
			<polygon class="st1" points="157.1,158.7 179.7,154.8 160.2,127 138.3,130.5 			"/>
			<polygon class="st1" points="157.1,158.7 133.9,162.6 115.9,134.2 138.3,130.5 			"/>
			<polygon class="st1" points="410.6,61.1 401,62.6 415.3,75.3 425,73.7 			"/>
		</g>
		<polygon class="st2" points="125.9,112 104,115.4 93.5,98.8 114.9,95.5 		"/>
		<polygon class="st2" points="131.8,120.8 174.1,114 155.9,89.2 114.9,95.5 		"/>
		<polygon class="st2" points="185.1,112.2 174.1,114 155.9,89.2 166.7,87.5 		"/>
		<polygon class="st2" points="178.7,103.6 189.5,101.9 196.1,110.5 185.1,112.2 		"/>
		<polygon class="st2" points="181.3,85.3 177.3,85.9 166.7,87.5 178.7,103.6 189.5,101.9 196.1,110.5 216.9,107.1 197.5,82.8 		"/>
		<polygon class="st2" points="216.9,107.1 237.6,103.8 217.6,79.7 197.5,82.8 		"/>
		<polygon class="st2" points="268.2,98.9 237.6,103.8 217.6,79.7 247.4,75.1 		"/>
		<polygon class="st2" points="268.2,98.9 298.7,94 277,70.5 247.4,75.1 		"/>
		<polygon class="st2" points="328.3,89.3 298.7,94 277,70.5 305.8,66.1 		"/>
		<polygon class="st2" points="328.3,89.3 357.6,84.6 334.3,61.7 305.8,66.1 		"/>
		<polygon class="st2" points="386.6,79.9 357.6,84.6 334.3,61.7 362.5,57.3 		"/>
		<polygon class="st2" points="386.6,79.9 415.3,75.3 390.4,53 362.5,57.3 		"/>
		<polygon class="st2" points="410.6,61.1 401,62.6 390.4,53 399.9,51.6 		"/>
		<polygon class="st2" points="425,73.7 462.1,67.8 436.1,46 399.9,51.6 		"/>
		<polygon class="st2" points="471.9,57.3 453.2,60.3 436.1,46 454.5,43.2 		"/>
		<polygon class="st2" points="520.5,96.9 491.1,101.9 462.5,77.7 491.2,73.1 		"/>
		<polygon class="st2" points="471.7,105.2 491.1,101.9 462.5,77.7 443.7,80.8 		"/>
		<polygon class="st2" points="471.7,105.2 452.3,108.5 424.8,83.9 443.7,80.8 		"/>
		<polygon class="st2" points="432.6,111.8 452.3,108.5 424.8,83.9 405.7,87 		"/>
		<polygon class="st2" points="432.6,111.8 412.6,115.2 386.2,90.2 405.7,87 		"/>
		<polygon class="st2" points="392.4,118.7 412.6,115.2 386.2,90.2 366.6,93.4 		"/>
		<polygon class="st2" points="392.4,118.7 362,123.9 337,98.2 366.6,93.4 		"/>
		<polygon class="st2" points="330.5,129.2 362,123.9 337,98.2 306.5,103.1 		"/>
		<polygon class="st2" points="330.5,129.2 310.3,132.6 286.8,106.3 306.5,103.1 		"/>
		<polygon class="st2" points="288.6,136.3 310.3,132.6 286.8,106.3 265.8,109.8 		"/>
		<polygon class="st2" points="288.6,136.3 267.5,139.9 245.3,113.1 265.8,109.8 		"/>
		<polygon class="st2" points="245.9,143.6 267.5,139.9 245.3,113.1 224.4,116.5 		"/>
		<polygon class="st2" points="245.9,143.6 224.2,147.3 203.3,119.9 224.4,116.5 		"/>
		<polygon class="st2" points="201.8,151.1 224.2,147.3 203.3,119.9 181.6,123.5 		"/>
		<polygon class="st2" points="201.8,151.1 179.7,154.8 160.2,127 181.6,123.5 		"/>
		<polygon class="st2" points="157.1,158.7 179.7,154.8 160.2,127 138.3,130.5 		"/>
		<polygon class="st2" points="157.1,158.7 133.9,162.6 115.9,134.2 138.3,130.5 		"/>
		<polygon class="st2" points="410.6,61.1 401,62.6 415.3,75.3 425,73.7 		"/>
		<polygon class="st4" points="454.2,44.2 96.1,99.4 95.1,97.8 454.2,42.5 		"/>
		<polygon class="st4" points="471.9,57.3 454.9,60 453.2,58.5 471.9,55.6 		"/>
		<polygon class="st5" points="93.5,98.8 93.5,97.1 104,113.7 104,115.4 		"/>
		<polygon class="st5" points="114.4,96.6 114.4,94.8 124.2,109.5 124.2,111.2 		"/>
		<polygon class="st5" points="155.5,90.3 155.5,88.5 172.3,111.5 172.3,113.3 		"/>
		<polygon class="st5" points="166.2,88.6 166.2,86.9 183.3,109.8 183.3,111.5 		"/>
		<polygon class="st4" points="490.9,74.1 118.5,134.8 117.5,133.2 490.9,72.4 		"/>
		<polygon class="st5" points="197.1,83.9 197.1,82.1 215.1,104.7 215.1,106.4 		"/>
		<polygon class="st5" points="217.2,80.8 217.2,79 235.7,101.4 235.7,103.1 		"/>
		<polygon class="st5" points="247,76.2 247,74.4 266.3,96.4 266.3,98.2 		"/>
		<polygon class="st5" points="276.6,71.6 276.6,69.8 296.7,91.6 296.7,93.3 		"/>
		<polygon class="st5" points="305.4,67.2 305.4,65.4 326.2,86.8 326.2,88.6 		"/>
		<polygon class="st5" points="333.9,62.8 333.9,61 355.5,82.1 355.5,83.9 		"/>
		<polygon class="st5" points="362.2,58.4 362.2,56.7 384.5,77.5 384.5,79.2 		"/>
		<polygon class="st5" points="454.2,44.2 454.2,42.5 469.5,54.9 467.7,55.2 		"/>
		<polygon class="st5" points="470.6,57.5 470.6,55.7 489.9,71.5 488.1,71.8 		"/>
		<polygon class="st5" points="490.9,74.1 490.9,72.4 518.2,94.5 518.2,96.3 		"/>
		<polygon class="st5" points="390.1,54.1 390.1,52.4 413,72.9 413,74.7 		"/>
		<polygon class="st5" points="399.6,52.6 399.6,50.9 422.7,71.3 422.7,73.1 		"/>
		<polygon class="st5" points="435.8,47.1 435.8,45.3 459.8,65.4 459.8,67.1 		"/>
		<polygon class="st5" points="462.2,78.8 462.2,77 488.8,99.5 488.8,101.3 		"/>
		<polygon class="st5" points="443.4,81.9 443.4,80.1 469.5,102.8 469.5,104.6 		"/>
		<polygon class="st5" points="424.5,84.9 424.5,83.2 450.1,106.1 450.1,107.9 		"/>
		<polygon class="st5" points="405.3,88.1 405.3,86.3 430.5,109.5 430.5,111.2 		"/>
		<polygon class="st5" points="385.9,91.2 385.9,89.5 410.5,112.8 410.5,114.6 		"/>
		<polygon class="st5" points="366.3,94.4 366.3,92.7 390.3,116.3 390.3,118 		"/>
		<polygon class="st5" points="336.6,99.2 336.6,97.5 359.9,121.4 359.9,123.2 		"/>
		<polygon class="st5" points="306.1,104.2 306.1,102.5 328.5,126.8 328.5,128.5 		"/>
		<polygon class="st5" points="286.4,107.4 286.4,105.7 308.3,130.2 308.3,132 		"/>
		<polygon class="st5" points="265.4,110.8 265.4,109.1 286.7,133.9 286.7,135.6 		"/>
		<polygon class="st5" points="244.9,114.2 244.9,112.4 265.6,137.5 265.6,139.2 		"/>
		<polygon class="st5" points="224,117.6 224,115.8 244.1,141.1 244.1,142.9 		"/>
		<polygon class="st5" points="181.1,124.6 181.1,122.8 200,148.6 200,150.4 		"/>
		<polygon class="st5" points="159.8,128.1 159.8,126.3 178,152.4 178,154.1 		"/>
		<polygon class="st5" points="137.8,131.6 137.8,129.9 155.4,156.2 155.4,157.9 		"/>
		<polygon class="st5" points="104,115.4 104,113.7 133.9,160.9 133.9,162.6 		"/>
		<polygon class="st5" points="202.9,121 202.9,119.3 222.4,144.8 222.4,146.6 		"/>
		<polygon class="st5" points="189.1,103 189.1,101.2 194.3,108 194.3,109.7 		"/>
		<polygon class="st5" points="125.9,112 125.9,110.2 131.8,119 131.8,120.8 		"/>
		<g>
			<g>
				<path class="st0" d="M114.4,94.8l9.8,14.6l-19.7,3.1l-9.4-14.8L114.4,94.8 M114.9,93.8l-21.5,3.3l10.5,16.6l21.9-3.5L114.9,93.8
					L114.9,93.8z"/>
			</g>
			<g>
				<path class="st0" d="M155.5,88.5l16.8,23l-40,6.4l-15.6-23.4L155.5,88.5 M155.9,87.4l-41,6.3l16.9,25.3l42.3-6.8L155.9,87.4
					L155.9,87.4z"/>
			</g>
			<g>
				<path class="st0" d="M166.2,86.9l17.1,22.9l-8.8,1.4l-16.8-23L166.2,86.9 M166.7,85.8l-10.7,1.7l18.1,24.8l11-1.8L166.7,85.8
					L166.7,85.8z"/>
			</g>
			<g>
				<path class="st0" d="M189.1,101.2l5.2,6.8l-8.7,1.4l-5.1-6.8L189.1,101.2 M189.5,100.2l-10.9,1.7l6.4,8.6l11-1.8L189.5,100.2
					L189.5,100.2z"/>
			</g>
			<g>
				<path class="st0" d="M197.1,82.1l18,22.6l-18.5,3l-6.2-8.1l-0.4-0.5l-0.6,0.1l-10.3,1.6l-10.7-14.3l9-1.4l4-0.6L197.1,82.1
					 M197.5,81l-16.2,2.5l-4,0.6l-10.6,1.6l12,16.1l10.9-1.7l6.5,8.6l20.8-3.3L197.5,81L197.5,81z"/>
			</g>
			<g>
				<path class="st0" d="M217.2,79l18.5,22.3l-18.3,2.9l-18-22.5L217.2,79 M217.6,77.9L197.5,81l19.4,24.4l20.7-3.3L217.6,77.9
					L217.6,77.9z"/>
			</g>
			<g>
				<path class="st0" d="M247,74.4l19.3,22L238,101l-18.5-22.3L247,74.4 M247.4,73.3l-29.8,4.6l20,24.1l30.7-4.9L247.4,73.3
					L247.4,73.3z"/>
			</g>
			<g>
				<path class="st0" d="M276.6,69.8l20.1,21.7l-28.1,4.5l-19.3-22L276.6,69.8 M277,68.8l-29.6,4.6l20.9,23.8l30.5-4.9L277,68.8
					L277,68.8z"/>
			</g>
			<g>
				<path class="st0" d="M305.4,65.4l20.8,21.4l-27.2,4.4L279,69.5L305.4,65.4 M305.8,64.3L277,68.8l21.7,23.5l29.6-4.7L305.8,64.3
					L305.8,64.3z"/>
			</g>
			<g>
				<path class="st0" d="M333.9,61l21.6,21.1l-26.8,4.3L307.8,65L333.9,61 M334.3,59.9l-28.5,4.4l22.5,23.2l29.3-4.7L334.3,59.9
					L334.3,59.9z"/>
			</g>
			<g>
				<path class="st0" d="M362.2,56.7l22.3,20.8L358,81.7l-21.5-21.1L362.2,56.7 M362.5,55.6l-28.2,4.4l23.3,22.9l29-4.7L362.5,55.6
					L362.5,55.6z"/>
			</g>
			<g>
				<path class="st0" d="M390.1,52.4L413,72.9L387,77.1l-22.2-20.8L390.1,52.4 M390.4,51.3l-27.9,4.3l24.1,22.6l28.6-4.6L390.4,51.3
					L390.4,51.3z"/>
			</g>
			<g>
				<path class="st0" d="M399.6,50.9l8.8,7.8l-7,1.1l-8.7-7.8L399.6,50.9 M399.9,49.8l-9.5,1.5l10.6,9.5l9.6-1.5L399.9,49.8
					L399.9,49.8z"/>
			</g>
			<g>
				<path class="st0" d="M435.8,45.3l24,20.1l-34.5,5.5l-23.2-20.4L435.8,45.3 M436.1,44.3l-36.2,5.6L425,72l37.2-6L436.1,44.3
					L436.1,44.3z"/>
			</g>
			<g>
				<path class="st0" d="M454.2,42.5l15.3,12.5l-16,2.5l-15-12.6L454.2,42.5 M454.5,41.4l-18.4,2.8l17.1,14.3l18.7-3L454.5,41.4
					L454.5,41.4z"/>
			</g>
			<g>
				<path class="st0" d="M490.9,72.4l27.3,22.2l-26.8,4.6l-26.5-22.5L490.9,72.4 M491.2,71.3L462.5,76l28.5,24.2l29.5-5L491.2,71.3
					L491.2,71.3z"/>
			</g>
			<g>
				<path class="st0" d="M462.2,77l26.6,22.5l-16.8,2.8l-26.1-22.7L462.2,77 M462.5,76L443.7,79l28,24.4l19.3-3.3L462.5,76L462.5,76
					z"/>
			</g>
			<g>
				<path class="st0" d="M443.4,80.1l26.1,22.7l-16.8,2.9L427,82.8L443.4,80.1 M443.7,79l-18.9,3.1l27.5,24.6l19.4-3.3L443.7,79
					L443.7,79z"/>
			</g>
			<g>
				<path class="st0" d="M424.5,83.2l25.6,22.9l-17.2,2.9l-25.1-23.1L424.5,83.2 M424.8,82.1l-19.2,3.1l27,24.9l19.7-3.3L424.8,82.1
					L424.8,82.1z"/>
			</g>
			<g>
				<path class="st0" d="M405.3,86.3l25.1,23.1l-17.5,3l-24.6-23.4L405.3,86.3 M405.7,85.2l-19.4,3.2l26.4,25.1l20-3.4L405.7,85.2
					L405.7,85.2z"/>
			</g>
			<g>
				<path class="st0" d="M385.9,89.5l24.6,23.4l-17.7,3l-24.1-23.6L385.9,89.5 M386.2,88.4l-19.6,3.2l25.8,25.3l20.2-3.4L386.2,88.4
					L386.2,88.4z"/>
			</g>
			<g>
				<path class="st0" d="M366.3,92.7l24.1,23.6l-28,4.8L339,97.1L366.3,92.7 M366.6,91.6L337,96.4l25,25.7l30.5-5.2L366.6,91.6
					L366.6,91.6z"/>
			</g>
			<g>
				<path class="st0" d="M336.6,97.5l23.3,23.9l-29,4.9l-22.4-24.3L336.6,97.5 M337,96.4l-30.5,5l24.1,26l31.4-5.3L337,96.4
					L337,96.4z"/>
			</g>
			<g>
				<path class="st0" d="M306.1,102.5l22.5,24.3l-17.9,3l-21.9-24.5L306.1,102.5 M306.5,101.4l-19.7,3.2l23.5,26.3l20.3-3.4
					L306.5,101.4L306.5,101.4z"/>
			</g>
			<g>
				<path class="st0" d="M286.4,105.7l21.9,24.5l-19.3,3.3l-21.3-24.8L286.4,105.7 M286.8,104.6l-21,3.4l22.8,26.5l21.7-3.7
					L286.8,104.6L286.8,104.6z"/>
			</g>
			<g>
				<path class="st0" d="M265.4,109.1l21.3,24.8l-18.9,3.2l-20.7-25L265.4,109.1 M265.8,108l-20.5,3.3l22.2,26.8l21.2-3.6L265.8,108
					L265.8,108z"/>
			</g>
			<g>
				<path class="st0" d="M244.9,112.4l20.7,25l-19.2,3.3l-20.1-25.3L244.9,112.4 M245.3,111.4l-20.9,3.4l21.5,27.1l21.5-3.7
					L245.3,111.4L245.3,111.4z"/>
			</g>
			<g>
				<path class="st0" d="M224,115.8l20.1,25.3l-19.5,3.3l-19.5-25.5L224,115.8 M224.4,114.8l-21.1,3.4l20.9,27.3l21.7-3.7
					L224.4,114.8L224.4,114.8z"/>
			</g>
			<g>
				<path class="st0" d="M202.9,119.3l19.5,25.5l-20.2,3.4l-18.9-25.8L202.9,119.3 M203.3,118.2l-21.7,3.5l20.2,27.6l22.4-3.8
					L203.3,118.2L203.3,118.2z"/>
			</g>
			<g>
				<path class="st0" d="M181.1,122.8l18.9,25.8l-19.8,3.4l-18.2-26L181.1,122.8 M181.6,121.7l-21.4,3.5l19.5,27.9l22-3.7
					L181.6,121.7L181.6,121.7z"/>
			</g>
			<g>
				<path class="st0" d="M159.8,126.3l18.2,26.1l-20.4,3.5L140,129.5L159.8,126.3 M160.2,125.2l-21.9,3.6l18.8,28.1l22.6-3.8
					L160.2,125.2L160.2,125.2z"/>
			</g>
			<g>
				<path class="st0" d="M137.8,129.9l17.6,26.3l-21,3.6l-16.9-26.6L137.8,129.9 M138.3,128.8l-22.4,3.6l18,28.4l23.1-3.9
					L138.3,128.8L138.3,128.8z"/>
			</g>
			<g>
				<path class="st0" d="M410.3,60.4l12.4,11l-7.2,1.1l-12.3-11L410.3,60.4 M410.6,59.3l-9.6,1.5l14.2,12.8L425,72L410.6,59.3
					L410.6,59.3z"/>
			</g>
		</g>
		<polygon class="st4" points="410.4,62.1 404.9,63 403.3,61.5 410.4,60.3 		"/>
		<polygon class="st4" points="189.1,103 181.6,104.2 180.5,102.6 189.1,101.2 		"/>
		<polygon class="st4" points="125.9,112 105,115.3 104,113.7 125.9,110.2 		"/>
		<polygon class="st4" points="462.1,67.8 131.8,120.8 131.8,119 462.1,66 		"/>
		<path class="st0" d="M469.6,53.7l26.3,21.4c0,0-1.2,0.3-1.4,0.2c-0.2-0.2-26.5-21.6-26.5-21.6H469.6z"/>
		<polygon class="st0" points="103,110.2 118.5,134.8 118.2,136 102,110.5 		"/>
		<polygon class="st4" points="520.5,96.9 133.9,162.6 133.9,160.9 520.5,95.2 		"/>
		<text transform="matrix(1 0 0 1 14.8977 77.9352)" class="st6 st7 st8">Level 6</text>
	</g>
</g>
</svg>
