<?xml version="1.0" encoding="utf-8"?>
<!-- Generator: Adobe Illustrator 22.0.1, SVG Export Plug-In . SVG Version: 6.00 Build 0)  -->
<svg version="1.1" id="Layer_1" xmlns="http://www.w3.org/2000/svg" xmlns:xlink="http://www.w3.org/1999/xlink" x="0px" y="0px"
	 viewBox="0 0 554.7 537.7" style="enable-background:new 0 0 554.7 537.7;" xml:space="preserve">
<style type="text/css">
	.st0{fill:#B8C1C1;}
	.st1{fill:#BCBCBB;}
	.st2{fill:#9B9C9D;}
	.st3{fill:#CAD4D4;}
	.st4{fill:#CBD5D4;}
	.st5{fill:#B7B8AB;}
	.st6{display:none;enable-background:new    ;}
	.st7{font-family:'BlissPro';}
	.st8{font-size:18px;}
</style>
<g>
	<g>
		<path class="st0" d="M424.3,387.1c-0.5,0-1.1,0-1.7,0.1l-108.9,16.5l-56.8,8.6L60.6,442.2c-3.7,0.6-6.8,2.9-8.4,6.3
			s-1.3,7.3,0.8,10.5l16.1,25.2l4.9,7.7l20,31.3c2,3.2,5.6,5.1,9.3,5.1c0.6,0,1.2-0.1,1.9-0.2l85.6-14.6l124.4-21.3l45.8-7.8
			l130.1-22.2c4.2-0.7,7.7-3.9,8.8-8c1.1-4.2-0.3-8.6-3.7-11.3l-39.4-32.3l-25.6-21C429.3,388,426.8,387.1,424.3,387.1L424.3,387.1z
			"/>
	</g>
</g>
<polygon class="st1" points="424,399.2 64.9,453.7 63.9,452.1 424,397.4 "/>
<polygon class="st2" points="103.4,517.4 62.2,453.1 62.2,451.3 103.4,515.6 "/>
<polygon class="st2" points="487,450.8 424,399.2 424,397.4 487,449.1 "/>
<polygon class="st1" points="489.3,451.4 103.4,517.4 103.4,515.6 489.3,449.7 "/>
<g id="Level_2">
	<g>
		<g>
			<g>
				<path class="st0" d="M424.3,309.1c-0.5,0-1.1,0-1.7,0.1l-108.9,16.5l-56.8,8.6L60.6,364.2c-3.7,0.6-6.8,2.9-8.4,6.3
					s-1.3,7.3,0.8,10.5l16.1,25.2l4.9,7.7l20,31.3c2,3.2,5.6,5.1,9.3,5.1c0.6,0,1.2-0.1,1.9-0.2l85.6-14.6l124.4-21.3l45.8-7.8
					l130.1-22.2c4.2-0.7,7.7-3.9,8.8-8c1.1-4.2-0.3-8.6-3.7-11.3l-39.4-32.3l-25.6-21C429.3,310,426.8,309.1,424.3,309.1
					L424.3,309.1z"/>
			</g>
		</g>
		<g>
			<polygon class="st3" points="338.4,358.9 449.9,341.2 424.3,320.1 315.3,336.7 			"/>
		</g>
		<polygon class="st4" points="338.4,358.9 449.9,341.2 424.3,320.1 315.3,336.7 		"/>
		<g>
			<polygon class="st3" points="324.2,361.2 449.9,341.2 489.3,373.4 359.2,395.7 			"/>
		</g>
		<polygon class="st4" points="324.2,361.2 449.9,341.2 489.3,373.4 359.2,395.7 		"/>
		<g>
			<polygon class="st3" points="324.2,361.2 280.1,368.2 313.4,403.5 359.2,395.7 			"/>
		</g>
		<polygon class="st4" points="324.2,361.2 280.1,368.2 313.4,403.5 359.2,395.7 		"/>
		<g>
			<polygon class="st5" points="258.5,345.3 62.2,375.1 78.4,400.3 83.3,408 166.1,394.7 189,424.8 313.4,403.5 286.7,375.2 
				280.1,368.2 338.4,358.9 315.3,336.7 			"/>
		</g>
		<g>
			<polygon class="st3" points="166.1,394.7 83.3,408 103.4,439.4 189,424.8 			"/>
		</g>
		<g>
			<polygon class="st3" points="166.1,394.7 83.3,408 103.4,439.4 189,424.8 			"/>
		</g>
		<polygon class="st4" points="166.1,394.7 83.3,408 103.4,439.4 189,424.8 		"/>
		<polygon class="st1" points="424,321.2 64.9,375.7 63.9,374.1 424,319.4 		"/>
		<polygon class="st1" points="449.6,342.2 283.6,368.7 282.1,367.1 449.6,340.5 		"/>
		<polygon class="st1" points="165.7,395.8 86,408.6 85,407 165.7,394 		"/>
		<polygon class="st2" points="103.4,439.4 62.2,375.1 62.2,373.3 103.4,437.6 		"/>
		<polygon class="st2" points="187.2,424 165.7,395.8 165.7,394 187.2,422.3 		"/>
		<polygon class="st2" points="311.4,402.8 278.1,367.5 278.1,365.8 311.4,401.1 		"/>
		<polygon class="st2" points="357.1,395 323.9,362.2 323.9,360.5 357.1,393.3 		"/>
		<polygon class="st2" points="334.7,356.7 315,337.7 315,336 336.2,356.5 		"/>
		<polygon class="st2" points="487,372.8 424,321.2 424,319.4 487,371.1 		"/>
		<g>
			<path class="st0" d="M424,319.4l23.6,19.3l-108.9,17.4l-21.2-20.5L424,319.4 M424.3,318.4l-109,16.5l23,22.2l111.6-17.8
				L424.3,318.4L424.3,318.4z"/>
			<path class="st0" d="M449.6,340.5l37.3,30.6l-127.5,21.8l-33.1-32.8L449.6,340.5 M449.9,339.4l-125.7,20l35,34.5l130.1-22.2
				L449.9,339.4L449.9,339.4z"/>
			<path class="st0" d="M323.9,360.5l33.2,32.8l-43.3,7.4l-31.7-33.6L323.9,360.5 M324.2,359.4l-44.1,7l33.3,35.3l45.8-7.8
				L324.2,359.4L324.2,359.4z"/>
			<path class="st0" d="M315,336l21.2,20.5l-56.3,9l-1.9,0.3l1.3,1.4l6.6,7l25.4,26.9l-122,20.8l-22.5-29.6l-0.4-0.5l-0.6,0.1
				l-82.1,13.3l-4.6-7.2l-15.2-23.9l194.7-29.6L315,336 M315.3,334.9l-56.8,8.6L62.2,373.3l16.1,25.2l4.9,7.7l82.8-13.4l22.9,30.1
				l124.4-21.3l-26.7-28.3l-6.6-7l58.2-9.3L315.3,334.9L315.3,334.9z"/>
			<path class="st0" d="M165.7,394l21.5,28.3l-83.3,14.2L85,407L165.7,394 M166.1,392.9l-82.8,13.4l20,31.3l85.6-14.6L166.1,392.9
				L166.1,392.9z"/>
		</g>
		<polygon class="st1" points="489.3,373.4 103.4,439.4 103.4,437.6 489.3,371.7 		"/>
		<text transform="matrix(1 0 0 1 -15.7672 354.5919)" class="st6 st7 st8">Level 2</text>
	</g>
</g>
<g id="Level_3">
	<g>
		<text transform="matrix(1 0 0 1 -15.7672 267.4216)" class="st6 st7 st8">Level 3</text>
		<g>
			<g>
				<path class="st0" d="M496.5,281l-15.8-13.2l-21.6-18l-27.6-23.1c-2-1.7-4.5-2.6-7.1-2.6c-0.6,0-1.1,0-1.7,0.1l-13.7,2.1
					l-13.7,2.1l-13.7,2.1c-4.2,0.6-7.7,3.7-8.9,7.8c0,0.1,0,0.2-0.1,0.3l-26.7,4.2l-1.9,0.3l-2.3-2.2c-2.1-2-4.8-3-7.6-3
					c-0.6,0-1.1,0-1.7,0.1l-14.2,2.2l-14.3,2.2l-14.5,2.2l-14.5,2.2l-14.4,2.2l-14.6,2.3l-15.1,2.3l-14.8,2.3l-22.7,3.5l-15.4,2.4
					l-15.3,2.4l-7.9,1.2c-3.9,0.6-7.1,3.2-8.6,6.8c-0.2,0.5-0.4,1.1-0.5,1.7l-17.1,2.7l-9.2,1.4l-0.7-1c-2.1-2.9-5.4-4.6-8.9-4.6
					c-0.6,0-1.1,0-1.7,0.1L92,275l-16.1,2.5L60,280.1c-3.7,0.6-6.8,3-8.4,6.4c-1.5,3.4-1.2,7.4,0.8,10.5l17.9,27.5l24.3,37.2
					c2.1,3.1,5.5,5,9.2,5c0.6,0,1.2-0.1,1.9-0.2l17.3-3l17.4-3l16.8-2.9l18.9-3.2l6.4-1.1l8.7-1.5l8.2-1.4l6.3-1.1l18.4-3.2l16-2.7
					l16.2-2.8l16.2-2.8l0.6-0.1l15.2-2.6l85.2-14.6l19.1-3.3l17.4-3l1.3-0.2l14.8-2.5l22-3.8l6.9-1.2l36.5-6.3
					c4.2-0.7,7.6-3.8,8.8-8C501.2,288.2,499.8,283.8,496.5,281z"/>
			</g>
		</g>
		<path class="st5" d="M473.7,276.3l-21.6-18l-27.6-23.1l-13.7,2.1l-13.7,2.1l-13.7,2.1l6.4,5.6l-14.1,2.2l-27.9,4.3l-7.2,1.1
			l-6.2-5.9l-14.2,2.2l-14.3,2.2l-14.5,2.2l-14.5,2.2l-14.4,2.2l-14.6,2.3l-15.1,2.3l-14.8,2.3l-22.7,3.5l-15.4,2.4l-15.3,2.4
			l-7.9,1.2l5,6.3l-31.1,4.9l-15.9,2.5l0,0l-4.6-6.5l-16,2.5L78,288.4l-16.1,2.5l17.9,27.5l0,0l24.3,37.2l17.3-3l17.4-3l16.8-2.9
			l18.9-3.2l6.4-1.1l8.7-1.5l8.2-1.4l6.3-1.1l18.4-3.2l16-2.7l0,0l16.2-2.8l0,0l16.2-2.8l0.6-0.1l15.2-2.6l85.2-14.6l19.1-3.3l0,0
			l17.4-3l1.3-0.2l14.8-2.5l22-3.8l6.9-1.2l36.5-6.3L473.7,276.3z"/>
		<polygon class="st3" points="91.3,308.3 74.8,310.9 61.4,290.4 77.6,287.9 		"/>
		<polygon class="st3" points="91.3,308.3 107.8,305.7 93.7,285.4 77.6,287.9 		"/>
		<polygon class="st3" points="124.1,303.1 107.8,305.7 93.7,285.4 109.6,283 		"/>
		<polygon class="st3" points="124.1,303.1 140.2,300.5 130.2,287 114.3,289.4 		"/>
		<polygon class="st3" points="171.8,295.4 140.2,300.5 130.2,287 161.3,282.1 		"/>
		<polygon class="st3" points="171.8,295.4 179.9,294.1 164.3,274.6 156.3,275.8 		"/>
		<polygon class="st3" points="195.5,291.7 211.3,289.1 195,269.8 179.5,272.2 		"/>
		<polygon class="st3" points="228.7,278.9 205.7,282.5 195,269.8 217.7,266.3 		"/>
		<polygon class="st3" points="234.5,285.4 249.5,283 232.5,264 217.7,266.3 		"/>
		<polygon class="st3" points="265,280.6 249.5,283 232.5,264 247.6,261.7 		"/>
		<polygon class="st3" points="265,280.6 279.9,278.2 262.2,259.5 247.6,261.7 		"/>
		<polygon class="st3" points="294.6,275.8 279.9,278.2 262.2,259.5 276.7,257.2 		"/>
		<polygon class="st3" points="294.6,275.8 309.5,273.5 291.2,255 276.7,257.2 		"/>
		<polygon class="st3" points="324.2,271.1 309.5,273.5 291.2,255 305.7,252.8 		"/>
		<polygon class="st3" points="324.2,271.1 338.8,268.8 320,250.6 305.7,252.8 		"/>
		<polygon class="st3" points="353.2,266.5 338.8,268.8 320,250.6 334.2,248.4 		"/>
		<polygon class="st3" points="346.8,260.3 354,259.2 347.6,253.1 340.4,254.3 		"/>
		<polygon class="st3" points="346.8,260.3 354,259.2 360.5,265.3 353.2,266.5 		"/>
		<polygon class="st3" points="375.5,248.8 347.6,253.1 360.5,265.3 388.8,260.8 		"/>
		<polygon class="st3" points="375.5,248.8 389.6,246.6 403.1,258.5 388.8,260.8 		"/>
		<polygon class="st3" points="396.9,238.8 383.2,240.9 403.1,258.5 417.1,256.3 		"/>
		<polygon class="st3" points="396.9,238.8 410.6,236.7 431,254.1 417.1,256.3 		"/>
		<polygon class="st3" points="424.3,234.6 410.6,236.7 437.9,260 452,257.7 		"/>
		<polygon class="st3" points="473.5,275.7 459.2,278.1 437.9,260 452,257.7 		"/>
		<polygon class="st3" points="473.5,275.7 452.1,279.3 467.6,292.6 489.3,288.9 		"/>
		<polygon class="st3" points="423.8,276.8 445.1,273.3 467.6,292.6 445.9,296.3 		"/>
		<polygon class="st3" points="423.8,276.8 402.2,280.4 423.9,300.1 445.9,296.3 		"/>
		<polygon class="st3" points="387.8,282.8 402.2,280.4 423.9,300.1 409.1,302.6 		"/>
		<polygon class="st3" points="374.3,270.2 337.7,276.1 371.4,309.1 409.1,302.6 		"/>
		<polygon class="st3" points="240.1,291.9 337.7,276.1 371.4,309.1 270.4,326.4 		"/>
		<polygon class="st3" points="240.1,291.9 224.5,294.4 236,307.9 251.8,305.3 		"/>
		<polygon class="st3" points="270.4,326.4 254.2,329.2 236,307.9 251.8,305.3 		"/>
		<polygon class="st3" points="238,332 254.2,329.2 241.5,314.3 225.6,317 		"/>
		<polygon class="st3" points="238,332 222,334.7 204.5,313.1 220.1,310.5 		"/>
		<polygon class="st3" points="155,346.3 138.3,349.1 112.7,312.5 128.8,309.9 		"/>
		<polygon class="st3" points="120.9,352.1 138.3,349.1 112.7,312.5 96,315.2 		"/>
		<polygon class="st3" points="120.9,352.1 103.6,355.1 79.4,317.9 96,315.2 		"/>
		<polygon class="st3" points="208.8,296.9 193.4,299.4 204.5,313.1 220.1,310.5 		"/>
		<polygon class="st3" points="169.5,303.3 174.8,310.1 166.5,311.5 188.6,340.5 197.2,339 203.6,337.9 222,334.7 193.4,299.4 		"/>
		<polygon class="st3" points="153.3,305.9 158.5,312.8 166.9,311.4 189.1,340.4 180.4,341.9 174,343 155.1,346.2 128.9,309.9 		"/>
		<polygon class="st3" points="423.8,276.8 445.1,273.3 430.9,261.1 409.9,264.5 		"/>
		<polygon class="st3" points="220.9,280.1 205.7,282.5 211.3,289.1 226.6,286.7 		"/>
		<polygon class="st3" points="164.3,274.6 174.2,287 182.3,285.7 188.1,292.8 195.5,291.7 179.5,272.2 		"/>
		<polygon class="st3" points="188.1,292.8 179.9,294.1 174.2,287 182.3,285.7 		"/>
		<polygon class="st4" ng-class="{'pulsate': $ctrl.company.comproom == '3067'}" points="91.3,308.3 74.8,310.9 61.4,290.4 77.6,287.9 		"/>
		<polygon class="st4" ng-class="{'pulsate': $ctrl.company.comproom == '3069'}" points="91.3,308.3 107.8,305.7 93.7,285.4 77.6,287.9 		"/>
		<polygon class="st4" ng-class="{'pulsate': $ctrl.company.comproom == '3071'}" points="124.1,303.1 107.8,305.7 93.7,285.4 109.6,283 		"/>
		<polygon class="st4" points="124.1,303.1 140.2,300.5 130.2,287 114.3,289.4 		"/>
		<polygon class="st4" points="171.8,295.4 140.2,300.5 130.2,287 161.3,282.1 		"/>
		<polygon class="st4" points="171.8,295.4 179.9,294.1 164.3,274.6 156.3,275.8 		"/>
		<polygon class="st4" ng-class="{'pulsate': $ctrl.company.comproom == '3005'}" points="195.5,291.7 211.3,289.1 195,269.8 179.5,272.2 		"/>
		<polygon class="st4" ng-class="{'pulsate': $ctrl.company.comproom == '3007'}" points="228.7,278.9 205.7,282.5 195,269.8 217.7,266.3 		"/>
		<polygon class="st4" ng-class="{'pulsate': $ctrl.company.comproom == '3011'}" points="234.5,285.4 249.5,283 232.5,264 217.7,266.3 		"/>
		<polygon class="st4" ng-class="{'pulsate': $ctrl.company.comproom == '3013'}" points="265,280.6 249.5,283 232.5,264 247.6,261.7 		"/>
		<polygon class="st4" ng-class="{'pulsate': $ctrl.company.comproom == '3015'}" points="265,280.6 279.9,278.2 262.2,259.5 247.6,261.7 		"/>
		<polygon class="st4" ng-class="{'pulsate': $ctrl.company.comproom == '3017'}" points="294.6,275.8 279.9,278.2 262.2,259.5 276.7,257.2 		"/>
		<polygon class="st4" ng-class="{'pulsate': $ctrl.company.comproom == '3019'}" points="294.6,275.8 309.5,273.5 291.2,255 276.7,257.2 		"/>
		<polygon class="st4" ng-class="{'pulsate': $ctrl.company.comproom == '3021'}" points="324.2,271.1 309.5,273.5 291.2,255 305.7,252.8 		"/>
		<polygon class="st4" ng-class="{'pulsate': $ctrl.company.comproom == '3023'}" points="324.2,271.1 338.8,268.8 320,250.6 305.7,252.8 		"/>
		<polygon class="st4" ng-class="{'pulsate': $ctrl.company.comproom == '3025'}" points="353.2,266.5 338.8,268.8 320,250.6 334.2,248.4 		"/>
		<polygon class="st4" points="346.8,260.3 354,259.2 347.6,253.1 340.4,254.3 		"/>
		<polygon class="st4" points="346.8,260.3 354,259.2 360.5,265.3 353.2,266.5 		"/>
		<polygon class="st4" points="375.5,248.8 347.6,253.1 360.5,265.3 388.8,260.8 		"/>
		<polygon class="st4" points="375.5,248.8 389.6,246.6 403.1,258.5 388.8,260.8 		"/>
		<polygon class="st4" ng-class="{'pulsate': $ctrl.company.comproom == '3027'}" points="396.9,238.8 383.2,240.9 403.1,258.5 417.1,256.3 		"/>
		<polygon class="st4" ng-class="{'pulsate': $ctrl.company.comproom == '3029'}" points="396.9,238.8 410.6,236.7 431,254.1 417.1,256.3 		"/>
		<polygon class="st4" ng-class="{'pulsate': $ctrl.company.comproom == '3031'}" points="424.3,234.6 410.6,236.7 437.9,260 452,257.7 		"/>
		<polygon class="st4" ng-class="{'pulsate': $ctrl.company.comproom == '3033'}" points="473.5,275.7 459.2,278.1 437.9,260 452,257.7 		"/>
		<polygon class="st4" ng-class="{'pulsate': $ctrl.company.comproom == '3035'}" points="473.5,275.7 452.1,279.3 467.6,292.6 489.3,288.9 		"/>
		<polygon class="st4" ng-class="{'pulsate': $ctrl.company.comproom == '3037'}" points="423.8,276.8 445.1,273.3 467.6,292.6 445.9,296.3 		"/>
		<polygon class="st4" ng-class="{'pulsate': $ctrl.company.comproom == '3039'}" points="423.8,276.8 402.2,280.4 423.9,300.1 445.9,296.3 		"/>
		<polygon class="st4" ng-class="{'pulsate': $ctrl.company.comproom == '3040'}" points="387.8,282.8 402.2,280.4 423.9,300.1 409.1,302.6 		"/>
		<polygon class="st4" ng-class="{'pulsate': $ctrl.company.comproom == '3041'}" points="374.3,270.2 337.7,276.1 371.4,309.1 409.1,302.6 		"/>
		<polygon class="st4" ng-class="{'pulsate': $ctrl.company.comproom == '3043'}" points="240.1,291.9 337.7,276.1 371.4,309.1 270.4,326.4 		"/>
		<polygon class="st4" ng-class="{'pulsate': $ctrl.company.comproom == '3047'}" points="240.1,291.9 224.5,294.4 236,307.9 251.8,305.3 		"/>
		<polygon class="st4" ng-class="{'pulsate': $ctrl.company.comproom == '3049'}" points="270.4,326.4 254.2,329.2 236,307.9 251.8,305.3 		"/>
		<polygon class="st4" ng-class="{'pulsate': $ctrl.company.comproom == '3051'}" points="238,332 254.2,329.2 241.5,314.3 225.6,317 		"/>
		<polygon class="st4" ng-class="{'pulsate': $ctrl.company.comproom == '3053'}" points="238,332 222,334.7 204.5,313.1 220.1,310.5 		"/>
		<polygon class="st4" ng-class="{'pulsate': $ctrl.company.comproom == '3061'}" points="155,346.3 138.3,349.1 112.7,312.5 128.8,309.9 		"/>
		<polygon class="st4" ng-class="{'pulsate': $ctrl.company.comproom == '3063'}" points="120.9,352.1 138.3,349.1 112.7,312.5 96,315.2 		"/>
		<polygon class="st4" ng-class="{'pulsate': $ctrl.company.comproom == '3065'}" points="120.9,352.1 103.6,355.1 79.4,317.9 96,315.2 		"/>
		<polygon class="st4" ng-class="{'pulsate': $ctrl.company.comproom == '3055'}" points="208.8,296.9 193.4,299.4 204.5,313.1 220.1,310.5 		"/>
		<polygon class="st4" ng-class="{'pulsate': $ctrl.company.comproom == '3057'}" points="169.5,303.3 174.8,310.1 166.5,311.5 188.6,340.5 197.2,339 203.6,337.9 222,334.7 193.4,299.4 		"/>
		<polygon class="st4" ng-class="{'pulsate': $ctrl.company.comproom == '3059'}" points="153.3,305.9 158.5,312.8 166.9,311.4 189.1,340.4 180.4,341.9 174,343 155.1,346.2 128.9,309.9 		"/>
		<polygon class="st4" ng-class="{'pulsate': $ctrl.company.comproom == '3038'}" points="423.8,276.8 445.1,273.3 430.9,261.1 409.9,264.5 		"/>
		<polygon class="st4" points="220.9,280.1 205.7,282.5 211.3,289.1 226.6,286.7 		"/>
		<polygon class="st4" points="164.3,274.6 174.2,287 182.3,285.7 188.1,292.8 195.5,291.7 179.5,272.2 		"/>
		<polygon class="st4" points="188.1,292.8 179.9,294.1 174.2,287 182.3,285.7 		"/>
		<polygon class="st2" points="74.8,310.9 61.4,290.4 61.4,288.9 74.8,309.4 		"/>
		<polygon class="st2" points="89.6,307.5 77.1,289 77.1,287.5 89.6,306 		"/>
		<polygon class="st1" points="64,291 77.1,289 77.1,287.5 63.1,289.6 		"/>
		<polygon class="st1" points="81.9,318.5 152.8,307 152.8,305.5 81,317.1 		"/>
		<polygon class="st1" points="80.2,288.5 109.2,284.1 109.2,282.5 79.3,287.1 		"/>
		<polygon class="st1" points="117,290 160.9,283.2 160.9,281.6 116,288.6 		"/>
		<polygon class="st1" points="159.3,276.3 333.8,249.4 333.8,247.9 158.2,275 		"/>
		<polygon class="st1" points="343.9,254.7 389.3,247.6 389.3,246.1 342.5,253.4 		"/>
		<polygon class="st1" points="387,241.4 424.1,235.7 424.1,234.1 385.5,240.1 		"/>
		<polygon class="st2" points="106,304.9 93.2,286.5 93.2,285 106,303.4 		"/>
		<polygon class="st2" points="122.3,302.3 109.2,284.1 109.2,282.5 122.3,300.8 		"/>
		<polygon class="st2" points="138.4,299.8 129.7,288 129.7,286.5 138.4,298.2 		"/>
		<polygon class="st2" points="170,294.7 160.9,283.2 160.9,281.6 170,293.2 		"/>
		<polygon class="st2" points="160.2,280.7 156.3,275.8 156.3,274.2 161.3,280.5 		"/>
		<polygon class="st2" points="178.1,293.4 163.9,275.6 163.9,274.1 178.1,291.9 		"/>
		<polygon class="st2" points="186.2,292.1 181.9,286.8 181.9,285.3 186.2,290.6 		"/>
		<polygon class="st2" points="193.6,290.9 179.1,273.3 179.1,271.7 193.6,289.4 		"/>
		<polygon class="st2" points="209.4,288.4 194.6,270.9 194.6,269.3 209.4,286.9 		"/>
		<polygon class="st2" points="224.7,286 220.5,281.2 220.5,279.7 224.7,284.4 		"/>
		<polygon class="st2" points="226.8,278.2 217.3,267.4 217.3,265.8 226.8,276.6 		"/>
		<polygon class="st2" points="234.5,285.4 228.7,278.9 228.7,277.3 234.5,283.9 		"/>
		<polygon class="st2" points="247.6,282.3 232.1,265.1 232.1,263.6 247.6,280.8 		"/>
		<polygon class="st2" points="263,279.9 247.2,262.8 247.2,261.2 263,278.3 		"/>
		<polygon class="st2" points="277.9,277.5 261.9,260.5 261.9,259 277.9,275.9 		"/>
		<polygon class="st2" points="292.6,275.1 276.3,258.3 276.3,256.7 292.6,273.6 		"/>
		<polygon class="st2" points="307.4,272.8 290.8,256.1 290.8,254.5 307.4,271.2 		"/>
		<polygon class="st2" points="322.1,270.4 305.3,253.8 305.3,252.3 322.1,268.9 		"/>
		<polygon class="st2" points="336.7,268.1 319.7,251.6 319.7,250.1 336.7,266.6 		"/>
		<polygon class="st2" points="351.1,265.8 333.8,249.4 333.8,247.9 351.1,264.3 		"/>
		<polygon class="st2" points="358.4,264.6 347.3,254.2 347.3,252.7 358.4,263.1 		"/>
		<polygon class="st2" points="386.6,260.1 375.2,249.9 375.2,248.3 386.6,258.6 		"/>
		<polygon class="st2" points="400.9,257.9 389.3,247.6 389.3,246.1 400.9,256.3 		"/>
		<polygon class="st2" points="414.8,255.6 396.6,239.9 396.6,238.3 414.8,254.1 		"/>
		<polygon class="st2" points="428.7,253.4 410.3,237.8 410.3,236.2 428.7,251.9 		"/>
		<polygon class="st2" points="459.2,278.1 431,254.1 431,252.5 459.2,276.5 		"/>
		<polygon class="st2" points="465.3,292 430.6,262.1 430.6,260.6 465.3,290.4 		"/>
		<polygon class="st2" points="422.3,275.5 409.9,264.5 409.9,262.9 423.8,275.3 		"/>
		<polygon class="st2" points="443.6,295.7 423.5,277.9 423.5,276.3 443.6,294.1 		"/>
		<polygon class="st2" points="421.7,299.4 401.9,281.4 401.9,279.9 421.7,297.9 		"/>
		<polygon class="st2" points="407,302 373.9,271.3 373.9,269.7 407,300.4 		"/>
		<polygon class="st2" points="369.3,308.4 337.4,277.2 337.4,275.6 369.3,306.9 		"/>
		<polygon class="st2" points="268.5,325.8 239.7,293 239.7,291.4 268.5,324.2 		"/>
		<polygon class="st2" points="252.3,328.5 241.1,315.4 241.1,313.9 252.3,327 		"/>
		<polygon class="st2" points="236.1,331.3 208.4,298 208.4,296.5 236.1,329.8 		"/>
		<polygon class="st2" points="220.2,334 193,300.5 193,299 220.2,332.5 		"/>
		<polygon class="st2" points="174.8,310.1 169.5,303.3 169.5,301.7 174.8,308.6 		"/>
		<polygon class="st2" points="187.3,339.7 166.4,312.5 166.4,311 187.3,338.1 		"/>
		<polygon class="st2" points="158,313.9 152.8,307 152.8,305.5 158,312.3 		"/>
		<polygon class="st2" points="153.2,345.5 128.3,311 128.3,309.4 153.2,344 		"/>
		<polygon class="st2" points="136.6,348.4 112.3,313.6 112.3,312 136.6,346.8 		"/>
		<polygon class="st2" points="119.2,351.4 95.5,316.3 95.5,314.7 119.2,349.8 		"/>
		<polygon class="st2" points="103.6,355.1 74.2,309.9 73.5,307.4 103.6,353.5 		"/>
		<polygon class="st2" points="240.4,313 224.5,294.4 224.5,292.9 241.5,312.8 		"/>
		<polygon class="st2" points="487,288.2 424.1,235.7 424.1,234.1 487,286.7 		"/>
		<polygon class="st2" points="388.1,245.3 383.2,240.9 383.2,239.4 389.6,245 		"/>
		<g>
			<path class="st0" d="M77.1,287.5L89.6,306l-14.3,2.3l-12.2-18.7L77.1,287.5 M77.6,286.4l-16.1,2.5l13.4,20.5l16.5-2.6L77.6,286.4
				L77.6,286.4z"/>
			<path class="st0" d="M93.2,285l12.8,18.4l-14.2,2.3l-12.5-18.6L93.2,285 M93.7,283.9l-16.1,2.5l13.8,20.4l16.5-2.6L93.7,283.9
				L93.7,283.9z"/>
			<path class="st0" d="M109.2,282.5l13.2,18.3l-14.1,2.3l-12.8-18.4L109.2,282.5 M109.6,281.4l-16,2.5l14.1,20.2l16.3-2.6
				L109.6,281.4L109.6,281.4z"/>
			<path class="st0" d="M129.7,286.5l8.7,11.7l-13.9,2.2l-8.5-11.8L129.7,286.5 M130.2,285.4l-15.9,2.5l9.8,13.6l16.1-2.6
				L130.2,285.4L130.2,285.4z"/>
			<path class="st0" d="M160.9,281.6l9.1,11.5l-29.3,4.7l-8.7-11.7L160.9,281.6 M161.3,280.5l-31.1,4.9l10.1,13.5l31.6-5
				L161.3,280.5L161.3,280.5z"/>
			<path class="st0" d="M163.8,274.1l14.2,17.8l-5.8,0.9l-14.1-17.9L163.8,274.1 M164.3,273l-7.9,1.2l15.5,19.7l8.1-1.3L164.3,273
				L164.3,273z"/>
			<path class="st0" d="M194.6,269.3l14.8,17.5l-13.4,2.1l-14.5-17.7L194.6,269.3 M195,268.3l-15.4,2.4l16,19.5l15.8-2.5L195,268.3
				L195,268.3z"/>
			<path class="st0" d="M217.3,265.8l9.5,10.8l-20.7,3.3l-9.2-10.9L217.3,265.8 M217.7,264.8l-22.7,3.5l10.7,12.7l23-3.6
				L217.7,264.8L217.7,264.8z"/>
			<path class="st0" d="M232.1,263.6l15.5,17.2l-12.7,2l-15.2-17.3L232.1,263.6 M232.5,262.5l-14.8,2.3l16.8,19.1l15.1-2.4
				L232.5,262.5L232.5,262.5z"/>
			<path class="st0" d="M247.2,261.2l15.8,17.1l-13.1,2.1l-15.5-17.2L247.2,261.2 M247.6,260.2l-15.1,2.3l17.1,19l15.5-2.5
				L247.6,260.2L247.6,260.2z"/>
			<path class="st0" d="M261.9,259l16,17l-12.5,2l-15.7-17.1L261.9,259 M262.2,257.9l-14.6,2.3l17.4,18.9l14.9-2.4L262.2,257.9
				L262.2,257.9z"/>
			<path class="st0" d="M276.3,256.7l16.3,16.8l-12.3,2l-16-17L276.3,256.7 M276.7,255.7l-14.4,2.2l17.7,18.7l14.7-2.4L276.7,255.7
				L276.7,255.7z"/>
			<path class="st0" d="M290.8,254.5l16.5,16.7l-12.4,2l-16.3-16.8L290.8,254.5 M291.2,253.4l-14.5,2.2l18,18.6l14.8-2.4
				L291.2,253.4L291.2,253.4z"/>
			<path class="st0" d="M305.3,252.3l16.8,16.6l-12.3,2l-16.5-16.8L305.3,252.3 M305.7,251.2l-14.5,2.2l18.2,18.5l14.7-2.4
				L305.7,251.2L305.7,251.2z"/>
			<path class="st0" d="M319.7,250.1l17,16.5l-12.1,1.9l-16.8-16.6L319.7,250.1 M320,249l-14.3,2.2l18.5,18.3l14.6-2.3L320,249
				L320,249z"/>
			<path class="st0" d="M333.8,247.9l17.3,16.4l-11.9,1.9l-17-16.5L333.8,247.9 M334.2,246.8L320,249l18.8,18.2l14.4-2.3
				L334.2,246.8L334.2,246.8z"/>
			<path class="st0" d="M347.3,252.7l4.6,4.3l-4.7,0.7l-4.6-4.3L347.3,252.7 M347.6,251.6l-7.2,1.1l6.4,6.1l7.3-1.1L347.6,251.6
				L347.6,251.6z"/>
			<path class="st0" d="M353.7,258.7l4.7,4.4l-4.8,0.8l-4.7-4.4L353.7,258.7 M354,257.6l-7.3,1.1l6.5,6.2l7.3-1.2L354,257.6
				L354,257.6z"/>
			<path class="st0" d="M375.2,248.3l11.4,10.3l-25.7,4.1l-11.1-10.4L375.2,248.3 M375.5,247.2l-27.9,4.3l13,12.2l28.2-4.5
				L375.5,247.2L375.5,247.2z"/>
			<path class="st0" d="M389.3,246.1l11.6,10.2l-11.8,1.9l-11.4-10.3L389.3,246.1 M389.6,245l-14.1,2.2l13.3,12l14.3-2.3L389.6,245
				L389.6,245z"/>
			<path class="st0" d="M396.6,238.3l18.1,15.7l-11.4,1.8l-17.8-15.7L396.6,238.3 M396.9,237.3l-13.7,2.1l19.9,17.6l13.9-2.2
				L396.9,237.3L396.9,237.3z"/>
			<path class="st0" d="M410.3,236.2l18.4,15.6l-11.3,1.8l-18.1-15.7L410.3,236.2 M410.6,235.2l-13.7,2.1l20.1,17.5l13.9-2.2
				L410.6,235.2L410.6,235.2z"/>
			<path class="st0" d="M424.1,234.1l25.6,21.4l-11.4,1.8L413,235.8L424.1,234.1 M424.3,233.1l-13.7,2.1l27.3,23.2l14.1-2.3
				L424.3,233.1L424.3,233.1z"/>
			<path class="st0" d="M451.7,257.2l19.5,16.3l-11.7,2l-19.3-16.4L451.7,257.2 M452,256.1l-14.1,2.3l21.3,18.1l14.3-2.4L452,256.1
				L452,256.1z"/>
			<path class="st0" d="M473.2,275.2l13.7,11.5l-19.1,3.3l-13.5-11.6L473.2,275.2 M473.5,274.1l-21.4,3.6l15.5,13.3l21.7-3.7
				L473.5,274.1L473.5,274.1z"/>
			<path class="st0" d="M444.8,272.8l20.5,17.6l-19.1,3.3l-20.1-17.8L444.8,272.8 M445.1,271.7l-21.3,3.5l22.1,19.5l21.7-3.7
				L445.1,271.7L445.1,271.7z"/>
			<path class="st0" d="M423.5,276.3l20.1,17.8l-19.4,3.3l-19.8-18L423.5,276.3 M423.8,275.3l-21.6,3.6l21.7,19.7l22-3.8
				L423.8,275.3L423.8,275.3z"/>
			<path class="st0" d="M401.9,279.9l19.8,18l-12.3,2.1l-19.5-18.1L401.9,279.9 M402.2,278.8l-14.5,2.4l21.4,19.9l14.8-2.5
				L402.2,278.8L402.2,278.8z"/>
			<path class="st0" d="M373.9,269.7l33,30.7l-35.2,6l-31.9-31.2L373.9,269.7 M374.3,268.7l-36.5,5.9l33.7,33l37.7-6.5L374.3,268.7
				L374.3,268.7z"/>
			<path class="st0" d="M337.4,275.6l31.9,31.2l-98.5,16.9l-28.7-32.8L337.4,275.6 M337.7,274.6l-97.6,15.8l30.3,34.5l101-17.3
				L337.7,274.6L337.7,274.6z"/>
			<path class="st0" d="M239.7,291.4l10.2,11.6l-13.5,2.2l-10-11.7L239.7,291.4 M240.1,290.3l-15.6,2.5l11.5,13.5l15.8-2.6
				L240.1,290.3L240.1,290.3z"/>
			<path class="st0" d="M251.5,304.8l17,19.4l-13.9,2.4L237.9,307L251.5,304.8 M251.8,303.7l-15.8,2.6l18.2,21.3l16.2-2.8
				L251.8,303.7L251.8,303.7z"/>
			<path class="st0" d="M241.1,313.9l11.2,13.1l-13.9,2.4l-11-13.2L241.1,313.9 M241.5,312.8l-16,2.7l12.5,15l16.2-2.8L241.5,312.8
				L241.5,312.8z"/>
			<path class="st0" d="M219.7,310l16.4,19.7l-13.7,2.4l-16.1-19.9L219.7,310 M220.1,308.9l-15.7,2.6l17.6,21.7l16-2.7L220.1,308.9
				L220.1,308.9z"/>
			<path class="st0" d="M128.3,309.4l24.9,34.6l-14.5,2.5l-24.3-34.8L128.3,309.4 M128.8,308.3l-16.1,2.6l25.6,36.6l16.7-2.9
				L128.8,308.3L128.8,308.3z"/>
			<path class="st0" d="M112.3,312l24.3,34.8l-15.2,2.6l-23.7-35.1L112.3,312 M112.7,310.9l-16.8,2.7l24.9,36.9l17.4-3L112.7,310.9
				L112.7,310.9z"/>
			<path class="st0" d="M95.5,314.7l23.7,35.1l-15.1,2.6L81,317.1L95.5,314.7 M96,313.6l-16.6,2.7l24.3,37.2l17.3-3L96,313.6
				L96,313.6z"/>
			<path class="st0" d="M208.4,296.5l9.8,11.8l-13.4,2.2l-9.6-11.9L208.4,296.5 M208.8,295.4l-15.4,2.5l11.1,13.6l15.7-2.6
				L208.8,295.4L208.8,295.4z"/>
			<path class="st0" d="M193,299l27.2,33.5l-16.8,2.9l-6.3,1.1l-8,1.4l-20.8-27.2l6.7-1.1l1.7-0.3l-1-1.3l-4.3-5.5L193,299
				 M193.4,297.9l-23.9,3.9l5.3,6.8l-8.4,1.4l22.2,29l8.6-1.5l6.3-1.1l18.4-3.2L193.4,297.9L193.4,297.9z"/>
			<path class="st0" d="M152.8,305.5l4.8,6.4l0.4,0.5l0.6-0.1l7.8-1.3l20.9,27.1l-7,1.2l-6.4,1.1l-18.3,3.1l-24.9-34.6L152.8,305.5
				 M153.3,304.4l-24.7,4l25.9,36.4l19.6-3.4l6.4-1.1l8.7-1.5l-22.2-29l-8.4,1.4L153.3,304.4L153.3,304.4z"/>
			<path class="st0" d="M430.6,260.6l12.2,10.5l-18.7,3.1l-12-10.6L430.6,260.6 M430.9,259.5l-21.1,3.4l13.9,12.3l21.3-3.5
				L430.9,259.5L430.9,259.5z"/>
			<path class="st0" d="M220.5,279.7l4.1,4.8l-13,2.1l-4.1-4.8L220.5,279.7 M220.9,278.6l-15.3,2.4l5.6,6.6l15.4-2.5L220.9,278.6
				L220.9,278.6z"/>
			<path class="st0" d="M179.1,271.7l14.5,17.7l-5.1,0.8l-5.4-6.7l-0.4-0.4l-0.6,0.1l-7.5,1.2l-8.5-10.7L179.1,271.7 M179.5,270.7
				l-15.3,2.4l10,12.5l8.1-1.3l5.8,7.1l7.4-1.2L179.5,270.7L179.5,270.7z"/>
			<path class="st0" d="M181.9,285.3l4.3,5.3l-5.9,0.9l-4.3-5.3L181.9,285.3 M182.3,284.2l-8.1,1.3l5.7,7.1l8.2-1.3L182.3,284.2
				L182.3,284.2z"/>
		</g>
		<polygon class="st0" points="104.1,352.4 74.3,306.7 73.5,307.4 103.6,353.5 		"/>
		<polygon class="st1" points="441.7,260.3 451.7,258.7 451.7,257.2 440.2,259 		"/>
		<polygon class="st1" points="413.6,264.9 430.6,262.1 430.6,260.6 412.1,263.6 		"/>
		<polygon class="st1" points="391.3,283.2 444.8,274.3 444.8,272.8 389.9,281.9 		"/>
		<polygon class="st1" points="455.9,279.7 473.2,276.8 473.2,275.2 454.4,278.4 		"/>
		<polygon class="st1" points="234.5,285.4 431,254.1 431,252.5 234.5,283.9 		"/>
		<polygon class="st1" points="76.8,310.6 226.6,286.7 226.6,285.1 75.9,309.2 		"/>
		<polygon class="st1" points="103.6,355.1 489.3,288.9 489.3,287.3 103.6,353.5 		"/>
		<polygon class="st1" points="348.9,259.4 353.7,258.7 353.7,260.2 350.3,260.8 		"/>
		<polygon class="st1" points="177.2,287.6 176.1,286.2 181.9,285.3 181.9,286.8 		"/>
		<polygon class="st1" points="208.7,283.1 207.6,281.7 220.5,279.7 220.5,281.2 		"/>
		<polygon class="st1" points="222.1,279.9 220.9,278.6 228.7,277.3 228.7,278.9 		"/>
		<polygon class="st1" points="158,313.9 176.7,310.9 176.7,309.3 158,312.3 		"/>
		<polygon class="st1" points="172.4,303.8 208.4,298 208.4,296.5 171.3,302.5 		"/>
		<polygon class="st1" points="207.4,313.6 219.7,311.6 219.7,310 206.3,312.2 		"/>
		<polygon class="st1" points="228.6,317.5 241.1,315.4 241.1,313.9 227.4,316.2 		"/>
		<polygon class="st1" points="239.1,308.4 251.5,306.3 251.5,304.8 237.9,307 		"/>
		<polygon class="st1" points="227.6,294.9 373.9,271.3 373.9,269.7 226.4,293.6 		"/>
	</g>
</g>
<polygon class="st5" points="487,450.8 104.6,516.3 63.9,453.7 424,399.2 "/>
</svg>
