<?xml version="1.0" encoding="utf-8"?>
<!-- Generator: Adobe Illustrator 22.0.1, SVG Export Plug-In . SVG Version: 6.00 Build 0)  -->
<svg version="1.1" id="Layer_1" xmlns="http://www.w3.org/2000/svg" xmlns:xlink="http://www.w3.org/1999/xlink" x="0px" y="0px"
	 viewBox="0 0 554.7 537.7" style="enable-background:new 0 0 554.7 537.7;" xml:space="preserve">
<style type="text/css">
	.st0{fill:#B8C1C1;}
	.st1{fill:#BCBCBB;}
	.st2{fill:#9B9C9D;}
	.st3{fill:#B7B8AB;}
	.st4{fill:#CAD4D4;}
	.st5{fill:#CBD5D4;}
	.st6{display:none;enable-background:new    ;}
	.st7{font-family:'BlissPro';}
	.st8{font-size:18px;}
</style>
<g id="Level_0">
	<g>
		<g>
			<path class="st0" d="M422.2,395.8c-0.5,0-1.1,0-1.7,0.1l-108.9,16.5l-56.8,8.6L58.5,450.9c-3.7,0.6-6.8,2.9-8.4,6.3
				s-1.3,7.3,0.8,10.5L67,492.9l4.9,7.7l20,31.3c2,3.2,5.6,5.1,9.3,5.1c0.6,0,1.2-0.1,1.9-0.2l85.6-14.6l124.4-21.3l45.8-7.8
				L489,470.9c4.2-0.7,7.7-3.9,8.8-8c1.1-4.2-0.3-8.6-3.7-11.3l-39.4-32.3l-25.6-21C427.2,396.7,424.7,395.8,422.2,395.8
				L422.2,395.8z"/>
		</g>
	</g>
	<polygon class="st1" points="421.9,407.9 62.8,462.4 61.8,460.8 421.9,406.1 	"/>
	<polygon class="st2" points="101.3,526.1 60.1,461.8 60.1,460 101.3,524.3 	"/>
	<polygon class="st2" points="484.9,459.5 421.9,407.9 421.9,406.1 484.9,457.8 	"/>
	<polygon class="st1" points="487.2,460.1 101.3,526.1 101.3,524.3 487.2,458.4 	"/>
	<polygon class="st3" points="484.9,459.5 102.4,525 61.8,462.4 421.9,407.9 	"/>
</g>
<g id="Level_2">
	<g>
		<g>
			<g>
				<path class="st0" d="M421,325.2c-0.5,0-1.1,0-1.7,0.1l-108.9,16.5l-56.8,8.6L57.3,380.3c-3.7,0.6-6.8,2.9-8.4,6.3
					s-1.3,7.3,0.8,10.5l16.1,25.2l4.9,7.7l20,31.3c2,3.2,5.6,5.1,9.3,5.1c0.6,0,1.2-0.1,1.9-0.2l85.6-14.6l124.4-21.3l45.8-7.8
					l130.1-22.2c4.2-0.7,7.7-3.9,8.8-8c1.1-4.2-0.3-8.6-3.7-11.3l-39.4-32.3l-25.6-21C426,326.1,423.5,325.2,421,325.2L421,325.2z"
					/>
			</g>
		</g>
		<g>
			<polygon class="st4" points="335.1,375 446.6,357.3 421,336.2 312,352.8 			"/>
		</g>
		<polygon class="st5" points="335.1,375 446.6,357.3 421,336.2 312,352.8 		"/>
		<g>
			<polygon class="st4" points="320.9,377.3 446.6,357.3 486,389.5 355.9,411.8 			"/>
		</g>
		<polygon class="st5" points="320.9,377.3 446.6,357.3 486,389.5 355.9,411.8 		"/>
		<g>
			<polygon class="st4" points="320.9,377.3 276.8,384.3 310.1,419.6 355.9,411.8 			"/>
		</g>
		<polygon class="st5" points="320.9,377.3 276.8,384.3 310.1,419.6 355.9,411.8 		"/>
		<g>
			<polygon class="st3" points="255.2,361.4 58.9,391.2 75.1,416.4 80,424.1 162.8,410.8 185.7,440.9 310.1,419.6 283.4,391.3 
				276.8,384.3 335.1,375 312,352.8 			"/>
		</g>
		<g>
			<polygon class="st4" points="162.8,410.8 80,424.1 100.1,455.5 185.7,440.9 			"/>
		</g>
		<g>
			<polygon class="st4" points="162.8,410.8 80,424.1 100.1,455.5 185.7,440.9 			"/>
		</g>
		<polygon class="st5" points="162.8,410.8 80,424.1 100.1,455.5 185.7,440.9 		"/>
		<polygon class="st1" points="420.7,337.3 61.6,391.8 60.6,390.2 420.7,335.5 		"/>
		<polygon class="st1" points="446.3,358.3 280.3,384.8 278.8,383.2 446.3,356.6 		"/>
		<polygon class="st1" points="162.4,411.9 82.7,424.7 81.7,423.1 162.4,410.1 		"/>
		<polygon class="st2" points="100.1,455.5 58.9,391.2 58.9,389.4 100.1,453.7 		"/>
		<polygon class="st2" points="183.9,440.1 162.4,411.9 162.4,410.1 183.9,438.4 		"/>
		<polygon class="st2" points="308.1,418.9 274.8,383.6 274.8,381.9 308.1,417.2 		"/>
		<polygon class="st2" points="353.8,411.1 320.6,378.3 320.6,376.6 353.8,409.4 		"/>
		<polygon class="st2" points="331.4,372.8 311.7,353.8 311.7,352.1 332.9,372.6 		"/>
		<polygon class="st2" points="483.7,388.9 420.7,337.3 420.7,335.5 483.7,387.2 		"/>
		<g>
			<path class="st0" d="M420.7,335.5l23.6,19.3l-108.9,17.4l-21.2-20.5L420.7,335.5 M421,334.5L312,351l23,22.2l111.6-17.8
				L421,334.5L421,334.5z"/>
			<path class="st0" d="M446.3,356.6l37.3,30.6L356.1,409L323,376.2L446.3,356.6 M446.6,355.5l-125.7,20l35,34.5L486,387.8
				L446.6,355.5L446.6,355.5z"/>
			<path class="st0" d="M320.6,376.6l33.2,32.8l-43.3,7.4l-31.7-33.6L320.6,376.6 M320.9,375.5l-44.1,7l33.3,35.3l45.8-7.8
				L320.9,375.5L320.9,375.5z"/>
			<path class="st0" d="M311.7,352.1l21.2,20.5l-56.3,9l-1.9,0.3l1.3,1.4l6.6,7l25.4,26.9L186,438l-22.5-29.6l-0.4-0.5l-0.6,0.1
				l-82.1,13.3l-4.6-7.2l-15.2-23.9l194.7-29.6L311.7,352.1 M312,351l-56.8,8.6L58.9,389.4L75,414.6l4.9,7.7l82.8-13.4l22.9,30.1
				L310,417.7l-26.7-28.3l-6.6-7l58.2-9.3L312,351L312,351z"/>
			<path class="st0" d="M162.4,410.1l21.5,28.3l-83.3,14.2l-18.9-29.5L162.4,410.1 M162.8,409L80,422.4l20,31.3l85.6-14.6L162.8,409
				L162.8,409z"/>
		</g>
		<polygon class="st1" points="486,389.5 100.1,455.5 100.1,453.7 486,387.8 		"/>
		<text transform="matrix(1 0 0 1 -19.091 370.6608)" class="st6 st7 st8">Level 2</text>
	</g>
</g>
<g id="Level_3">
	<g>
		<text transform="matrix(1 0 0 1 -19.1304 288.7405)" class="st6 st7 st8">Level 3</text>
		<g>
			<g>
				<path class="st0" d="M493.2,302.4l-15.8-13.2l-21.6-18l-27.6-23.1c-2-1.7-4.5-2.6-7.1-2.6c-0.6,0-1.1,0-1.7,0.1l-13.7,2.1
					l-13.7,2.1l-13.7,2.1c-4.2,0.6-7.7,3.7-8.9,7.8c0,0.1,0,0.2-0.1,0.3l-26.7,4.2l-1.9,0.3l-2.3-2.2c-2.1-2-4.8-3-7.6-3
					c-0.6,0-1.1,0-1.7,0.1l-14.2,2.2l-14.3,2.2l-14.5,2.2l-14.5,2.2l-14.4,2.2l-14.6,2.3l-15.1,2.3l-14.8,2.3l-22.7,3.5l-15.4,2.4
					l-15.3,2.4l-7.9,1.2c-3.9,0.6-7.1,3.2-8.6,6.8c-0.2,0.5-0.4,1.1-0.5,1.7l-17.1,2.7l-9.2,1.4l-0.7-1c-2.1-2.9-5.4-4.6-8.9-4.6
					c-0.6,0-1.1,0-1.7,0.1l-16,2.5l-16.1,2.5l-15.9,2.6c-3.7,0.6-6.8,3-8.4,6.4c-1.5,3.4-1.2,7.4,0.8,10.5L67,345.9l24.3,37.2
					c2.1,3.1,5.5,5,9.2,5c0.6,0,1.2-0.1,1.9-0.2l17.3-3l17.4-3l16.8-2.9l18.9-3.2l6.4-1.1l8.7-1.5l8.2-1.4l6.3-1.1l18.4-3.2l16-2.7
					L253,362l16.2-2.8l0.6-0.1l15.2-2.6l85.2-14.6l19.1-3.3l17.4-3l1.3-0.2l14.8-2.5l22-3.8l6.9-1.2l36.5-6.3c4.2-0.7,7.6-3.8,8.8-8
					C497.9,309.6,496.5,305.2,493.2,302.4z"/>
			</g>
		</g>
		<path class="st3" d="M470.4,297.7l-21.6-18l-27.6-23.1l-13.7,2.1l-13.7,2.1l-13.7,2.1l6.4,5.6l-14.1,2.2l-27.9,4.3l-7.2,1.1
			l-6.2-5.9l-14.2,2.2l-14.3,2.2l-14.5,2.2l-14.5,2.2l-14.4,2.2l-14.6,2.3l-15.1,2.3l-14.8,2.3l-22.7,3.5l-15.4,2.4l-15.3,2.4
			l-7.9,1.2l5,6.3l-31.1,4.9l-15.9,2.5l0,0l-4.6-6.5l-16,2.5l-16.1,2.5l-16.1,2.5l17.9,27.5l0,0l24.3,37.2l17.3-3l17.4-3l16.8-2.9
			l18.9-3.2l6.4-1.1l8.7-1.5l8.2-1.4l6.3-1.1l18.4-3.2l16-2.7l0,0l16.2-2.8l0,0l16.2-2.8l0.6-0.1l15.2-2.6l85.2-14.6l19.1-3.3l0,0
			l17.4-3l1.3-0.2l14.8-2.5l22-3.8l6.9-1.2l36.5-6.3L470.4,297.7z"/>
		<polygon class="st4" points="88,329.7 71.5,332.3 58.1,311.8 74.3,309.3 		"/>
		<polygon class="st4" points="88,329.7 104.5,327.1 90.4,306.8 74.3,309.3 		"/>
		<polygon class="st4" points="120.8,324.5 104.5,327.1 90.4,306.8 106.3,304.4 		"/>
		<polygon class="st4" points="120.8,324.5 136.9,321.9 126.9,308.4 111,310.8 		"/>
		<polygon class="st4" points="168.5,316.8 136.9,321.9 126.9,308.4 158,303.5 		"/>
		<polygon class="st4" points="168.5,316.8 176.6,315.5 161,296 153,297.2 		"/>
		<polygon class="st4" points="192.2,313.1 208,310.5 191.7,291.2 176.2,293.6 		"/>
		<polygon class="st4" points="225.4,300.3 202.4,303.9 191.7,291.2 214.4,287.7 		"/>
		<polygon class="st4" points="231.2,306.8 246.2,304.4 229.2,285.4 214.4,287.7 		"/>
		<polygon class="st4" points="261.7,302 246.2,304.4 229.2,285.4 244.3,283.1 		"/>
		<polygon class="st4" points="261.7,302 276.6,299.6 258.9,280.9 244.3,283.1 		"/>
		<polygon class="st4" points="291.3,297.2 276.6,299.6 258.9,280.9 273.4,278.6 		"/>
		<polygon class="st4" points="291.3,297.2 306.2,294.9 287.9,276.4 273.4,278.6 		"/>
		<polygon class="st4" points="320.9,292.5 306.2,294.9 287.9,276.4 302.4,274.2 		"/>
		<polygon class="st4" points="320.9,292.5 335.5,290.2 316.7,272 302.4,274.2 		"/>
		<polygon class="st4" points="349.9,287.9 335.5,290.2 316.7,272 330.9,269.8 		"/>
		<polygon class="st4" points="343.5,281.7 350.7,280.6 344.3,274.5 337.1,275.7 		"/>
		<polygon class="st4" points="343.5,281.7 350.7,280.6 357.2,286.7 349.9,287.9 		"/>
		<polygon class="st4" points="372.2,270.2 344.3,274.5 357.2,286.7 385.5,282.2 		"/>
		<polygon class="st4" points="372.2,270.2 386.3,268 399.8,279.9 385.5,282.2 		"/>
		<polygon class="st4" points="393.6,260.2 379.9,262.3 399.8,279.9 413.8,277.7 		"/>
		<polygon class="st4" points="393.6,260.2 407.3,258.1 427.7,275.5 413.8,277.7 		"/>
		<polygon class="st4" points="421,256 407.3,258.1 434.6,281.4 448.7,279.1 		"/>
		<polygon class="st4" points="470.2,297.1 455.9,299.5 434.6,281.4 448.7,279.1 		"/>
		<polygon class="st4" points="470.2,297.1 448.8,300.7 464.3,314 486,310.3 		"/>
		<polygon class="st4" points="420.5,298.2 441.8,294.7 464.3,314 442.6,317.7 		"/>
		<polygon class="st4" points="420.5,298.2 398.9,301.8 420.6,321.5 442.6,317.7 		"/>
		<polygon class="st4" points="384.5,304.2 398.9,301.8 420.6,321.5 405.8,324 		"/>
		<polygon class="st4" points="371,291.6 334.4,297.5 368.1,330.5 405.8,324 		"/>
		<polygon class="st4" points="236.8,313.3 334.4,297.5 368.1,330.5 267.1,347.8 		"/>
		<polygon class="st4" points="236.8,313.3 221.2,315.8 232.7,329.3 248.5,326.7 		"/>
		<polygon class="st4" points="267.1,347.8 250.9,350.6 232.7,329.3 248.5,326.7 		"/>
		<polygon class="st4" points="234.7,353.4 250.9,350.6 238.2,335.7 222.3,338.4 		"/>
		<polygon class="st4" points="234.7,353.4 218.7,356.1 201.2,334.5 216.8,331.9 		"/>
		<polygon class="st4" points="151.7,367.7 135,370.5 109.4,333.9 125.5,331.3 		"/>
		<polygon class="st4" points="117.6,373.5 135,370.5 109.4,333.9 92.7,336.6 		"/>
		<polygon class="st4" points="117.6,373.5 100.3,376.5 76.1,339.3 92.7,336.6 		"/>
		<polygon class="st4" points="205.5,318.3 190.1,320.8 201.2,334.5 216.8,331.9 		"/>
		<polygon class="st4" points="166.2,324.7 171.5,331.5 163.2,332.9 185.3,361.9 193.9,360.4 200.3,359.3 218.7,356.1 190.1,320.8 
					"/>
		<polygon class="st4" points="150,327.3 155.2,334.2 163.6,332.8 185.8,361.8 177.1,363.3 170.7,364.4 151.8,367.6 125.6,331.3 		
			"/>
		<polygon class="st4" points="420.5,298.2 441.8,294.7 427.6,282.5 406.6,285.9 		"/>
		<polygon class="st4" points="217.6,301.5 202.4,303.9 208,310.5 223.3,308.1 		"/>
		<polygon class="st4" points="161,296 170.9,308.4 179,307.1 184.8,314.2 192.2,313.1 176.2,293.6 		"/>
		<polygon class="st4" points="184.8,314.2 176.6,315.5 170.9,308.4 179,307.1 		"/>
		<polygon class="st5" points="88,329.7 71.5,332.3 58.1,311.8 74.3,309.3 		"/>
		<polygon class="st5" points="88,329.7 104.5,327.1 90.4,306.8 74.3,309.3 		"/>
		<polygon class="st5" points="120.8,324.5 104.5,327.1 90.4,306.8 106.3,304.4 		"/>
		<polygon class="st5" points="120.8,324.5 136.9,321.9 126.9,308.4 111,310.8 		"/>
		<polygon class="st5" points="168.5,316.8 136.9,321.9 126.9,308.4 158,303.5 		"/>
		<polygon class="st5" points="168.5,316.8 176.6,315.5 161,296 153,297.2 		"/>
		<polygon class="st5" points="192.2,313.1 208,310.5 191.7,291.2 176.2,293.6 		"/>
		<polygon class="st5" points="225.4,300.3 202.4,303.9 191.7,291.2 214.4,287.7 		"/>
		<polygon class="st5" points="231.2,306.8 246.2,304.4 229.2,285.4 214.4,287.7 		"/>
		<polygon class="st5" points="261.7,302 246.2,304.4 229.2,285.4 244.3,283.1 		"/>
		<polygon class="st5" points="261.7,302 276.6,299.6 258.9,280.9 244.3,283.1 		"/>
		<polygon class="st5" points="291.3,297.2 276.6,299.6 258.9,280.9 273.4,278.6 		"/>
		<polygon class="st5" points="291.3,297.2 306.2,294.9 287.9,276.4 273.4,278.6 		"/>
		<polygon class="st5" points="320.9,292.5 306.2,294.9 287.9,276.4 302.4,274.2 		"/>
		<polygon class="st5" points="320.9,292.5 335.5,290.2 316.7,272 302.4,274.2 		"/>
		<polygon class="st5" points="349.9,287.9 335.5,290.2 316.7,272 330.9,269.8 		"/>
		<polygon class="st5" points="343.5,281.7 350.7,280.6 344.3,274.5 337.1,275.7 		"/>
		<polygon class="st5" points="343.5,281.7 350.7,280.6 357.2,286.7 349.9,287.9 		"/>
		<polygon class="st5" points="372.2,270.2 344.3,274.5 357.2,286.7 385.5,282.2 		"/>
		<polygon class="st5" points="372.2,270.2 386.3,268 399.8,279.9 385.5,282.2 		"/>
		<polygon class="st5" points="393.6,260.2 379.9,262.3 399.8,279.9 413.8,277.7 		"/>
		<polygon class="st5" points="393.6,260.2 407.3,258.1 427.7,275.5 413.8,277.7 		"/>
		<polygon class="st5" points="421,256 407.3,258.1 434.6,281.4 448.7,279.1 		"/>
		<polygon class="st5" points="470.2,297.1 455.9,299.5 434.6,281.4 448.7,279.1 		"/>
		<polygon class="st5" points="470.2,297.1 448.8,300.7 464.3,314 486,310.3 		"/>
		<polygon class="st5" points="420.5,298.2 441.8,294.7 464.3,314 442.6,317.7 		"/>
		<polygon class="st5" points="420.5,298.2 398.9,301.8 420.6,321.5 442.6,317.7 		"/>
		<polygon class="st5" points="384.5,304.2 398.9,301.8 420.6,321.5 405.8,324 		"/>
		<polygon class="st5" points="371,291.6 334.4,297.5 368.1,330.5 405.8,324 		"/>
		<polygon class="st5" points="236.8,313.3 334.4,297.5 368.1,330.5 267.1,347.8 		"/>
		<polygon class="st5" points="236.8,313.3 221.2,315.8 232.7,329.3 248.5,326.7 		"/>
		<polygon class="st5" points="267.1,347.8 250.9,350.6 232.7,329.3 248.5,326.7 		"/>
		<polygon class="st5" points="234.7,353.4 250.9,350.6 238.2,335.7 222.3,338.4 		"/>
		<polygon class="st5" points="234.7,353.4 218.7,356.1 201.2,334.5 216.8,331.9 		"/>
		<polygon class="st5" points="151.7,367.7 135,370.5 109.4,333.9 125.5,331.3 		"/>
		<polygon class="st5" points="117.6,373.5 135,370.5 109.4,333.9 92.7,336.6 		"/>
		<polygon class="st5" points="117.6,373.5 100.3,376.5 76.1,339.3 92.7,336.6 		"/>
		<polygon class="st5" points="205.5,318.3 190.1,320.8 201.2,334.5 216.8,331.9 		"/>
		<polygon class="st5" points="166.2,324.7 171.5,331.5 163.2,332.9 185.3,361.9 193.9,360.4 200.3,359.3 218.7,356.1 190.1,320.8 
					"/>
		<polygon class="st5" points="150,327.3 155.2,334.2 163.6,332.8 185.8,361.8 177.1,363.3 170.7,364.4 151.8,367.6 125.6,331.3 		
			"/>
		<polygon class="st5" points="420.5,298.2 441.8,294.7 427.6,282.5 406.6,285.9 		"/>
		<polygon class="st5" points="217.6,301.5 202.4,303.9 208,310.5 223.3,308.1 		"/>
		<polygon class="st5" points="161,296 170.9,308.4 179,307.1 184.8,314.2 192.2,313.1 176.2,293.6 		"/>
		<polygon class="st5" points="184.8,314.2 176.6,315.5 170.9,308.4 179,307.1 		"/>
		<polygon class="st2" points="71.5,332.3 58.1,311.8 58.1,310.3 71.5,330.8 		"/>
		<polygon class="st2" points="86.3,328.9 73.8,310.4 73.8,308.9 86.3,327.4 		"/>
		<polygon class="st1" points="60.7,312.4 73.8,310.4 73.8,308.9 59.8,311 		"/>
		<polygon class="st1" points="78.6,339.9 149.5,328.4 149.5,326.9 77.7,338.5 		"/>
		<polygon class="st1" points="76.9,309.9 105.9,305.5 105.9,303.9 76,308.5 		"/>
		<polygon class="st1" points="113.7,311.4 157.6,304.6 157.6,303 112.7,310 		"/>
		<polygon class="st1" points="156,297.7 330.5,270.8 330.5,269.3 154.9,296.4 		"/>
		<polygon class="st1" points="340.6,276.1 386,269 386,267.5 339.2,274.8 		"/>
		<polygon class="st1" points="383.7,262.8 420.8,257.1 420.8,255.5 382.2,261.5 		"/>
		<polygon class="st2" points="102.7,326.3 89.9,307.9 89.9,306.4 102.7,324.8 		"/>
		<polygon class="st2" points="119,323.7 105.9,305.5 105.9,303.9 119,322.2 		"/>
		<polygon class="st2" points="135.1,321.2 126.4,309.4 126.4,307.9 135.1,319.6 		"/>
		<polygon class="st2" points="166.7,316.1 157.6,304.6 157.6,303 166.7,314.6 		"/>
		<polygon class="st2" points="156.9,302.1 153,297.2 153,295.6 158,301.9 		"/>
		<polygon class="st2" points="174.8,314.8 160.6,297 160.6,295.5 174.8,313.3 		"/>
		<polygon class="st2" points="182.9,313.5 178.6,308.2 178.6,306.7 182.9,312 		"/>
		<polygon class="st2" points="190.3,312.3 175.8,294.7 175.8,293.1 190.3,310.8 		"/>
		<polygon class="st2" points="206.1,309.8 191.3,292.3 191.3,290.7 206.1,308.3 		"/>
		<polygon class="st2" points="221.4,307.4 217.2,302.6 217.2,301.1 221.4,305.8 		"/>
		<polygon class="st2" points="223.5,299.6 214,288.8 214,287.2 223.5,298 		"/>
		<polygon class="st2" points="231.2,306.8 225.4,300.3 225.4,298.7 231.2,305.3 		"/>
		<polygon class="st2" points="244.3,303.7 228.8,286.5 228.8,285 244.3,302.2 		"/>
		<polygon class="st2" points="259.7,301.3 243.9,284.2 243.9,282.6 259.7,299.7 		"/>
		<polygon class="st2" points="274.6,298.9 258.6,281.9 258.6,280.4 274.6,297.3 		"/>
		<polygon class="st2" points="289.3,296.5 273,279.7 273,278.1 289.3,295 		"/>
		<polygon class="st2" points="304.1,294.2 287.5,277.5 287.5,275.9 304.1,292.6 		"/>
		<polygon class="st2" points="318.8,291.8 302,275.2 302,273.7 318.8,290.3 		"/>
		<polygon class="st2" points="333.4,289.5 316.4,273 316.4,271.5 333.4,288 		"/>
		<polygon class="st2" points="347.8,287.2 330.5,270.8 330.5,269.3 347.8,285.7 		"/>
		<polygon class="st2" points="355.1,286 344,275.6 344,274.1 355.1,284.5 		"/>
		<polygon class="st2" points="383.3,281.5 371.9,271.3 371.9,269.7 383.3,280 		"/>
		<polygon class="st2" points="397.6,279.3 386,269 386,267.5 397.6,277.7 		"/>
		<polygon class="st2" points="411.5,277 393.3,261.3 393.3,259.7 411.5,275.5 		"/>
		<polygon class="st2" points="425.4,274.8 407,259.2 407,257.6 425.4,273.3 		"/>
		<polygon class="st2" points="455.9,299.5 427.7,275.5 427.7,273.9 455.9,297.9 		"/>
		<polygon class="st2" points="462,313.4 427.3,283.5 427.3,282 462,311.8 		"/>
		<polygon class="st2" points="419,296.9 406.6,285.9 406.6,284.3 420.5,296.7 		"/>
		<polygon class="st2" points="440.3,317.1 420.2,299.3 420.2,297.7 440.3,315.5 		"/>
		<polygon class="st2" points="418.4,320.8 398.6,302.8 398.6,301.3 418.4,319.3 		"/>
		<polygon class="st2" points="403.7,323.4 370.6,292.7 370.6,291.1 403.7,321.8 		"/>
		<polygon class="st2" points="366,329.8 334.1,298.6 334.1,297 366,328.3 		"/>
		<polygon class="st2" points="265.2,347.2 236.4,314.4 236.4,312.8 265.2,345.6 		"/>
		<polygon class="st2" points="249,349.9 237.8,336.8 237.8,335.3 249,348.4 		"/>
		<polygon class="st2" points="232.8,352.7 205.1,319.4 205.1,317.9 232.8,351.2 		"/>
		<polygon class="st2" points="216.9,355.4 189.7,321.9 189.7,320.4 216.9,353.9 		"/>
		<polygon class="st2" points="171.5,331.5 166.2,324.7 166.2,323.1 171.5,330 		"/>
		<polygon class="st2" points="184,361.1 163.1,333.9 163.1,332.4 184,359.5 		"/>
		<polygon class="st2" points="154.7,335.3 149.5,328.4 149.5,326.9 154.7,333.7 		"/>
		<polygon class="st2" points="149.9,366.9 125,332.4 125,330.8 149.9,365.4 		"/>
		<polygon class="st2" points="133.3,369.8 109,335 109,333.4 133.3,368.2 		"/>
		<polygon class="st2" points="115.9,372.8 92.2,337.7 92.2,336.1 115.9,371.2 		"/>
		<polygon class="st2" points="100.3,376.5 70.9,331.3 70.2,328.8 100.3,374.9 		"/>
		<polygon class="st2" points="237.1,334.4 221.2,315.8 221.2,314.3 238.2,334.2 		"/>
		<polygon class="st2" points="483.7,309.6 420.8,257.1 420.8,255.5 483.7,308.1 		"/>
		<polygon class="st2" points="384.8,266.7 379.9,262.3 379.9,260.8 386.3,266.4 		"/>
		<g>
			<path class="st0" d="M73.8,308.9l12.5,18.5L72,329.7L59.8,311L73.8,308.9 M74.3,307.8l-16.1,2.5l13.4,20.5l16.5-2.6L74.3,307.8
				L74.3,307.8z"/>
			<path class="st0" d="M89.9,306.4l12.8,18.4l-14.2,2.3L76,308.5L89.9,306.4 M90.4,305.3l-16.1,2.5l13.8,20.4l16.5-2.6L90.4,305.3
				L90.4,305.3z"/>
			<path class="st0" d="M105.9,303.9l13.2,18.3l-14.1,2.3l-12.8-18.4L105.9,303.9 M106.3,302.8l-16,2.5l14.1,20.2l16.3-2.6
				L106.3,302.8L106.3,302.8z"/>
			<path class="st0" d="M126.4,307.9l8.7,11.7l-13.9,2.2l-8.5-11.8L126.4,307.9 M126.9,306.8l-15.9,2.5l9.8,13.6l16.1-2.6
				L126.9,306.8L126.9,306.8z"/>
			<path class="st0" d="M157.6,303l9.1,11.5l-29.3,4.7l-8.7-11.7L157.6,303 M158,301.9l-31.1,4.9l10.1,13.5l31.6-5L158,301.9
				L158,301.9z"/>
			<path class="st0" d="M160.5,295.5l14.2,17.8l-5.8,0.9l-14.1-17.9L160.5,295.5 M161,294.4l-7.9,1.2l15.5,19.7l8.1-1.3L161,294.4
				L161,294.4z"/>
			<path class="st0" d="M191.3,290.7l14.8,17.5l-13.4,2.1l-14.5-17.7L191.3,290.7 M191.7,289.7l-15.4,2.4l16,19.5l15.8-2.5
				L191.7,289.7L191.7,289.7z"/>
			<path class="st0" d="M214,287.2l9.5,10.8l-20.7,3.3l-9.2-10.9L214,287.2 M214.4,286.2l-22.7,3.5l10.7,12.7l23-3.6L214.4,286.2
				L214.4,286.2z"/>
			<path class="st0" d="M228.8,285l15.5,17.2l-12.7,2l-15.2-17.3L228.8,285 M229.2,283.9l-14.8,2.3l16.8,19.1l15.1-2.4L229.2,283.9
				L229.2,283.9z"/>
			<path class="st0" d="M243.9,282.6l15.8,17.1l-13.1,2.1l-15.5-17.2L243.9,282.6 M244.3,281.6l-15.1,2.3l17.1,19l15.5-2.5
				L244.3,281.6L244.3,281.6z"/>
			<path class="st0" d="M258.6,280.4l16,17l-12.5,2l-15.7-17.1L258.6,280.4 M258.9,279.3l-14.6,2.3l17.4,18.9l14.9-2.4L258.9,279.3
				L258.9,279.3z"/>
			<path class="st0" d="M273,278.1l16.3,16.8l-12.3,2l-16-17L273,278.1 M273.4,277.1l-14.4,2.2l17.7,18.7l14.7-2.4L273.4,277.1
				L273.4,277.1z"/>
			<path class="st0" d="M287.5,275.9l16.5,16.7l-12.4,2l-16.3-16.8L287.5,275.9 M287.9,274.8l-14.5,2.2l18,18.6l14.8-2.4
				L287.9,274.8L287.9,274.8z"/>
			<path class="st0" d="M302,273.7l16.8,16.6l-12.3,2L290,275.5L302,273.7 M302.4,272.6l-14.5,2.2l18.2,18.5l14.7-2.4L302.4,272.6
				L302.4,272.6z"/>
			<path class="st0" d="M316.4,271.5l17,16.5l-12.1,1.9l-16.8-16.6L316.4,271.5 M316.7,270.4l-14.3,2.2l18.5,18.3l14.6-2.3
				L316.7,270.4L316.7,270.4z"/>
			<path class="st0" d="M330.5,269.3l17.3,16.4l-11.9,1.9l-17-16.5L330.5,269.3 M330.9,268.2l-14.2,2.2l18.8,18.2l14.4-2.3
				L330.9,268.2L330.9,268.2z"/>
			<path class="st0" d="M344,274.1l4.6,4.3l-4.7,0.7l-4.6-4.3L344,274.1 M344.3,273l-7.2,1.1l6.4,6.1l7.3-1.1L344.3,273L344.3,273z"
				/>
			<path class="st0" d="M350.4,280.1l4.7,4.4l-4.8,0.8l-4.7-4.4L350.4,280.1 M350.7,279l-7.3,1.1l6.5,6.2l7.3-1.2L350.7,279
				L350.7,279z"/>
			<path class="st0" d="M371.9,269.7l11.4,10.3l-25.7,4.1l-11.1-10.4L371.9,269.7 M372.2,268.6l-27.9,4.3l13,12.2l28.2-4.5
				L372.2,268.6L372.2,268.6z"/>
			<path class="st0" d="M386,267.5l11.6,10.2l-11.8,1.9l-11.4-10.3L386,267.5 M386.3,266.4l-14.1,2.2l13.3,12l14.3-2.3L386.3,266.4
				L386.3,266.4z"/>
			<path class="st0" d="M393.3,259.7l18.1,15.7l-11.4,1.8l-17.8-15.7L393.3,259.7 M393.6,258.7l-13.7,2.1l19.9,17.6l13.9-2.2
				L393.6,258.7L393.6,258.7z"/>
			<path class="st0" d="M407,257.6l18.4,15.6l-11.3,1.8L396,259.3L407,257.6 M407.3,256.6l-13.7,2.1l20.1,17.5l13.9-2.2L407.3,256.6
				L407.3,256.6z"/>
			<path class="st0" d="M420.8,255.5l25.6,21.4l-11.4,1.8l-25.3-21.5L420.8,255.5 M421,254.5l-13.7,2.1l27.3,23.2l14.1-2.3
				L421,254.5L421,254.5z"/>
			<path class="st0" d="M448.4,278.6l19.5,16.3l-11.7,2l-19.3-16.4L448.4,278.6 M448.7,277.5l-14.1,2.3l21.3,18.1l14.3-2.4
				L448.7,277.5L448.7,277.5z"/>
			<path class="st0" d="M469.9,296.6l13.7,11.5l-19.1,3.3L451,299.8L469.9,296.6 M470.2,295.5l-21.4,3.6l15.5,13.3l21.7-3.7
				L470.2,295.5L470.2,295.5z"/>
			<path class="st0" d="M441.5,294.2l20.5,17.6l-19.1,3.3l-20.1-17.8L441.5,294.2 M441.8,293.1l-21.3,3.5l22.1,19.5l21.7-3.7
				L441.8,293.1L441.8,293.1z"/>
			<path class="st0" d="M420.2,297.7l20.1,17.8l-19.4,3.3l-19.8-18L420.2,297.7 M420.5,296.7l-21.6,3.6l21.7,19.7l22-3.8
				L420.5,296.7L420.5,296.7z"/>
			<path class="st0" d="M398.6,301.3l19.8,18l-12.3,2.1l-19.5-18.1L398.6,301.3 M398.9,300.2l-14.5,2.4l21.4,19.9l14.8-2.5
				L398.9,300.2L398.9,300.2z"/>
			<path class="st0" d="M370.6,291.1l33,30.7l-35.2,6l-31.9-31.2L370.6,291.1 M371,290.1l-36.5,5.9l33.7,33l37.7-6.5L371,290.1
				L371,290.1z"/>
			<path class="st0" d="M334.1,297l31.9,31.2l-98.5,16.9l-28.7-32.8L334.1,297 M334.4,296l-97.6,15.8l30.3,34.5l101-17.3L334.4,296
				L334.4,296z"/>
			<path class="st0" d="M236.4,312.8l10.2,11.6l-13.5,2.2l-10-11.7L236.4,312.8 M236.8,311.7l-15.6,2.5l11.5,13.5l15.8-2.6
				L236.8,311.7L236.8,311.7z"/>
			<path class="st0" d="M248.2,326.2l17,19.4l-13.9,2.4l-16.7-19.6L248.2,326.2 M248.5,325.1l-15.8,2.6l18.2,21.3l16.2-2.8
				L248.5,325.1L248.5,325.1z"/>
			<path class="st0" d="M237.8,335.3l11.2,13.1l-13.9,2.4l-11-13.2L237.8,335.3 M238.2,334.2l-16,2.7l12.5,15l16.2-2.8L238.2,334.2
				L238.2,334.2z"/>
			<path class="st0" d="M216.4,331.4l16.4,19.7l-13.7,2.4L203,333.6L216.4,331.4 M216.8,330.3l-15.7,2.6l17.6,21.7l16-2.7
				L216.8,330.3L216.8,330.3z"/>
			<path class="st0" d="M125,330.8l24.9,34.6l-14.5,2.5l-24.3-34.8L125,330.8 M125.5,329.7l-16.1,2.6l25.6,36.6l16.7-2.9
				L125.5,329.7L125.5,329.7z"/>
			<path class="st0" d="M109,333.4l24.3,34.8l-15.2,2.6l-23.7-35.1L109,333.4 M109.4,332.3L92.6,335l24.9,36.9l17.4-3L109.4,332.3
				L109.4,332.3z"/>
			<path class="st0" d="M92.2,336.1l23.7,35.1l-15.1,2.6l-23.1-35.3L92.2,336.1 M92.7,335l-16.6,2.7l24.3,37.2l17.3-3L92.7,335
				L92.7,335z"/>
			<path class="st0" d="M205.1,317.9l9.8,11.8l-13.4,2.2l-9.6-11.9L205.1,317.9 M205.5,316.8l-15.4,2.5l11.1,13.6l15.7-2.6
				L205.5,316.8L205.5,316.8z"/>
			<path class="st0" d="M189.7,320.4l27.2,33.5l-16.8,2.9l-6.3,1.1l-8,1.4L165,332.1l6.7-1.1l1.7-0.3l-1-1.3l-4.3-5.5L189.7,320.4
				 M190.1,319.3l-23.9,3.9l5.3,6.8l-8.4,1.4l22.2,29l8.6-1.5l6.3-1.1l18.4-3.2L190.1,319.3L190.1,319.3z"/>
			<path class="st0" d="M149.5,326.9l4.8,6.4l0.4,0.5l0.6-0.1l7.8-1.3l20.9,27.1l-7,1.2l-6.4,1.1l-18.3,3.1l-24.9-34.6L149.5,326.9
				 M150,325.8l-24.7,4l25.9,36.4l19.6-3.4l6.4-1.1l8.7-1.5l-22.2-29l-8.4,1.4L150,325.8L150,325.8z"/>
			<path class="st0" d="M427.3,282l12.2,10.5l-18.7,3.1l-12-10.6L427.3,282 M427.6,280.9l-21.1,3.4l13.9,12.3l21.3-3.5L427.6,280.9
				L427.6,280.9z"/>
			<path class="st0" d="M217.2,301.1l4.1,4.8l-13,2.1l-4.1-4.8L217.2,301.1 M217.6,300l-15.3,2.4l5.6,6.6l15.4-2.5L217.6,300
				L217.6,300z"/>
			<path class="st0" d="M175.8,293.1l14.5,17.7l-5.1,0.8l-5.4-6.7l-0.4-0.4l-0.6,0.1l-7.5,1.2l-8.5-10.7L175.8,293.1 M176.2,292.1
				l-15.3,2.4l10,12.5l8.1-1.3l5.8,7.1l7.4-1.2L176.2,292.1L176.2,292.1z"/>
			<path class="st0" d="M178.6,306.7l4.3,5.3l-5.9,0.9l-4.3-5.3L178.6,306.7 M179,305.6l-8.1,1.3l5.7,7.1l8.2-1.3L179,305.6
				L179,305.6z"/>
		</g>
		<polygon class="st0" points="100.8,373.8 71,328.1 70.2,328.8 100.3,374.9 		"/>
		<polygon class="st1" points="438.4,281.7 448.4,280.1 448.4,278.6 436.9,280.4 		"/>
		<polygon class="st1" points="410.3,286.3 427.3,283.5 427.3,282 408.8,285 		"/>
		<polygon class="st1" points="388,304.6 441.5,295.7 441.5,294.2 386.6,303.3 		"/>
		<polygon class="st1" points="452.6,301.1 469.9,298.2 469.9,296.6 451.1,299.8 		"/>
		<polygon class="st1" points="231.2,306.8 427.7,275.5 427.7,273.9 231.2,305.3 		"/>
		<polygon class="st1" points="73.5,332 223.3,308.1 223.3,306.5 72.6,330.6 		"/>
		<polygon class="st1" points="100.3,376.5 486,310.3 486,308.7 100.3,374.9 		"/>
		<polygon class="st1" points="345.6,280.8 350.4,280.1 350.4,281.6 347,282.2 		"/>
		<polygon class="st1" points="173.9,309 172.8,307.6 178.6,306.7 178.6,308.2 		"/>
		<polygon class="st1" points="205.4,304.5 204.3,303.1 217.2,301.1 217.2,302.6 		"/>
		<polygon class="st1" points="218.8,301.3 217.6,300 225.4,298.7 225.4,300.3 		"/>
		<polygon class="st1" points="154.7,335.3 173.4,332.3 173.4,330.7 154.7,333.7 		"/>
		<polygon class="st1" points="169.1,325.2 205.1,319.4 205.1,317.9 168,323.9 		"/>
		<polygon class="st1" points="204.1,335 216.4,333 216.4,331.4 203,333.6 		"/>
		<polygon class="st1" points="225.3,338.9 237.8,336.8 237.8,335.3 224.1,337.6 		"/>
		<polygon class="st1" points="235.8,329.8 248.2,327.7 248.2,326.2 234.6,328.4 		"/>
		<polygon class="st1" points="224.3,316.3 370.6,292.7 370.6,291.1 223.1,315 		"/>
	</g>
</g>
<g id="Level_4">
	<g>
		<g>
			<path class="st0" d="M464.1,219l-14.8-12.3l-27.8-23.1l-14,2.2l-13.9,2.2l-13.9,2.2l6.4,5.7l-14,2.2l-28.3,4.5l-7.2,1.1l-6.1-5.8
				l-21.3,3.3l-14.6,2.3l-14.5,2.2l-14.7,2.3l-14.7,2.3l-14.7,2.3l-15.1,2.3l-15,2.3l-15.2,2.4l-15.2,2.4l-4.8,0.7l-3.1,0.5
				l-7.5,1.2l-7.8,1.2l-30,4.7l-11.7,1.8l-4,0.6l-16,2.5l-14.4,2.2L59.7,240L77,266.9l7.1,11.1l6.8,10.6l10.1,15.6l24.7-4.2
				l12.8-2.2l13-2.2l12.4-2.1l13.1-2.2l14.5-2.5l17.1-2.9l16.4-2.8l16.2-2.8l16.3-2.8l16.1-2.8l16.1-2.8l15.7-2.7l15.7-2.7l15.7-2.7
				l15.4-2.6l15.6-2.7l4.4-0.8l3.3-0.6l7.6-1.3l15-2.6l14.9-2.6l15-2.6l14.7-2.5l11-1.9l3.7-0.6l7.4-1.3l22.1-3.8L464.1,219z"/>
			<g>
				<g>
					<path class="st0" d="M421.6,171.6c-0.6,0-1.2,0-1.8,0.1l-14,2.2l-13.9,2.2l-13.9,2.2c-4.5,0.7-8.2,3.9-9.6,8.2l-26.3,4.1
						l-1.4,0.2l-1.8-1.7c-2.2-2.1-5.2-3.3-8.3-3.3c-0.6,0-1.2,0-1.8,0.1l-21.3,3.3l-14.6,2.3l-14.5,2.2l-14.7,2.3l-14.7,2.3
						l-14.7,2.3l-15.1,2.3l-15,2.3l-15.2,2.4l-15.2,2.4l-4.8,0.7l-3.1,0.5l-7.5,1.2l-7.8,1.2l-30,4.7l-11.7,1.8l-4,0.6l-16,2.5
						l-14.4,2.2L58,228c-4,0.6-7.4,3.2-9.1,6.9c-1.7,3.7-1.3,8,0.9,11.4l17.3,26.9l7.1,11.1l6.8,10.6l10.1,15.6
						c2.2,3.5,6.1,5.5,10.1,5.5c0.7,0,1.4-0.1,2-0.2l24.7-4.2l12.8-2.2l13-2.2l12.4-2.1l13.1-2.2l14.5-2.5l17.1-2.9l16.4-2.8
						l16.2-2.8l16.3-2.8l16.1-2.8l16.1-2.8l15.7-2.7l15.7-2.7l15.7-2.7l15.4-2.6l15.6-2.7l4.4-0.8l3.3-0.6l7.6-1.3l15-2.6l14.9-2.6
						l15-2.6l14.7-2.5l11-1.9l3.7-0.6l7.4-1.3l22.1-3.8c4.6-0.8,8.3-4.2,9.6-8.7c1.2-4.5-0.3-9.3-3.9-12.3l-22.7-18.9L457,197.4
						l-27.8-23.1C427.1,172.5,424.3,171.6,421.6,171.6L421.6,171.6z"/>
				</g>
			</g>
		</g>
		<path class="st3" d="M463.8,218.8L449,206.5l-27.8-23.1l-14,2.2l-13.9,2.2l-13.9,2.2l6.4,5.7l-14,2.2l-28.3,4.5l-7.2,1.1l-6.1-5.8
			l-21.3,3.3l-14.6,2.3l-14.5,2.2l-14.7,2.3l-14.7,2.3l-14.7,2.3l-15.1,2.3l-15,2.3l-15.2,2.4l-15.2,2.4l-4.8,0.7l-3.1,0.5l-7.5,1.2
			l-7.8,1.2l-30,4.7l-11.7,1.8l-4,0.6l-16,2.5l-14.4,2.2l-16.5,2.6l17.3,26.9l7.1,11.1l6.8,10.6l10.1,15.6l24.7-4.2l12.8-2.2l13-2.2
			l12.4-2.1l13.1-2.2l14.5-2.5l17.1-3.2l16.4-2.8l16.2-2.8l16.3-2.8l16.1-2.8l16.1-2.8l15.7-2.7l15.7-2.7l15.7-2.7l15.4-2.6
			l15.6-2.7l4.4-0.8l3.3-0.6l7.6-1.3l15-2.6l14.9-2.6l15-2.6l14.7-2.5l11-1.9l3.7-0.6l7.4-1.3l22.1-3.8L463.8,218.8z"/>
		<g>
			<polygon class="st4" points="93.8,263.8 76.7,266.5 59.4,239.6 75.9,237.1 			"/>
			<polygon class="st4" points="89.5,257.3 104.2,255 90.4,234.8 75.9,237.1 			"/>
			<polygon class="st4" points="120.6,252.3 104.2,255 90.4,234.8 106.4,232.3 			"/>
			<polygon class="st4" points="113.4,242.2 117.4,241.6 110.3,231.7 106.4,232.3 			"/>
			<polygon class="st4" points="136.6,249.8 124.6,251.7 110.3,231.7 122,229.9 			"/>
			<polygon class="st4" points="136.6,249.8 167.3,244.8 152,225.3 122,229.9 			"/>
			<polygon class="st4" points="175.2,243.6 167.3,244.8 152,225.3 159.8,224 			"/>
			<polygon class="st4" points="175.2,243.6 182.9,242.3 177.4,235.6 169.9,236.8 			"/>
			<polygon class="st4" points="170.4,222.4 167.3,222.9 159.8,224 169.9,236.8 177.4,235.6 182.9,242.3 190.9,241 175.2,221.6 			
				"/>
			<polygon class="st4" points="190.9,241 206.5,238.5 190.4,219.3 175.2,221.6 			"/>
			<polygon class="st4" points="222,236 206.5,238.5 190.4,219.3 205.6,216.9 			"/>
			<polygon class="st4" points="222,236 237.4,233.6 220.6,214.6 205.6,216.9 			"/>
			<polygon class="st4" points="252.8,231.1 237.4,233.6 220.6,214.6 235.7,212.2 			"/>
			<polygon class="st4" points="252.8,231.1 267.8,228.7 250.4,210 235.7,212.2 			"/>
			<polygon class="st4" points="282.8,226.3 267.8,228.7 250.4,210 265.1,207.7 			"/>
			<polygon class="st4" points="282.8,226.3 297.8,223.9 279.8,205.4 265.1,207.7 			"/>
			<polygon class="st4" points="312.6,221.5 297.8,223.9 279.8,205.4 294.3,203.1 			"/>
			<polygon class="st4" points="312.6,221.5 327.6,219.1 309,200.9 294.3,203.1 			"/>
			<polygon class="st4" points="349.3,215.6 327.6,219.1 309,200.9 330.2,197.5 			"/>
			<polygon class="st4" points="349.3,215.6 356.6,214.4 349.9,208.2 342.7,209.3 			"/>
			<polygon class="st4" points="336.4,203.4 343.6,202.2 349.9,208.2 342.7,209.3 			"/>
			<polygon class="st4" points="371.9,197.8 343.6,202.2 356.6,214.4 385.3,209.8 			"/>
			<polygon class="st4" points="371.9,197.8 385.9,195.6 399.5,207.6 385.3,209.8 			"/>
			<polygon class="st4" points="393.4,187.7 379.5,189.9 399.5,207.6 413.6,205.3 			"/>
			<polygon class="st4" points="393.4,187.7 407.2,185.6 427.8,203 413.6,205.3 			"/>
			<polygon class="st4" points="421.2,183.4 407.2,185.6 434.6,208.8 449,206.5 			"/>
			<polygon class="st4" points="463.8,218.8 442.1,222.4 427.5,210 449,206.5 			"/>
			<polygon class="st4" points="463.8,218.8 442.1,222.4 464.3,241.5 486.5,237.7 			"/>
			<polygon class="st4" points="442,229.8 434.8,223.6 420.4,226 442.2,245.3 453.3,243.4 457,242.8 464.3,241.5 449.2,228.6 			"/>
			<polygon class="st4" points="405.9,228.4 420.4,226 442.2,245.3 427.5,247.8 			"/>
			<polygon class="st4" points="405.9,228.4 391.3,230.8 412.6,250.4 427.5,247.8 			"/>
			<polygon class="st4" points="363,220.5 377.4,218.1 412.6,250.4 397.6,253 			"/>
			<polygon class="st4" points="363,220.5 348.5,222.8 382.6,255.6 397.6,253 			"/>
			<polygon class="st4" points="347.8,230.5 341.1,224 333.8,225.2 367.4,258.2 371.7,257.4 375,256.9 382.6,255.6 355.2,229.3 			
				"/>
			<polygon class="st4" points="318.7,227.6 333.8,225.2 367.4,258.2 351.8,260.8 			"/>
			<polygon class="st4" points="318.7,227.6 303.9,230.1 336.4,263.5 351.8,260.8 			"/>
			<polygon class="st4" points="288.7,232.5 303.9,230.1 336.4,263.5 320.7,266.2 			"/>
			<polygon class="st4" points="288.7,232.5 273.6,235 305,268.9 320.7,266.2 			"/>
			<polygon class="st4" points="258.5,237.4 273.6,235 305,268.9 289.3,271.5 			"/>
			<polygon class="st4" points="258.5,237.4 243,239.9 273.3,274.3 289.3,271.5 			"/>
			<polygon class="st4" points="227.5,242.4 243,239.9 273.3,274.3 257.2,277.1 			"/>
			<polygon class="st4" points="227.5,242.4 211.8,245 241,279.8 257.2,277.1 			"/>
			<polygon class="st4" points="196.2,247.5 211.8,245 241,279.8 224.8,282.6 			"/>
			<polygon class="st4" points="196.2,247.5 180.4,250.1 208.3,285.4 224.8,282.6 			"/>
			<polygon class="st4" points="163.9,252.7 180.4,250.1 208.3,285.4 191.2,288.4 			"/>
			<polygon class="st4" points="179.7,273.3 165.4,275.7 176.7,290.9 191.2,288.4 			"/>
			<polygon class="st4" points="152.5,277.9 165.4,275.7 176.7,290.9 163.6,293.1 			"/>
			<polygon class="st4" points="152.5,277.9 140.3,279.9 151.2,295.2 163.6,293.1 			"/>
			<polygon class="st4" points="127.5,282.1 140.3,279.9 151.2,295.2 138.2,297.5 			"/>
			<polygon class="st4" points="127.5,282.1 115,284.2 125.4,299.7 138.2,297.5 			"/>
			<polygon class="st4" points="90.7,288.3 115,284.2 125.4,299.7 100.7,303.9 			"/>
			<polygon class="st4" points="90.7,288.3 108.2,285.3 101.2,274.8 83.8,277.6 			"/>
			<polygon class="st4" points="76.7,266.5 93.9,263.8 101.2,274.8 83.8,277.6 			"/>
			<polygon class="st4" points="163.9,252.7 133.1,257.7 143.5,272.1 174.8,266.9 			"/>
			<polygon class="st4" points="124.7,259.1 133.1,257.7 140.7,268.3 132.2,269.7 			"/>
			<polygon class="st4" points="420.4,218.5 434.7,216.2 427.5,210 413.3,212.3 			"/>
			<polygon class="st4" points="420.4,218.5 413.2,219.7 406.2,213.5 413.3,212.3 			"/>
			<polygon class="st4" points="113.4,242.2 117.4,241.6 124.6,251.7 120.6,252.3 			"/>
		</g>
		<polygon class="st5" points="93.8,263.8 76.7,266.5 59.4,239.6 75.9,237.1 		"/>
		<polygon class="st5" points="89.5,257.3 104.2,255 90.4,234.8 75.9,237.1 		"/>
		<polygon class="st5" points="120.6,252.3 104.2,255 90.4,234.8 106.4,232.3 		"/>
		<polygon class="st5" points="113.4,242.2 117.4,241.6 110.3,231.7 106.4,232.3 		"/>
		<polygon class="st5" points="136.6,249.8 124.6,251.7 110.3,231.7 122,229.9 		"/>
		<polygon class="st5" points="136.6,249.8 167.3,244.8 152,225.3 122,229.9 		"/>
		<polygon class="st5" points="175.2,243.6 167.3,244.8 152,225.3 159.8,224 		"/>
		<polygon class="st5" points="175.2,243.6 182.9,242.3 177.4,235.6 169.9,236.8 		"/>
		<polygon class="st5" points="170.4,222.4 167.3,222.9 159.8,224 169.9,236.8 177.4,235.6 182.9,242.3 190.9,241 175.2,221.6 		"/>
		<polygon class="st5" points="190.9,241 206.5,238.5 190.4,219.3 175.2,221.6 		"/>
		<polygon class="st5" points="222,236 206.5,238.5 190.4,219.3 205.6,216.9 		"/>
		<polygon class="st5" points="222,236 237.4,233.6 220.6,214.6 205.6,216.9 		"/>
		<polygon class="st5" points="252.8,231.1 237.4,233.6 220.6,214.6 235.7,212.2 		"/>
		<polygon class="st5" points="252.8,231.1 267.8,228.7 250.4,210 235.7,212.2 		"/>
		<polygon class="st5" points="282.8,226.3 267.8,228.7 250.4,210 265.1,207.7 		"/>
		<polygon class="st5" points="282.8,226.3 297.8,223.9 279.8,205.4 265.1,207.7 		"/>
		<polygon class="st5" points="312.6,221.5 297.8,223.9 279.8,205.4 294.3,203.1 		"/>
		<polygon class="st5" points="312.6,221.5 327.6,219.1 309,200.9 294.3,203.1 		"/>
		<polygon class="st5" points="349.3,215.6 327.6,219.1 309,200.9 330.2,197.5 		"/>
		<polygon class="st5" points="349.3,215.6 356.6,214.4 349.9,208.2 342.7,209.3 		"/>
		<polygon class="st5" points="336.4,203.4 343.6,202.2 349.9,208.2 342.7,209.3 		"/>
		<polygon class="st5" points="371.9,197.8 343.6,202.2 356.6,214.4 385.3,209.8 		"/>
		<polygon class="st5" points="371.9,197.8 385.9,195.6 399.5,207.6 385.3,209.8 		"/>
		<polygon class="st5" points="393.4,187.7 379.5,189.9 399.5,207.6 413.6,205.3 		"/>
		<polygon class="st5" points="393.4,187.7 407.2,185.6 427.8,203 413.6,205.3 		"/>
		<polygon class="st5" points="421.2,183.4 407.2,185.6 434.6,208.8 449,206.5 		"/>
		<polygon class="st5" points="463.8,218.8 442.1,222.4 427.5,210 449,206.5 		"/>
		<polygon class="st5" points="463.8,218.8 442.1,222.4 464.3,241.5 486.5,237.7 		"/>
		<polygon class="st5" points="442,229.8 434.8,223.6 420.4,226 442.2,245.3 453.3,243.4 457,242.8 464.3,241.5 449.2,228.6 		"/>
		<polygon class="st5" points="405.9,228.4 420.4,226 442.2,245.3 427.5,247.8 		"/>
		<polygon class="st5" points="405.9,228.4 391.3,230.8 412.6,250.4 427.5,247.8 		"/>
		<polygon class="st5" points="363,220.5 377.4,218.1 412.6,250.4 397.6,253 		"/>
		<polygon class="st5" points="363,220.5 348.5,222.8 382.6,255.6 397.6,253 		"/>
		<polygon class="st5" points="347.8,230.5 341.1,224 333.8,225.2 367.4,258.2 371.7,257.4 375,256.9 382.6,255.6 355.2,229.3 		"/>
		<polygon class="st5" points="318.7,227.6 333.8,225.2 367.4,258.2 351.8,260.8 		"/>
		<polygon class="st5" points="318.7,227.6 303.9,230.1 336.4,263.5 351.8,260.8 		"/>
		<polygon class="st5" points="288.7,232.5 303.9,230.1 336.4,263.5 320.7,266.2 		"/>
		<polygon class="st5" points="288.7,232.5 273.6,235 305,268.9 320.7,266.2 		"/>
		<polygon class="st5" points="258.5,237.4 273.6,235 305,268.9 289.3,271.5 		"/>
		<polygon class="st5" points="258.5,237.4 243,239.9 273.3,274.3 289.3,271.5 		"/>
		<polygon class="st5" points="227.5,242.4 243,239.9 273.3,274.3 257.2,277.1 		"/>
		<polygon class="st5" points="227.5,242.4 211.8,245 241,279.8 257.2,277.1 		"/>
		<polygon class="st5" points="196.2,247.5 211.8,245 241,279.8 224.8,282.6 		"/>
		<polygon class="st5" points="196.2,247.5 180.4,250.1 208.3,285.4 224.8,282.6 		"/>
		<polygon class="st5" points="163.9,252.7 180.4,250.1 208.3,285.4 191.2,288.4 		"/>
		<polygon class="st5" points="179.7,273.3 165.4,275.7 176.7,290.9 191.2,288.4 		"/>
		<polygon class="st5" points="152.5,277.9 165.4,275.7 176.7,290.9 163.6,293.1 		"/>
		<polygon class="st5" points="152.5,277.9 140.3,279.9 151.2,295.2 163.6,293.1 		"/>
		<polygon class="st5" points="127.5,282.1 140.3,279.9 151.2,295.2 138.2,297.5 		"/>
		<polygon class="st5" points="127.5,282.1 115,284.2 125.4,299.7 138.2,297.5 		"/>
		<polygon class="st5" points="90.7,288.3 115,284.2 125.4,299.7 100.7,303.9 		"/>
		<polygon class="st5" points="90.7,288.3 108.2,285.3 101.2,274.8 83.8,277.6 		"/>
		<polygon class="st5" points="76.7,266.5 93.9,263.8 101.2,274.8 83.8,277.6 		"/>
		<polygon class="st5" points="163.9,252.7 133.1,257.7 143.5,272.1 174.8,266.9 		"/>
		<polygon class="st5" points="124.7,259.1 133.1,257.7 140.7,268.3 132.2,269.7 		"/>
		<polygon class="st5" points="420.4,218.5 434.7,216.2 427.5,210 413.3,212.3 		"/>
		<polygon class="st5" points="420.4,218.5 413.2,219.7 406.2,213.5 413.3,212.3 		"/>
		<polygon class="st5" points="113.4,242.2 117.4,241.6 124.6,251.7 120.6,252.3 		"/>
		<polygon class="st1" points="329.9,198.6 62.1,240.2 61.1,238.6 329.9,196.9 		"/>
		<polygon class="st2" points="100.7,303.9 59.4,239.6 59.4,237.9 100.7,302.1 		"/>
		<polygon class="st2" points="105.5,283 75.5,238.2 75.5,236.4 106.6,282.8 		"/>
		<polygon class="st2" points="102.5,254.2 89.9,235.9 89.9,234.2 102.5,252.5 		"/>
		<polygon class="st1" points="338.5,202.3 385.6,194.9 385.6,196.6 340.1,203.8 		"/>
		<polygon class="st1" points="381.7,188.8 420.9,182.7 420.9,184.5 383.4,190.3 		"/>
		<polygon class="st2" points="118.8,251.6 105.9,233.4 105.9,231.7 118.8,249.8 		"/>
		<polygon class="st2" points="122.9,250.9 109.9,232.8 109.9,231.1 122.9,249.2 		"/>
		<polygon class="st2" points="134.8,249 121.5,231 121.5,229.2 134.8,247.3 		"/>
		<polygon class="st2" points="165.4,244.1 151.6,226.3 151.6,224.6 165.4,242.4 		"/>
		<polygon class="st2" points="173.4,242.8 159.4,225.1 159.4,223.4 173.4,241.1 		"/>
		<polygon class="st2" points="181,241.6 177,236.6 177,234.9 181,239.9 		"/>
		<polygon class="st2" points="189.1,240.3 174.8,222.7 174.8,221 189.1,238.6 		"/>
		<polygon class="st2" points="204.6,237.8 190,220.4 190,218.6 204.6,236.1 		"/>
		<polygon class="st2" points="219.8,235.4 205.2,218 205.2,216.2 220.1,233.6 		"/>
		<polygon class="st2" points="235.4,232.9 220.2,215.7 220.2,213.9 235.4,231.1 		"/>
		<polygon class="st2" points="250.8,230.4 235.3,213.3 235.3,211.6 250.8,228.7 		"/>
		<polygon class="st2" points="265.8,228 250,211 250,209.3 265.8,226.3 		"/>
		<polygon class="st2" points="280.8,225.6 264.8,208.7 264.8,207 280.8,223.8 		"/>
		<polygon class="st2" points="295.8,223.2 279.5,206.5 279.5,204.7 295.8,221.4 		"/>
		<polygon class="st2" points="310.5,220.8 294,204.2 294,202.5 310.5,219.1 		"/>
		<polygon class="st2" points="325.4,218.4 308.6,201.9 308.6,200.2 325.4,216.7 		"/>
		<polygon class="st2" points="347.1,215 329.9,198.6 329.9,196.9 347.1,213.2 		"/>
		<polygon class="st2" points="354.4,213.8 343.3,203.3 343.3,201.5 354.4,212 		"/>
		<polygon class="st2" points="383.1,209.2 371.6,198.8 371.6,197.1 383.1,207.4 		"/>
		<polygon class="st2" points="397.2,206.9 385.6,196.6 385.6,194.9 397.2,205.2 		"/>
		<polygon class="st1" points="127.6,259.7 126.5,258.1 340.8,223.3 340.8,225.1 		"/>
		<polygon class="st2" points="384.2,194.1 379.5,189.9 379.5,188.1 385.9,193.8 		"/>
		<polygon class="st2" points="411.4,204.6 393,188.8 393,187 411.4,202.9 		"/>
		<polygon class="st2" points="425.5,202.4 406.9,186.6 406.9,184.9 425.5,200.6 		"/>
		<polygon class="st2" points="434.6,208.8 427.8,203 427.8,201.3 434.6,207.1 		"/>
		<polygon class="st1" points="395,231.2 393.4,229.7 434.5,222.9 434.5,224.7 		"/>
		<polygon class="st1" points="352.2,223.2 350.6,221.7 377.1,217.4 377.1,219.2 		"/>
		<polygon class="st1" points="347.5,231.6 347.5,229.8 354.9,228.6 354.9,230.3 		"/>
		<polygon class="st2" points="413.2,219.7 406.2,213.5 406.2,211.7 413.2,217.9 		"/>
		<polygon class="st2" points="449.2,228.6 434.7,216.2 434.7,214.4 449.2,226.8 		"/>
		<polygon class="st2" points="462.1,240.9 448.9,229.6 448.9,227.9 462.1,239.2 		"/>
		<polygon class="st2" points="441.7,230.9 434.5,224.7 434.5,222.9 441.7,229.1 		"/>
		<polygon class="st2" points="440,244.7 420,227.1 420,225.3 440,242.9 		"/>
		<polygon class="st2" points="425.3,247.2 405.6,229.4 405.6,227.7 425.3,245.5 		"/>
		<polygon class="st2" points="410.4,249.8 377.1,219.2 377.1,217.4 410.4,248 		"/>
		<polygon class="st2" points="395.5,252.3 362.7,221.5 362.7,219.8 395.5,250.6 		"/>
		<polygon class="st2" points="355.2,229.3 348.5,222.8 348.5,221.1 355.2,227.5 		"/>
		<polygon class="st2" points="347.5,231.6 340.8,225.1 340.8,223.3 347.5,229.8 		"/>
		<polygon class="st2" points="380.5,254.9 354.9,230.3 354.9,228.6 380.5,253.2 		"/>
		<polygon class="st2" points="365.3,257.5 333.4,226.3 333.4,224.5 365.3,255.8 		"/>
		<polygon class="st2" points="349.7,260.2 318.4,228.7 318.4,227 349.7,258.4 		"/>
		<polygon class="st2" points="334.3,262.8 303.5,231.1 303.5,229.4 334.3,261.1 		"/>
		<polygon class="st2" points="318.7,265.5 288.4,233.6 288.4,231.8 318.7,263.7 		"/>
		<polygon class="st2" points="303,268.2 273.2,236 273.2,234.3 303,266.4 		"/>
		<polygon class="st2" points="287.4,270.9 258.1,238.5 258.1,236.7 287.4,269.1 		"/>
		<polygon class="st2" points="271.4,273.6 242.6,241 242.6,239.3 271.4,271.9 		"/>
		<polygon class="st2" points="255.3,276.4 227.1,243.5 227.1,241.8 255.3,274.6 		"/>
		<polygon class="st2" points="239.1,279.2 211.4,246.1 211.4,244.3 239.1,277.4 		"/>
		<polygon class="st2" points="222.9,281.9 195.8,248.6 195.8,246.8 222.9,280.2 		"/>
		<polygon class="st1" points="93.4,288.8 92.3,287.3 179.3,272.7 179.3,274.4 		"/>
		<polygon class="st2" points="206.5,284.7 180,251.2 180,249.4 206.5,283 		"/>
		<polygon class="st2" points="173,266.2 163.5,253.8 163.5,252.1 173,264.4 		"/>
		<polygon class="st2" points="179.7,273.3 174.8,266.9 174.8,265.1 179.7,271.6 		"/>
		<polygon class="st2" points="189.4,287.7 179.3,274.4 179.3,272.7 189.4,285.9 		"/>
		<polygon class="st2" points="174.9,290.2 165,276.8 165,275.1 174.9,288.4 		"/>
		<polygon class="st2" points="161.8,292.4 152.1,279 152.1,277.2 161.8,290.7 		"/>
		<polygon class="st2" points="149.5,294.5 139.9,281 139.9,279.3 149.5,292.8 		"/>
		<polygon class="st2" points="136.5,296.8 127.1,283.2 127.1,281.4 136.5,295 		"/>
		<polygon class="st2" points="123.7,298.9 114.5,285.3 114.5,283.5 123.7,297.2 		"/>
		<polygon class="st2" points="139,267.5 132.7,258.8 132.7,257.1 139,265.8 		"/>
		<polygon class="st2" points="132.2,269.7 124.7,259.1 124.7,257.4 132.2,267.9 		"/>
		<polygon class="st2" points="143.5,272.1 140.7,268.3 140.7,266.5 143.5,270.3 		"/>
		<polygon class="st2" points="484.2,237.1 420.9,184.5 420.9,182.7 484.2,235.4 		"/>
		<polygon class="st1" points="410.1,213.8 408.4,212.4 448.7,205.8 448.7,207.6 		"/>
		<polygon class="st1" points="446,222.8 444.3,221.3 463.5,218.2 463.5,219.9 		"/>
		<polygon class="st1" points="441.7,230.9 441.7,229.1 448.9,227.9 448.9,229.6 		"/>
		<polygon class="st1" points="427.8,203 90.5,257.2 89.5,255.6 427.8,201.3 		"/>
		<polygon class="st1" points="346.4,209.7 344.8,208.2 349.6,207.5 349.6,209.2 		"/>
		<polygon class="st1" points="177,234.9 177,236.6 172.9,237.3 171.7,235.7 		"/>
		<polygon class="st1" points="116.9,240.9 116.9,242.7 116.2,242.8 115.1,241.2 		"/>
		<polygon class="st2" points="432.4,215.5 427.2,211.1 427.2,209.3 432.4,213.8 		"/>
		<polygon class="st2" points="418.1,217.9 413,213.4 413,211.6 418.1,216.1 		"/>
		<polygon class="st1" points="132.2,269.7 132.2,267.9 140.7,266.5 140.7,268.3 		"/>
		<polygon class="st1" points="143.5,272.1 143.5,270.3 174.8,265.1 174.8,266.9 		"/>
		<polygon class="st1" points="79.4,267.1 78.4,265.5 93.4,263.1 93.4,264.9 		"/>
		<polygon class="st1" points="86.5,278.2 85.5,276.6 100.7,274.1 100.7,275.9 		"/>
		<polygon class="st1" points="100.7,303.9 100.7,302.1 486.5,236 486.5,237.7 		"/>
		<polygon class="st1" points="413.2,219.7 413.2,217.9 434.7,214.4 434.7,216.2 		"/>
		<g>
			<path class="st0" d="M75.5,236.4l16.6,24.9l-14.9,2.4l-16.1-25.1L75.5,236.4 M75.9,235.3l-16.5,2.6l17.3,26.9l17.1-2.8
				L75.9,235.3L75.9,235.3z"/>
			<path class="st0" d="M89.9,234.2l12.6,18.3l-12.6,2l-12.3-18.4L89.9,234.2 M90.4,233.1L76,235.3l13.5,20.2l14.8-2.4L90.4,233.1
				L90.4,233.1z"/>
			<path class="st0" d="M105.9,231.7l12.9,18.2l-14.1,2.3l-12.6-18.3L105.9,231.7 M106.4,230.6l-16,2.5l13.8,20.1l16.3-2.6
				L106.4,230.6L106.4,230.6z"/>
			<path class="st0" d="M109.9,231.1l5.8,8l-1.8,0.3l-5.7-8L109.9,231.1 M110.3,230l-4,0.6l7,9.9l4-0.6L110.3,230L110.3,230z"/>
			<path class="st0" d="M121.5,229.2l13.2,18l-9.7,1.6l-13-18.1L121.5,229.2 M122,228.2l-11.7,1.8l14.3,19.9l11.9-1.9L122,228.2
				L122,228.2z"/>
			<path class="st0" d="M151.6,224.6l13.8,17.8L137,247l-13.2-18L151.6,224.6 M152,223.5l-30,4.7l14.6,19.8l30.7-4.9L152,223.5
				L152,223.5z"/>
			<path class="st0" d="M159.4,223.4l14,17.7l-5.7,0.9l-13.8-17.8L159.4,223.4 M159.8,222.3l-7.8,1.2l15.2,19.6l8-1.3L159.8,222.3
				L159.8,222.3z"/>
			<path class="st0" d="M177,234.9l4,5l-5.4,0.9l-3.9-5L177,234.9 M177.4,233.8l-7.6,1.2l5.4,6.8l7.6-1.2L177.4,233.8L177.4,233.8z"
				/>
			<path class="st0" d="M174.8,221l14.3,17.6l-5.8,0.9l-5.1-6.3l-0.4-0.5l-0.6,0.1l-7,1.1l-8.6-10.9l5.8-0.9l3.1-0.5L174.8,221
				 M175.2,219.9l-4.8,0.7l-3.1,0.5l-7.5,1.2l10.1,12.7l7.6-1.2l5.4,6.8l8.1-1.3L175.2,219.9L175.2,219.9z"/>
			<path class="st0" d="M190,218.6l14.6,17.5l-13.2,2.1l-14.3-17.6L190,218.6 M190.4,217.5l-15.2,2.4l15.8,19.4l15.5-2.5
				L190.4,217.5L190.4,217.5z"/>
			<path class="st0" d="M205.2,216.2l14.9,17.3l-13.2,2.1l-14.6-17.3L205.2,216.2 M205.6,215.2l-15.2,2.4l16.1,19.3l15.6-2.5
				L205.6,215.2L205.6,215.2z"/>
			<path class="st0" d="M220.2,213.9l15.2,17.2l-13,2.1l-14.9-17.3L220.2,213.9 M220.6,212.8l-15,2.3l16.4,19.1l15.4-2.5
				L220.6,212.8L220.6,212.8z"/>
			<path class="st0" d="M235.3,211.6l15.5,17.1l-13,2.1l-15.2-17.2L235.3,211.6 M235.7,210.5l-15.1,2.3l16.7,19l15.4-2.5
				L235.7,210.5L235.7,210.5z"/>
			<path class="st0" d="M250,209.3l15.8,17l-12.6,2l-15.5-17.1L250,209.3 M250.4,208.2l-14.7,2.3l17.1,18.9l15-2.4L250.4,208.2
				L250.4,208.2z"/>
			<path class="st0" d="M264.8,207l16,16.9l-12.6,2l-15.7-17L264.8,207 M265.1,205.9l-14.7,2.3l17.4,18.7l15-2.4L265.1,205.9
				L265.1,205.9z"/>
			<path class="st0" d="M279.5,204.7l16.3,16.7l-12.6,2l-16-16.9L279.5,204.7 M279.8,203.6l-14.7,2.3l17.7,18.6l15-2.4L279.8,203.6
				L279.8,203.6z"/>
			<path class="st0" d="M294,202.5l16.6,16.6l-12.3,2L282,204.4L294,202.5 M294.3,201.4l-14.5,2.2l18,18.5l14.8-2.4L294.3,201.4
				L294.3,201.4z"/>
			<path class="st0" d="M308.6,200.2l16.8,16.5l-12.5,2l-16.6-16.6L308.6,200.2 M309,199.1l-14.7,2.3l18.3,18.4l14.9-2.4L309,199.1
				L309,199.1z"/>
			<path class="st0" d="M329.9,196.9l17.2,16.3l-19.2,3.1l-16.8-16.5L329.9,196.9 M330.2,195.8l-21.3,3.3l18.6,18.2l21.7-3.5
				L330.2,195.8L330.2,195.8z"/>
			<path class="st0" d="M349.6,207.5l4.8,4.5l-4.8,0.8l-4.8-4.6L349.6,207.5 M349.9,206.4l-7.3,1.2l6.6,6.3l7.3-1.2L349.9,206.4
				L349.9,206.4z"/>
			<path class="st0" d="M343.3,201.5l4.5,4.2l-4.8,0.8l-4.5-4.2L343.3,201.5 M343.6,200.5l-7.2,1.1l6.3,6l7.3-1.2L343.6,200.5
				L343.6,200.5z"/>
			<path class="st0" d="M371.6,197.1l11.5,10.3l-26.2,4.2l-11.2-10.5L371.6,197.1 M371.9,196l-28.3,4.5l13,12.2l28.7-4.6L371.9,196
				L371.9,196z"/>
			<path class="st0" d="M385.6,194.9l11.6,10.3l-11.6,1.9l-11.5-10.3L385.6,194.9 M385.9,193.8l-14,2.2l13.4,12.1l14.1-2.3
				L385.9,193.8L385.9,193.8z"/>
			<path class="st0" d="M393,187l18.3,15.8l-11.6,1.9l-18.1-15.9L393,187 M393.4,186l-13.9,2.2l20,17.7l14.2-2.3L393.4,186
				L393.4,186z"/>
			<path class="st0" d="M406.9,184.9l18.5,15.7l-11.5,1.9l-18.3-15.8L406.9,184.9 M407.2,183.8l-13.9,2.2l20.3,17.5l14.1-2.3
				L407.2,183.8L407.2,183.8z"/>
			<path class="st0" d="M420.9,182.7l25.7,21.4l-11.7,1.9l-25.4-21.5L420.9,182.7 M421.2,181.7l-14,2.2l27.4,23.3l14.3-2.3
				L421.2,181.7L421.2,181.7z"/>
			<path class="st0" d="M448.7,205.8l12.8,10.6l-19.1,3.2l-12.5-10.7L448.7,205.8 M449,204.8l-21.4,3.5l14.5,12.4l21.7-3.6
				L449,204.8L449,204.8z"/>
			<path class="st0" d="M463.5,218.2l20.7,17.2l-19.5,3.3l-20.4-17.4L463.5,218.2 M463.8,217.1l-21.7,3.6l22.3,19.1l22.1-3.8
				L463.8,217.1L463.8,217.1z"/>
			<path class="st0" d="M434.5,222.9l6.8,5.9l0.4,0.3l0.5-0.1l6.8-1.1l13.1,11.3l-5.3,0.9l-3.7,0.6l-10.6,1.8l-20-17.6L434.5,222.9
				 M434.8,221.8l-14.4,2.4l21.9,19.3l11-1.9l3.7-0.6l7.4-1.3l-15.1-12.9L442,228L434.8,221.8L434.8,221.8z"/>
			<path class="st0" d="M420,225.3l20,17.6l-12.2,2.1l-19.7-17.7L420,225.3 M420.4,224.2l-14.4,2.4l21.6,19.5l14.7-2.5L420.4,224.2
				L420.4,224.2z"/>
			<path class="st0" d="M405.6,227.7l19.7,17.8l-12.5,2.1l-19.4-17.9L405.6,227.7 M405.9,226.6l-14.7,2.4l21.3,19.6l15-2.6
				L405.9,226.6L405.9,226.6z"/>
			<path class="st0" d="M377.1,217.4l33.3,30.6l-12.4,2.1l-32.8-30.7L377.1,217.4 M377.4,216.4l-14.4,2.3l34.6,32.5l14.9-2.6
				L377.4,216.4L377.4,216.4z"/>
			<path class="st0" d="M362.7,219.8l32.8,30.8l-12.6,2.2l-32.3-31L362.7,219.8 M363,218.7l-14.5,2.4l34.1,32.7l15-2.6L363,218.7
				L363,218.7z"/>
			<path class="st0" d="M340.8,223.3l6.3,6.1l0.4,0.4l0.5-0.1l6.9-1.1l25.6,24.6l-5.6,1l-3.3,0.6l-3.9,0.7l-31.8-31.2L340.8,223.3
				 M341.1,222.3l-7.4,1.2l33.6,33l4.4-0.8l3.3-0.6l7.6-1.3l-27.4-26.3l-7.4,1.2L341.1,222.3L341.1,222.3z"/>
			<path class="st0" d="M333.4,224.5l31.8,31.2l-13.1,2.3l-31.3-31.4L333.4,224.5 M333.8,223.5l-15,2.4l33.1,33.2l15.6-2.7
				L333.8,223.5L333.8,223.5z"/>
			<path class="st0" d="M318.4,227l31.3,31.5l-13,2.2L305.9,229L318.4,227 M318.7,225.9l-14.9,2.4l32.5,33.4l15.4-2.6L318.7,225.9
				L318.7,225.9z"/>
			<path class="st0" d="M303.5,229.4l30.8,31.7l-13.3,2.3l-30.2-32L303.5,229.4 M303.9,228.3l-15.1,2.5l32,33.7l15.7-2.7
				L303.9,228.3L303.9,228.3z"/>
			<path class="st0" d="M288.4,231.8l30.3,31.9l-13.3,2.3l-29.8-32.1L288.4,231.8 M288.7,230.8l-15.1,2.5l31.4,33.9l15.7-2.7
				L288.7,230.8L288.7,230.8z"/>
			<path class="st0" d="M273.2,234.3l29.8,32.1l-13.3,2.3l-29.3-32.3L273.2,234.3 M273.6,233.2l-15.1,2.5l30.9,34.1l15.7-2.7
				L273.6,233.2L273.6,233.2z"/>
			<path class="st0" d="M258.1,236.7l29.3,32.4l-13.7,2.4L245,238.9L258.1,236.7 M258.5,235.7l-15.5,2.5l30.3,34.4l16.1-2.8
				L258.5,235.7L258.5,235.7z"/>
			<path class="st0" d="M242.6,239.3l28.8,32.6l-13.7,2.4l-28.3-32.9L242.6,239.3 M243,238.2l-15.5,2.5l29.7,34.6l16.1-2.8
				L243,238.2L243,238.2z"/>
			<path class="st0" d="M227.1,241.8l28.2,32.9l-14,2.4L213.7,244L227.1,241.8 M227.5,240.7l-15.7,2.5l29.1,34.9l16.3-2.8
				L227.5,240.7L227.5,240.7z"/>
			<path class="st0" d="M211.4,244.3l27.7,33.1l-13.9,2.4l-27.1-33.3L211.4,244.3 M211.8,243.2l-15.6,2.5l28.5,35.1l16.2-2.8
				L211.8,243.2L211.8,243.2z"/>
			<path class="st0" d="M195.8,246.8l27.1,33.3l-14.2,2.4l-26.5-33.6L195.8,246.8 M196.2,245.8l-15.8,2.6l27.9,35.4l16.4-2.8
				L196.2,245.8L196.2,245.8z"/>
			<path class="st0" d="M180,249.4l26.5,33.6l-14.8,2.5l-25.9-33.8L180,249.4 M180.4,248.3L164,251l27.3,35.6l17.1-2.9L180.4,248.3
				L180.4,248.3z"/>
			<path class="st0" d="M179.3,272.7l10.1,13.2l-12.3,2.1l-9.9-13.3L179.3,272.7 M179.7,271.6l-14.3,2.4l11.3,15.1l14.5-2.5
				L179.7,271.6L179.7,271.6z"/>
			<path class="st0" d="M165,275.1l9.9,13.3l-10.9,1.9l-9.8-13.4L165,275.1 M165.4,274l-12.9,2.2l11.1,15.2l13.1-2.2L165.4,274
				L165.4,274z"/>
			<path class="st0" d="M152.1,277.2l9.8,13.4l-10.2,1.7l-9.6-13.5L152.1,277.2 M152.5,276.2l-12.2,2l10.9,15.3l12.4-2.1
				L152.5,276.2L152.5,276.2z"/>
			<path class="st0" d="M139.9,279.3l9.6,13.5l-10.8,1.9l-9.4-13.6L139.9,279.3 M140.3,278.2l-12.8,2.1l10.7,15.4l13-2.2
				L140.3,278.2L140.3,278.2z"/>
			<path class="st0" d="M127.1,281.4l9.4,13.6l-10.6,1.8l-9.2-13.6L127.1,281.4 M127.5,280.3l-12.6,2.1l10.5,15.5l12.8-2.2
				L127.5,280.3L127.5,280.3z"/>
			<path class="st0" d="M114.5,283.5l9.2,13.7l-22.5,3.9l-8.9-13.8L114.5,283.5 M115,282.4l-24.3,4.1l10.1,15.6l24.7-4.2L115,282.4
				L115,282.4z"/>
			<path class="st0" d="M100.7,274.1l5.8,8.7l-15.4,2.6l-5.7-8.8L100.7,274.1 M101.2,273l-17.4,2.9l6.8,10.6l17.6-2.9L101.2,273
				L101.2,273z"/>
			<path class="st0" d="M93.4,263.1l6.1,9.2l-15.2,2.5l-6-9.3L93.4,263.1 M93.9,262l-17.1,2.8l7.1,11.1l17.4-2.9L93.9,262L93.9,262z
				"/>
			<path class="st0" d="M163.5,252.1l9.4,12.3l-29,4.8l-9-12.5L163.5,252.1 M163.9,251l-30.8,5l10.3,14.3l31.3-5.2L163.9,251
				L163.9,251z"/>
			<path class="st0" d="M132.7,257.1l6.3,8.7l-6.3,1l-6.2-8.7L132.7,257.1 M133.1,256l-8.4,1.4l7.5,10.6l8.5-1.4L133.1,256
				L133.1,256z"/>
			<path class="st0" d="M427.2,209.3l5.2,4.5l-11.7,1.9l-5.2-4.5L427.2,209.3 M427.5,208.2l-14.2,2.3l7.1,6.2l14.3-2.4L427.5,208.2
				L427.5,208.2z"/>
			<path class="st0" d="M413,211.6l5.2,4.5l-4.6,0.8l-5.1-4.5L413,211.6 M413.3,210.6l-7.1,1.2l7.1,6.2l7.2-1.2L413.3,210.6
				L413.3,210.6z"/>
			<path class="st0" d="M116.9,240.9l5.9,8.3l-1.8,0.3l-5.9-8.3L116.9,240.9 M117.4,239.8l-4,0.6l7.2,10.1l4-0.6L117.4,239.8
				L117.4,239.8z"/>
		</g>
		<text transform="matrix(1 0 0 1 -18.8246 215.7017)" class="st6 st7 st8">Level 4</text>
	</g>
</g>
<g id="Level_5">
	<g>
		<g>
			<g>
				<path class="st0" d="M493.4,153.8l-37.8-31.9l0,0l-28.4-23.7c-1.8-1.5-4.1-2.3-6.4-2.3c-0.5,0-1,0-1.6,0.1l-13.9,2.2l0,0
					l-13.6,2.1l-14.1,2.2c-3.9,0.6-7,3.4-8.1,7.1c-0.1,0.4-0.2,0.7-0.2,1.1l-1.8,0.3l-28.2,4.5l-2.3,0.4l-2.7-2.5
					c-1.9-1.8-4.4-2.8-6.9-2.8c-0.5,0-1,0-1.6,0.1l-21.4,3.4l-14.4,2.3l-14.3,2.2l-14.8,2.3l-14.5,2.3l-14.4,2.3l-22.6,3.5l0,0
					l-3.4,0.5l-4.1,0.6l-14.7,2.3l0,0l-15.2,2.4l-5.6,0.9l-1.9,0.3l-7.6,1.2c-3.5,0.6-6.5,3-7.8,6.3c-0.3,0.7-0.5,1.4-0.6,2.2
					l-25.1,4l-9.3,1.5l-1.1-1.5c-1.9-2.7-5-4.2-8.2-4.2c-0.5,0-1,0-1.6,0.1L56.3,153c-3.4,0.5-6.2,2.7-7.6,5.8s-1.1,6.7,0.8,9.6
					L67.4,196l24.1,37.1c1.9,2.9,5.1,4.6,8.4,4.6c0.6,0,1.1,0,1.7-0.1l75.1-12.8l24.7-4.2l24-4.1l16-2.7l15.9-2.7l15.9-2.7l16.1-2.8
					l15.4-2.6l15.9-2.7l15.3-2.6l45.8-7.8l15.3-2.6l14.8-2.5l15-2.6l14.9-2.5l24.8-4.2l21.8-3.7c3.9-0.7,7-3.5,8-7.3
					C497.7,160.3,496.4,156.3,493.4,153.8z"/>
			</g>
		</g>
		<path class="st3" d="M449.1,128.4l-28.4-23.7l-13.9,2.2l-13.6,2.1l-14.1,2.2l6.6,5.9l-2.4,0.4l-14.3,2.3l-28.2,4.5l-7.2,1.1
			l-6.3-6l-21.4,3.4l-14.4,2.3l-14.3,2.2l-14.8,2.3l-14.5,2.3l-14.4,2.3l-22.6,3.5l-3.4,0.5l-4.1,0.6l-20.3,3.2l-9.6,1.5l-5.6,0.9
			l-1.9,0.3l-7.6,1.2l5,6.3l-7.4,1.2l-31.1,4.9l-15.4,2.4l0.8,1.1l-5.5-7.6l-46.9,7.4l17.9,27.6l24.1,37.1l75.1-12.8l24.7-4.2
			l24-4.1l16-2.7l15.9-2.7l15.9-2.7l16.1-2.8l15.4-2.6l15.9-2.7l15.3-2.6l45.8-7.8l15.3-2.6l14.8-2.5l15-2.6l14.9-2.5l24.8-4.2
			l21.8-3.7L449.1,128.4z"/>
		<g>
			<polygon class="st4" points="124.2,181.3 75.9,189.2 57.9,161.6 104.8,154.3 			"/>
			<polygon class="st4" points="148.1,177.4 75.9,189.2 100,226.2 175.1,213.4 			"/>
			<polygon class="st4" points="148.1,177.4 171.8,173.6 199.8,209.2 175.1,213.4 			"/>
			<polygon class="st4" points="195,169.8 171.8,173.6 199.8,209.2 223.8,205.1 			"/>
			<polygon class="st4" points="195,169.8 210.4,167.3 239.8,202.4 223.8,205.1 			"/>
			<polygon class="st4" points="225.8,164.8 210.4,167.3 239.8,202.4 255.8,199.7 			"/>
			<polygon class="st4" points="225.8,164.8 241.1,162.3 271.7,197 255.8,199.7 			"/>
			<polygon class="st4" points="256.7,159.8 241.1,162.3 271.7,197 287.9,194.2 			"/>
			<polygon class="st4" points="256.7,159.8 271.5,157.3 303.2,191.6 287.9,194.2 			"/>
			<polygon class="st4" points="286.8,154.9 271.5,157.3 303.2,191.6 319.1,188.9 			"/>
			<polygon class="st4" points="286.8,154.9 301.6,152.4 334.5,186.3 319.1,188.9 			"/>
			<polygon class="st4" points="345.8,145.3 301.6,152.4 334.5,186.3 380.3,178.5 			"/>
			<polygon class="st4" points="345.8,145.3 360.5,142.9 395.6,175.9 380.3,178.5 			"/>
			<polygon class="st4" points="374.9,140.5 360.5,142.9 395.6,175.9 410.4,173.3 			"/>
			<polygon class="st4" points="374.9,140.5 389.3,138.2 425.4,170.8 410.4,173.3 			"/>
			<polygon class="st4" points="403.7,135.8 389.3,138.2 425.4,170.8 440.3,168.3 			"/>
			<polygon class="st4" points="403.7,135.8 427.7,131.9 465.1,164 440.3,168.3 			"/>
			<polygon class="st4" points="449.1,128.4 427.7,131.9 465.1,164 486.9,160.3 			"/>
			<polygon class="st4" points="449.1,128.4 434.8,130.8 406.7,106.9 420.7,104.7 			"/>
			<polygon class="st4" points="413.9,127 427.7,124.7 406.7,106.9 393.2,109.1 			"/>
			<polygon class="st4" points="413.9,127 399.5,129.3 379.1,111.3 393.2,109.1 			"/>
			<polygon class="st4" points="389.9,123.6 392.5,123.1 385.7,117.1 383.1,117.5 			"/>
			<polygon class="st4" points="389.9,123.6 392.5,123.1 399.5,129.3 396.8,129.7 			"/>
			<polygon class="st4" points="383.1,117.5 369,119.8 382.5,132 396.8,129.7 			"/>
			<polygon class="st4" points="340.8,124.2 369,119.8 382.5,132 353.9,136.6 			"/>
			<polygon class="st4" points="340.8,124.2 333.6,125.4 340.1,131.6 347.3,130.4 			"/>
			<polygon class="st4" points="353.9,136.6 346.6,137.8 340.1,131.6 347.3,130.4 			"/>
			<polygon class="st4" points="324.7,141.4 346.6,137.8 327.3,119.4 305.9,122.8 			"/>
			<polygon class="st4" points="324.7,141.4 310,143.7 291.4,125 305.9,122.8 			"/>
			<polygon class="st4" points="295.4,146.1 310,143.7 291.4,125 277.2,127.3 			"/>
			<polygon class="st4" points="295.4,146.1 280.3,148.5 262.4,129.6 277.2,127.3 			"/>
			<polygon class="st4" points="265.5,150.9 280.3,148.5 262.4,129.6 247.9,131.9 			"/>
			<polygon class="st4" points="265.5,150.9 243.1,154.5 244.7,146.5 233.5,134.1 247.9,131.9 			"/>
			<polygon class="st4" points="227.8,157 243.1,154.5 244.7,146.5 233.5,134.1 210.9,137.7 			"/>
			<polygon class="st4" points="189.6,163.2 205.1,160.6 188.8,141.2 173.6,143.6 			"/>
			<polygon class="st4" points="174.1,165.7 181.8,164.4 176.4,157.7 168.8,158.9 			"/>
			<polygon class="st4" points="174.1,165.7 166.6,166.9 156.1,153.5 163.5,152.3 			"/>
			<polygon class="st4" points="135,172 166.6,166.9 156.1,153.5 125,158.4 			"/>
			<polygon class="st4" points="135,172 119.3,174.5 109.5,160.8 125,158.4 			"/>
			<polygon class="st4" points="167.9,144.5 166,144.8 158.5,145.9 168.8,158.9 176.4,157.7 181.8,164.4 189.6,163.2 173.6,143.6 
							"/>
			<polygon class="st4" points="220.1,158.2 205.1,160.6 199.8,154.2 214.6,151.9 			"/>
			<polygon class="st4" points="207.6,138.2 203.5,138.9 188.8,141.2 199.8,154.2 214.6,151.9 220.1,158.2 227.8,157 210.9,137.7 
							"/>
		</g>
		<polygon class="st5" points="124.2,181.3 75.9,189.2 57.9,161.6 104.8,154.3 		"/>
		<polygon class="st5" points="148.1,177.4 75.9,189.2 100,226.2 175.1,213.4 		"/>
		<polygon class="st5" points="148.1,177.4 171.8,173.6 199.8,209.2 175.1,213.4 		"/>
		<polygon class="st5" points="195,169.8 171.8,173.6 199.8,209.2 223.8,205.1 		"/>
		<polygon class="st5" points="195,169.8 210.4,167.3 239.8,202.4 223.8,205.1 		"/>
		<polygon class="st5" points="225.8,164.8 210.4,167.3 239.8,202.4 255.8,199.7 		"/>
		<polygon class="st5" points="225.8,164.8 241.1,162.3 271.7,197 255.8,199.7 		"/>
		<polygon class="st5" points="256.7,159.8 241.1,162.3 271.7,197 287.9,194.2 		"/>
		<polygon class="st5" points="256.7,159.8 271.5,157.3 303.2,191.6 287.9,194.2 		"/>
		<polygon class="st5" points="286.8,154.9 271.5,157.3 303.2,191.6 319.1,188.9 		"/>
		<polygon class="st5" points="286.8,154.9 301.6,152.4 334.5,186.3 319.1,188.9 		"/>
		<polygon class="st5" points="345.8,145.3 301.6,152.4 334.5,186.3 380.3,178.5 		"/>
		<polygon class="st5" points="345.8,145.3 360.5,142.9 395.6,175.9 380.3,178.5 		"/>
		<polygon class="st5" points="374.9,140.5 360.5,142.9 395.6,175.9 410.4,173.3 		"/>
		<polygon class="st5" points="374.9,140.5 389.3,138.2 425.4,170.8 410.4,173.3 		"/>
		<polygon class="st5" points="403.7,135.8 389.3,138.2 425.4,170.8 440.3,168.3 		"/>
		<polygon class="st5" points="403.7,135.8 427.7,131.9 465.1,164 440.3,168.3 		"/>
		<polygon class="st5" points="449.1,128.4 427.7,131.9 465.1,164 486.9,160.3 		"/>
		<polygon class="st5" points="449.1,128.4 434.8,130.8 406.7,106.9 420.7,104.7 		"/>
		<polygon class="st5" points="413.9,127 427.7,124.7 406.7,106.9 393.2,109.1 		"/>
		<polygon class="st5" points="413.9,127 399.5,129.3 379.1,111.3 393.2,109.1 		"/>
		<polygon class="st5" points="389.9,123.6 392.5,123.1 385.7,117.1 383.1,117.5 		"/>
		<polygon class="st5" points="389.9,123.6 392.5,123.1 399.5,129.3 396.8,129.7 		"/>
		<polygon class="st5" points="383.1,117.5 369,119.8 382.5,132 396.8,129.7 		"/>
		<polygon class="st5" points="340.8,124.2 369,119.8 382.5,132 353.9,136.6 		"/>
		<polygon class="st5" points="340.8,124.2 333.6,125.4 340.1,131.6 347.3,130.4 		"/>
		<polygon class="st5" points="353.9,136.6 346.6,137.8 340.1,131.6 347.3,130.4 		"/>
		<polygon class="st5" points="324.7,141.4 346.6,137.8 327.3,119.4 305.9,122.8 		"/>
		<polygon class="st5" points="324.7,141.4 310,143.7 291.4,125 305.9,122.8 		"/>
		<polygon class="st5" points="295.4,146.1 310,143.7 291.4,125 277.2,127.3 		"/>
		<polygon class="st5" points="295.4,146.1 280.3,148.5 262.4,129.6 277.2,127.3 		"/>
		<polygon class="st5" points="265.5,150.9 280.3,148.5 262.4,129.6 247.9,131.9 		"/>
		<polygon class="st5" points="265.5,150.9 243.1,154.5 244.7,146.5 233.5,134.1 247.9,131.9 		"/>
		<polygon class="st5" points="227.8,157 243.1,154.5 244.7,146.5 233.5,134.1 210.9,137.7 		"/>
		<polygon class="st5" points="189.6,163.2 205.1,160.6 188.8,141.2 173.6,143.6 		"/>
		<polygon class="st5" points="174.1,165.7 181.8,164.4 176.4,157.7 168.8,158.9 		"/>
		<polygon class="st5" points="174.1,165.7 166.6,166.9 156.1,153.5 163.5,152.3 		"/>
		<polygon class="st5" points="135,172 166.6,166.9 156.1,153.5 125,158.4 		"/>
		<polygon class="st5" points="135,172 119.3,174.5 109.5,160.8 125,158.4 		"/>
		<polygon class="st5" points="167.9,144.5 166,144.8 158.5,145.9 168.8,158.9 176.4,157.7 181.8,164.4 189.6,163.2 173.6,143.6 		
			"/>
		<polygon class="st5" points="220.1,158.2 205.1,160.6 199.8,154.2 214.6,151.9 		"/>
		<polygon class="st5" points="207.6,138.2 203.5,138.9 188.8,141.2 199.8,154.2 214.6,151.9 220.1,158.2 227.8,157 210.9,137.7 		
			"/>
		<polygon class="st2" points="122.8,181.5 104.5,155.1 104.5,153.5 122.8,179.2 		"/>
		<polygon class="st1" points="60.2,162.1 104.5,155.1 104.5,153.5 59.3,160.6 		"/>
		<polygon class="st1" points="111.9,161.2 124.3,159.3 124.6,157.7 110.9,159.8 		"/>
		<polygon class="st1" points="127.4,158.8 155.4,154.3 155.7,152.7 126.4,157.4 		"/>
		<polygon class="st1" points="158.6,153.9 162.9,153.2 163.2,151.6 157.5,152.5 		"/>
		<polygon class="st1" points="161,146.3 172.9,144.5 173.2,142.8 159.9,144.9 		"/>
		<polygon class="st1" points="176.1,144 188.2,142.1 188.5,140.4 175,142.6 		"/>
		<polygon class="st1" points="191.5,141.5 210.3,138.6 210.6,137 190.3,140.2 		"/>
		<polygon class="st1" points="202.4,154.6 214,152.7 214.3,151.1 201.3,153.2 		"/>
		<polygon class="st1" points="171,159.4 175.8,158.6 176.1,157 170.2,157.9 		"/>
		<polygon class="st1" points="213.7,138.1 232.9,135 233.2,133.4 212.5,136.7 		"/>
		<polygon class="st1" points="236.3,134.5 247.3,132.8 247.6,131.2 235.1,133.1 		"/>
		<polygon class="st1" points="250.5,132.3 261.8,130.5 262.1,128.9 249.5,130.9 		"/>
		<polygon class="st1" points="265.2,130 276.6,128.2 276.9,126.6 264,128.6 		"/>
		<polygon class="st1" points="280.1,127.6 290.9,125.9 291.2,124.3 278.8,126.3 		"/>
		<polygon class="st1" points="294.3,125.4 305.3,123.7 305.6,122 293.1,124 		"/>
		<polygon class="st1" points="308.8,123.1 326.8,120.3 327.1,118.7 307.5,121.7 		"/>
		<polygon class="st1" points="336.4,125.7 340.2,125.1 340.5,123.5 335.3,124.3 		"/>
		<polygon class="st1" points="343.6,124.6 368.5,120.6 368.8,119 342.5,123.2 		"/>
		<polygon class="st1" points="371.7,120.2 385.2,118 385.5,116.4 370.8,118.7 		"/>
		<polygon class="st1" points="381.7,111.7 420.1,105.6 420.4,104 380.9,110.1 		"/>
		<polygon class="st2" points="133.3,171.4 124.3,159.3 124.6,157.7 133.6,169.8 		"/>
		<polygon class="st2" points="164.8,166.3 155.4,154.3 155.7,152.7 165.1,164.7 		"/>
		<polygon class="st2" points="172.4,165.1 162.9,153.2 163.2,151.6 172.6,163.5 		"/>
		<polygon class="st2" points="162.1,150.9 158.2,146 158.5,144.4 163.5,150.7 		"/>
		<polygon class="st2" points="180.1,163.9 175.8,158.6 176.1,157 180.4,162.3 		"/>
		<polygon class="st2" points="187.8,162.6 172.9,144.5 173.2,142.8 188.1,161 		"/>
		<polygon class="st2" points="203.3,160.1 188.2,142.1 188.5,140.4 203.6,158.5 		"/>
		<polygon class="st2" points="218.3,157.8 214,152.7 214.3,151.1 218.6,156.2 		"/>
		<polygon class="st2" points="100,226.2 57.9,161.6 57.9,160.1 100,224.7 		"/>
		<polygon class="st2" points="226.2,154.9 210.6,137 210.3,138.6 210.6,138.9 224.7,155.1 		"/>
		<polygon class="st2" points="232.9,135 233.2,133.4 243.8,145.2 243.5,146.8 		"/>
		<polygon class="st2" points="244.1,152 244.1,152 245.5,144.7 245.2,146.3 		"/>
		<polygon class="st2" points="247.3,132.8 247.6,131.2 263.9,148.8 262.4,149 		"/>
		<polygon class="st2" points="261.8,130.5 262.1,128.9 278.7,146.4 278.4,148 		"/>
		<polygon class="st2" points="276.6,128.2 276.9,126.6 293.8,144 293.5,145.6 		"/>
		<polygon class="st2" points="290.9,125.9 291.2,124.3 308.4,141.6 308.1,143.2 		"/>
		<polygon class="st2" points="305.3,123.7 305.6,122 323.1,139.2 322.8,140.9 		"/>
		<polygon class="st2" points="326.8,120.3 327.1,118.7 344.9,135.7 344.6,137.3 		"/>
		<polygon class="st2" points="340.2,125.1 340.5,123.5 352.2,134.5 351.9,136.1 		"/>
		<polygon class="st2" points="368.5,120.6 368.8,119 380.8,129.9 380.5,131.5 		"/>
		<polygon class="st2" points="382.6,118.4 382.9,116.8 395.1,127.6 394.8,129.2 		"/>
		<polygon class="st2" points="385.2,118 385.5,116.4 397.7,127.2 397.4,128.8 		"/>
		<polygon class="st2" points="378.8,111.3 379.1,109.7 385.7,115.5 383.9,115.8 		"/>
		<polygon class="st2" points="392.6,109.9 392.9,108.3 412,124.9 411.8,126.5 		"/>
		<polygon class="st2" points="406.2,107.8 406.5,106.2 425.9,122.7 425.6,124.3 		"/>
		<polygon class="st2" points="427.4,124.8 427.7,123.1 434.8,129.2 434.5,130.8 		"/>
		<polygon class="st1" points="120.2,174.4 427.4,124.8 427.7,123.1 119.3,172.9 		"/>
		<polygon class="st2" points="225.2,165.7 225.4,164.1 254.3,197.6 254,199.2 		"/>
		<polygon class="st2" points="420.1,105.6 420.4,104 485.4,158.2 485.1,159.8 		"/>
		<polygon class="st1" points="343.1,131.8 346.8,131.3 347.1,129.7 341.8,130.5 		"/>
		<polygon class="st1" points="78.1,189.6 448.5,129.3 448.8,127.7 77.2,188.2 		"/>
		<polygon class="st2" points="427.2,132.8 427.4,131.2 463.3,162 463,163.6 		"/>
		<polygon class="st2" points="171.2,174.5 171.5,172.9 198.3,207.1 198,208.7 		"/>
		<polygon class="st2" points="147.7,178.3 147.7,176.7 173.7,211.3 173.7,212.9 		"/>
		<polygon class="st2" points="209.8,168.2 210.1,166.6 238.3,200.3 238,201.9 		"/>
		<polygon class="st2" points="194.3,170.7 194.6,169.1 222.3,203 222,204.6 		"/>
		<polygon class="st2" points="240.5,163.2 240.8,161.6 270.2,194.9 269.9,196.5 		"/>
		<polygon class="st2" points="270.9,158.2 271.2,156.6 301.6,189.5 301.4,191.1 		"/>
		<polygon class="st2" points="256.1,160.6 256.4,159 286.3,192.1 286,193.7 		"/>
		<polygon class="st2" points="286.2,155.7 286.5,154.1 317.5,186.8 317.3,188.4 		"/>
		<polygon class="st2" points="301,153.3 301.3,151.7 332.9,184.2 332.6,185.8 		"/>
		<polygon class="st2" points="345.2,146.1 345.5,144.5 378.6,176.4 378.3,178 		"/>
		<polygon class="st2" points="360,143.7 360.3,142.1 393.8,173.8 393.6,175.4 		"/>
		<polygon class="st2" points="374.3,141.4 374.6,139.8 408.7,171.3 408.4,172.9 		"/>
		<polygon class="st2" points="388.8,139 389.1,137.4 423.6,168.7 423.3,170.3 		"/>
		<polygon class="st2" points="403.2,136.7 403.5,135.1 438.5,166.2 438.2,167.8 		"/>
		<g>
			<g>
				<path class="st0" d="M104.5,153.5l18.4,25.6l-46.6,7.6l-17-26.1L104.5,153.5 M104.8,152.7l-46.9,7.4l17.9,27.6l48.3-7.9
					L104.8,152.7L104.8,152.7z"/>
				<path class="st0" d="M147.7,176.7l25.9,34.6l-73.2,12.5l-23.2-35.6L147.7,176.7 M148.1,175.9l-72.2,11.8l24.1,37.1l75.1-12.8
					L148.1,175.9L148.1,175.9z"/>
				<path class="st0" d="M171.5,172.9l26.8,34.2l-22.9,3.9l-25.9-34.6L171.5,172.9 M171.8,172l-23.8,3.9l27,36l24.7-4.2L171.8,172
					L171.8,172z"/>
				<path class="st0" d="M194.6,169.1l27.7,33.9l-22.2,3.8l-26.8-34.2L194.6,169.1 M195,168.2l-23.1,3.8l27.9,35.7l24-4.1L195,168.2
					L195,168.2z"/>
				<path class="st0" d="M210.1,166.6l28.3,33.7l-14.2,2.4l-27.8-33.9L210.1,166.6 M210.4,165.7l-15.4,2.5l28.8,35.3l16-2.7
					L210.4,165.7L210.4,165.7z"/>
				<path class="st0" d="M225.4,164.1l28.8,33.5l-14.1,2.4l-28.2-33.7L225.4,164.1 M225.8,163.2l-15.4,2.5l29.4,35.1l15.9-2.7
					L225.8,163.2L225.8,163.2z"/>
				<path class="st0" d="M240.8,161.6l29.4,33.3l-14.1,2.4l-28.8-33.5L240.8,161.6 M241.1,160.7l-15.4,2.5l30,34.9l15.9-2.7
					L241.1,160.7L241.1,160.7z"/>
				<path class="st0" d="M256.4,159l29.9,33.1l-14.3,2.4l-29.4-33.3L256.4,159 M256.7,158.2l-15.6,2.5l30.6,34.7l16.1-2.8
					L256.7,158.2L256.7,158.2z"/>
				<path class="st0" d="M271.2,156.6l30.5,32.9l-13.5,2.3l-29.9-33.1L271.2,156.6 M271.5,155.8l-14.8,2.4l31.2,34.5l15.4-2.6
					L271.5,155.8L271.5,155.8z"/>
				<path class="st0" d="M286.5,154.1l31,32.7l-14,2.4L273,156.3L286.5,154.1 M286.8,153.3l-15.3,2.5l31.8,34.3l15.9-2.7
					L286.8,153.3L286.8,153.3z"/>
				<path class="st0" d="M301.3,151.7l31.5,32.5l-13.4,2.3l-31-32.6L301.3,151.7 M301.6,150.9l-14.8,2.4l32.3,34l15.3-2.6
					L301.6,150.9L301.6,150.9z"/>
				<path class="st0" d="M345.5,144.5l33.1,31.9l-43.8,7.5l-31.5-32.4L345.5,144.5 M345.8,143.7l-44.2,7.2l32.9,33.8l45.8-7.8
					L345.8,143.7L345.8,143.7z"/>
				<path class="st0" d="M360.3,142.1l33.6,31.7l-13.3,2.3l-33.1-31.8L360.3,142.1 M360.5,141.3l-14.7,2.4l34.5,33.2l15.3-2.6
					L360.5,141.3L360.5,141.3z"/>
				<path class="st0" d="M374.6,139.8l34.1,31.5l-12.9,2.2l-33.6-31.7L374.6,139.8 M374.9,138.9l-14.3,2.3l35,33l14.8-2.5
					L374.9,138.9L374.9,138.9z"/>
				<path class="st0" d="M389.1,137.4l34.6,31.3l-13,2.2l-34-31.5L389.1,137.4 M389.3,136.6l-14.5,2.4l35.5,32.8l15-2.6L389.3,136.6
					L389.3,136.6z"/>
				<path class="st0" d="M403.5,135.1l35,31.1l-12.9,2.2l-34.5-31.3L403.5,135.1 M403.7,134.2l-14.4,2.3l36,32.6l14.9-2.5
					L403.7,134.2L403.7,134.2z"/>
				<path class="st0" d="M427.5,131.2l35.8,30.8l-22.8,3.9l-35-31.1L427.5,131.2 M427.7,130.3l-24,3.9l36.6,32.4l24.8-4.2
					L427.7,130.3L427.7,130.3z"/>
				<path class="st0" d="M448.8,127.7l36.5,30.5l-20.1,3.4l-35.8-30.7L448.8,127.7 M449.1,126.9l-21.4,3.5l37.4,32.1l22.1-3.8
					L449.1,126.9L449.1,126.9z"/>
				<path class="st0" d="M420.4,104l26.8,22.4l-12.2,2l-26.4-22.5L420.4,104 M420.7,103.2l-13.9,2.2l28,23.8l14.3-2.3L420.7,103.2
					L420.7,103.2z"/>
				<path class="st0" d="M406.5,106.2l19.4,16.5l-11.8,1.9L395,108L406.5,106.2 M406.7,105.3l-13.6,2.1l20.7,17.9l13.8-2.2
					L406.7,105.3L406.7,105.3z"/>
				<path class="st0" d="M392.9,108.3l19.1,16.6l-12.3,2l-18.8-16.7L392.9,108.3 M393.2,107.5l-14.1,2.2l20.4,18l14.4-2.3
					L393.2,107.5L393.2,107.5z"/>
				<path class="st0" d="M385.5,116.4l5.3,4.6l-0.6,0.1l-5.2-4.7L385.5,116.4 M385.7,115.5l-2.6,0.4l6.8,6l2.6-0.4L385.7,115.5
					L385.7,115.5z"/>
				<path class="st0" d="M392.3,122.4l5.4,4.8l-0.6,0.1l-5.4-4.8L392.3,122.4 M392.5,121.6l-2.6,0.4l7,6.2l2.7-0.4L392.5,121.6
					L392.5,121.6z"/>
				<path class="st0" d="M382.9,116.8l12.2,10.8l-12.3,2l-12-10.9L382.9,116.8 M383.1,116l-14.1,2.2l13.5,12.3l14.3-2.3L383.1,116
					L383.1,116z"/>
				<path class="st0" d="M368.8,119l12,10.9l-26.6,4.3l-11.7-11L368.8,119 M369,118.2l-28.2,4.5l13.2,12.4l28.6-4.6L369,118.2
					L369,118.2z"/>
				<path class="st0" d="M340.5,123.5l5.1,4.8l-5.3,0.8l-5-4.8L340.5,123.5 M340.8,122.7l-7.2,1.1l6.5,6.2l7.3-1.2L340.8,122.7
					L340.8,122.7z"/>
				<path class="st0" d="M347.1,129.7l5.2,4.9l-5.3,0.9l-5.1-4.9L347.1,129.7 M347.3,128.8L340,130l6.6,6.3l7.3-1.2L347.3,128.8
					L347.3,128.8z"/>
				<path class="st0" d="M327,118.7l17.9,17l-19.9,3.2l-17.5-17.2L327,118.7 M327.3,117.8l-21.4,3.4l18.9,18.6l21.9-3.5L327.3,117.8
					L327.3,117.8z"/>
				<path class="st0" d="M305.6,122l17.5,17.2l-12.8,2.1L293.1,124L305.6,122 M305.9,121.2l-14.4,2.3l18.6,18.7l14.7-2.4
					L305.9,121.2L305.9,121.2z"/>
				<path class="st0" d="M291.2,124.3l17.2,17.3l-12.6,2l-16.9-17.4L291.2,124.3 M291.4,123.5l-14.3,2.2l18.3,18.8l14.6-2.4
					L291.4,123.5L291.4,123.5z"/>
				<path class="st0" d="M276.9,126.6l16.9,17.4l-13.2,2.1L264,128.6L276.9,126.6 M277.2,125.7l-14.8,2.3l17.9,18.9l15.1-2.4
					L277.2,125.7L277.2,125.7z"/>
				<path class="st0" d="M262.1,128.9l16.6,17.5l-12.9,2.1l-16.3-17.6L262.1,128.9 M262.4,128l-14.5,2.3l17.6,19l14.8-2.4L262.4,128
					L262.4,128z"/>
				<path class="st0" d="M247.6,131.2l16.3,17.6l-19.8,3.2l1.4-6.9l0.1-0.4l-0.3-0.3l-10.2-11.3L247.6,131.2 M247.9,130.3l-14.4,2.3
					l11.2,12.4l-1.6,8l22.4-3.6L247.9,130.3L247.9,130.3z"/>
				<path class="st0" d="M233.2,133.4l10.6,11.8l-1.4,7.1l-14.4,2.3l-15.6-17.9L233.2,133.4 M233.5,132.6l-22.6,3.5l16.8,19.3
					l15.3-2.5l1.6-8L233.5,132.6L233.5,132.6z"/>
				<path class="st0" d="M188.5,140.4l15.1,18.1l-13.8,2.2L175,142.5L188.5,140.4 M188.8,139.6l-15.2,2.4l16,19.6l15.6-2.5
					L188.8,139.6L188.8,139.6z"/>
				<path class="st0" d="M176.1,157l4.2,5.3l-5.9,1l-4.2-5.3L176.1,157 M176.4,156.1l-7.7,1.2l5.3,6.7l7.7-1.2L176.4,156.1
					L176.4,156.1z"/>
				<path class="st0" d="M163.2,151.6l9.5,11.9l-5.7,0.9l-9.4-12L163.2,151.6 M163.5,150.7l-7.4,1.2l10.5,13.4l7.5-1.2L163.5,150.7
					L163.5,150.7z"/>
				<path class="st0" d="M155.7,152.7l9.4,12l-29.8,4.8l-9-12.1L155.7,152.7 M156.1,151.9l-31.1,4.9l10,13.6l31.6-5.1L156.1,151.9
					L156.1,151.9z"/>
				<path class="st0" d="M124.6,157.7l9,12.1l-13.9,2.2l-8.8-12.2L124.6,157.7 M125,156.8l-15.4,2.4l9.8,13.7l15.7-2.5L125,156.8
					L125,156.8z"/>
				<path class="st0" d="M173.2,142.8L188,161l-5.9,1l-5.1-6.3l-0.3-0.4l-0.5,0.1l-7.2,1.2l-9.2-11.6l6.2-1l1.9-0.3L173.2,142.8
					 M173.5,142l-5.6,0.9l-1.9,0.3l-7.6,1.2l10.3,13l7.7-1.2l5.4,6.7l7.7-1.2L173.5,142L173.5,142z"/>
				<path class="st0" d="M214.3,151.1l4.3,5l-13.1,2.1l-4.2-5L214.3,151.1 M214.6,150.3l-14.9,2.4l5.4,6.4l15-2.4L214.6,150.3
					L214.6,150.3z"/>
				<path class="st0" d="M210.6,137l15.6,17.9l-5.8,0.9l-5.2-6l-0.3-0.3l-0.4,0.1l-14.4,2.3l-9.8-11.6l13.3-2.1l4.1-0.6L210.6,137
					 M210.9,136.1l-3.4,0.5l-4.1,0.6l-14.7,2.3l11,13.1l14.9-2.4l5.5,6.4l7.6-1.2L210.9,136.1L210.9,136.1z"/>
			</g>
		</g>
		<polygon class="st1" points="100,226.2 486.9,160.3 487.2,158.7 100,224.7 		"/>
		<text transform="matrix(1 0 0 1 -20.5107 143.2068)" class="st6 st7 st8">Level 5</text>
	</g>
</g>
<g id="Level_6">
	<g>
		<g>
			<g>
				<path class="st0" d="M420.4,17.6c-0.6,0-1.1,0-1.7,0.1l-18.4,2.8l-36.2,5.6l-9.5,1.5l-27.9,4.3l-28.2,4.4L270,40.7l-28.8,4.4
					l-29.6,4.6l-29.8,4.6l-20.1,3.1l-16.2,2.5l-4,0.6l-10.6,1.6l-10.7,1.7l-41,6.3l-21.5,3.3c-3.7,0.6-6.8,2.9-8.3,6.3
					s-1.3,7.3,0.7,10.4l10.5,16.6l11.9,18.8l18,28.4c2,3.2,5.6,5.1,9.3,5.1c0.6,0,1.2-0.1,1.8-0.2l23.1-3.9l22.6-3.8l22-3.7
					l22.4-3.8l21.7-3.7l21.5-3.7l21.2-3.6l21.7-3.7l20.3-3.4l31.4-5.3L360,115l20.2-3.4l20-3.4l19.7-3.3l19.4-3.3l19.3-3.3l29.5-5
					c4.3-0.7,7.7-3.9,8.8-8s-0.3-8.6-3.7-11.3l-29.3-23.8l-36.7-29.9C425.3,18.4,422.9,17.6,420.4,17.6L420.4,17.6z"/>
			</g>
		</g>
		<g>
			<g>
				<path class="st3" d="M457.1,58.5L457.1,58.5l-36.7-29.9L402,31.4L365.8,37l-9.5,1.5l-27.9,4.3l-28.2,4.4l-28.5,4.4l-28.8,4.3
					l-29.6,4.6l-29.8,4.6l-20.1,3.1l-16.2,2.5l-4,0.6l-10.6,1.6l-10.7,1.7l-41,6.3l-21.5,3.3l10.5,16.6l11.9,18.8l18,28.4l23.1-3.9
					l22.6-3.8l22-3.7l22.4-3.8l21.7-3.7l21.5-3.7l21.2-3.6l21.7-3.7l20.3-3.4l31.4-5.3l30.5-5.2l20.2-3.4l20-3.4l19.7-3.3l19.4-3.3
					l19.3-3.3l29.5-5L457.1,58.5z"/>
			</g>
		</g>
		<g>
			<polygon class="st4" points="91.8,97.4 69.9,100.8 59.4,84.2 80.8,80.9 			"/>
			<polygon class="st4" points="97.7,106.2 140,99.4 121.8,74.6 80.8,80.9 			"/>
			<polygon class="st4" points="151,97.6 140,99.4 121.8,74.6 132.6,72.9 			"/>
			<polygon class="st4" points="144.6,89 155.4,87.3 162,95.9 151,97.6 			"/>
			<polygon class="st4" points="147.2,70.7 143.2,71.3 132.6,72.9 144.6,89 155.4,87.3 162,95.9 182.8,92.5 163.4,68.2 			"/>
			<polygon class="st4" points="182.8,92.5 203.5,89.2 183.5,65.1 163.4,68.2 			"/>
			<polygon class="st4" points="234.1,84.3 203.5,89.2 183.5,65.1 213.3,60.5 			"/>
			<polygon class="st4" points="234.1,84.3 264.6,79.4 242.9,55.9 213.3,60.5 			"/>
			<polygon class="st4" points="294.2,74.7 264.6,79.4 242.9,55.9 271.7,51.5 			"/>
			<polygon class="st4" points="294.2,74.7 323.5,70 300.2,47.1 271.7,51.5 			"/>
			<polygon class="st4" points="352.5,65.3 323.5,70 300.2,47.1 328.4,42.7 			"/>
			<polygon class="st4" points="352.5,65.3 381.2,60.7 356.3,38.4 328.4,42.7 			"/>
			<polygon class="st4" points="376.5,46.5 366.9,48 356.3,38.4 365.8,37 			"/>
			<polygon class="st4" points="390.9,59.1 428,53.2 402,31.4 365.8,37 			"/>
			<polygon class="st4" points="437.8,42.7 419.1,45.7 402,31.4 420.4,28.6 			"/>
			<polygon class="st4" points="486.4,82.3 457,87.3 428.4,63.1 457.1,58.5 			"/>
			<polygon class="st4" points="437.6,90.6 457,87.3 428.4,63.1 409.6,66.2 			"/>
			<polygon class="st4" points="437.6,90.6 418.2,93.9 390.7,69.3 409.6,66.2 			"/>
			<polygon class="st4" points="398.5,97.2 418.2,93.9 390.7,69.3 371.6,72.4 			"/>
			<polygon class="st4" points="398.5,97.2 378.5,100.6 352.1,75.6 371.6,72.4 			"/>
			<polygon class="st4" points="358.3,104.1 378.5,100.6 352.1,75.6 332.5,78.8 			"/>
			<polygon class="st4" points="358.3,104.1 327.9,109.3 302.9,83.6 332.5,78.8 			"/>
			<polygon class="st4" points="296.4,114.6 327.9,109.3 302.9,83.6 272.4,88.5 			"/>
			<polygon class="st4" points="296.4,114.6 276.2,118 252.7,91.7 272.4,88.5 			"/>
			<polygon class="st4" points="254.5,121.7 276.2,118 252.7,91.7 231.7,95.2 			"/>
			<polygon class="st4" points="254.5,121.7 233.4,125.3 211.2,98.5 231.7,95.2 			"/>
			<polygon class="st4" points="211.8,129 233.4,125.3 211.2,98.5 190.3,101.9 			"/>
			<polygon class="st4" points="211.8,129 190.1,132.7 169.2,105.3 190.3,101.9 			"/>
			<polygon class="st4" points="167.7,136.5 190.1,132.7 169.2,105.3 147.5,108.9 			"/>
			<polygon class="st4" points="167.7,136.5 145.6,140.2 126.1,112.4 147.5,108.9 			"/>
			<polygon class="st4" points="123,144.1 145.6,140.2 126.1,112.4 104.2,115.9 			"/>
			<polygon class="st4" points="123,144.1 99.8,148 81.8,119.6 104.2,115.9 			"/>
			<polygon class="st4" points="376.5,46.5 366.9,48 381.2,60.7 390.9,59.1 			"/>
		</g>
		<polygon class="st5" points="91.8,97.4 69.9,100.8 59.4,84.2 80.8,80.9 		"/>
		<polygon class="st5" points="97.7,106.2 140,99.4 121.8,74.6 80.8,80.9 		"/>
		<polygon class="st5" points="151,97.6 140,99.4 121.8,74.6 132.6,72.9 		"/>
		<polygon class="st5" points="144.6,89 155.4,87.3 162,95.9 151,97.6 		"/>
		<polygon class="st5" points="147.2,70.7 143.2,71.3 132.6,72.9 144.6,89 155.4,87.3 162,95.9 182.8,92.5 163.4,68.2 		"/>
		<polygon class="st5" points="182.8,92.5 203.5,89.2 183.5,65.1 163.4,68.2 		"/>
		<polygon class="st5" points="234.1,84.3 203.5,89.2 183.5,65.1 213.3,60.5 		"/>
		<polygon class="st5" ng-class="{'pulsate': $ctrl.company.comproom == '6009'}" points="234.1,84.3 264.6,79.4 242.9,55.9 213.3,60.5 		"/>
		<polygon class="st5" ng-class="{'pulsate': $ctrl.company.comproom == '6011'}" points="294.2,74.7 264.6,79.4 242.9,55.9 271.7,51.5 		"/>
		<polygon class="st5" ng-class="{'pulsate': $ctrl.company.comproom == '6013'}" points="294.2,74.7 323.5,70 300.2,47.1 271.7,51.5 		"/>
		<polygon class="st5" ng-class="{'pulsate': $ctrl.company.comproom == '6015'}" points="352.5,65.3 323.5,70 300.2,47.1 328.4,42.7 		"/>
		<polygon class="st5" ng-class="{'pulsate': $ctrl.company.comproom == '6017'}" points="352.5,65.3 381.2,60.7 356.3,38.4 328.4,42.7 		"/>
		<polygon class="st5" points="376.5,46.5 366.9,48 356.3,38.4 365.8,37 		"/>
		<polygon class="st5" points="390.9,59.1 428,53.2 402,31.4 365.8,37 		"/>
		<polygon class="st5" points="437.8,42.7 419.1,45.7 402,31.4 420.4,28.6 		"/>
		<polygon class="st5" ng-class="{'pulsate': $ctrl.company.comproom == '6019'}" points="486.4,82.3 457,87.3 428.4,63.1 457.1,58.5 		"/>
		<polygon class="st5" ng-class="{'pulsate': $ctrl.company.comproom == '6021'}" points="437.6,90.6 457,87.3 428.4,63.1 409.6,66.2 		"/>
		<polygon class="st5" ng-class="{'pulsate': $ctrl.company.comproom == '6023'}" points="437.6,90.6 418.2,93.9 390.7,69.3 409.6,66.2 		"/>
		<polygon class="st5" ng-class="{'pulsate': $ctrl.company.comproom == '6025'}" points="398.5,97.2 418.2,93.9 390.7,69.3 371.6,72.4 		"/>
		<polygon class="st5" ng-class="{'pulsate': $ctrl.company.comproom == '6027'}" points="398.5,97.2 378.5,100.6 352.1,75.6 371.6,72.4 		"/>
		<polygon class="st5" ng-class="{'pulsate': $ctrl.company.comproom == '6029'}" points="358.3,104.1 378.5,100.6 352.1,75.6 332.5,78.8 		"/>
		<polygon class="st5" ng-class="{'pulsate': $ctrl.company.comproom == '6031'}" points="358.3,104.1 327.9,109.3 302.9,83.6 332.5,78.8 		"/>
		<polygon class="st5" ng-class="{'pulsate': $ctrl.company.comproom == '6033'}" points="296.4,114.6 327.9,109.3 302.9,83.6 272.4,88.5 		"/>
		<polygon class="st5" ng-class="{'pulsate': $ctrl.company.comproom == '6035'}" points="296.4,114.6 276.2,118 252.7,91.7 272.4,88.5 		"/>
		<polygon class="st5" ng-class="{'pulsate': $ctrl.company.comproom == '6037'}" points="254.5,121.7 276.2,118 252.7,91.7 231.7,95.2 		"/>
		<polygon class="st5" ng-class="{'pulsate': $ctrl.company.comproom == '6039'}" points="254.5,121.7 233.4,125.3 211.2,98.5 231.7,95.2 		"/>
		<polygon class="st5" ng-class="{'pulsate': $ctrl.company.comproom == '6041'}" points="211.8,129 233.4,125.3 211.2,98.5 190.3,101.9 		"/>
		<polygon class="st5" ng-class="{'pulsate': $ctrl.company.comproom == '6043'}" points="211.8,129 190.1,132.7 169.2,105.3 190.3,101.9 		"/>
		<polygon class="st5" ng-class="{'pulsate': $ctrl.company.comproom == '6045'}" points="167.7,136.5 190.1,132.7 169.2,105.3 147.5,108.9 		"/>
		<polygon class="st5" ng-class="{'pulsate': $ctrl.company.comproom == '6046'}" points="167.7,136.5 145.6,140.2 126.1,112.4 147.5,108.9 		"/>
		<polygon class="st5" ng-class="{'pulsate': $ctrl.company.comproom == '6047'}" points="123,144.1 145.6,140.2 126.1,112.4 104.2,115.9 		"/>
		<polygon class="st5" ng-class="{'pulsate': $ctrl.company.comproom == '6049'}" points="123,144.1 99.8,148 81.8,119.6 104.2,115.9 		"/>
		<polygon class="st5" points="376.5,46.5 366.9,48 381.2,60.7 390.9,59.1 		"/>
		<polygon class="st1" points="420.1,29.6 62,84.8 61,83.2 420.1,27.9 		"/>
		<polygon class="st1" points="437.8,42.7 420.8,45.4 419.1,43.9 437.8,41 		"/>
		<polygon class="st2" points="59.4,84.2 59.4,82.5 69.9,99.1 69.9,100.8 		"/>
		<polygon class="st2" points="80.3,82 80.3,80.2 90.1,94.9 90.1,96.6 		"/>
		<polygon class="st2" points="121.4,75.7 121.4,73.9 138.2,96.9 138.2,98.7 		"/>
		<polygon class="st2" points="132.1,74 132.1,72.3 149.2,95.2 149.2,96.9 		"/>
		<polygon class="st1" points="456.8,59.5 84.4,120.2 83.4,118.6 456.8,57.8 		"/>
		<polygon class="st2" points="163,69.3 163,67.5 181,90.1 181,91.8 		"/>
		<polygon class="st2" points="183.1,66.2 183.1,64.4 201.6,86.8 201.6,88.5 		"/>
		<polygon class="st2" points="212.9,61.6 212.9,59.8 232.2,81.8 232.2,83.6 		"/>
		<polygon class="st2" points="242.5,57 242.5,55.2 262.6,77 262.6,78.7 		"/>
		<polygon class="st2" points="271.3,52.6 271.3,50.8 292.1,72.2 292.1,74 		"/>
		<polygon class="st2" points="299.8,48.2 299.8,46.4 321.4,67.5 321.4,69.3 		"/>
		<polygon class="st2" points="328.1,43.8 328.1,42.1 350.4,62.9 350.4,64.6 		"/>
		<polygon class="st2" points="420.1,29.6 420.1,27.9 435.4,40.3 433.6,40.6 		"/>
		<polygon class="st2" points="436.5,42.9 436.5,41.1 455.8,56.9 454,57.2 		"/>
		<polygon class="st2" points="456.8,59.5 456.8,57.8 484.1,79.9 484.1,81.7 		"/>
		<polygon class="st2" points="356,39.5 356,37.8 378.9,58.3 378.9,60.1 		"/>
		<polygon class="st2" points="365.5,38 365.5,36.3 388.6,56.7 388.6,58.5 		"/>
		<polygon class="st2" points="401.7,32.5 401.7,30.7 425.7,50.8 425.7,52.5 		"/>
		<polygon class="st2" points="428.1,64.2 428.1,62.4 454.7,84.9 454.7,86.7 		"/>
		<polygon class="st2" points="409.3,67.3 409.3,65.5 435.4,88.2 435.4,90 		"/>
		<polygon class="st2" points="390.4,70.3 390.4,68.6 416,91.5 416,93.3 		"/>
		<polygon class="st2" points="371.2,73.5 371.2,71.7 396.4,94.9 396.4,96.6 		"/>
		<polygon class="st2" points="351.8,76.6 351.8,74.9 376.4,98.2 376.4,100 		"/>
		<polygon class="st2" points="332.2,79.8 332.2,78.1 356.2,101.7 356.2,103.4 		"/>
		<polygon class="st2" points="302.5,84.6 302.5,82.9 325.8,106.8 325.8,108.6 		"/>
		<polygon class="st2" points="272,89.6 272,87.9 294.4,112.2 294.4,113.9 		"/>
		<polygon class="st2" points="252.3,92.8 252.3,91.1 274.2,115.6 274.2,117.4 		"/>
		<polygon class="st2" points="231.3,96.2 231.3,94.5 252.6,119.3 252.6,121 		"/>
		<polygon class="st2" points="210.8,99.6 210.8,97.8 231.5,122.9 231.5,124.6 		"/>
		<polygon class="st2" points="189.9,103 189.9,101.2 210,126.5 210,128.3 		"/>
		<polygon class="st2" points="147,110 147,108.2 165.9,134 165.9,135.8 		"/>
		<polygon class="st2" points="125.7,113.5 125.7,111.7 143.9,137.8 143.9,139.5 		"/>
		<polygon class="st2" points="103.7,117 103.7,115.3 121.3,141.6 121.3,143.3 		"/>
		<polygon class="st2" points="69.9,100.8 69.9,99.1 99.8,146.3 99.8,148 		"/>
		<polygon class="st2" points="168.8,106.4 168.8,104.7 188.3,130.2 188.3,132 		"/>
		<polygon class="st2" points="155,88.4 155,86.6 160.2,93.4 160.2,95.1 		"/>
		<polygon class="st2" points="91.8,97.4 91.8,95.6 97.7,104.4 97.7,106.2 		"/>
		<g>
			<g>
				<path class="st0" d="M80.3,80.2l9.8,14.6l-19.7,3.1L61,83.1L80.3,80.2 M80.8,79.2l-21.5,3.3l10.5,16.6l21.9-3.5L80.8,79.2
					L80.8,79.2z"/>
			</g>
			<g>
				<path class="st0" d="M121.4,73.9l16.8,23l-40,6.4L82.6,79.9L121.4,73.9 M121.8,72.8l-41,6.3l16.9,25.3l42.3-6.8L121.8,72.8
					L121.8,72.8z"/>
			</g>
			<g>
				<path class="st0" d="M132.1,72.3l17.1,22.9l-8.8,1.4l-16.8-23L132.1,72.3 M132.6,71.2l-10.7,1.7L140,97.7l11-1.8L132.6,71.2
					L132.6,71.2z"/>
			</g>
			<g>
				<path class="st0" d="M155,86.6l5.2,6.8l-8.7,1.4l-5.1-6.8L155,86.6 M155.4,85.6l-10.9,1.7l6.4,8.6l11-1.8L155.4,85.6L155.4,85.6
					z"/>
			</g>
			<g>
				<path class="st0" d="M163,67.5l18,22.6l-18.5,3l-6.2-8.1l-0.4-0.5l-0.6,0.1L145,86.2l-10.7-14.3l9-1.4l4-0.6L163,67.5
					 M163.4,66.4l-16.2,2.5l-4,0.6l-10.6,1.6l12,16.1l10.9-1.7l6.5,8.6l20.8-3.3L163.4,66.4L163.4,66.4z"/>
			</g>
			<g>
				<path class="st0" d="M183.1,64.4l18.5,22.3l-18.3,2.9l-18-22.5L183.1,64.4 M183.5,63.3l-20.1,3.1l19.4,24.4l20.7-3.3L183.5,63.3
					L183.5,63.3z"/>
			</g>
			<g>
				<path class="st0" d="M212.9,59.8l19.3,22l-28.3,4.6l-18.5-22.3L212.9,59.8 M213.3,58.7l-29.8,4.6l20,24.1l30.7-4.9L213.3,58.7
					L213.3,58.7z"/>
			</g>
			<g>
				<path class="st0" d="M242.5,55.2l20.1,21.7l-28.1,4.5l-19.3-22L242.5,55.2 M242.9,54.2l-29.6,4.6l20.9,23.8l30.5-4.9L242.9,54.2
					L242.9,54.2z"/>
			</g>
			<g>
				<path class="st0" d="M271.3,50.8l20.8,21.4l-27.2,4.4l-20-21.7L271.3,50.8 M271.7,49.7l-28.8,4.5l21.7,23.5l29.6-4.7L271.7,49.7
					L271.7,49.7z"/>
			</g>
			<g>
				<path class="st0" d="M299.8,46.4l21.6,21.1l-26.8,4.3l-20.9-21.4L299.8,46.4 M300.2,45.3l-28.5,4.4l22.5,23.2l29.3-4.7
					L300.2,45.3L300.2,45.3z"/>
			</g>
			<g>
				<path class="st0" d="M328.1,42.1l22.3,20.8l-26.5,4.2L302.4,46L328.1,42.1 M328.4,41l-28.2,4.4l23.3,22.9l29-4.7L328.4,41
					L328.4,41z"/>
			</g>
			<g>
				<path class="st0" d="M356,37.8l22.9,20.5l-26,4.2l-22.2-20.8L356,37.8 M356.3,36.7L328.4,41l24.1,22.6l28.6-4.6L356.3,36.7
					L356.3,36.7z"/>
			</g>
			<g>
				<path class="st0" d="M365.5,36.3l8.8,7.8l-7,1.1l-8.7-7.8L365.5,36.3 M365.8,35.2l-9.5,1.5l10.6,9.5l9.6-1.5L365.8,35.2
					L365.8,35.2z"/>
			</g>
			<g>
				<path class="st0" d="M401.7,30.7l24,20.1l-34.5,5.5L368,35.9L401.7,30.7 M402,29.7l-36.2,5.6l25.1,22.1l37.2-6L402,29.7
					L402,29.7z"/>
			</g>
			<g>
				<path class="st0" d="M420.1,27.9l15.3,12.5l-16,2.5l-15-12.6L420.1,27.9 M420.4,26.8L402,29.6l17.1,14.3l18.7-3L420.4,26.8
					L420.4,26.8z"/>
			</g>
			<g>
				<path class="st0" d="M456.8,57.8L484.1,80l-26.8,4.6l-26.5-22.5L456.8,57.8 M457.1,56.7l-28.7,4.7l28.5,24.2l29.5-5L457.1,56.7
					L457.1,56.7z"/>
			</g>
			<g>
				<path class="st0" d="M428.1,62.4l26.6,22.5l-16.8,2.8L411.8,65L428.1,62.4 M428.4,61.4l-18.8,3l28,24.4l19.3-3.3L428.4,61.4
					L428.4,61.4z"/>
			</g>
			<g>
				<path class="st0" d="M409.3,65.5l26.1,22.7l-16.8,2.9l-25.7-22.9L409.3,65.5 M409.6,64.4l-18.9,3.1l27.5,24.6l19.4-3.3
					L409.6,64.4L409.6,64.4z"/>
			</g>
			<g>
				<path class="st0" d="M390.4,68.6L416,91.5l-17.2,2.9l-25.1-23.1L390.4,68.6 M390.7,67.5l-19.2,3.1l27,24.9l19.7-3.3L390.7,67.5
					L390.7,67.5z"/>
			</g>
			<g>
				<path class="st0" d="M371.2,71.7l25.1,23.1l-17.5,3l-24.6-23.4L371.2,71.7 M371.6,70.6l-19.4,3.2l26.4,25.1l20-3.4L371.6,70.6
					L371.6,70.6z"/>
			</g>
			<g>
				<path class="st0" d="M351.8,74.9l24.6,23.4l-17.7,3l-24.1-23.6L351.8,74.9 M352.1,73.8L332.5,77l25.8,25.3l20.2-3.4L352.1,73.8
					L352.1,73.8z"/>
			</g>
			<g>
				<path class="st0" d="M332.2,78.1l24.1,23.6l-28,4.8l-23.4-24L332.2,78.1 M332.5,77l-29.6,4.8l25,25.7l30.5-5.2L332.5,77
					L332.5,77z"/>
			</g>
			<g>
				<path class="st0" d="M302.5,82.9l23.3,23.9l-29,4.9l-22.4-24.3L302.5,82.9 M302.9,81.8l-30.5,5l24.1,26l31.4-5.3L302.9,81.8
					L302.9,81.8z"/>
			</g>
			<g>
				<path class="st0" d="M272,87.9l22.5,24.3l-17.9,3l-21.9-24.5L272,87.9 M272.4,86.8L252.7,90l23.5,26.3l20.3-3.4L272.4,86.8
					L272.4,86.8z"/>
			</g>
			<g>
				<path class="st0" d="M252.3,91.1l21.9,24.5l-19.3,3.3l-21.3-24.8L252.3,91.1 M252.7,90l-21,3.4l22.8,26.5l21.7-3.7L252.7,90
					L252.7,90z"/>
			</g>
			<g>
				<path class="st0" d="M231.3,94.5l21.3,24.8l-18.9,3.2l-20.7-25L231.3,94.5 M231.7,93.4l-20.5,3.3l22.2,26.8l21.2-3.6L231.7,93.4
					L231.7,93.4z"/>
			</g>
			<g>
				<path class="st0" d="M210.8,97.8l20.7,25l-19.2,3.3l-20.1-25.3L210.8,97.8 M211.2,96.8l-20.9,3.4l21.5,27.1l21.5-3.7L211.2,96.8
					L211.2,96.8z"/>
			</g>
			<g>
				<path class="st0" d="M189.9,101.2l20.1,25.3l-19.5,3.3L171,104.3L189.9,101.2 M190.3,100.2l-21.1,3.4l20.9,27.3l21.7-3.7
					L190.3,100.2L190.3,100.2z"/>
			</g>
			<g>
				<path class="st0" d="M168.8,104.7l19.5,25.5l-20.2,3.4l-18.9-25.8L168.8,104.7 M169.2,103.6l-21.7,3.5l20.2,27.6l22.4-3.8
					L169.2,103.6L169.2,103.6z"/>
			</g>
			<g>
				<path class="st0" d="M147,108.2l18.9,25.8l-19.8,3.4l-18.2-26L147,108.2 M147.5,107.1l-21.4,3.5l19.5,27.9l22-3.7L147.5,107.1
					L147.5,107.1z"/>
			</g>
			<g>
				<path class="st0" d="M125.7,111.7l18.2,26.1l-20.4,3.5l-17.6-26.4L125.7,111.7 M126.1,110.6l-21.9,3.6l18.8,28.1l22.6-3.8
					L126.1,110.6L126.1,110.6z"/>
			</g>
			<g>
				<path class="st0" d="M103.7,115.3l17.6,26.3l-21,3.6l-16.9-26.6L103.7,115.3 M104.2,114.2l-22.4,3.6l18,28.4l23.1-3.9
					L104.2,114.2L104.2,114.2z"/>
			</g>
			<g>
				<path class="st0" d="M376.2,45.8l12.4,11l-7.2,1.1l-12.3-11L376.2,45.8 M376.5,44.7l-9.6,1.5L381.1,59l9.8-1.6L376.5,44.7
					L376.5,44.7z"/>
			</g>
		</g>
		<polygon class="st1" points="376.3,47.5 370.8,48.4 369.2,46.9 376.3,45.7 		"/>
		<polygon class="st1" points="155,88.4 147.5,89.6 146.4,88 155,86.6 		"/>
		<polygon class="st1" points="91.8,97.4 70.9,100.7 69.9,99.1 91.8,95.6 		"/>
		<polygon class="st1" points="428,53.2 97.7,106.2 97.7,104.4 428,51.4 		"/>
		<path class="st0" d="M435.5,39.1l26.3,21.4c0,0-1.2,0.3-1.4,0.2c-0.2-0.2-26.5-21.6-26.5-21.6S435.5,39.1,435.5,39.1z"/>
		<polygon class="st0" points="68.9,95.6 84.4,120.2 84.1,121.4 67.9,95.9 		"/>
		<polygon class="st1" points="486.4,82.3 99.8,148 99.8,146.3 486.4,80.6 		"/>
		<text transform="matrix(1 0 0 1 -19.1579 63.3852)" class="st6 st7 st8">Level 6</text>
	</g>
</g>
</svg>
