<?xml version="1.0" encoding="utf-8"?>
<!-- Generator: Adobe Illustrator 22.0.1, SVG Export Plug-In . SVG Version: 6.00 Build 0)  -->
<svg version="1.1" id="Layer_1" xmlns="http://www.w3.org/2000/svg" xmlns:xlink="http://www.w3.org/1999/xlink" x="0px" y="0px"
	 viewBox="0 0 554.7 537.7" style="enable-background:new 0 0 554.7 537.7;" xml:space="preserve">
<style type="text/css">
	.st0{fill:#B8C1C1;}
	.st1{fill:#CAD4D4;}
	.st2{fill:#CBD5D4;}
	.st3{fill:#B7B8AB;}
	.st4{fill:#BCBCBB;}
	.st5{fill:#9B9C9D;}
	.st6{display:none;enable-background:new    ;}
	.st7{font-family:'BlissPro';}
	.st8{font-size:18px;}
</style>
<g id="Level_2">
	<g>
		<g>
			<g>
				<path class="st0" d="M432.1,305.4c-0.5,0-1.1,0-1.7,0.1L321.5,322l-56.8,8.6L68.4,360.5c-3.7,0.6-6.8,2.9-8.4,6.3
					s-1.3,7.3,0.8,10.5l16.1,25.2l4.9,7.7l20,31.3c2,3.2,5.6,5.1,9.3,5.1c0.6,0,1.2-0.1,1.9-0.2l85.6-14.6L323,410.5l45.8-7.8
					l130.1-22.2c4.2-0.7,7.7-3.9,8.8-8c1.1-4.2-0.3-8.6-3.7-11.3l-39.4-32.3l-25.6-21C437.1,306.3,434.6,305.4,432.1,305.4
					L432.1,305.4z"/>
			</g>
		</g>
		<g>
			<polygon class="st1" points="346.2,355.2 457.7,337.5 432.1,316.4 323.1,333 			"/>
		</g>
		<polygon class="st2" points="346.2,355.2 457.7,337.5 432.1,316.4 323.1,333 		"/>
		<g>
			<polygon class="st1" points="332,357.5 457.7,337.5 497.1,369.7 367,392 			"/>
		</g>
		<polygon class="st2" points="332,357.5 457.7,337.5 497.1,369.7 367,392 		"/>
		<g>
			<polygon class="st1" points="332,357.5 287.9,364.5 321.2,399.8 367,392 			"/>
		</g>
		<polygon class="st2" points="332,357.5 287.9,364.5 321.2,399.8 367,392 		"/>
		<g>
			<polygon class="st3" points="266.3,341.6 70,371.4 86.2,396.6 91.1,404.3 173.9,391 196.8,421.1 321.2,399.8 294.5,371.5 
				287.9,364.5 346.2,355.2 323.1,333 			"/>
		</g>
		<g>
			<polygon class="st1" points="173.9,391 91.1,404.3 111.2,435.7 196.8,421.1 			"/>
		</g>
		<g>
			<polygon class="st1" points="173.9,391 91.1,404.3 111.2,435.7 196.8,421.1 			"/>
		</g>
		<polygon class="st2" points="173.9,391 91.1,404.3 111.2,435.7 196.8,421.1 		"/>
		<polygon class="st4" points="431.8,317.5 72.7,372 71.7,370.4 431.8,315.7 		"/>
		<polygon class="st4" points="457.4,338.5 291.4,365 289.9,363.4 457.4,336.8 		"/>
		<polygon class="st4" points="173.5,392.1 93.8,404.9 92.8,403.3 173.5,390.3 		"/>
		<polygon class="st5" points="111.2,435.7 70,371.4 70,369.6 111.2,433.9 		"/>
		<polygon class="st5" points="195,420.3 173.5,392.1 173.5,390.3 195,418.6 		"/>
		<polygon class="st5" points="319.2,399.1 285.9,363.8 285.9,362.1 319.2,397.4 		"/>
		<polygon class="st5" points="364.9,391.3 331.7,358.5 331.7,356.8 364.9,389.6 		"/>
		<polygon class="st5" points="342.5,353 322.8,334 322.8,332.3 344,352.8 		"/>
		<polygon class="st5" points="494.8,369.1 431.8,317.5 431.8,315.7 494.8,367.4 		"/>
		<g>
			<path class="st0" d="M431.8,315.7l23.6,19.3l-108.9,17.4l-21.2-20.5L431.8,315.7 M432.1,314.7l-109,16.5l23,22.2l111.6-17.8
				L432.1,314.7L432.1,314.7z"/>
			<path class="st0" d="M457.4,336.8l37.3,30.6l-127.5,21.8l-33.1-32.8L457.4,336.8 M457.7,335.7l-125.7,20l35,34.5L497.1,368
				L457.7,335.7L457.7,335.7z"/>
			<path class="st0" d="M331.7,356.8l33.2,32.8l-43.3,7.4l-31.7-33.6L331.7,356.8 M332,355.7l-44.1,7l33.3,35.3l45.8-7.8L332,355.7
				L332,355.7z"/>
			<path class="st0" d="M322.8,332.3l21.2,20.5l-56.3,9l-1.9,0.3l1.3,1.4l6.6,7l25.4,26.9l-122,20.8l-22.5-29.6l-0.4-0.5l-0.6,0.1
				l-82.1,13.3l-4.6-7.2l-15.2-23.9l194.7-29.6L322.8,332.3 M323.1,331.2l-56.8,8.6L70,369.6l16.1,25.2l4.9,7.7l82.8-13.4l22.9,30.1
				l124.4-21.3l-26.7-28.3l-6.6-7l58.2-9.3L323.1,331.2L323.1,331.2z"/>
			<path class="st0" d="M173.5,390.3l21.5,28.3l-83.3,14.2l-18.9-29.5L173.5,390.3 M173.9,389.2l-82.8,13.4l20,31.3l85.6-14.6
				L173.9,389.2L173.9,389.2z"/>
		</g>
		<polygon class="st4" points="497.1,369.7 111.2,435.7 111.2,433.9 497.1,368 		"/>
		<text transform="matrix(1 0 0 1 -8.048 350.8607)" class="st6 st7 st8">Level 2</text>
	</g>
</g>
<g id="Level_3">
	<g>
		<text transform="matrix(1 0 0 1 -8.048 263.6904)" class="st6 st7 st8">Level 3</text>
		<g>
			<g>
				<path class="st0" d="M504.3,277.3l-15.8-13.2l-21.6-18L439.3,223c-2-1.7-4.5-2.6-7.1-2.6c-0.6,0-1.1,0-1.7,0.1l-13.7,2.1
					l-13.7,2.1l-13.7,2.1c-4.2,0.6-7.7,3.7-8.9,7.8c0,0.1,0,0.2-0.1,0.3l-26.7,4.2l-1.9,0.3l-2.3-2.2c-2.1-2-4.8-3-7.6-3
					c-0.6,0-1.1,0-1.7,0.1l-14.2,2.2l-14.3,2.2l-14.5,2.2l-14.5,2.2l-14.4,2.2l-14.6,2.3l-15.1,2.3l-14.8,2.3l-22.7,3.5l-15.4,2.4
					l-15.3,2.4l-7.9,1.2c-3.9,0.6-7.1,3.2-8.6,6.8c-0.2,0.5-0.4,1.1-0.5,1.7l-17.1,2.7l-9.2,1.4l-0.7-1c-2.1-2.9-5.4-4.6-8.9-4.6
					c-0.6,0-1.1,0-1.7,0.1l-16,2.5l-16.1,2.5l-15.9,2.6c-3.7,0.6-6.8,3-8.4,6.4c-1.5,3.4-1.2,7.4,0.8,10.5l17.9,27.5l24.3,37.2
					c2.1,3.1,5.5,5,9.2,5c0.6,0,1.2-0.1,1.9-0.2l17.3-3l17.4-3l16.8-2.9l18.9-3.2l6.4-1.1l8.7-1.5l8.2-1.4l6.3-1.1l18.4-3.2l16-2.7
					l16.2-2.8l16.2-2.8l0.6-0.1l15.2-2.6l85.2-14.6l19.1-3.3l17.4-3l1.3-0.2l14.8-2.5l22-3.8l6.9-1.2l36.5-6.3
					c4.2-0.7,7.6-3.8,8.8-8C509,284.5,507.6,280.1,504.3,277.3z"/>
			</g>
		</g>
		<path class="st3" d="M481.5,272.6l-21.6-18l-27.6-23.1l-13.7,2.1l-13.7,2.1l-13.7,2.1l6.4,5.6l-14.1,2.2l-27.9,4.3l-7.2,1.1
			l-6.2-5.9l-14.2,2.2l-14.3,2.2l-14.5,2.2l-14.5,2.2l-14.4,2.2l-14.6,2.3l-15.1,2.3l-14.8,2.3l-22.7,3.5l-15.4,2.4l-15.3,2.4
			l-7.9,1.2l5,6.3l-31.1,4.9l-15.9,2.5l0,0l-4.6-6.5l-16,2.5l-16.1,2.5l-16.1,2.5l17.9,27.5l0,0l24.3,37.2l17.3-3l17.4-3l16.8-2.9
			l18.9-3.2l6.4-1.1l8.7-1.5l8.2-1.4l6.3-1.1l18.4-3.2l16-2.7l0,0l16.2-2.8l0,0l16.2-2.8l0.6-0.1l15.2-2.6l85.2-14.6l19.1-3.3l0,0
			l17.4-3l1.3-0.2l14.8-2.5l22-3.8l6.9-1.2l36.5-6.3L481.5,272.6z"/>
		<polygon class="st1" points="99.1,304.6 82.6,307.2 69.2,286.7 85.4,284.2 		"/>
		<polygon class="st1" points="99.1,304.6 115.6,302 101.5,281.7 85.4,284.2 		"/>
		<polygon class="st1" points="131.9,299.4 115.6,302 101.5,281.7 117.4,279.3 		"/>
		<polygon class="st1" points="131.9,299.4 148,296.8 138,283.3 122.1,285.7 		"/>
		<polygon class="st1" points="179.6,291.7 148,296.8 138,283.3 169.1,278.4 		"/>
		<polygon class="st1" points="179.6,291.7 187.7,290.4 172.1,270.9 164.1,272.1 		"/>
		<polygon class="st1" points="203.3,288 219.1,285.4 202.8,266.1 187.3,268.5 		"/>
		<polygon class="st1" points="236.5,275.2 213.5,278.8 202.8,266.1 225.5,262.6 		"/>
		<polygon class="st1" points="242.3,281.7 257.3,279.3 240.3,260.3 225.5,262.6 		"/>
		<polygon class="st1" points="272.8,276.9 257.3,279.3 240.3,260.3 255.4,258 		"/>
		<polygon class="st1" points="272.8,276.9 287.7,274.5 270,255.8 255.4,258 		"/>
		<polygon class="st1" points="302.4,272.1 287.7,274.5 270,255.8 284.5,253.5 		"/>
		<polygon class="st1" points="302.4,272.1 317.3,269.8 299,251.3 284.5,253.5 		"/>
		<polygon class="st1" points="332,267.4 317.3,269.8 299,251.3 313.5,249.1 		"/>
		<polygon class="st1" points="332,267.4 346.6,265.1 327.8,246.9 313.5,249.1 		"/>
		<polygon class="st1" points="361,262.8 346.6,265.1 327.8,246.9 342,244.7 		"/>
		<polygon class="st1" points="354.6,256.6 361.8,255.5 355.4,249.4 348.2,250.6 		"/>
		<polygon class="st1" points="354.6,256.6 361.8,255.5 368.3,261.6 361,262.8 		"/>
		<polygon class="st1" points="383.3,245.1 355.4,249.4 368.3,261.6 396.6,257.1 		"/>
		<polygon class="st1" points="383.3,245.1 397.4,242.9 410.9,254.8 396.6,257.1 		"/>
		<polygon class="st1" points="404.7,235.1 391,237.2 410.9,254.8 424.9,252.6 		"/>
		<polygon class="st1" points="404.7,235.1 418.4,233 438.8,250.4 424.9,252.6 		"/>
		<polygon class="st1" points="432.1,230.9 418.4,233 445.7,256.3 459.8,254 		"/>
		<polygon class="st1" points="481.3,272 467,274.4 445.7,256.3 459.8,254 		"/>
		<polygon class="st1" points="481.3,272 459.9,275.6 475.4,288.9 497.1,285.2 		"/>
		<polygon class="st1" points="431.6,273.1 452.9,269.6 475.4,288.9 453.7,292.6 		"/>
		<polygon class="st1" points="431.6,273.1 410,276.7 431.7,296.4 453.7,292.6 		"/>
		<polygon class="st1" points="395.6,279.1 410,276.7 431.7,296.4 416.9,298.9 		"/>
		<polygon class="st1" points="382.1,266.5 345.5,272.4 379.2,305.4 416.9,298.9 		"/>
		<polygon class="st1" points="247.9,288.2 345.5,272.4 379.2,305.4 278.2,322.7 		"/>
		<polygon class="st1" points="247.9,288.2 232.3,290.7 243.8,304.2 259.6,301.6 		"/>
		<polygon class="st1" points="278.2,322.7 262,325.5 243.8,304.2 259.6,301.6 		"/>
		<polygon class="st1" points="245.8,328.3 262,325.5 249.3,310.6 233.4,313.3 		"/>
		<polygon class="st1" points="245.8,328.3 229.8,331 212.3,309.4 227.9,306.8 		"/>
		<polygon class="st1" points="162.8,342.6 146.1,345.4 120.5,308.8 136.6,306.2 		"/>
		<polygon class="st1" points="128.7,348.4 146.1,345.4 120.5,308.8 103.8,311.5 		"/>
		<polygon class="st1" points="128.7,348.4 111.4,351.4 87.2,314.2 103.8,311.5 		"/>
		<polygon class="st1" points="216.6,293.2 201.2,295.7 212.3,309.4 227.9,306.8 		"/>
		<polygon class="st1" points="177.3,299.6 182.6,306.4 174.3,307.8 196.4,336.8 205,335.3 211.4,334.2 229.8,331 201.2,295.7 		"/>
		<polygon class="st1" points="161.1,302.2 166.3,309.1 174.7,307.7 196.9,336.7 188.2,338.2 181.8,339.3 162.9,342.5 136.7,306.2 
					"/>
		<polygon class="st1" points="431.6,273.1 452.9,269.6 438.7,257.4 417.7,260.8 		"/>
		<polygon class="st1" points="228.7,276.4 213.5,278.8 219.1,285.4 234.4,283 		"/>
		<polygon class="st1" points="172.1,270.9 182,283.3 190.1,282 195.9,289.1 203.3,288 187.3,268.5 		"/>
		<polygon class="st1" points="195.9,289.1 187.7,290.4 182,283.3 190.1,282 		"/>
		<polygon class="st2" points="99.1,304.6 82.6,307.2 69.2,286.7 85.4,284.2 		"/>
		<polygon class="st2" points="99.1,304.6 115.6,302 101.5,281.7 85.4,284.2 		"/>
		<polygon class="st2" points="131.9,299.4 115.6,302 101.5,281.7 117.4,279.3 		"/>
		<polygon class="st2" points="131.9,299.4 148,296.8 138,283.3 122.1,285.7 		"/>
		<polygon class="st2" points="179.6,291.7 148,296.8 138,283.3 169.1,278.4 		"/>
		<polygon class="st2" points="179.6,291.7 187.7,290.4 172.1,270.9 164.1,272.1 		"/>
		<polygon class="st2" points="203.3,288 219.1,285.4 202.8,266.1 187.3,268.5 		"/>
		<polygon class="st2" points="236.5,275.2 213.5,278.8 202.8,266.1 225.5,262.6 		"/>
		<polygon class="st2" points="242.3,281.7 257.3,279.3 240.3,260.3 225.5,262.6 		"/>
		<polygon class="st2" points="272.8,276.9 257.3,279.3 240.3,260.3 255.4,258 		"/>
		<polygon class="st2" points="272.8,276.9 287.7,274.5 270,255.8 255.4,258 		"/>
		<polygon class="st2" points="302.4,272.1 287.7,274.5 270,255.8 284.5,253.5 		"/>
		<polygon class="st2" points="302.4,272.1 317.3,269.8 299,251.3 284.5,253.5 		"/>
		<polygon class="st2" points="332,267.4 317.3,269.8 299,251.3 313.5,249.1 		"/>
		<polygon class="st2" points="332,267.4 346.6,265.1 327.8,246.9 313.5,249.1 		"/>
		<polygon class="st2" points="361,262.8 346.6,265.1 327.8,246.9 342,244.7 		"/>
		<polygon class="st2" points="354.6,256.6 361.8,255.5 355.4,249.4 348.2,250.6 		"/>
		<polygon class="st2" points="354.6,256.6 361.8,255.5 368.3,261.6 361,262.8 		"/>
		<polygon class="st2" points="383.3,245.1 355.4,249.4 368.3,261.6 396.6,257.1 		"/>
		<polygon class="st2" points="383.3,245.1 397.4,242.9 410.9,254.8 396.6,257.1 		"/>
		<polygon class="st2" points="404.7,235.1 391,237.2 410.9,254.8 424.9,252.6 		"/>
		<polygon class="st2" points="404.7,235.1 418.4,233 438.8,250.4 424.9,252.6 		"/>
		<polygon class="st2" points="432.1,230.9 418.4,233 445.7,256.3 459.8,254 		"/>
		<polygon class="st2" points="481.3,272 467,274.4 445.7,256.3 459.8,254 		"/>
		<polygon class="st2" points="481.3,272 459.9,275.6 475.4,288.9 497.1,285.2 		"/>
		<polygon class="st2" points="431.6,273.1 452.9,269.6 475.4,288.9 453.7,292.6 		"/>
		<polygon class="st2" points="431.6,273.1 410,276.7 431.7,296.4 453.7,292.6 		"/>
		<polygon class="st2" points="395.6,279.1 410,276.7 431.7,296.4 416.9,298.9 		"/>
		<polygon class="st2" points="382.1,266.5 345.5,272.4 379.2,305.4 416.9,298.9 		"/>
		<polygon class="st2" points="247.9,288.2 345.5,272.4 379.2,305.4 278.2,322.7 		"/>
		<polygon class="st2" points="247.9,288.2 232.3,290.7 243.8,304.2 259.6,301.6 		"/>
		<polygon class="st2" points="278.2,322.7 262,325.5 243.8,304.2 259.6,301.6 		"/>
		<polygon class="st2" points="245.8,328.3 262,325.5 249.3,310.6 233.4,313.3 		"/>
		<polygon class="st2" points="245.8,328.3 229.8,331 212.3,309.4 227.9,306.8 		"/>
		<polygon class="st2" points="162.8,342.6 146.1,345.4 120.5,308.8 136.6,306.2 		"/>
		<polygon class="st2" points="128.7,348.4 146.1,345.4 120.5,308.8 103.8,311.5 		"/>
		<polygon class="st2" points="128.7,348.4 111.4,351.4 87.2,314.2 103.8,311.5 		"/>
		<polygon class="st2" points="216.6,293.2 201.2,295.7 212.3,309.4 227.9,306.8 		"/>
		<polygon class="st2" points="177.3,299.6 182.6,306.4 174.3,307.8 196.4,336.8 205,335.3 211.4,334.2 229.8,331 201.2,295.7 		"/>
		<polygon class="st2" points="161.1,302.2 166.3,309.1 174.7,307.7 196.9,336.7 188.2,338.2 181.8,339.3 162.9,342.5 136.7,306.2 
					"/>
		<polygon class="st2" points="431.6,273.1 452.9,269.6 438.7,257.4 417.7,260.8 		"/>
		<polygon class="st2" points="228.7,276.4 213.5,278.8 219.1,285.4 234.4,283 		"/>
		<polygon class="st2" points="172.1,270.9 182,283.3 190.1,282 195.9,289.1 203.3,288 187.3,268.5 		"/>
		<polygon class="st2" points="195.9,289.1 187.7,290.4 182,283.3 190.1,282 		"/>
		<polygon class="st5" points="82.6,307.2 69.2,286.7 69.2,285.2 82.6,305.7 		"/>
		<polygon class="st5" points="97.4,303.8 84.9,285.3 84.9,283.8 97.4,302.3 		"/>
		<polygon class="st4" points="71.8,287.3 84.9,285.3 84.9,283.8 70.9,285.9 		"/>
		<polygon class="st4" points="89.7,314.8 160.6,303.3 160.6,301.8 88.8,313.4 		"/>
		<polygon class="st4" points="88,284.8 117,280.4 117,278.8 87.1,283.4 		"/>
		<polygon class="st4" points="124.8,286.3 168.7,279.5 168.7,277.9 123.8,284.9 		"/>
		<polygon class="st4" points="167.1,272.6 341.6,245.7 341.6,244.2 166,271.3 		"/>
		<polygon class="st4" points="351.7,251 397.1,243.9 397.1,242.4 350.3,249.7 		"/>
		<polygon class="st4" points="394.8,237.7 431.9,232 431.9,230.4 393.3,236.4 		"/>
		<polygon class="st5" points="113.8,301.2 101,282.8 101,281.3 113.8,299.7 		"/>
		<polygon class="st5" points="130.1,298.6 117,280.4 117,278.8 130.1,297.1 		"/>
		<polygon class="st5" points="146.2,296.1 137.5,284.3 137.5,282.8 146.2,294.5 		"/>
		<polygon class="st5" points="177.8,291 168.7,279.5 168.7,277.9 177.8,289.5 		"/>
		<polygon class="st5" points="168,277 164.1,272.1 164.1,270.5 169.1,276.8 		"/>
		<polygon class="st5" points="185.9,289.7 171.7,271.9 171.7,270.4 185.9,288.2 		"/>
		<polygon class="st5" points="194,288.4 189.7,283.1 189.7,281.6 194,286.9 		"/>
		<polygon class="st5" points="201.4,287.2 186.9,269.6 186.9,268 201.4,285.7 		"/>
		<polygon class="st5" points="217.2,284.7 202.4,267.2 202.4,265.6 217.2,283.2 		"/>
		<polygon class="st5" points="232.5,282.3 228.3,277.5 228.3,276 232.5,280.7 		"/>
		<polygon class="st5" points="234.6,274.5 225.1,263.7 225.1,262.1 234.6,272.9 		"/>
		<polygon class="st5" points="242.3,281.7 236.5,275.2 236.5,273.6 242.3,280.2 		"/>
		<polygon class="st5" points="255.4,278.6 239.9,261.4 239.9,259.9 255.4,277.1 		"/>
		<polygon class="st5" points="270.8,276.2 255,259.1 255,257.5 270.8,274.6 		"/>
		<polygon class="st5" points="285.7,273.8 269.7,256.8 269.7,255.3 285.7,272.2 		"/>
		<polygon class="st5" points="300.4,271.4 284.1,254.6 284.1,253 300.4,269.9 		"/>
		<polygon class="st5" points="315.2,269.1 298.6,252.4 298.6,250.8 315.2,267.5 		"/>
		<polygon class="st5" points="329.9,266.7 313.1,250.1 313.1,248.6 329.9,265.2 		"/>
		<polygon class="st5" points="344.5,264.4 327.5,247.9 327.5,246.4 344.5,262.9 		"/>
		<polygon class="st5" points="358.9,262.1 341.6,245.7 341.6,244.2 358.9,260.6 		"/>
		<polygon class="st5" points="366.2,260.9 355.1,250.5 355.1,249 366.2,259.4 		"/>
		<polygon class="st5" points="394.4,256.4 383,246.2 383,244.6 394.4,254.9 		"/>
		<polygon class="st5" points="408.7,254.2 397.1,243.9 397.1,242.4 408.7,252.6 		"/>
		<polygon class="st5" points="422.6,251.9 404.4,236.2 404.4,234.6 422.6,250.4 		"/>
		<polygon class="st5" points="436.5,249.7 418.1,234.1 418.1,232.5 436.5,248.2 		"/>
		<polygon class="st5" points="467,274.4 438.8,250.4 438.8,248.8 467,272.8 		"/>
		<polygon class="st5" points="473.1,288.3 438.4,258.4 438.4,256.9 473.1,286.7 		"/>
		<polygon class="st5" points="430.1,271.8 417.7,260.8 417.7,259.2 431.6,271.6 		"/>
		<polygon class="st5" points="451.4,292 431.3,274.2 431.3,272.6 451.4,290.4 		"/>
		<polygon class="st5" points="429.5,295.7 409.7,277.7 409.7,276.2 429.5,294.2 		"/>
		<polygon class="st5" points="414.8,298.3 381.7,267.6 381.7,266 414.8,296.7 		"/>
		<polygon class="st5" points="377.1,304.7 345.2,273.5 345.2,271.9 377.1,303.2 		"/>
		<polygon class="st5" points="276.3,322.1 247.5,289.3 247.5,287.7 276.3,320.5 		"/>
		<polygon class="st5" points="260.1,324.8 248.9,311.7 248.9,310.2 260.1,323.3 		"/>
		<polygon class="st5" points="243.9,327.6 216.2,294.3 216.2,292.8 243.9,326.1 		"/>
		<polygon class="st5" points="228,330.3 200.8,296.8 200.8,295.3 228,328.8 		"/>
		<polygon class="st5" points="182.6,306.4 177.3,299.6 177.3,298 182.6,304.9 		"/>
		<polygon class="st5" points="195.1,336 174.2,308.8 174.2,307.3 195.1,334.4 		"/>
		<polygon class="st5" points="165.8,310.2 160.6,303.3 160.6,301.8 165.8,308.6 		"/>
		<polygon class="st5" points="161,341.8 136.1,307.3 136.1,305.7 161,340.3 		"/>
		<polygon class="st5" points="144.4,344.7 120.1,309.9 120.1,308.3 144.4,343.1 		"/>
		<polygon class="st5" points="127,347.7 103.3,312.6 103.3,311 127,346.1 		"/>
		<polygon class="st5" points="111.4,351.4 82,306.2 81.3,303.7 111.4,349.8 		"/>
		<polygon class="st5" points="248.2,309.3 232.3,290.7 232.3,289.2 249.3,309.1 		"/>
		<polygon class="st5" points="494.8,284.5 431.9,232 431.9,230.4 494.8,283 		"/>
		<polygon class="st5" points="395.9,241.6 391,237.2 391,235.7 397.4,241.3 		"/>
		<g>
			<path class="st0" d="M84.9,283.8l12.5,18.5l-14.3,2.3l-12.2-18.7L84.9,283.8 M85.4,282.7l-16.1,2.5l13.4,20.5l16.5-2.6
				L85.4,282.7L85.4,282.7z"/>
			<path class="st0" d="M101,281.3l12.8,18.4L99.6,302l-12.5-18.6L101,281.3 M101.5,280.2l-16.1,2.5l13.8,20.4l16.5-2.6L101.5,280.2
				L101.5,280.2z"/>
			<path class="st0" d="M117,278.8l13.2,18.3l-14.1,2.3L103.3,281L117,278.8 M117.4,277.7l-16,2.5l14.1,20.2l16.3-2.6L117.4,277.7
				L117.4,277.7z"/>
			<path class="st0" d="M137.5,282.8l8.7,11.7l-13.9,2.2l-8.5-11.8L137.5,282.8 M138,281.7l-15.9,2.5l9.8,13.6l16.1-2.6L138,281.7
				L138,281.7z"/>
			<path class="st0" d="M168.7,277.9l9.1,11.5l-29.3,4.7l-8.7-11.7L168.7,277.9 M169.1,276.8l-31.1,4.9l10.1,13.5l31.6-5
				L169.1,276.8L169.1,276.8z"/>
			<path class="st0" d="M171.6,270.4l14.2,17.8l-5.8,0.9l-14.1-17.9L171.6,270.4 M172.1,269.3l-7.9,1.2l15.5,19.7l8.1-1.3
				L172.1,269.3L172.1,269.3z"/>
			<path class="st0" d="M202.4,265.6l14.8,17.5l-13.4,2.1l-14.5-17.7L202.4,265.6 M202.8,264.6l-15.4,2.4l16,19.5l15.8-2.5
				L202.8,264.6L202.8,264.6z"/>
			<path class="st0" d="M225.1,262.1l9.5,10.8l-20.7,3.3l-9.2-10.9L225.1,262.1 M225.5,261.1l-22.7,3.5l10.7,12.7l23-3.6
				L225.5,261.1L225.5,261.1z"/>
			<path class="st0" d="M239.9,259.9l15.5,17.2l-12.7,2l-15.2-17.3L239.9,259.9 M240.3,258.8l-14.8,2.3l16.8,19.1l15.1-2.4
				L240.3,258.8L240.3,258.8z"/>
			<path class="st0" d="M255,257.5l15.8,17.1l-13.1,2.1l-15.5-17.2L255,257.5 M255.4,256.5l-15.1,2.3l17.1,19l15.5-2.5L255.4,256.5
				L255.4,256.5z"/>
			<path class="st0" d="M269.7,255.3l16,17l-12.5,2l-15.7-17.1L269.7,255.3 M270,254.2l-14.6,2.3l17.4,18.9l14.9-2.4L270,254.2
				L270,254.2z"/>
			<path class="st0" d="M284.1,253l16.3,16.8l-12.3,2l-16-17L284.1,253 M284.5,252l-14.4,2.2l17.7,18.7l14.7-2.4L284.5,252
				L284.5,252z"/>
			<path class="st0" d="M298.6,250.8l16.5,16.7l-12.4,2l-16.3-16.8L298.6,250.8 M299,249.7l-14.5,2.2l18,18.6l14.8-2.4L299,249.7
				L299,249.7z"/>
			<path class="st0" d="M313.1,248.6l16.8,16.6l-12.3,2l-16.5-16.8L313.1,248.6 M313.5,247.5l-14.5,2.2l18.2,18.5l14.7-2.4
				L313.5,247.5L313.5,247.5z"/>
			<path class="st0" d="M327.5,246.4l17,16.5l-12.1,1.9l-16.8-16.6L327.5,246.4 M327.8,245.3l-14.3,2.2l18.5,18.3l14.6-2.3
				L327.8,245.3L327.8,245.3z"/>
			<path class="st0" d="M341.6,244.2l17.3,16.4l-11.9,1.9L330,246L341.6,244.2 M342,243.1l-14.2,2.2l18.8,18.2l14.4-2.3L342,243.1
				L342,243.1z"/>
			<path class="st0" d="M355.1,249l4.6,4.3L355,254l-4.6-4.3L355.1,249 M355.4,247.9l-7.2,1.1l6.4,6.1l7.3-1.1L355.4,247.9
				L355.4,247.9z"/>
			<path class="st0" d="M361.5,255l4.7,4.4l-4.8,0.8l-4.7-4.4L361.5,255 M361.8,253.9l-7.3,1.1l6.5,6.2l7.3-1.2L361.8,253.9
				L361.8,253.9z"/>
			<path class="st0" d="M383,244.6l11.4,10.3l-25.7,4.1l-11.1-10.4L383,244.6 M383.3,243.5l-27.9,4.3l13,12.2l28.2-4.5L383.3,243.5
				L383.3,243.5z"/>
			<path class="st0" d="M397.1,242.4l11.6,10.2l-11.8,1.9l-11.4-10.3L397.1,242.4 M397.4,241.3l-14.1,2.2l13.3,12l14.3-2.3
				L397.4,241.3L397.4,241.3z"/>
			<path class="st0" d="M404.4,234.6l18.1,15.7l-11.4,1.8l-17.8-15.7L404.4,234.6 M404.7,233.6l-13.7,2.1l19.9,17.6l13.9-2.2
				L404.7,233.6L404.7,233.6z"/>
			<path class="st0" d="M418.1,232.5l18.4,15.6l-11.3,1.8l-18.1-15.7L418.1,232.5 M418.4,231.5l-13.7,2.1l20.1,17.5l13.9-2.2
				L418.4,231.5L418.4,231.5z"/>
			<path class="st0" d="M431.9,230.4l25.6,21.4l-11.4,1.8l-25.3-21.5L431.9,230.4 M432.1,229.4l-13.7,2.1l27.3,23.2l14.1-2.3
				L432.1,229.4L432.1,229.4z"/>
			<path class="st0" d="M459.5,253.5l19.5,16.3l-11.7,2L448,255.4L459.5,253.5 M459.8,252.4l-14.1,2.3l21.3,18.1l14.3-2.4
				L459.8,252.4L459.8,252.4z"/>
			<path class="st0" d="M481,271.5l13.7,11.5l-19.1,3.3l-13.5-11.6L481,271.5 M481.3,270.4l-21.4,3.6l15.5,13.3l21.7-3.7
				L481.3,270.4L481.3,270.4z"/>
			<path class="st0" d="M452.6,269.1l20.5,17.6L454,290l-20.1-17.8L452.6,269.1 M452.9,268l-21.3,3.5l22.1,19.5l21.7-3.7L452.9,268
				L452.9,268z"/>
			<path class="st0" d="M431.3,272.6l20.1,17.8l-19.4,3.3l-19.8-18L431.3,272.6 M431.6,271.6l-21.6,3.6l21.7,19.7l22-3.8
				L431.6,271.6L431.6,271.6z"/>
			<path class="st0" d="M409.7,276.2l19.8,18l-12.3,2.1l-19.5-18.1L409.7,276.2 M410,275.1l-14.5,2.4l21.4,19.9l14.8-2.5L410,275.1
				L410,275.1z"/>
			<path class="st0" d="M381.7,266l33,30.7l-35.2,6l-31.9-31.2L381.7,266 M382.1,265l-36.5,5.9l33.7,33l37.7-6.5L382.1,265
				L382.1,265z"/>
			<path class="st0" d="M345.2,271.9l31.9,31.2L278.6,320l-28.7-32.8L345.2,271.9 M345.5,270.9l-97.6,15.8l30.3,34.5l101-17.3
				L345.5,270.9L345.5,270.9z"/>
			<path class="st0" d="M247.5,287.7l10.2,11.6l-13.5,2.2l-10-11.7L247.5,287.7 M247.9,286.6l-15.6,2.5l11.5,13.5l15.8-2.6
				L247.9,286.6L247.9,286.6z"/>
			<path class="st0" d="M259.3,301.1l17,19.4l-13.9,2.4l-16.7-19.6L259.3,301.1 M259.6,300l-15.8,2.6l18.2,21.3l16.2-2.8L259.6,300
				L259.6,300z"/>
			<path class="st0" d="M248.9,310.2l11.2,13.1l-13.9,2.4l-11-13.2L248.9,310.2 M249.3,309.1l-16,2.7l12.5,15L262,324L249.3,309.1
				L249.3,309.1z"/>
			<path class="st0" d="M227.5,306.3l16.4,19.7l-13.7,2.4l-16.1-19.9L227.5,306.3 M227.9,305.2l-15.7,2.6l17.6,21.7l16-2.7
				L227.9,305.2L227.9,305.2z"/>
			<path class="st0" d="M136.1,305.7l24.9,34.6l-14.5,2.5L122.2,308L136.1,305.7 M136.6,304.6l-16.1,2.6l25.6,36.6l16.7-2.9
				L136.6,304.6L136.6,304.6z"/>
			<path class="st0" d="M120.1,308.3l24.3,34.8l-15.2,2.6l-23.7-35.1L120.1,308.3 M120.5,307.2l-16.8,2.7l24.9,36.9l17.4-3
				L120.5,307.2L120.5,307.2z"/>
			<path class="st0" d="M103.3,311l23.7,35.1l-15.1,2.6l-23.1-35.3L103.3,311 M103.8,309.9l-16.6,2.7l24.3,37.2l17.3-3L103.8,309.9
				L103.8,309.9z"/>
			<path class="st0" d="M216.2,292.8l9.8,11.8l-13.4,2.2l-9.6-11.9L216.2,292.8 M216.6,291.7l-15.4,2.5l11.1,13.6l15.7-2.6
				L216.6,291.7L216.6,291.7z"/>
			<path class="st0" d="M200.8,295.3l27.2,33.5l-16.8,2.9l-6.3,1.1l-8,1.4L176.1,307l6.7-1.1l1.7-0.3l-1-1.3l-4.3-5.5L200.8,295.3
				 M201.2,294.2l-23.9,3.9l5.3,6.8l-8.4,1.4l22.2,29l8.6-1.5l6.3-1.1l18.4-3.2L201.2,294.2L201.2,294.2z"/>
			<path class="st0" d="M160.6,301.8l4.8,6.4l0.4,0.5l0.6-0.1l7.8-1.3l20.9,27.1l-7,1.2l-6.4,1.1l-18.3,3.1l-24.9-34.6L160.6,301.8
				 M161.1,300.7l-24.7,4l25.9,36.4l19.6-3.4l6.4-1.1l8.7-1.5l-22.2-29l-8.4,1.4L161.1,300.7L161.1,300.7z"/>
			<path class="st0" d="M438.4,256.9l12.2,10.5l-18.7,3.1l-12-10.6L438.4,256.9 M438.7,255.8l-21.1,3.4l13.9,12.3l21.3-3.5
				L438.7,255.8L438.7,255.8z"/>
			<path class="st0" d="M228.3,276l4.1,4.8l-13,2.1l-4.1-4.8L228.3,276 M228.7,274.9l-15.3,2.4l5.6,6.6l15.4-2.5L228.7,274.9
				L228.7,274.9z"/>
			<path class="st0" d="M186.9,268l14.5,17.7l-5.1,0.8l-5.4-6.7l-0.4-0.4l-0.6,0.1l-7.5,1.2l-8.5-10.7L186.9,268 M187.3,267
				l-15.3,2.4l10,12.5l8.1-1.3l5.8,7.1l7.4-1.2L187.3,267L187.3,267z"/>
			<path class="st0" d="M189.7,281.6l4.3,5.3l-5.9,0.9l-4.3-5.3L189.7,281.6 M190.1,280.5l-8.1,1.3l5.7,7.1l8.2-1.3L190.1,280.5
				L190.1,280.5z"/>
		</g>
		<polygon class="st0" points="111.9,348.7 82.1,303 81.3,303.7 111.4,349.8 		"/>
		<polygon class="st4" points="449.5,256.6 459.5,255 459.5,253.5 448,255.3 		"/>
		<polygon class="st4" points="421.4,261.2 438.4,258.4 438.4,256.9 419.9,259.9 		"/>
		<polygon class="st4" points="399.1,279.5 452.6,270.6 452.6,269.1 397.7,278.2 		"/>
		<polygon class="st4" points="463.7,276 481,273.1 481,271.5 462.2,274.7 		"/>
		<polygon class="st4" points="242.3,281.7 438.8,250.4 438.8,248.8 242.3,280.2 		"/>
		<polygon class="st4" points="84.6,306.9 234.4,283 234.4,281.4 83.7,305.5 		"/>
		<polygon class="st4" points="111.4,351.4 497.1,285.2 497.1,283.6 111.4,349.8 		"/>
		<polygon class="st4" points="356.7,255.7 361.5,255 361.5,256.5 358.1,257.1 		"/>
		<polygon class="st4" points="185,283.9 183.9,282.5 189.7,281.6 189.7,283.1 		"/>
		<polygon class="st4" points="216.5,279.4 215.4,278 228.3,276 228.3,277.5 		"/>
		<polygon class="st4" points="229.9,276.2 228.7,274.9 236.5,273.6 236.5,275.2 		"/>
		<polygon class="st4" points="165.8,310.2 184.5,307.2 184.5,305.6 165.8,308.6 		"/>
		<polygon class="st4" points="180.2,300.1 216.2,294.3 216.2,292.8 179.1,298.8 		"/>
		<polygon class="st4" points="215.2,309.9 227.5,307.9 227.5,306.3 214.1,308.5 		"/>
		<polygon class="st4" points="236.4,313.8 248.9,311.7 248.9,310.2 235.2,312.5 		"/>
		<polygon class="st4" points="246.9,304.7 259.3,302.6 259.3,301.1 245.7,303.3 		"/>
		<polygon class="st4" points="235.4,291.2 381.7,267.6 381.7,266 234.2,289.9 		"/>
	</g>
</g>
<g id="Level_4">
	<g>
		<g>
			<path class="st0" d="M474.9,181l-14.8-12.3l-27.8-23.1l-14,2.2l-13.9,2.2l-13.9,2.2l6.4,5.7l-14,2.2l-28.3,4.5l-7.2,1.1l-6.1-5.8
				l-21.3,3.3l-14.6,2.3l-14.5,2.2l-14.7,2.3l-14.7,2.3l-14.7,2.3l-15.1,2.3l-15,2.3l-15.2,2.4l-15.2,2.4l-4.8,0.7l-3.1,0.5
				l-7.5,1.2l-7.8,1.2l-30,4.7l-11.7,1.8l-4,0.6l-16,2.5L87,199.4L70.5,202l17.3,26.9l7.1,11.1l6.8,10.6l10.1,15.6l24.7-4.2
				l12.8-2.2l13-2.2l12.4-2.1l13.1-2.2l14.5-2.5l17.1-2.9l16.4-2.8l16.2-2.8l16.3-2.8l16.1-2.8l16.1-2.8l15.7-2.7l15.7-2.7l15.7-2.7
				l15.4-2.6l15.6-2.7l4.4-0.8l3.3-0.6l7.6-1.3l15-2.6l14.9-2.6l15-2.6l14.7-2.5l11-1.9l3.7-0.6l7.4-1.3l22.1-3.8L474.9,181z"/>
			<g>
				<g>
					<path class="st0" d="M432.4,133.6c-0.6,0-1.2,0-1.8,0.1l-14,2.2l-13.9,2.2l-13.9,2.2c-4.5,0.7-8.2,3.9-9.6,8.2l-26.3,4.1
						l-1.4,0.2l-1.8-1.7c-2.2-2.1-5.2-3.3-8.3-3.3c-0.6,0-1.2,0-1.8,0.1l-21.3,3.3l-14.6,2.3l-14.5,2.2l-14.7,2.3l-14.7,2.3
						l-14.7,2.3l-15.1,2.3l-15,2.3l-15.2,2.4l-15.2,2.4l-4.8,0.7l-3.1,0.5l-7.5,1.2l-7.8,1.2l-30,4.7l-11.7,1.8l-4,0.6l-16,2.5
						l-14.4,2.2L68.8,190c-4,0.6-7.4,3.2-9.1,6.9c-1.7,3.7-1.3,8,0.9,11.4l17.3,26.9l7.1,11.1l6.8,10.6l10.1,15.6
						c2.2,3.5,6.1,5.5,10.1,5.5c0.7,0,1.4-0.1,2-0.2l24.7-4.2l12.8-2.2l13-2.2l12.4-2.1l13.1-2.2l14.5-2.5l17.1-2.9l16.4-2.8
						l16.2-2.8l16.3-2.8l16.1-2.8l16.1-2.8l15.7-2.7l15.7-2.7l15.7-2.7l15.4-2.6l15.6-2.7l4.4-0.8l3.3-0.6l7.6-1.3l15-2.6l14.9-2.6
						l15-2.6l14.7-2.5l11-1.9l3.7-0.6l7.4-1.3l22.1-3.8c4.6-0.8,8.3-4.2,9.6-8.7c1.2-4.5-0.3-9.3-3.9-12.3l-22.7-18.9l-15.1-12.2
						L440,136.3C437.9,134.5,435.1,133.6,432.4,133.6L432.4,133.6z"/>
				</g>
			</g>
		</g>
		<path class="st3" d="M474.6,180.8l-14.8-12.3L432,145.4l-14,2.2l-13.9,2.2l-13.9,2.2l6.4,5.7l-14,2.2l-28.3,4.5l-7.2,1.1l-6.1-5.8
			l-21.3,3.3l-14.6,2.3l-14.5,2.2l-14.7,2.3l-14.7,2.3l-14.7,2.3l-15.1,2.3l-15,2.3l-15.2,2.4l-15.2,2.4l-4.8,0.7l-3.1,0.5l-7.5,1.2
			l-7.8,1.2l-30,4.7l-11.7,1.8l-4,0.6l-16,2.5l-14.4,2.2l-16.5,2.6l17.3,26.9l7.1,11.1l6.8,10.6l10.1,15.6l24.7-4.2l12.8-2.2l13-2.2
			l12.4-2.1l13.1-2.2l14.5-2.5l17.1-3.2l16.4-2.8l16.2-2.8L268,239l16.1-2.8l16.1-2.8l15.7-2.7l15.7-2.7l15.7-2.7l15.4-2.6l15.6-2.7
			l4.4-0.8l3.3-0.6l7.6-1.3l15-2.6l14.9-2.6l15-2.6l14.7-2.5l11-1.9l3.7-0.6l7.4-1.3l22.1-3.8L474.6,180.8z"/>
		<g>
			<polygon class="st1" points="104.6,225.8 87.5,228.5 70.2,201.6 86.7,199.1 			"/>
			<polygon class="st1" points="100.3,219.3 115,217 101.2,196.8 86.7,199.1 			"/>
			<polygon class="st1" points="131.4,214.3 115,217 101.2,196.8 117.2,194.3 			"/>
			<polygon class="st1" points="124.2,204.2 128.2,203.6 121.1,193.7 117.2,194.3 			"/>
			<polygon class="st1" points="147.4,211.8 135.4,213.7 121.1,193.7 132.8,191.9 			"/>
			<polygon class="st1" points="147.4,211.8 178.1,206.8 162.8,187.3 132.8,191.9 			"/>
			<polygon class="st1" points="186,205.6 178.1,206.8 162.8,187.3 170.6,186 			"/>
			<polygon class="st1" points="186,205.6 193.7,204.3 188.2,197.6 180.7,198.8 			"/>
			<polygon class="st1" points="181.2,184.4 178.1,184.9 170.6,186 180.7,198.8 188.2,197.6 193.7,204.3 201.7,203 186,183.6 			"/>
			<polygon class="st1" points="201.7,203 217.3,200.5 201.2,181.3 186,183.6 			"/>
			<polygon class="st1" points="232.8,198 217.3,200.5 201.2,181.3 216.4,178.9 			"/>
			<polygon class="st1" points="232.8,198 248.2,195.6 231.4,176.6 216.4,178.9 			"/>
			<polygon class="st1" points="263.6,193.1 248.2,195.6 231.4,176.6 246.5,174.2 			"/>
			<polygon class="st1" points="263.6,193.1 278.6,190.7 261.2,172 246.5,174.2 			"/>
			<polygon class="st1" points="293.6,188.3 278.6,190.7 261.2,172 275.9,169.7 			"/>
			<polygon class="st1" points="293.6,188.3 308.6,185.9 290.6,167.4 275.9,169.7 			"/>
			<polygon class="st1" points="323.4,183.5 308.6,185.9 290.6,167.4 305.1,165.1 			"/>
			<polygon class="st1" points="323.4,183.5 338.4,181.1 319.8,162.9 305.1,165.1 			"/>
			<polygon class="st1" points="360.1,177.6 338.4,181.1 319.8,162.9 341,159.5 			"/>
			<polygon class="st1" points="360.1,177.6 367.4,176.4 360.7,170.2 353.5,171.3 			"/>
			<polygon class="st1" points="347.2,165.4 354.4,164.2 360.7,170.2 353.5,171.3 			"/>
			<polygon class="st1" points="382.7,159.8 354.4,164.2 367.4,176.4 396.1,171.8 			"/>
			<polygon class="st1" points="382.7,159.8 396.7,157.6 410.3,169.6 396.1,171.8 			"/>
			<polygon class="st1" points="404.2,149.7 390.3,151.9 410.3,169.6 424.4,167.3 			"/>
			<polygon class="st1" points="404.2,149.7 418,147.6 438.6,165 424.4,167.3 			"/>
			<polygon class="st1" points="432,145.4 418,147.6 445.4,170.8 459.8,168.5 			"/>
			<polygon class="st1" points="474.6,180.8 452.9,184.4 438.3,172 459.8,168.5 			"/>
			<polygon class="st1" points="474.6,180.8 452.9,184.4 475.1,203.5 497.3,199.7 			"/>
			<polygon class="st1" points="452.8,191.8 445.6,185.6 431.2,188 453,207.3 464.1,205.4 467.8,204.8 475.1,203.5 460,190.6 			"/>
			<polygon class="st1" points="416.7,190.4 431.2,188 453,207.3 438.3,209.8 			"/>
			<polygon class="st1" points="416.7,190.4 402.1,192.8 423.4,212.4 438.3,209.8 			"/>
			<polygon class="st1" points="373.8,182.5 388.2,180.1 423.4,212.4 408.4,215 			"/>
			<polygon class="st1" points="373.8,182.5 359.3,184.8 393.4,217.6 408.4,215 			"/>
			<polygon class="st1" points="358.6,192.5 351.9,186 344.6,187.2 378.2,220.2 382.5,219.4 385.8,218.9 393.4,217.6 366,191.3 			
				"/>
			<polygon class="st1" points="329.5,189.6 344.6,187.2 378.2,220.2 362.6,222.8 			"/>
			<polygon class="st1" points="329.5,189.6 314.7,192.1 347.2,225.5 362.6,222.8 			"/>
			<polygon class="st1" points="299.5,194.5 314.7,192.1 347.2,225.5 331.5,228.2 			"/>
			<polygon class="st1" points="299.5,194.5 284.4,197 315.8,230.9 331.5,228.2 			"/>
			<polygon class="st1" points="269.3,199.4 284.4,197 315.8,230.9 300.1,233.5 			"/>
			<polygon class="st1" points="269.3,199.4 253.8,201.9 284.1,236.3 300.1,233.5 			"/>
			<polygon class="st1" points="238.3,204.4 253.8,201.9 284.1,236.3 268,239.1 			"/>
			<polygon class="st1" points="238.3,204.4 222.6,207 251.8,241.8 268,239.1 			"/>
			<polygon class="st1" points="207,209.5 222.6,207 251.8,241.8 235.6,244.6 			"/>
			<polygon class="st1" points="207,209.5 191.2,212.1 219.1,247.4 235.6,244.6 			"/>
			<polygon class="st1" points="174.7,214.7 191.2,212.1 219.1,247.4 202,250.4 			"/>
			<polygon class="st1" points="190.5,235.3 176.2,237.7 187.5,252.9 202,250.4 			"/>
			<polygon class="st1" points="163.3,239.9 176.2,237.7 187.5,252.9 174.4,255.1 			"/>
			<polygon class="st1" points="163.3,239.9 151.1,241.9 162,257.2 174.4,255.1 			"/>
			<polygon class="st1" points="138.3,244.1 151.1,241.9 162,257.2 149,259.5 			"/>
			<polygon class="st1" points="138.3,244.1 125.8,246.2 136.2,261.7 149,259.5 			"/>
			<polygon class="st1" points="101.5,250.3 125.8,246.2 136.2,261.7 111.5,265.9 			"/>
			<polygon class="st1" points="101.5,250.3 119,247.3 112,236.8 94.6,239.6 			"/>
			<polygon class="st1" points="87.5,228.5 104.7,225.8 112,236.8 94.6,239.6 			"/>
			<polygon class="st1" points="174.7,214.7 143.9,219.7 154.3,234.1 185.6,228.9 			"/>
			<polygon class="st1" points="135.5,221.1 143.9,219.7 151.5,230.3 143,231.7 			"/>
			<polygon class="st1" points="431.2,180.5 445.5,178.2 438.3,172 424.1,174.3 			"/>
			<polygon class="st1" points="431.2,180.5 424,181.7 417,175.5 424.1,174.3 			"/>
			<polygon class="st1" points="124.2,204.2 128.2,203.6 135.4,213.7 131.4,214.3 			"/>
		</g>
		<polygon class="st2" ng-class="{'pulsate': $ctrl.company.comproom == '4081'}" points="104.6,225.8 87.5,228.5 70.2,201.6 86.7,199.1 		"/>
		<polygon class="st2" ng-class="{'pulsate': $ctrl.company.comproom == '4085'}" points="100.3,219.3 115,217 101.2,196.8 86.7,199.1 		"/>
		<polygon class="st2" ng-class="{'pulsate': $ctrl.company.comproom == '4087'}" points="131.4,214.3 115,217 101.2,196.8 117.2,194.3 		"/>
		<polygon class="st2" points="124.2,204.2 128.2,203.6 121.1,193.7 117.2,194.3 		"/>
		<polygon class="st2" points="147.4,211.8 135.4,213.7 121.1,193.7 132.8,191.9 		"/>
		<polygon class="st2" points="147.4,211.8 178.1,206.8 162.8,187.3 132.8,191.9 		"/>
		<polygon class="st2" points="186,205.6 178.1,206.8 162.8,187.3 170.6,186 		"/>
		<polygon class="st2" points="186,205.6 193.7,204.3 188.2,197.6 180.7,198.8 		"/>
		<polygon class="st2" points="181.2,184.4 178.1,184.9 170.6,186 180.7,198.8 188.2,197.6 193.7,204.3 201.7,203 186,183.6 		"/>
		<polygon class="st2" points="201.7,203 217.3,200.5 201.2,181.3 186,183.6 		"/>
		<polygon class="st2" ng-class="{'pulsate': $ctrl.company.comproom == '4007'}" points="232.8,198 217.3,200.5 201.2,181.3 216.4,178.9 		"/>
		<polygon class="st2" ng-class="{'pulsate': $ctrl.company.comproom == '4009'}" points="232.8,198 248.2,195.6 231.4,176.6 216.4,178.9 		"/>
		<polygon class="st2" ng-class="{'pulsate': $ctrl.company.comproom == '4011'}" points="263.6,193.1 248.2,195.6 231.4,176.6 246.5,174.2 		"/>
		<polygon class="st2" ng-class="{'pulsate': $ctrl.company.comproom == '4013'}" points="263.6,193.1 278.6,190.7 261.2,172 246.5,174.2 		"/>
		<polygon class="st2" ng-class="{'pulsate': $ctrl.company.comproom == '4014'}" points="293.6,188.3 278.6,190.7 261.2,172 275.9,169.7 		"/>
		<polygon class="st2" ng-class="{'pulsate': $ctrl.company.comproom == '4015'}" points="293.6,188.3 308.6,185.9 290.6,167.4 275.9,169.7 		"/>
		<polygon class="st2" ng-class="{'pulsate': $ctrl.company.comproom == '4016'}" points="323.4,183.5 308.6,185.9 290.6,167.4 305.1,165.1 		"/>
		<polygon class="st2" ng-class="{'pulsate': $ctrl.company.comproom == '4017'}" points="323.4,183.5 338.4,181.1 319.8,162.9 305.1,165.1 		"/>
		<polygon class="st2" ng-class="{'pulsate': $ctrl.company.comproom == '4019'}" points="360.1,177.6 338.4,181.1 319.8,162.9 341,159.5 		"/>
		<polygon class="st2" points="360.1,177.6 367.4,176.4 360.7,170.2 353.5,171.3 		"/>
		<polygon class="st2" points="347.2,165.4 354.4,164.2 360.7,170.2 353.5,171.3 		"/>
		<polygon class="st2" points="382.7,159.8 354.4,164.2 367.4,176.4 396.1,171.8 		"/>
		<polygon class="st2" points="382.7,159.8 396.7,157.6 410.3,169.6 396.1,171.8 		"/>
		<polygon class="st2" ng-class="{'pulsate': $ctrl.company.comproom == '4021'}" points="404.2,149.7 390.3,151.9 410.3,169.6 424.4,167.3 		"/>
		<polygon class="st2" ng-class="{'pulsate': $ctrl.company.comproom == '4023'}" points="404.2,149.7 418,147.6 438.6,165 424.4,167.3 		"/>
		<polygon class="st2" ng-class="{'pulsate': $ctrl.company.comproom == '4025'}" points="432,145.4 418,147.6 445.4,170.8 459.8,168.5 		"/>
		<polygon class="st2" ng-class="{'pulsate': $ctrl.company.comproom == '4029'}" points="474.6,180.8 452.9,184.4 438.3,172 459.8,168.5 		"/>
		<polygon class="st2" ng-class="{'pulsate': $ctrl.company.comproom == '4031'}" points="474.6,180.8 452.9,184.4 475.1,203.5 497.3,199.7 		"/>
		<polygon class="st2" ng-class="{'pulsate': $ctrl.company.comproom == '4033'}" points="452.8,191.8 445.6,185.6 431.2,188 453,207.3 464.1,205.4 467.8,204.8 475.1,203.5 460,190.6 		"/>
		<polygon class="st2" ng-class="{'pulsate': $ctrl.company.comproom == '4037'}" points="416.7,190.4 431.2,188 453,207.3 438.3,209.8 		"/>
		<polygon class="st2" ng-class="{'pulsate': $ctrl.company.comproom == '4038'}" points="416.7,190.4 402.1,192.8 423.4,212.4 438.3,209.8 		"/>
		<polygon class="st2" ng-class="{'pulsate': $ctrl.company.comproom == '4039'}" points="373.8,182.5 388.2,180.1 423.4,212.4 408.4,215 		"/>
		<polygon class="st2" ng-class="{'pulsate': $ctrl.company.comproom == '4040'}" points="373.8,182.5 359.3,184.8 393.4,217.6 408.4,215 		"/>
		<polygon class="st2" ng-class="{'pulsate': $ctrl.company.comproom == '4041'}" points="358.6,192.5 351.9,186 344.6,187.2 378.2,220.2 382.5,219.4 385.8,218.9 393.4,217.6 366,191.3 		"/>
		<polygon class="st2" ng-class="{'pulsate': $ctrl.company.comproom == '4042'}" points="329.5,189.6 344.6,187.2 378.2,220.2 362.6,222.8 		"/>
		<polygon class="st2" ng-class="{'pulsate': $ctrl.company.comproom == '4043'}" points="329.5,189.6 314.7,192.1 347.2,225.5 362.6,222.8 		"/>
		<polygon class="st2" ng-class="{'pulsate': $ctrl.company.comproom == '4044'}" points="299.5,194.5 314.7,192.1 347.2,225.5 331.5,228.2 		"/>
		<polygon class="st2" ng-class="{'pulsate': $ctrl.company.comproom == '4045'}" points="299.5,194.5 284.4,197 315.8,230.9 331.5,228.2 		"/>
		<polygon class="st2" ng-class="{'pulsate': $ctrl.company.comproom == '4046'}" points="269.3,199.4 284.4,197 315.8,230.9 300.1,233.5 		"/>
		<polygon class="st2" ng-class="{'pulsate': $ctrl.company.comproom == '4047'}" points="269.3,199.4 253.8,201.9 284.1,236.3 300.1,233.5 		"/>
		<polygon class="st2" ng-class="{'pulsate': $ctrl.company.comproom == '4049'}" points="238.3,204.4 253.8,201.9 284.1,236.3 268,239.1 		"/>
		<polygon class="st2" ng-class="{'pulsate': $ctrl.company.comproom == '4051'}" points="238.3,204.4 222.6,207 251.8,241.8 268,239.1 		"/>
		<polygon class="st2" ng-class="{'pulsate': $ctrl.company.comproom == '4052'}" points="207,209.5 222.6,207 251.8,241.8 235.6,244.6 		"/>
		<polygon class="st2" ng-class="{'pulsate': $ctrl.company.comproom == '4053'}" points="207,209.5 191.2,212.1 219.1,247.4 235.6,244.6 		"/>
		<polygon class="st2" ng-class="{'pulsate': $ctrl.company.comproom == '4054'}" points="174.7,214.7 191.2,212.1 219.1,247.4 202,250.4 		"/>
		<polygon class="st2" ng-class="{'pulsate': $ctrl.company.comproom == '4065'}" points="190.5,235.3 176.2,237.7 187.5,252.9 202,250.4 		"/>
		<polygon class="st2" ng-class="{'pulsate': $ctrl.company.comproom == '4067'}" points="163.3,239.9 176.2,237.7 187.5,252.9 174.4,255.1 		"/>
		<polygon class="st2" ng-class="{'pulsate': $ctrl.company.comproom == '4069'}" points="163.3,239.9 151.1,241.9 162,257.2 174.4,255.1 		"/>
		<polygon class="st2" ng-class="{'pulsate': $ctrl.company.comproom == '4071'}" points="138.3,244.1 151.1,241.9 162,257.2 149,259.5 		"/>
		<polygon class="st2" ng-class="{'pulsate': $ctrl.company.comproom == '4073'}" points="138.3,244.1 125.8,246.2 136.2,261.7 149,259.5 		"/>
		<polygon class="st2" ng-class="{'pulsate': $ctrl.company.comproom == '4075'}" points="101.5,250.3 125.8,246.2 136.2,261.7 111.5,265.9 		"/>
		<polygon class="st2" ng-class="{'pulsate': $ctrl.company.comproom == '4077'}" points="101.5,250.3 119,247.3 112,236.8 94.6,239.6 		"/>
		<polygon class="st2" ng-class="{'pulsate': $ctrl.company.comproom == '4079'}" points="87.5,228.5 104.7,225.8 112,236.8 94.6,239.6 		"/>
		<polygon class="st2" points="174.7,214.7 143.9,219.7 154.3,234.1 185.6,228.9 		"/>
		<polygon class="st2" points="135.5,221.1 143.9,219.7 151.5,230.3 143,231.7 		"/>
		<polygon class="st2" points="431.2,180.5 445.5,178.2 438.3,172 424.1,174.3 		"/>
		<polygon class="st2" points="431.2,180.5 424,181.7 417,175.5 424.1,174.3 		"/>
		<polygon class="st2" points="124.2,204.2 128.2,203.6 135.4,213.7 131.4,214.3 		"/>
		<polygon class="st4" points="340.7,160.6 72.9,202.2 71.9,200.6 340.7,158.9 		"/>
		<polygon class="st5" points="111.5,265.9 70.2,201.6 70.2,199.9 111.5,264.1 		"/>
		<polygon class="st5" points="116.3,245 86.3,200.2 86.3,198.4 117.4,244.8 		"/>
		<polygon class="st5" points="113.3,216.2 100.7,197.9 100.7,196.2 113.3,214.5 		"/>
		<polygon class="st4" points="349.3,164.3 396.4,156.9 396.4,158.6 350.9,165.8 		"/>
		<polygon class="st4" points="392.5,150.8 431.7,144.7 431.7,146.5 394.2,152.3 		"/>
		<polygon class="st5" points="129.6,213.6 116.7,195.4 116.7,193.7 129.6,211.8 		"/>
		<polygon class="st5" points="133.7,212.9 120.7,194.8 120.7,193.1 133.7,211.2 		"/>
		<polygon class="st5" points="145.6,211 132.3,193 132.3,191.2 145.6,209.3 		"/>
		<polygon class="st5" points="176.2,206.1 162.4,188.3 162.4,186.6 176.2,204.4 		"/>
		<polygon class="st5" points="184.2,204.8 170.2,187.1 170.2,185.4 184.2,203.1 		"/>
		<polygon class="st5" points="191.8,203.6 187.8,198.6 187.8,196.9 191.8,201.9 		"/>
		<polygon class="st5" points="199.9,202.3 185.6,184.7 185.6,183 199.9,200.6 		"/>
		<polygon class="st5" points="215.4,199.8 200.8,182.4 200.8,180.6 215.4,198.1 		"/>
		<polygon class="st5" points="230.6,197.4 216,180 216,178.2 230.9,195.6 		"/>
		<polygon class="st5" points="246.2,194.9 231,177.7 231,175.9 246.2,193.1 		"/>
		<polygon class="st5" points="261.6,192.4 246.1,175.3 246.1,173.6 261.6,190.7 		"/>
		<polygon class="st5" points="276.6,190 260.8,173 260.8,171.3 276.6,188.3 		"/>
		<polygon class="st5" points="291.6,187.6 275.6,170.7 275.6,169 291.6,185.8 		"/>
		<polygon class="st5" points="306.6,185.2 290.3,168.5 290.3,166.7 306.6,183.4 		"/>
		<polygon class="st5" points="321.3,182.8 304.8,166.2 304.8,164.5 321.3,181.1 		"/>
		<polygon class="st5" points="336.2,180.4 319.4,163.9 319.4,162.2 336.2,178.7 		"/>
		<polygon class="st5" points="357.9,177 340.7,160.6 340.7,158.9 357.9,175.2 		"/>
		<polygon class="st5" points="365.2,175.8 354.1,165.3 354.1,163.5 365.2,174 		"/>
		<polygon class="st5" points="393.9,171.2 382.4,160.8 382.4,159.1 393.9,169.4 		"/>
		<polygon class="st5" points="408,168.9 396.4,158.6 396.4,156.9 408,167.2 		"/>
		<polygon class="st4" points="138.4,221.7 137.3,220.1 351.6,185.3 351.6,187.1 		"/>
		<polygon class="st5" points="395,156.1 390.3,151.9 390.3,150.1 396.7,155.8 		"/>
		<polygon class="st5" points="422.2,166.6 403.8,150.8 403.8,149 422.2,164.9 		"/>
		<polygon class="st5" points="436.3,164.4 417.7,148.6 417.7,146.9 436.3,162.6 		"/>
		<polygon class="st5" points="445.4,170.8 438.6,165 438.6,163.3 445.4,169.1 		"/>
		<polygon class="st4" points="405.8,193.2 404.2,191.7 445.3,184.9 445.3,186.7 		"/>
		<polygon class="st4" points="363,185.2 361.4,183.7 387.9,179.4 387.9,181.2 		"/>
		<polygon class="st4" points="358.3,193.6 358.3,191.8 365.7,190.6 365.7,192.3 		"/>
		<polygon class="st5" points="424,181.7 417,175.5 417,173.7 424,179.9 		"/>
		<polygon class="st5" points="460,190.6 445.5,178.2 445.5,176.4 460,188.8 		"/>
		<polygon class="st5" points="472.9,202.9 459.7,191.6 459.7,189.9 472.9,201.2 		"/>
		<polygon class="st5" points="452.5,192.9 445.3,186.7 445.3,184.9 452.5,191.1 		"/>
		<polygon class="st5" points="450.8,206.7 430.8,189.1 430.8,187.3 450.8,204.9 		"/>
		<polygon class="st5" points="436.1,209.2 416.4,191.4 416.4,189.7 436.1,207.5 		"/>
		<polygon class="st5" points="421.2,211.8 387.9,181.2 387.9,179.4 421.2,210 		"/>
		<polygon class="st5" points="406.3,214.3 373.5,183.5 373.5,181.8 406.3,212.6 		"/>
		<polygon class="st5" points="366,191.3 359.3,184.8 359.3,183.1 366,189.5 		"/>
		<polygon class="st5" points="358.3,193.6 351.6,187.1 351.6,185.3 358.3,191.8 		"/>
		<polygon class="st5" points="391.3,216.9 365.7,192.3 365.7,190.6 391.3,215.2 		"/>
		<polygon class="st5" points="376.1,219.5 344.2,188.3 344.2,186.5 376.1,217.8 		"/>
		<polygon class="st5" points="360.5,222.2 329.2,190.7 329.2,189 360.5,220.4 		"/>
		<polygon class="st5" points="345.1,224.8 314.3,193.1 314.3,191.4 345.1,223.1 		"/>
		<polygon class="st5" points="329.5,227.5 299.2,195.6 299.2,193.8 329.5,225.7 		"/>
		<polygon class="st5" points="313.8,230.2 284,198 284,196.3 313.8,228.4 		"/>
		<polygon class="st5" points="298.2,232.9 268.9,200.5 268.9,198.7 298.2,231.1 		"/>
		<polygon class="st5" points="282.2,235.6 253.4,203 253.4,201.3 282.2,233.9 		"/>
		<polygon class="st5" points="266.1,238.4 237.9,205.5 237.9,203.8 266.1,236.6 		"/>
		<polygon class="st5" points="249.9,241.2 222.2,208.1 222.2,206.3 249.9,239.4 		"/>
		<polygon class="st5" points="233.7,243.9 206.6,210.6 206.6,208.8 233.7,242.2 		"/>
		<polygon class="st4" points="104.2,250.8 103.1,249.3 190.1,234.7 190.1,236.4 		"/>
		<polygon class="st5" points="217.3,246.7 190.8,213.2 190.8,211.4 217.3,245 		"/>
		<polygon class="st5" points="183.8,228.2 174.3,215.8 174.3,214.1 183.8,226.4 		"/>
		<polygon class="st5" points="190.5,235.3 185.6,228.9 185.6,227.1 190.5,233.6 		"/>
		<polygon class="st5" points="200.2,249.7 190.1,236.4 190.1,234.7 200.2,247.9 		"/>
		<polygon class="st5" points="185.7,252.2 175.8,238.8 175.8,237.1 185.7,250.4 		"/>
		<polygon class="st5" points="172.6,254.4 162.9,241 162.9,239.2 172.6,252.7 		"/>
		<polygon class="st5" points="160.3,256.5 150.7,243 150.7,241.3 160.3,254.8 		"/>
		<polygon class="st5" points="147.3,258.8 137.9,245.2 137.9,243.4 147.3,257 		"/>
		<polygon class="st5" points="134.5,260.9 125.3,247.3 125.3,245.5 134.5,259.2 		"/>
		<polygon class="st5" points="149.8,229.5 143.5,220.8 143.5,219.1 149.8,227.8 		"/>
		<polygon class="st5" points="143,231.7 135.5,221.1 135.5,219.4 143,229.9 		"/>
		<polygon class="st5" points="154.3,234.1 151.5,230.3 151.5,228.5 154.3,232.3 		"/>
		<polygon class="st5" points="495,199.1 431.7,146.5 431.7,144.7 495,197.4 		"/>
		<polygon class="st4" points="420.9,175.8 419.2,174.4 459.5,167.8 459.5,169.6 		"/>
		<polygon class="st4" points="456.8,184.8 455.1,183.3 474.3,180.2 474.3,181.9 		"/>
		<polygon class="st4" points="452.5,192.9 452.5,191.1 459.7,189.9 459.7,191.6 		"/>
		<polygon class="st4" points="438.6,165 101.3,219.2 100.3,217.6 438.6,163.3 		"/>
		<polygon class="st4" points="357.2,171.7 355.6,170.2 360.4,169.5 360.4,171.2 		"/>
		<polygon class="st4" points="187.8,196.9 187.8,198.6 183.7,199.3 182.5,197.7 		"/>
		<polygon class="st4" points="127.7,202.9 127.7,204.7 127,204.8 125.9,203.2 		"/>
		<polygon class="st5" points="443.2,177.5 438,173.1 438,171.3 443.2,175.8 		"/>
		<polygon class="st5" points="428.9,179.9 423.8,175.4 423.8,173.6 428.9,178.1 		"/>
		<polygon class="st4" points="143,231.7 143,229.9 151.5,228.5 151.5,230.3 		"/>
		<polygon class="st4" points="154.3,234.1 154.3,232.3 185.6,227.1 185.6,228.9 		"/>
		<polygon class="st4" points="90.2,229.1 89.2,227.5 104.2,225.1 104.2,226.9 		"/>
		<polygon class="st4" points="97.3,240.2 96.3,238.6 111.5,236.1 111.5,237.9 		"/>
		<polygon class="st4" points="111.5,265.9 111.5,264.1 497.3,198 497.3,199.7 		"/>
		<polygon class="st4" points="424,181.7 424,179.9 445.5,176.4 445.5,178.2 		"/>
		<g>
			<path class="st0" d="M86.3,198.4l16.6,24.9L88,225.7l-16.1-25.1L86.3,198.4 M86.7,197.3l-16.5,2.6l17.3,26.9l17.1-2.8L86.7,197.3
				L86.7,197.3z"/>
			<path class="st0" d="M100.7,196.2l12.6,18.3l-12.6,2l-12.3-18.4L100.7,196.2 M101.2,195.1l-14.4,2.2l13.5,20.2l14.8-2.4
				L101.2,195.1L101.2,195.1z"/>
			<path class="st0" d="M116.7,193.7l12.9,18.2l-14.1,2.3l-12.6-18.3L116.7,193.7 M117.2,192.6l-16,2.5l13.8,20.1l16.3-2.6
				L117.2,192.6L117.2,192.6z"/>
			<path class="st0" d="M120.7,193.1l5.8,8l-1.8,0.3l-5.7-8L120.7,193.1 M121.1,192l-4,0.6l7,9.9l4-0.6L121.1,192L121.1,192z"/>
			<path class="st0" d="M132.3,191.2l13.2,18l-9.7,1.6l-13-18.1L132.3,191.2 M132.8,190.2l-11.7,1.8l14.3,19.9l11.9-1.9L132.8,190.2
				L132.8,190.2z"/>
			<path class="st0" d="M162.4,186.6l13.8,17.8l-28.4,4.6l-13.2-18L162.4,186.6 M162.8,185.5l-30,4.7l14.6,19.8l30.7-4.9
				L162.8,185.5L162.8,185.5z"/>
			<path class="st0" d="M170.2,185.4l14,17.7l-5.7,0.9l-13.8-17.8L170.2,185.4 M170.6,184.3l-7.8,1.2l15.2,19.6l8-1.3L170.6,184.3
				L170.6,184.3z"/>
			<path class="st0" d="M187.8,196.9l4,5l-5.4,0.9l-3.9-5L187.8,196.9 M188.2,195.8l-7.6,1.2l5.4,6.8l7.6-1.2L188.2,195.8
				L188.2,195.8z"/>
			<path class="st0" d="M185.6,183l14.3,17.6l-5.8,0.9l-5.1-6.3l-0.4-0.5l-0.6,0.1l-7,1.1l-8.6-10.9l5.8-0.9l3.1-0.5L185.6,183
				 M186,181.9l-4.8,0.7l-3.1,0.5l-7.5,1.2l10.1,12.7l7.6-1.2l5.4,6.8l8.1-1.3L186,181.9L186,181.9z"/>
			<path class="st0" d="M200.8,180.6l14.6,17.5l-13.2,2.1l-14.3-17.6L200.8,180.6 M201.2,179.5l-15.2,2.4l15.8,19.4l15.5-2.5
				L201.2,179.5L201.2,179.5z"/>
			<path class="st0" d="M216,178.2l14.9,17.3l-13.2,2.1l-14.6-17.3L216,178.2 M216.4,177.2l-15.2,2.4l16.1,19.3l15.6-2.5
				L216.4,177.2L216.4,177.2z"/>
			<path class="st0" d="M231,175.9l15.2,17.2l-13,2.1l-14.9-17.3L231,175.9 M231.4,174.8l-15,2.3l16.4,19.1l15.4-2.5L231.4,174.8
				L231.4,174.8z"/>
			<path class="st0" d="M246.1,173.6l15.5,17.1l-13,2.1l-15.2-17.2L246.1,173.6 M246.5,172.5l-15.1,2.3l16.7,19l15.4-2.5
				L246.5,172.5L246.5,172.5z"/>
			<path class="st0" d="M260.8,171.3l15.8,17l-12.6,2l-15.5-17.1L260.8,171.3 M261.2,170.2l-14.7,2.3l17.1,18.9l15-2.4L261.2,170.2
				L261.2,170.2z"/>
			<path class="st0" d="M275.6,169l16,16.9l-12.6,2l-15.7-17L275.6,169 M275.9,167.9l-14.7,2.3l17.4,18.7l15-2.4L275.9,167.9
				L275.9,167.9z"/>
			<path class="st0" d="M290.3,166.7l16.3,16.7l-12.6,2l-16-16.9L290.3,166.7 M290.6,165.6l-14.7,2.3l17.7,18.6l15-2.4L290.6,165.6
				L290.6,165.6z"/>
			<path class="st0" d="M304.8,164.5l16.6,16.6l-12.3,2l-16.3-16.7L304.8,164.5 M305.1,163.4l-14.5,2.2l18,18.5l14.8-2.4
				L305.1,163.4L305.1,163.4z"/>
			<path class="st0" d="M319.4,162.2l16.8,16.5l-12.5,2l-16.6-16.6L319.4,162.2 M319.8,161.1l-14.7,2.3l18.3,18.4l14.9-2.4
				L319.8,161.1L319.8,161.1z"/>
			<path class="st0" d="M340.7,158.9l17.2,16.3l-19.2,3.1l-16.8-16.5L340.7,158.9 M341,157.8l-21.3,3.3l18.6,18.2l21.7-3.5
				L341,157.8L341,157.8z"/>
			<path class="st0" d="M360.4,169.5l4.8,4.5l-4.8,0.8l-4.8-4.6L360.4,169.5 M360.7,168.4l-7.3,1.2l6.6,6.3l7.3-1.2L360.7,168.4
				L360.7,168.4z"/>
			<path class="st0" d="M354.1,163.5l4.5,4.2l-4.8,0.8l-4.5-4.2L354.1,163.5 M354.4,162.5l-7.2,1.1l6.3,6l7.3-1.2L354.4,162.5
				L354.4,162.5z"/>
			<path class="st0" d="M382.4,159.1l11.5,10.3l-26.2,4.2l-11.2-10.5L382.4,159.1 M382.7,158l-28.3,4.5l13,12.2l28.7-4.6L382.7,158
				L382.7,158z"/>
			<path class="st0" d="M396.4,156.9l11.6,10.3l-11.6,1.9l-11.5-10.3L396.4,156.9 M396.7,155.8l-14,2.2l13.4,12.1l14.1-2.3
				L396.7,155.8L396.7,155.8z"/>
			<path class="st0" d="M403.8,149l18.3,15.8l-11.6,1.9l-18.1-15.9L403.8,149 M404.2,148l-13.9,2.2l20,17.7l14.2-2.3L404.2,148
				L404.2,148z"/>
			<path class="st0" d="M417.7,146.9l18.5,15.7l-11.5,1.9l-18.3-15.8L417.7,146.9 M418,145.8l-13.9,2.2l20.3,17.5l14.1-2.3
				L418,145.8L418,145.8z"/>
			<path class="st0" d="M431.7,144.7l25.7,21.4l-11.7,1.9l-25.4-21.5L431.7,144.7 M432,143.7l-14,2.2l27.4,23.3l14.3-2.3L432,143.7
				L432,143.7z"/>
			<path class="st0" d="M459.5,167.8l12.8,10.6l-19.1,3.2l-12.5-10.7L459.5,167.8 M459.8,166.8l-21.4,3.5l14.5,12.4l21.7-3.6
				L459.8,166.8L459.8,166.8z"/>
			<path class="st0" d="M474.3,180.2l20.7,17.2l-19.5,3.3l-20.4-17.4L474.3,180.2 M474.6,179.1l-21.7,3.6l22.3,19.1l22.1-3.8
				L474.6,179.1L474.6,179.1z"/>
			<path class="st0" d="M445.3,184.9l6.8,5.9l0.4,0.3l0.5-0.1l6.8-1.1l13.1,11.3l-5.3,0.9l-3.7,0.6l-10.6,1.8l-20-17.6L445.3,184.9
				 M445.6,183.8l-14.4,2.4l21.9,19.3l11-1.9l3.7-0.6l7.4-1.3l-15.1-12.9l-7.3,1.2L445.6,183.8L445.6,183.8z"/>
			<path class="st0" d="M430.8,187.3l20,17.6l-12.2,2.1l-19.7-17.7L430.8,187.3 M431.2,186.2l-14.4,2.4l21.6,19.5l14.7-2.5
				L431.2,186.2L431.2,186.2z"/>
			<path class="st0" d="M416.4,189.7l19.7,17.8l-12.5,2.1l-19.4-17.9L416.4,189.7 M416.7,188.6L402,191l21.3,19.6l15-2.6
				L416.7,188.6L416.7,188.6z"/>
			<path class="st0" d="M387.9,179.4l33.3,30.6l-12.4,2.1L376,181.4L387.9,179.4 M388.2,178.4l-14.4,2.3l34.6,32.5l14.9-2.6
				L388.2,178.4L388.2,178.4z"/>
			<path class="st0" d="M373.5,181.8l32.8,30.8l-12.6,2.2l-32.3-31L373.5,181.8 M373.8,180.7l-14.5,2.4l34.1,32.7l15-2.6
				L373.8,180.7L373.8,180.7z"/>
			<path class="st0" d="M351.6,185.3l6.3,6.1l0.4,0.4l0.5-0.1l6.9-1.1l25.6,24.6l-5.6,1l-3.3,0.6l-3.9,0.7l-31.8-31.2L351.6,185.3
				 M351.9,184.3l-7.4,1.2l33.6,33l4.4-0.8l3.3-0.6l7.6-1.3L366,189.5l-7.4,1.2L351.9,184.3L351.9,184.3z"/>
			<path class="st0" d="M344.2,186.5l31.8,31.2l-13.1,2.3l-31.3-31.4L344.2,186.5 M344.6,185.5l-15,2.4l33.1,33.2l15.6-2.7
				L344.6,185.5L344.6,185.5z"/>
			<path class="st0" d="M329.2,189l31.3,31.5l-13,2.2L316.7,191L329.2,189 M329.5,187.9l-14.9,2.4l32.5,33.4l15.4-2.6L329.5,187.9
				L329.5,187.9z"/>
			<path class="st0" d="M314.3,191.4l30.8,31.7l-13.3,2.3l-30.2-32L314.3,191.4 M314.7,190.3l-15.1,2.5l32,33.7l15.7-2.7
				L314.7,190.3L314.7,190.3z"/>
			<path class="st0" d="M299.2,193.8l30.3,31.9l-13.3,2.3l-29.8-32.1L299.2,193.8 M299.5,192.8l-15.1,2.5l31.4,33.9l15.7-2.7
				L299.5,192.8L299.5,192.8z"/>
			<path class="st0" d="M284,196.3l29.8,32.1l-13.3,2.3l-29.3-32.3L284,196.3 M284.4,195.2l-15.1,2.5l30.9,34.1l15.7-2.7
				L284.4,195.2L284.4,195.2z"/>
			<path class="st0" d="M268.9,198.7l29.3,32.4l-13.7,2.4l-28.7-32.6L268.9,198.7 M269.3,197.7l-15.5,2.5l30.3,34.4l16.1-2.8
				L269.3,197.7L269.3,197.7z"/>
			<path class="st0" d="M253.4,201.3l28.8,32.6l-13.7,2.4l-28.3-32.9L253.4,201.3 M253.8,200.2l-15.5,2.5l29.7,34.6l16.1-2.8
				L253.8,200.2L253.8,200.2z"/>
			<path class="st0" d="M237.9,203.8l28.2,32.9l-14,2.4L224.5,206L237.9,203.8 M238.3,202.7l-15.7,2.5l29.1,34.9l16.3-2.8
				L238.3,202.7L238.3,202.7z"/>
			<path class="st0" d="M222.2,206.3l27.7,33.1l-13.9,2.4l-27.1-33.3L222.2,206.3 M222.6,205.2l-15.6,2.5l28.5,35.1l16.2-2.8
				L222.6,205.2L222.6,205.2z"/>
			<path class="st0" d="M206.6,208.8l27.1,33.3l-14.2,2.4L193,210.9L206.6,208.8 M207,207.8l-15.8,2.6l27.9,35.4l16.4-2.8L207,207.8
				L207,207.8z"/>
			<path class="st0" d="M190.8,211.4l26.5,33.6l-14.8,2.5l-25.9-33.8L190.8,211.4 M191.2,210.3l-16.4,2.7l27.3,35.6l17.1-2.9
				L191.2,210.3L191.2,210.3z"/>
			<path class="st0" d="M190.1,234.7l10.1,13.2l-12.3,2.1l-9.9-13.3L190.1,234.7 M190.5,233.6l-14.3,2.4l11.3,15.1l14.5-2.5
				L190.5,233.6L190.5,233.6z"/>
			<path class="st0" d="M175.8,237.1l9.9,13.3l-10.9,1.9l-9.8-13.4L175.8,237.1 M176.2,236l-12.9,2.2l11.1,15.2l13.1-2.2L176.2,236
				L176.2,236z"/>
			<path class="st0" d="M162.9,239.2l9.8,13.4l-10.2,1.7l-9.6-13.5L162.9,239.2 M163.3,238.2l-12.2,2l10.9,15.3l12.4-2.1
				L163.3,238.2L163.3,238.2z"/>
			<path class="st0" d="M150.7,241.3l9.6,13.5l-10.8,1.9l-9.4-13.6L150.7,241.3 M151.1,240.2l-12.8,2.1l10.7,15.4l13-2.2
				L151.1,240.2L151.1,240.2z"/>
			<path class="st0" d="M137.9,243.4l9.4,13.6l-10.6,1.8l-9.2-13.6L137.9,243.4 M138.3,242.3l-12.6,2.1l10.5,15.5l12.8-2.2
				L138.3,242.3L138.3,242.3z"/>
			<path class="st0" d="M125.3,245.5l9.2,13.7l-22.5,3.9l-8.9-13.8L125.3,245.5 M125.8,244.4l-24.3,4.1l10.1,15.6l24.7-4.2
				L125.8,244.4L125.8,244.4z"/>
			<path class="st0" d="M111.5,236.1l5.8,8.7l-15.4,2.6l-5.7-8.8L111.5,236.1 M112,235l-17.4,2.9l6.8,10.6l17.6-2.9L112,235L112,235
				z"/>
			<path class="st0" d="M104.2,225.1l6.1,9.2l-15.2,2.5l-6-9.3L104.2,225.1 M104.7,224l-17.1,2.8l7.1,11.1l17.4-2.9L104.7,224
				L104.7,224z"/>
			<path class="st0" d="M174.3,214.1l9.4,12.3l-29,4.8l-9-12.5L174.3,214.1 M174.7,213l-30.8,5l10.3,14.3l31.3-5.2L174.7,213
				L174.7,213z"/>
			<path class="st0" d="M143.5,219.1l6.3,8.7l-6.3,1l-6.2-8.7L143.5,219.1 M143.9,218l-8.4,1.4L143,230l8.5-1.4L143.9,218L143.9,218
				z"/>
			<path class="st0" d="M438,171.3l5.2,4.5l-11.7,1.9l-5.2-4.5L438,171.3 M438.3,170.2l-14.2,2.3l7.1,6.2l14.3-2.4L438.3,170.2
				L438.3,170.2z"/>
			<path class="st0" d="M423.8,173.6l5.2,4.5l-4.6,0.8l-5.1-4.5L423.8,173.6 M424.1,172.6l-7.1,1.2l7.1,6.2l7.2-1.2L424.1,172.6
				L424.1,172.6z"/>
			<path class="st0" d="M127.7,202.9l5.9,8.3l-1.8,0.3l-5.9-8.3L127.7,202.9 M128.2,201.8l-4,0.6l7.2,10.1l4-0.6L128.2,201.8
				L128.2,201.8z"/>
		</g>
		<text transform="matrix(1 0 0 1 -8.048 177.7017)" class="st6 st7 st8">Level 4</text>
	</g>
</g>
<g id="Level_0">
	<g>
		<g>
			<path class="st0" d="M434.9,389.2c-0.5,0-1.1,0-1.7,0.1l-108.9,16.5l-56.8,8.6L71.2,444.3c-3.7,0.6-6.8,2.9-8.4,6.3
				c-1.6,3.4-1.3,7.3,0.8,10.5l16.1,25.2l4.9,7.7l20,31.3c2,3.2,5.6,5.1,9.3,5.1c0.6,0,1.2-0.1,1.9-0.2l85.6-14.6l124.4-21.3
				l45.8-7.8l130.1-22.2c4.2-0.7,7.7-3.9,8.8-8c1.1-4.2-0.3-8.6-3.7-11.3l-39.4-32.3l-25.6-21C439.9,390.1,437.4,389.2,434.9,389.2
				L434.9,389.2z"/>
		</g>
	</g>
	<polygon class="st4" points="434.6,401.3 75.5,455.8 74.5,454.2 434.6,399.5 	"/>
	<polygon class="st5" points="114,519.5 72.8,455.2 72.8,453.4 114,517.7 	"/>
	<polygon class="st5" points="497.6,452.9 434.6,401.3 434.6,399.5 497.6,451.2 	"/>
	<polygon class="st4" points="499.9,453.5 114,519.5 114,517.7 499.9,451.8 	"/>
	<polygon class="st3" points="497.6,452.9 115.1,518.4 74.5,455.8 434.6,401.3 	"/>
</g>
</svg>
