<?xml version="1.0" encoding="utf-8"?>
<!-- Generator: Adobe Illustrator 22.0.1, SVG Export Plug-In . SVG Version: 6.00 Build 0)  -->
<svg version="1.1" id="Layer_1" xmlns="http://www.w3.org/2000/svg" xmlns:xlink="http://www.w3.org/1999/xlink" x="0px" y="0px"
	 viewBox="0 0 554.7 537.7" style="enable-background:new 0 0 554.7 537.7;" xml:space="preserve">
<style type="text/css">
	.st0{fill:#B8C1C1;}
	.st1{fill:#BCBCBB;}
	.st2{fill:#9B9C9D;}
	.st3{fill:#B7B8AB;}
	.st4{fill:#CAD4D4;}
	.st5{fill:#CBD5D4;}
	.st6{display:none;enable-background:new    ;}
	.st7{font-family:'BlissPro';}
	.st8{font-size:18px;}
</style>
<g id="Level_0">
	<g>
		<g>
			<path class="st0" d="M432.4,390.6c-0.5,0-1.1,0-1.7,0.1l-108.9,16.5l-56.8,8.6L68.7,445.7c-3.7,0.6-6.8,2.9-8.4,6.3
				s-1.3,7.3,0.8,10.5l16.1,25.2l4.9,7.7l20,31.3c2,3.2,5.6,5.1,9.3,5.1c0.6,0,1.2-0.1,1.9-0.2l85.6-14.6l124.4-21.3l45.8-7.8
				l130.1-22.2c4.2-0.7,7.7-3.9,8.8-8c1.1-4.2-0.3-8.6-3.7-11.3l-39.4-32.3l-25.6-21C437.4,391.5,434.9,390.6,432.4,390.6
				L432.4,390.6z"/>
		</g>
	</g>
	<polygon class="st1" points="432.1,402.7 73,457.2 72,455.6 432.1,400.9 	"/>
	<polygon class="st2" points="111.5,520.9 70.3,456.6 70.3,454.8 111.5,519.1 	"/>
	<polygon class="st2" points="495.1,454.3 432.1,402.7 432.1,400.9 495.1,452.6 	"/>
	<polygon class="st1" points="497.4,454.9 111.5,520.9 111.5,519.1 497.4,453.2 	"/>
	<polygon class="st3" points="495.1,454.3 112.6,519.8 72,457.2 432.1,402.7 	"/>
</g>
<g id="Level_2">
	<g>
		<g>
			<g>
				<path class="st0" d="M428,306.8c-0.5,0-1.1,0-1.7,0.1l-108.9,16.5l-56.8,8.6L64.3,361.9c-3.7,0.6-6.8,2.9-8.4,6.3
					s-1.3,7.3,0.8,10.5l16.1,25.2l4.9,7.7l20,31.3c2,3.2,5.6,5.1,9.3,5.1c0.6,0,1.2-0.1,1.9-0.2l85.6-14.6l124.4-21.3l45.8-7.8
					l130.1-22.2c4.2-0.7,7.7-3.9,8.8-8c1.1-4.2-0.3-8.6-3.7-11.3l-39.4-32.3l-25.6-21C433,307.7,430.5,306.8,428,306.8L428,306.8z"
					/>
			</g>
		</g>
		<g>
			<polygon class="st4" points="342.1,356.6 453.6,338.9 428,317.8 319,334.4 			"/>
		</g>
		<polygon class="st5" points="342.1,356.6 453.6,338.9 428,317.8 319,334.4 		"/>
		<g>
			<polygon class="st4" points="327.9,358.9 453.6,338.9 493,371.1 362.9,393.4 			"/>
		</g>
		<polygon class="st5" points="327.9,358.9 453.6,338.9 493,371.1 362.9,393.4 		"/>
		<g>
			<polygon class="st4" points="327.9,358.9 283.8,365.9 317.1,401.2 362.9,393.4 			"/>
		</g>
		<polygon class="st5" points="327.9,358.9 283.8,365.9 317.1,401.2 362.9,393.4 		"/>
		<g>
			<polygon class="st3" points="262.2,343 65.9,372.8 82.1,398 87,405.7 169.8,392.4 192.7,422.5 317.1,401.2 290.4,372.9 
				283.8,365.9 342.1,356.6 319,334.4 			"/>
		</g>
		<g>
			<polygon class="st4" points="169.8,392.4 87,405.7 107.1,437.1 192.7,422.5 			"/>
		</g>
		<g>
			<polygon class="st4" points="169.8,392.4 87,405.7 107.1,437.1 192.7,422.5 			"/>
		</g>
		<polygon class="st5" points="169.8,392.4 87,405.7 107.1,437.1 192.7,422.5 		"/>
		<polygon class="st1" points="427.7,318.9 68.6,373.4 67.6,371.8 427.7,317.1 		"/>
		<polygon class="st1" points="453.3,339.9 287.3,366.4 285.8,364.8 453.3,338.2 		"/>
		<polygon class="st1" points="169.4,393.5 89.7,406.3 88.7,404.7 169.4,391.7 		"/>
		<polygon class="st2" points="107.1,437.1 65.9,372.8 65.9,371 107.1,435.3 		"/>
		<polygon class="st2" points="190.9,421.7 169.4,393.5 169.4,391.7 190.9,420 		"/>
		<polygon class="st2" points="315.1,400.5 281.8,365.2 281.8,363.5 315.1,398.8 		"/>
		<polygon class="st2" points="360.8,392.7 327.6,359.9 327.6,358.2 360.8,391 		"/>
		<polygon class="st2" points="338.4,354.4 318.7,335.4 318.7,333.7 339.9,354.2 		"/>
		<polygon class="st2" points="490.7,370.5 427.7,318.9 427.7,317.1 490.7,368.8 		"/>
		<g>
			<path class="st0" d="M427.7,317.1l23.6,19.3l-108.9,17.4l-21.2-20.5L427.7,317.1 M428,316.1l-109,16.5l23,22.2L453.6,337
				L428,316.1L428,316.1z"/>
			<path class="st0" d="M453.3,338.2l37.3,30.6l-127.5,21.8L330,357.8L453.3,338.2 M453.6,337.1l-125.7,20l35,34.5L493,369.4
				L453.6,337.1L453.6,337.1z"/>
			<path class="st0" d="M327.6,358.2l33.2,32.8l-43.3,7.4l-31.7-33.6L327.6,358.2 M327.9,357.1l-44.1,7l33.3,35.3l45.8-7.8
				L327.9,357.1L327.9,357.1z"/>
			<path class="st0" d="M318.7,333.7l21.2,20.5l-56.3,9l-1.9,0.3l1.3,1.4l6.6,7l25.4,26.9l-122,20.8L170.5,390l-0.4-0.5l-0.6,0.1
				l-82.1,13.3l-4.6-7.2l-15.2-23.9l194.7-29.6L318.7,333.7 M319,332.6l-56.8,8.6L65.9,371L82,396.3l4.9,7.7l82.8-13.4l22.9,30.1
				L317,399.4l-26.7-28.3l-6.6-7l58.2-9.3L319,332.6L319,332.6z"/>
			<path class="st0" d="M169.4,391.7l21.5,28.3l-83.3,14.2l-18.9-29.5L169.4,391.7 M169.8,390.6L87,404l20,31.3l85.6-14.6
				L169.8,390.6L169.8,390.6z"/>
		</g>
		<polygon class="st1" points="493,371.1 107.1,437.1 107.1,435.3 493,369.4 		"/>
		<text transform="matrix(1 0 0 1 -12.075 352.3107)" class="st6 st7 st8">Level 2</text>
	</g>
</g>
<g id="Level_3">
	<g>
		<text transform="matrix(1 0 0 1 -12.075 265.1404)" class="st6 st7 st8">Level 3</text>
		<g>
			<g>
				<path class="st0" d="M500.2,278.7l-15.8-13.2l-21.6-18l-27.6-23.1c-2-1.7-4.5-2.6-7.1-2.6c-0.6,0-1.1,0-1.7,0.1l-13.7,2.1
					l-13.7,2.1l-13.7,2.1c-4.2,0.6-7.7,3.7-8.9,7.8c0,0.1,0,0.2-0.1,0.3l-26.7,4.2l-1.9,0.3l-2.3-2.2c-2.1-2-4.8-3-7.6-3
					c-0.6,0-1.1,0-1.7,0.1l-14.2,2.2l-14.3,2.2l-14.5,2.2l-14.5,2.2l-14.4,2.2l-14.6,2.3l-15.1,2.3l-14.8,2.3l-22.7,3.5l-15.4,2.4
					l-15.3,2.4l-7.9,1.2c-3.9,0.6-7.1,3.2-8.6,6.8c-0.2,0.5-0.4,1.1-0.5,1.7l-17.1,2.7l-9.2,1.4l-0.7-1c-2.1-2.9-5.4-4.6-8.9-4.6
					c-0.6,0-1.1,0-1.7,0.1l-16,2.5l-16.1,2.5l-15.9,2.6c-3.7,0.6-6.8,3-8.4,6.4c-1.5,3.4-1.2,7.4,0.8,10.5L74,322.2l24.3,37.2
					c2.1,3.1,5.5,5,9.2,5c0.6,0,1.2-0.1,1.9-0.2l17.3-3l17.4-3l16.8-2.9l18.9-3.2l6.4-1.1l8.7-1.5l8.2-1.4l6.3-1.1l18.4-3.2l16-2.7
					l16.2-2.8l16.2-2.8l0.6-0.1l15.2-2.6l85.2-14.6l19.1-3.3l17.4-3l1.3-0.2l14.8-2.5l22-3.8l6.9-1.2l36.5-6.3
					c4.2-0.7,7.6-3.8,8.8-8C504.9,285.9,503.5,281.5,500.2,278.7z"/>
			</g>
		</g>
		<path class="st3" d="M477.4,274l-21.6-18l-27.6-23.1l-13.7,2.1l-13.7,2.1l-13.7,2.1l6.4,5.6l-14.1,2.2l-27.9,4.3l-7.2,1.1
			l-6.2-5.9l-14.2,2.2l-14.3,2.2l-14.5,2.2l-14.5,2.2l-14.4,2.2l-14.6,2.3l-15.1,2.3l-14.8,2.3L199,268l-15.4,2.4l-15.3,2.4
			l-7.9,1.2l5,6.3l-31.1,4.9l-15.9,2.5l0,0l-4.6-6.5l-16,2.5l-16.1,2.5l-16.1,2.5l17.9,27.5l0,0l24.3,37.2l17.3-3l17.4-3l16.8-2.9
			l18.9-3.2l6.4-1.1l8.7-1.5l8.2-1.4l6.3-1.1l18.4-3.2l16-2.7l0,0l16.2-2.8l0,0l16.2-2.8l0.6-0.1l15.2-2.6l85.2-14.6l19.1-3.3l0,0
			l17.4-3l1.3-0.2l14.8-2.5l22-3.8l6.9-1.2l36.5-6.3L477.4,274z"/>
		<polygon class="st4" points="95,306 78.5,308.6 65.1,288.1 81.3,285.6 		"/>
		<polygon class="st4" points="95,306 111.5,303.4 97.4,283.1 81.3,285.6 		"/>
		<polygon class="st4" points="127.8,300.8 111.5,303.4 97.4,283.1 113.3,280.7 		"/>
		<polygon class="st4" points="127.8,300.8 143.9,298.2 133.9,284.7 118,287.1 		"/>
		<polygon class="st4" points="175.5,293.1 143.9,298.2 133.9,284.7 165,279.8 		"/>
		<polygon class="st4" points="175.5,293.1 183.6,291.8 168,272.3 160,273.5 		"/>
		<polygon class="st4" points="199.2,289.4 215,286.8 198.7,267.5 183.2,269.9 		"/>
		<polygon class="st4" points="232.4,276.6 209.4,280.2 198.7,267.5 221.4,264 		"/>
		<polygon class="st4" points="238.2,283.1 253.2,280.7 236.2,261.7 221.4,264 		"/>
		<polygon class="st4" points="268.7,278.3 253.2,280.7 236.2,261.7 251.3,259.4 		"/>
		<polygon class="st4" points="268.7,278.3 283.6,275.9 265.9,257.2 251.3,259.4 		"/>
		<polygon class="st4" points="298.3,273.5 283.6,275.9 265.9,257.2 280.4,254.9 		"/>
		<polygon class="st4" points="298.3,273.5 313.2,271.2 294.9,252.7 280.4,254.9 		"/>
		<polygon class="st4" points="327.9,268.8 313.2,271.2 294.9,252.7 309.4,250.5 		"/>
		<polygon class="st4" points="327.9,268.8 342.5,266.5 323.7,248.3 309.4,250.5 		"/>
		<polygon class="st4" points="356.9,264.2 342.5,266.5 323.7,248.3 337.9,246.1 		"/>
		<polygon class="st4" points="350.5,258 357.7,256.9 351.3,250.8 344.1,252 		"/>
		<polygon class="st4" points="350.5,258 357.7,256.9 364.2,263 356.9,264.2 		"/>
		<polygon class="st4" points="379.2,246.5 351.3,250.8 364.2,263 392.5,258.5 		"/>
		<polygon class="st4" points="379.2,246.5 393.3,244.3 406.8,256.2 392.5,258.5 		"/>
		<polygon class="st4" points="400.6,236.5 386.9,238.6 406.8,256.2 420.8,254 		"/>
		<polygon class="st4" points="400.6,236.5 414.3,234.4 434.7,251.8 420.8,254 		"/>
		<polygon class="st4" points="428,232.3 414.3,234.4 441.6,257.7 455.7,255.4 		"/>
		<polygon class="st4" points="477.2,273.4 462.9,275.8 441.6,257.7 455.7,255.4 		"/>
		<polygon class="st4" points="477.2,273.4 455.8,277 471.3,290.3 493,286.6 		"/>
		<polygon class="st4" points="427.5,274.5 448.8,271 471.3,290.3 449.6,294 		"/>
		<polygon class="st4" points="427.5,274.5 405.9,278.1 427.6,297.8 449.6,294 		"/>
		<polygon class="st4" points="391.5,280.5 405.9,278.1 427.6,297.8 412.8,300.3 		"/>
		<polygon class="st4" points="378,267.9 341.4,273.8 375.1,306.8 412.8,300.3 		"/>
		<polygon class="st4" points="243.8,289.6 341.4,273.8 375.1,306.8 274.1,324.1 		"/>
		<polygon class="st4" points="243.8,289.6 228.2,292.1 239.7,305.6 255.5,303 		"/>
		<polygon class="st4" points="274.1,324.1 257.9,326.9 239.7,305.6 255.5,303 		"/>
		<polygon class="st4" points="241.7,329.7 257.9,326.9 245.2,312 229.3,314.7 		"/>
		<polygon class="st4" points="241.7,329.7 225.7,332.4 208.2,310.8 223.8,308.2 		"/>
		<polygon class="st4" points="158.7,344 142,346.8 116.4,310.2 132.5,307.6 		"/>
		<polygon class="st4" points="124.6,349.8 142,346.8 116.4,310.2 99.7,312.9 		"/>
		<polygon class="st4" points="124.6,349.8 107.3,352.8 83.1,315.6 99.7,312.9 		"/>
		<polygon class="st4" points="212.5,294.6 197.1,297.1 208.2,310.8 223.8,308.2 		"/>
		<polygon class="st4" points="173.2,301 178.5,307.8 170.2,309.2 192.3,338.2 200.9,336.7 207.3,335.6 225.7,332.4 197.1,297.1 		
			"/>
		<polygon class="st4" points="157,303.6 162.2,310.5 170.6,309.1 192.8,338.1 184.1,339.6 177.7,340.7 158.8,343.9 132.6,307.6 		
			"/>
		<polygon class="st4" points="427.5,274.5 448.8,271 434.6,258.8 413.6,262.2 		"/>
		<polygon class="st4" points="224.6,277.8 209.4,280.2 215,286.8 230.3,284.4 		"/>
		<polygon class="st4" points="168,272.3 177.9,284.7 186,283.4 191.8,290.5 199.2,289.4 183.2,269.9 		"/>
		<polygon class="st4" points="191.8,290.5 183.6,291.8 177.9,284.7 186,283.4 		"/>
		<polygon class="st5" points="95,306 78.5,308.6 65.1,288.1 81.3,285.6 		"/>
		<polygon class="st5" points="95,306 111.5,303.4 97.4,283.1 81.3,285.6 		"/>
		<polygon class="st5" points="127.8,300.8 111.5,303.4 97.4,283.1 113.3,280.7 		"/>
		<polygon class="st5" points="127.8,300.8 143.9,298.2 133.9,284.7 118,287.1 		"/>
		<polygon class="st5" points="175.5,293.1 143.9,298.2 133.9,284.7 165,279.8 		"/>
		<polygon class="st5" points="175.5,293.1 183.6,291.8 168,272.3 160,273.5 		"/>
		<polygon class="st5" points="199.2,289.4 215,286.8 198.7,267.5 183.2,269.9 		"/>
		<polygon class="st5" points="232.4,276.6 209.4,280.2 198.7,267.5 221.4,264 		"/>
		<polygon class="st5" points="238.2,283.1 253.2,280.7 236.2,261.7 221.4,264 		"/>
		<polygon class="st5" points="268.7,278.3 253.2,280.7 236.2,261.7 251.3,259.4 		"/>
		<polygon class="st5" points="268.7,278.3 283.6,275.9 265.9,257.2 251.3,259.4 		"/>
		<polygon class="st5" points="298.3,273.5 283.6,275.9 265.9,257.2 280.4,254.9 		"/>
		<polygon class="st5" points="298.3,273.5 313.2,271.2 294.9,252.7 280.4,254.9 		"/>
		<polygon class="st5" points="327.9,268.8 313.2,271.2 294.9,252.7 309.4,250.5 		"/>
		<polygon class="st5" points="327.9,268.8 342.5,266.5 323.7,248.3 309.4,250.5 		"/>
		<polygon class="st5" points="356.9,264.2 342.5,266.5 323.7,248.3 337.9,246.1 		"/>
		<polygon class="st5" points="350.5,258 357.7,256.9 351.3,250.8 344.1,252 		"/>
		<polygon class="st5" points="350.5,258 357.7,256.9 364.2,263 356.9,264.2 		"/>
		<polygon class="st5" points="379.2,246.5 351.3,250.8 364.2,263 392.5,258.5 		"/>
		<polygon class="st5" points="379.2,246.5 393.3,244.3 406.8,256.2 392.5,258.5 		"/>
		<polygon class="st5" points="400.6,236.5 386.9,238.6 406.8,256.2 420.8,254 		"/>
		<polygon class="st5" points="400.6,236.5 414.3,234.4 434.7,251.8 420.8,254 		"/>
		<polygon class="st5" points="428,232.3 414.3,234.4 441.6,257.7 455.7,255.4 		"/>
		<polygon class="st5" points="477.2,273.4 462.9,275.8 441.6,257.7 455.7,255.4 		"/>
		<polygon class="st5" points="477.2,273.4 455.8,277 471.3,290.3 493,286.6 		"/>
		<polygon class="st5" points="427.5,274.5 448.8,271 471.3,290.3 449.6,294 		"/>
		<polygon class="st5" points="427.5,274.5 405.9,278.1 427.6,297.8 449.6,294 		"/>
		<polygon class="st5" points="391.5,280.5 405.9,278.1 427.6,297.8 412.8,300.3 		"/>
		<polygon class="st5" points="378,267.9 341.4,273.8 375.1,306.8 412.8,300.3 		"/>
		<polygon class="st5" points="243.8,289.6 341.4,273.8 375.1,306.8 274.1,324.1 		"/>
		<polygon class="st5" points="243.8,289.6 228.2,292.1 239.7,305.6 255.5,303 		"/>
		<polygon class="st5" points="274.1,324.1 257.9,326.9 239.7,305.6 255.5,303 		"/>
		<polygon class="st5" points="241.7,329.7 257.9,326.9 245.2,312 229.3,314.7 		"/>
		<polygon class="st5" points="241.7,329.7 225.7,332.4 208.2,310.8 223.8,308.2 		"/>
		<polygon class="st5" points="158.7,344 142,346.8 116.4,310.2 132.5,307.6 		"/>
		<polygon class="st5" points="124.6,349.8 142,346.8 116.4,310.2 99.7,312.9 		"/>
		<polygon class="st5" points="124.6,349.8 107.3,352.8 83.1,315.6 99.7,312.9 		"/>
		<polygon class="st5" points="212.5,294.6 197.1,297.1 208.2,310.8 223.8,308.2 		"/>
		<polygon class="st5" points="173.2,301 178.5,307.8 170.2,309.2 192.3,338.2 200.9,336.7 207.3,335.6 225.7,332.4 197.1,297.1 		
			"/>
		<polygon class="st5" points="157,303.6 162.2,310.5 170.6,309.1 192.8,338.1 184.1,339.6 177.7,340.7 158.8,343.9 132.6,307.6 		
			"/>
		<polygon class="st5" points="427.5,274.5 448.8,271 434.6,258.8 413.6,262.2 		"/>
		<polygon class="st5" points="224.6,277.8 209.4,280.2 215,286.8 230.3,284.4 		"/>
		<polygon class="st5" points="168,272.3 177.9,284.7 186,283.4 191.8,290.5 199.2,289.4 183.2,269.9 		"/>
		<polygon class="st5" points="191.8,290.5 183.6,291.8 177.9,284.7 186,283.4 		"/>
		<polygon class="st2" points="78.5,308.6 65.1,288.1 65.1,286.6 78.5,307.1 		"/>
		<polygon class="st2" points="93.3,305.2 80.8,286.7 80.8,285.2 93.3,303.7 		"/>
		<polygon class="st1" points="67.7,288.7 80.8,286.7 80.8,285.2 66.8,287.3 		"/>
		<polygon class="st1" points="85.6,316.2 156.5,304.7 156.5,303.2 84.7,314.8 		"/>
		<polygon class="st1" points="83.9,286.2 112.9,281.8 112.9,280.2 83,284.8 		"/>
		<polygon class="st1" points="120.7,287.7 164.6,280.9 164.6,279.3 119.7,286.3 		"/>
		<polygon class="st1" points="163,274 337.5,247.1 337.5,245.6 161.9,272.7 		"/>
		<polygon class="st1" points="347.6,252.4 393,245.3 393,243.8 346.2,251.1 		"/>
		<polygon class="st1" points="390.7,239.1 427.8,233.4 427.8,231.8 389.2,237.8 		"/>
		<polygon class="st2" points="109.7,302.6 96.9,284.2 96.9,282.7 109.7,301.1 		"/>
		<polygon class="st2" points="126,300 112.9,281.8 112.9,280.2 126,298.5 		"/>
		<polygon class="st2" points="142.1,297.5 133.4,285.7 133.4,284.2 142.1,295.9 		"/>
		<polygon class="st2" points="173.7,292.4 164.6,280.9 164.6,279.3 173.7,290.9 		"/>
		<polygon class="st2" points="163.9,278.4 160,273.5 160,271.9 165,278.2 		"/>
		<polygon class="st2" points="181.8,291.1 167.6,273.3 167.6,271.8 181.8,289.6 		"/>
		<polygon class="st2" points="189.9,289.8 185.6,284.5 185.6,283 189.9,288.3 		"/>
		<polygon class="st2" points="197.3,288.6 182.8,271 182.8,269.4 197.3,287.1 		"/>
		<polygon class="st2" points="213.1,286.1 198.3,268.6 198.3,267 213.1,284.6 		"/>
		<polygon class="st2" points="228.4,283.7 224.2,278.9 224.2,277.4 228.4,282.1 		"/>
		<polygon class="st2" points="230.5,275.9 221,265.1 221,263.5 230.5,274.3 		"/>
		<polygon class="st2" points="238.2,283.1 232.4,276.6 232.4,275 238.2,281.6 		"/>
		<polygon class="st2" points="251.3,280 235.8,262.8 235.8,261.3 251.3,278.5 		"/>
		<polygon class="st2" points="266.7,277.6 250.9,260.5 250.9,258.9 266.7,276 		"/>
		<polygon class="st2" points="281.6,275.2 265.6,258.2 265.6,256.7 281.6,273.6 		"/>
		<polygon class="st2" points="296.3,272.8 280,256 280,254.4 296.3,271.3 		"/>
		<polygon class="st2" points="311.1,270.5 294.5,253.8 294.5,252.2 311.1,268.9 		"/>
		<polygon class="st2" points="325.8,268.1 309,251.5 309,250 325.8,266.6 		"/>
		<polygon class="st2" points="340.4,265.8 323.4,249.3 323.4,247.8 340.4,264.3 		"/>
		<polygon class="st2" points="354.8,263.5 337.5,247.1 337.5,245.6 354.8,262 		"/>
		<polygon class="st2" points="362.1,262.3 351,251.9 351,250.4 362.1,260.8 		"/>
		<polygon class="st2" points="390.3,257.8 378.9,247.6 378.9,246 390.3,256.3 		"/>
		<polygon class="st2" points="404.6,255.6 393,245.3 393,243.8 404.6,254 		"/>
		<polygon class="st2" points="418.5,253.3 400.3,237.6 400.3,236 418.5,251.8 		"/>
		<polygon class="st2" points="432.4,251.1 414,235.5 414,233.9 432.4,249.6 		"/>
		<polygon class="st2" points="462.9,275.8 434.7,251.8 434.7,250.2 462.9,274.2 		"/>
		<polygon class="st2" points="469,289.7 434.3,259.8 434.3,258.3 469,288.1 		"/>
		<polygon class="st2" points="426,273.2 413.6,262.2 413.6,260.6 427.5,273 		"/>
		<polygon class="st2" points="447.3,293.4 427.2,275.6 427.2,274 447.3,291.8 		"/>
		<polygon class="st2" points="425.4,297.1 405.6,279.1 405.6,277.6 425.4,295.6 		"/>
		<polygon class="st2" points="410.7,299.7 377.6,269 377.6,267.4 410.7,298.1 		"/>
		<polygon class="st2" points="373,306.1 341.1,274.9 341.1,273.3 373,304.6 		"/>
		<polygon class="st2" points="272.2,323.5 243.4,290.7 243.4,289.1 272.2,321.9 		"/>
		<polygon class="st2" points="256,326.2 244.8,313.1 244.8,311.6 256,324.7 		"/>
		<polygon class="st2" points="239.8,329 212.1,295.7 212.1,294.2 239.8,327.5 		"/>
		<polygon class="st2" points="223.9,331.7 196.7,298.2 196.7,296.7 223.9,330.2 		"/>
		<polygon class="st2" points="178.5,307.8 173.2,301 173.2,299.4 178.5,306.3 		"/>
		<polygon class="st2" points="191,337.4 170.1,310.2 170.1,308.7 191,335.8 		"/>
		<polygon class="st2" points="161.7,311.6 156.5,304.7 156.5,303.2 161.7,310 		"/>
		<polygon class="st2" points="156.9,343.2 132,308.7 132,307.1 156.9,341.7 		"/>
		<polygon class="st2" points="140.3,346.1 116,311.3 116,309.7 140.3,344.5 		"/>
		<polygon class="st2" points="122.9,349.1 99.2,314 99.2,312.4 122.9,347.5 		"/>
		<polygon class="st2" points="107.3,352.8 77.9,307.6 77.2,305.1 107.3,351.2 		"/>
		<polygon class="st2" points="244.1,310.7 228.2,292.1 228.2,290.6 245.2,310.5 		"/>
		<polygon class="st2" points="490.7,285.9 427.8,233.4 427.8,231.8 490.7,284.4 		"/>
		<polygon class="st2" points="391.8,243 386.9,238.6 386.9,237.1 393.3,242.7 		"/>
		<g>
			<path class="st0" d="M80.8,285.2l12.5,18.5L79,306l-12.2-18.7L80.8,285.2 M81.3,284.1l-16.1,2.5l13.4,20.5l16.5-2.6L81.3,284.1
				L81.3,284.1z"/>
			<path class="st0" d="M96.9,282.7l12.8,18.4l-14.2,2.3L83,284.8L96.9,282.7 M97.4,281.6l-16.1,2.5l13.8,20.4l16.5-2.6L97.4,281.6
				L97.4,281.6z"/>
			<path class="st0" d="M112.9,280.2l13.2,18.3l-14.1,2.3l-12.8-18.4L112.9,280.2 M113.3,279.1l-16,2.5l14.1,20.2l16.3-2.6
				L113.3,279.1L113.3,279.1z"/>
			<path class="st0" d="M133.4,284.2l8.7,11.7l-13.9,2.2l-8.5-11.8L133.4,284.2 M133.9,283.1l-15.9,2.5l9.8,13.6l16.1-2.6
				L133.9,283.1L133.9,283.1z"/>
			<path class="st0" d="M164.6,279.3l9.1,11.5l-29.3,4.7l-8.7-11.7L164.6,279.3 M165,278.2l-31.1,4.9l10.1,13.5l31.6-5L165,278.2
				L165,278.2z"/>
			<path class="st0" d="M167.5,271.8l14.2,17.8l-5.8,0.9l-14.1-17.9L167.5,271.8 M168,270.7l-7.9,1.2l15.5,19.7l8.1-1.3L168,270.7
				L168,270.7z"/>
			<path class="st0" d="M198.3,267l14.8,17.5l-13.4,2.1l-14.5-17.7L198.3,267 M198.7,266l-15.4,2.4l16,19.5l15.8-2.5L198.7,266
				L198.7,266z"/>
			<path class="st0" d="M221,263.5l9.5,10.8l-20.7,3.3l-9.2-10.9L221,263.5 M221.4,262.5l-22.7,3.5l10.7,12.7l23-3.6L221.4,262.5
				L221.4,262.5z"/>
			<path class="st0" d="M235.8,261.3l15.5,17.2l-12.7,2l-15.2-17.3L235.8,261.3 M236.2,260.2l-14.8,2.3l16.8,19.1l15.1-2.4
				L236.2,260.2L236.2,260.2z"/>
			<path class="st0" d="M250.9,258.9l15.8,17.1l-13.1,2.1l-15.5-17.2L250.9,258.9 M251.3,257.9l-15.1,2.3l17.1,19l15.5-2.5
				L251.3,257.9L251.3,257.9z"/>
			<path class="st0" d="M265.6,256.7l16,17l-12.5,2l-15.7-17.1L265.6,256.7 M265.9,255.6l-14.6,2.3l17.4,18.9l14.9-2.4L265.9,255.6
				L265.9,255.6z"/>
			<path class="st0" d="M280,254.4l16.3,16.8l-12.3,2l-16-17L280,254.4 M280.4,253.4l-14.4,2.2l17.7,18.7l14.7-2.4L280.4,253.4
				L280.4,253.4z"/>
			<path class="st0" d="M294.5,252.2l16.5,16.7l-12.4,2l-16.3-16.8L294.5,252.2 M294.9,251.1l-14.5,2.2l18,18.6l14.8-2.4
				L294.9,251.1L294.9,251.1z"/>
			<path class="st0" d="M309,250l16.8,16.6l-12.3,2L297,251.8L309,250 M309.4,248.9l-14.5,2.2l18.2,18.5l14.7-2.4L309.4,248.9
				L309.4,248.9z"/>
			<path class="st0" d="M323.4,247.8l17,16.5l-12.1,1.9l-16.8-16.6L323.4,247.8 M323.7,246.7l-14.3,2.2l18.5,18.3l14.6-2.3
				L323.7,246.7L323.7,246.7z"/>
			<path class="st0" d="M337.5,245.6l17.3,16.4l-11.9,1.9l-17-16.5L337.5,245.6 M337.9,244.5l-14.2,2.2l18.8,18.2l14.4-2.3
				L337.9,244.5L337.9,244.5z"/>
			<path class="st0" d="M351,250.4l4.6,4.3l-4.7,0.7l-4.6-4.3L351,250.4 M351.3,249.3l-7.2,1.1l6.4,6.1l7.3-1.1L351.3,249.3
				L351.3,249.3z"/>
			<path class="st0" d="M357.4,256.4l4.7,4.4l-4.8,0.8l-4.7-4.4L357.4,256.4 M357.7,255.3l-7.3,1.1l6.5,6.2l7.3-1.2L357.7,255.3
				L357.7,255.3z"/>
			<path class="st0" d="M378.9,246l11.4,10.3l-25.7,4.1L353.5,250L378.9,246 M379.2,244.9l-27.9,4.3l13,12.2l28.2-4.5L379.2,244.9
				L379.2,244.9z"/>
			<path class="st0" d="M393,243.8l11.6,10.2l-11.8,1.9l-11.4-10.3L393,243.8 M393.3,242.7l-14.1,2.2l13.3,12l14.3-2.3L393.3,242.7
				L393.3,242.7z"/>
			<path class="st0" d="M400.3,236l18.1,15.7l-11.4,1.8l-17.8-15.7L400.3,236 M400.6,235l-13.7,2.1l19.9,17.6l13.9-2.2L400.6,235
				L400.6,235z"/>
			<path class="st0" d="M414,233.9l18.4,15.6l-11.3,1.8L403,235.6L414,233.9 M414.3,232.9l-13.7,2.1l20.1,17.5l13.9-2.2L414.3,232.9
				L414.3,232.9z"/>
			<path class="st0" d="M427.8,231.8l25.6,21.4L442,255l-25.3-21.5L427.8,231.8 M428,230.8l-13.7,2.1l27.3,23.2l14.1-2.3L428,230.8
				L428,230.8z"/>
			<path class="st0" d="M455.4,254.9l19.5,16.3l-11.7,2l-19.3-16.4L455.4,254.9 M455.7,253.8l-14.1,2.3l21.3,18.1l14.3-2.4
				L455.7,253.8L455.7,253.8z"/>
			<path class="st0" d="M476.9,272.9l13.7,11.5l-19.1,3.3L458,276.1L476.9,272.9 M477.2,271.8l-21.4,3.6l15.5,13.3L493,285
				L477.2,271.8L477.2,271.8z"/>
			<path class="st0" d="M448.5,270.5l20.5,17.6l-19.1,3.3l-20.1-17.8L448.5,270.5 M448.8,269.4l-21.3,3.5l22.1,19.5l21.7-3.7
				L448.8,269.4L448.8,269.4z"/>
			<path class="st0" d="M427.2,274l20.1,17.8l-19.4,3.3l-19.8-18L427.2,274 M427.5,273l-21.6,3.6l21.7,19.7l22-3.8L427.5,273
				L427.5,273z"/>
			<path class="st0" d="M405.6,277.6l19.8,18l-12.3,2.1l-19.5-18.1L405.6,277.6 M405.9,276.5l-14.5,2.4l21.4,19.9l14.8-2.5
				L405.9,276.5L405.9,276.5z"/>
			<path class="st0" d="M377.6,267.4l33,30.7l-35.2,6l-31.9-31.2L377.6,267.4 M378,266.4l-36.5,5.9l33.7,33l37.7-6.5L378,266.4
				L378,266.4z"/>
			<path class="st0" d="M341.1,273.3l31.9,31.2l-98.5,16.9l-28.7-32.8L341.1,273.3 M341.4,272.3l-97.6,15.8l30.3,34.5l101-17.3
				L341.4,272.3L341.4,272.3z"/>
			<path class="st0" d="M243.4,289.1l10.2,11.6l-13.5,2.2l-10-11.7L243.4,289.1 M243.8,288l-15.6,2.5l11.5,13.5l15.8-2.6L243.8,288
				L243.8,288z"/>
			<path class="st0" d="M255.2,302.5l17,19.4l-13.9,2.4l-16.7-19.6L255.2,302.5 M255.5,301.4l-15.8,2.6l18.2,21.3l16.2-2.8
				L255.5,301.4L255.5,301.4z"/>
			<path class="st0" d="M244.8,311.6l11.2,13.1l-13.9,2.4l-11-13.2L244.8,311.6 M245.2,310.5l-16,2.7l12.5,15l16.2-2.8L245.2,310.5
				L245.2,310.5z"/>
			<path class="st0" d="M223.4,307.7l16.4,19.7l-13.7,2.4L210,309.9L223.4,307.7 M223.8,306.6l-15.7,2.6l17.6,21.7l16-2.7
				L223.8,306.6L223.8,306.6z"/>
			<path class="st0" d="M132,307.1l24.9,34.6l-14.5,2.5l-24.3-34.8L132,307.1 M132.5,306l-16.1,2.6l25.6,36.6l16.7-2.9L132.5,306
				L132.5,306z"/>
			<path class="st0" d="M116,309.7l24.3,34.8l-15.2,2.6L101.4,312L116,309.7 M116.4,308.6l-16.8,2.7l24.9,36.9l17.4-3L116.4,308.6
				L116.4,308.6z"/>
			<path class="st0" d="M99.2,312.4l23.7,35.1l-15.1,2.6l-23.1-35.3L99.2,312.4 M99.7,311.3L83.1,314l24.3,37.2l17.3-3L99.7,311.3
				L99.7,311.3z"/>
			<path class="st0" d="M212.1,294.2l9.8,11.8l-13.4,2.2l-9.6-11.9L212.1,294.2 M212.5,293.1l-15.4,2.5l11.1,13.6l15.7-2.6
				L212.5,293.1L212.5,293.1z"/>
			<path class="st0" d="M196.7,296.7l27.2,33.5l-16.8,2.9l-6.3,1.1l-8,1.4L172,308.4l6.7-1.1l1.7-0.3l-1-1.3l-4.3-5.5L196.7,296.7
				 M197.1,295.6l-23.9,3.9l5.3,6.8l-8.4,1.4l22.2,29l8.6-1.5l6.3-1.1l18.4-3.2L197.1,295.6L197.1,295.6z"/>
			<path class="st0" d="M156.5,303.2l4.8,6.4l0.4,0.5l0.6-0.1l7.8-1.3l20.9,27.1l-7,1.2l-6.4,1.1l-18.3,3.1l-24.9-34.6L156.5,303.2
				 M157,302.1l-24.7,4l25.9,36.4l19.6-3.4l6.4-1.1l8.7-1.5l-22.2-29l-8.4,1.4L157,302.1L157,302.1z"/>
			<path class="st0" d="M434.3,258.3l12.2,10.5l-18.7,3.1l-12-10.6L434.3,258.3 M434.6,257.2l-21.1,3.4l13.9,12.3l21.3-3.5
				L434.6,257.2L434.6,257.2z"/>
			<path class="st0" d="M224.2,277.4l4.1,4.8l-13,2.1l-4.1-4.8L224.2,277.4 M224.6,276.3l-15.3,2.4l5.6,6.6l15.4-2.5L224.6,276.3
				L224.6,276.3z"/>
			<path class="st0" d="M182.8,269.4l14.5,17.7l-5.1,0.8l-5.4-6.7l-0.4-0.4l-0.6,0.1l-7.5,1.2l-8.5-10.7L182.8,269.4 M183.2,268.4
				l-15.3,2.4l10,12.5l8.1-1.3l5.8,7.1l7.4-1.2L183.2,268.4L183.2,268.4z"/>
			<path class="st0" d="M185.6,283l4.3,5.3l-5.9,0.9l-4.3-5.3L185.6,283 M186,281.9l-8.1,1.3l5.7,7.1l8.2-1.3L186,281.9L186,281.9z"
				/>
		</g>
		<polygon class="st0" points="107.8,350.1 78,304.4 77.2,305.1 107.3,351.2 		"/>
		<polygon class="st1" points="445.4,258 455.4,256.4 455.4,254.9 443.9,256.7 		"/>
		<polygon class="st1" points="417.3,262.6 434.3,259.8 434.3,258.3 415.8,261.3 		"/>
		<polygon class="st1" points="395,280.9 448.5,272 448.5,270.5 393.6,279.6 		"/>
		<polygon class="st1" points="459.6,277.4 476.9,274.5 476.9,272.9 458.1,276.1 		"/>
		<polygon class="st1" points="238.2,283.1 434.7,251.8 434.7,250.2 238.2,281.6 		"/>
		<polygon class="st1" points="80.5,308.3 230.3,284.4 230.3,282.8 79.6,306.9 		"/>
		<polygon class="st1" points="107.3,352.8 493,286.6 493,285 107.3,351.2 		"/>
		<polygon class="st1" points="352.6,257.1 357.4,256.4 357.4,257.9 354,258.5 		"/>
		<polygon class="st1" points="180.9,285.3 179.8,283.9 185.6,283 185.6,284.5 		"/>
		<polygon class="st1" points="212.4,280.8 211.3,279.4 224.2,277.4 224.2,278.9 		"/>
		<polygon class="st1" points="225.8,277.6 224.6,276.3 232.4,275 232.4,276.6 		"/>
		<polygon class="st1" points="161.7,311.6 180.4,308.6 180.4,307 161.7,310 		"/>
		<polygon class="st1" points="176.1,301.5 212.1,295.7 212.1,294.2 175,300.2 		"/>
		<polygon class="st1" points="211.1,311.3 223.4,309.3 223.4,307.7 210,309.9 		"/>
		<polygon class="st1" points="232.3,315.2 244.8,313.1 244.8,311.6 231.1,313.9 		"/>
		<polygon class="st1" points="242.8,306.1 255.2,304 255.2,302.5 241.6,304.7 		"/>
		<polygon class="st1" points="231.3,292.6 377.6,269 377.6,267.4 230.1,291.3 		"/>
	</g>
</g>
<g id="Level_4">
	<g>
		<g>
			<path class="st0" d="M470.8,182.4L456,170.1L428.2,147l-14,2.2l-13.9,2.2l-13.9,2.2l6.4,5.7l-14,2.2l-28.3,4.5l-7.2,1.1l-6.1-5.8
				l-21.3,3.3l-14.6,2.3l-14.5,2.2l-14.7,2.3l-14.7,2.3l-14.7,2.3l-15.1,2.3l-15,2.3l-15.2,2.4l-15.2,2.4l-4.8,0.7l-3.1,0.5
				l-7.5,1.2L159,189l-30,4.7l-11.7,1.8l-4,0.6l-16,2.5l-14.4,2.2l-16.5,2.6l17.3,26.9l7.1,11.1l6.8,10.6l10.1,15.6l24.7-4.2
				l12.8-2.2l13-2.2l12.4-2.1l13.1-2.2l14.5-2.5l17.1-2.9l16.4-2.8l16.2-2.8l16.3-2.8l16.1-2.8l16.1-2.8l15.7-2.7l15.7-2.7l15.7-2.7
				l15.4-2.6l15.6-2.7l4.4-0.8l3.3-0.6l7.6-1.3l15-2.6l14.9-2.6l15-2.6l14.7-2.5l11-1.9l3.7-0.6l7.4-1.3l22.1-3.8L470.8,182.4z"/>
			<g>
				<g>
					<path class="st0" d="M428.3,135c-0.6,0-1.2,0-1.8,0.1l-14,2.2l-13.9,2.2l-13.9,2.2c-4.5,0.7-8.2,3.9-9.6,8.2l-26.3,4.1
						l-1.4,0.2l-1.8-1.7c-2.2-2.1-5.2-3.3-8.3-3.3c-0.6,0-1.2,0-1.8,0.1l-21.3,3.3l-14.6,2.3l-14.5,2.2l-14.7,2.3l-14.7,2.3L241,164
						l-15.1,2.3l-15,2.3l-15.2,2.4l-15.2,2.4l-4.8,0.7l-3.1,0.5l-7.5,1.2l-7.8,1.2l-30,4.7l-11.7,1.8l-4,0.6l-16,2.5l-14.4,2.2
						l-16.5,2.6c-4,0.6-7.4,3.2-9.1,6.9c-1.7,3.7-1.3,8,0.9,11.4l17.3,26.9l7.1,11.1l6.8,10.6l10.1,15.6c2.2,3.5,6.1,5.5,10.1,5.5
						c0.7,0,1.4-0.1,2-0.2l24.7-4.2l12.8-2.2l13-2.2l12.4-2.1l13.1-2.2l14.5-2.5l17.1-2.9l16.4-2.8l16.2-2.8l16.3-2.8l16.1-2.8
						l16.1-2.8l15.7-2.7l15.7-2.7l15.7-2.7l15.4-2.6l15.6-2.7l4.4-0.8l3.3-0.6l7.6-1.3l15-2.6l14.9-2.6l15-2.6l14.7-2.5l11-1.9
						l3.7-0.6l7.4-1.3l22.1-3.8c4.6-0.8,8.3-4.2,9.6-8.7c1.2-4.5-0.3-9.3-3.9-12.3L478.8,173l-15.1-12.2l-27.8-23.1
						C433.8,135.9,431,135,428.3,135L428.3,135z"/>
				</g>
			</g>
		</g>
		<path class="st3" d="M470.5,182.2l-14.8-12.3l-27.8-23.1l-14,2.2l-13.9,2.2l-13.9,2.2l6.4,5.7l-14,2.2l-28.3,4.5l-7.2,1.1
			l-6.1-5.8l-21.3,3.3l-14.6,2.3l-14.5,2.2l-14.7,2.3l-14.7,2.3l-14.7,2.3l-15.1,2.3l-15,2.3l-15.2,2.4l-15.2,2.4l-4.8,0.7l-3.1,0.5
			l-7.5,1.2l-7.8,1.2l-30,4.7l-11.7,1.8l-4,0.6l-16,2.5l-14.4,2.2l-16.5,2.6l17.3,26.9l7.1,11.1l6.8,10.6l10.1,15.6l24.7-4.2
			l12.8-2.2l13-2.2l12.4-2.1l13.1-2.2l14.5-2.5l17.1-3.2l16.4-2.8l16.2-2.8l16.3-2.8l16.1-2.8l16.1-2.8l15.7-2.7l15.7-2.7l15.7-2.7
			l15.4-2.6l15.6-2.7l4.4-0.8l3.3-0.6l7.6-1.3l15-2.6l14.9-2.6l15-2.6l14.7-2.5l11-1.9l3.7-0.6l7.4-1.3l22.1-3.8L470.5,182.2z"/>
		<g>
			<polygon class="st4" points="100.5,227.2 83.4,229.9 66.1,203 82.6,200.5 			"/>
			<polygon class="st4" points="96.2,220.7 110.9,218.4 97.1,198.2 82.6,200.5 			"/>
			<polygon class="st4" points="127.3,215.7 110.9,218.4 97.1,198.2 113.1,195.7 			"/>
			<polygon class="st4" points="120.1,205.6 124.1,205 117,195.1 113.1,195.7 			"/>
			<polygon class="st4" points="143.3,213.2 131.3,215.1 117,195.1 128.7,193.3 			"/>
			<polygon class="st4" points="143.3,213.2 174,208.2 158.7,188.7 128.7,193.3 			"/>
			<polygon class="st4" points="181.9,207 174,208.2 158.7,188.7 166.5,187.4 			"/>
			<polygon class="st4" points="181.9,207 189.6,205.7 184.1,199 176.6,200.2 			"/>
			<polygon class="st4" points="177.1,185.8 174,186.3 166.5,187.4 176.6,200.2 184.1,199 189.6,205.7 197.6,204.4 181.9,185 			"/>
			<polygon class="st4" points="197.6,204.4 213.2,201.9 197.1,182.7 181.9,185 			"/>
			<polygon class="st4" points="228.7,199.4 213.2,201.9 197.1,182.7 212.3,180.3 			"/>
			<polygon class="st4" points="228.7,199.4 244.1,197 227.3,178 212.3,180.3 			"/>
			<polygon class="st4" points="259.5,194.5 244.1,197 227.3,178 242.4,175.6 			"/>
			<polygon class="st4" points="259.5,194.5 274.5,192.1 257.1,173.4 242.4,175.6 			"/>
			<polygon class="st4" points="289.5,189.7 274.5,192.1 257.1,173.4 271.8,171.1 			"/>
			<polygon class="st4" points="289.5,189.7 304.5,187.3 286.5,168.8 271.8,171.1 			"/>
			<polygon class="st4" points="319.3,184.9 304.5,187.3 286.5,168.8 301,166.5 			"/>
			<polygon class="st4" points="319.3,184.9 334.3,182.5 315.7,164.3 301,166.5 			"/>
			<polygon class="st4" points="356,179 334.3,182.5 315.7,164.3 336.9,160.9 			"/>
			<polygon class="st4" points="356,179 363.3,177.8 356.6,171.6 349.4,172.7 			"/>
			<polygon class="st4" points="343.1,166.8 350.3,165.6 356.6,171.6 349.4,172.7 			"/>
			<polygon class="st4" points="378.6,161.2 350.3,165.6 363.3,177.8 392,173.2 			"/>
			<polygon class="st4" points="378.6,161.2 392.6,159 406.2,171 392,173.2 			"/>
			<polygon class="st4" points="400.1,151.1 386.2,153.3 406.2,171 420.3,168.7 			"/>
			<polygon class="st4" points="400.1,151.1 413.9,149 434.5,166.4 420.3,168.7 			"/>
			<polygon class="st4" points="427.9,146.8 413.9,149 441.3,172.2 455.7,169.9 			"/>
			<polygon class="st4" points="470.5,182.2 448.8,185.8 434.2,173.4 455.7,169.9 			"/>
			<polygon class="st4" points="470.5,182.2 448.8,185.8 471,204.9 493.2,201.1 			"/>
			<polygon class="st4" points="448.7,193.2 441.5,187 427.1,189.4 448.9,208.7 460,206.8 463.7,206.2 471,204.9 455.9,192 			"/>
			<polygon class="st4" points="412.6,191.8 427.1,189.4 448.9,208.7 434.2,211.2 			"/>
			<polygon class="st4" points="412.6,191.8 398,194.2 419.3,213.8 434.2,211.2 			"/>
			<polygon class="st4" points="369.7,183.9 384.1,181.5 419.3,213.8 404.3,216.4 			"/>
			<polygon class="st4" points="369.7,183.9 355.2,186.2 389.3,219 404.3,216.4 			"/>
			<polygon class="st4" points="354.5,193.9 347.8,187.4 340.5,188.6 374.1,221.6 378.4,220.8 381.7,220.3 389.3,219 361.9,192.7 
							"/>
			<polygon class="st4" points="325.4,191 340.5,188.6 374.1,221.6 358.5,224.2 			"/>
			<polygon class="st4" points="325.4,191 310.6,193.5 343.1,226.9 358.5,224.2 			"/>
			<polygon class="st4" points="295.4,195.9 310.6,193.5 343.1,226.9 327.4,229.6 			"/>
			<polygon class="st4" points="295.4,195.9 280.3,198.4 311.7,232.3 327.4,229.6 			"/>
			<polygon class="st4" points="265.2,200.8 280.3,198.4 311.7,232.3 296,234.9 			"/>
			<polygon class="st4" points="265.2,200.8 249.7,203.3 280,237.7 296,234.9 			"/>
			<polygon class="st4" points="234.2,205.8 249.7,203.3 280,237.7 263.9,240.5 			"/>
			<polygon class="st4" points="234.2,205.8 218.5,208.4 247.7,243.2 263.9,240.5 			"/>
			<polygon class="st4" points="202.9,210.9 218.5,208.4 247.7,243.2 231.5,246 			"/>
			<polygon class="st4" points="202.9,210.9 187.1,213.5 215,248.8 231.5,246 			"/>
			<polygon class="st4" points="170.6,216.1 187.1,213.5 215,248.8 197.9,251.8 			"/>
			<polygon class="st4" points="186.4,236.7 172.1,239.1 183.4,254.3 197.9,251.8 			"/>
			<polygon class="st4" points="159.2,241.3 172.1,239.1 183.4,254.3 170.3,256.5 			"/>
			<polygon class="st4" points="159.2,241.3 147,243.3 157.9,258.6 170.3,256.5 			"/>
			<polygon class="st4" points="134.2,245.5 147,243.3 157.9,258.6 144.9,260.9 			"/>
			<polygon class="st4" points="134.2,245.5 121.7,247.6 132.1,263.1 144.9,260.9 			"/>
			<polygon class="st4" points="97.4,251.7 121.7,247.6 132.1,263.1 107.4,267.3 			"/>
			<polygon class="st4" points="97.4,251.7 114.9,248.7 107.9,238.2 90.5,241 			"/>
			<polygon class="st4" points="83.4,229.9 100.6,227.2 107.9,238.2 90.5,241 			"/>
			<polygon class="st4" points="170.6,216.1 139.8,221.1 150.2,235.5 181.5,230.3 			"/>
			<polygon class="st4" points="131.4,222.5 139.8,221.1 147.4,231.7 138.9,233.1 			"/>
			<polygon class="st4" points="427.1,181.9 441.4,179.6 434.2,173.4 420,175.7 			"/>
			<polygon class="st4" points="427.1,181.9 419.9,183.1 412.9,176.9 420,175.7 			"/>
			<polygon class="st4" points="120.1,205.6 124.1,205 131.3,215.1 127.3,215.7 			"/>
		</g>
		<polygon class="st5" points="100.5,227.2 83.4,229.9 66.1,203 82.6,200.5 		"/>
		<polygon class="st5" points="96.2,220.7 110.9,218.4 97.1,198.2 82.6,200.5 		"/>
		<polygon class="st5" points="127.3,215.7 110.9,218.4 97.1,198.2 113.1,195.7 		"/>
		<polygon class="st5" points="120.1,205.6 124.1,205 117,195.1 113.1,195.7 		"/>
		<polygon class="st5" points="143.3,213.2 131.3,215.1 117,195.1 128.7,193.3 		"/>
		<polygon class="st5" points="143.3,213.2 174,208.2 158.7,188.7 128.7,193.3 		"/>
		<polygon class="st5" points="181.9,207 174,208.2 158.7,188.7 166.5,187.4 		"/>
		<polygon class="st5" points="181.9,207 189.6,205.7 184.1,199 176.6,200.2 		"/>
		<polygon class="st5" points="177.1,185.8 174,186.3 166.5,187.4 176.6,200.2 184.1,199 189.6,205.7 197.6,204.4 181.9,185 		"/>
		<polygon class="st5" points="197.6,204.4 213.2,201.9 197.1,182.7 181.9,185 		"/>
		<polygon class="st5" points="228.7,199.4 213.2,201.9 197.1,182.7 212.3,180.3 		"/>
		<polygon class="st5" points="228.7,199.4 244.1,197 227.3,178 212.3,180.3 		"/>
		<polygon class="st5" points="259.5,194.5 244.1,197 227.3,178 242.4,175.6 		"/>
		<polygon class="st5" points="259.5,194.5 274.5,192.1 257.1,173.4 242.4,175.6 		"/>
		<polygon class="st5" points="289.5,189.7 274.5,192.1 257.1,173.4 271.8,171.1 		"/>
		<polygon class="st5" points="289.5,189.7 304.5,187.3 286.5,168.8 271.8,171.1 		"/>
		<polygon class="st5" points="319.3,184.9 304.5,187.3 286.5,168.8 301,166.5 		"/>
		<polygon class="st5" points="319.3,184.9 334.3,182.5 315.7,164.3 301,166.5 		"/>
		<polygon class="st5" points="356,179 334.3,182.5 315.7,164.3 336.9,160.9 		"/>
		<polygon class="st5" points="356,179 363.3,177.8 356.6,171.6 349.4,172.7 		"/>
		<polygon class="st5" points="343.1,166.8 350.3,165.6 356.6,171.6 349.4,172.7 		"/>
		<polygon class="st5" points="378.6,161.2 350.3,165.6 363.3,177.8 392,173.2 		"/>
		<polygon class="st5" points="378.6,161.2 392.6,159 406.2,171 392,173.2 		"/>
		<polygon class="st5" points="400.1,151.1 386.2,153.3 406.2,171 420.3,168.7 		"/>
		<polygon class="st5" points="400.1,151.1 413.9,149 434.5,166.4 420.3,168.7 		"/>
		<polygon class="st5" points="427.9,146.8 413.9,149 441.3,172.2 455.7,169.9 		"/>
		<polygon class="st5" points="470.5,182.2 448.8,185.8 434.2,173.4 455.7,169.9 		"/>
		<polygon class="st5" points="470.5,182.2 448.8,185.8 471,204.9 493.2,201.1 		"/>
		<polygon class="st5" points="448.7,193.2 441.5,187 427.1,189.4 448.9,208.7 460,206.8 463.7,206.2 471,204.9 455.9,192 		"/>
		<polygon class="st5" points="412.6,191.8 427.1,189.4 448.9,208.7 434.2,211.2 		"/>
		<polygon class="st5" points="412.6,191.8 398,194.2 419.3,213.8 434.2,211.2 		"/>
		<polygon class="st5" points="369.7,183.9 384.1,181.5 419.3,213.8 404.3,216.4 		"/>
		<polygon class="st5" points="369.7,183.9 355.2,186.2 389.3,219 404.3,216.4 		"/>
		<polygon class="st5" points="354.5,193.9 347.8,187.4 340.5,188.6 374.1,221.6 378.4,220.8 381.7,220.3 389.3,219 361.9,192.7 		
			"/>
		<polygon class="st5" points="325.4,191 340.5,188.6 374.1,221.6 358.5,224.2 		"/>
		<polygon class="st5" points="325.4,191 310.6,193.5 343.1,226.9 358.5,224.2 		"/>
		<polygon class="st5" points="295.4,195.9 310.6,193.5 343.1,226.9 327.4,229.6 		"/>
		<polygon class="st5" points="295.4,195.9 280.3,198.4 311.7,232.3 327.4,229.6 		"/>
		<polygon class="st5" points="265.2,200.8 280.3,198.4 311.7,232.3 296,234.9 		"/>
		<polygon class="st5" points="265.2,200.8 249.7,203.3 280,237.7 296,234.9 		"/>
		<polygon class="st5" points="234.2,205.8 249.7,203.3 280,237.7 263.9,240.5 		"/>
		<polygon class="st5" points="234.2,205.8 218.5,208.4 247.7,243.2 263.9,240.5 		"/>
		<polygon class="st5" points="202.9,210.9 218.5,208.4 247.7,243.2 231.5,246 		"/>
		<polygon class="st5" points="202.9,210.9 187.1,213.5 215,248.8 231.5,246 		"/>
		<polygon class="st5" points="170.6,216.1 187.1,213.5 215,248.8 197.9,251.8 		"/>
		<polygon class="st5" points="186.4,236.7 172.1,239.1 183.4,254.3 197.9,251.8 		"/>
		<polygon class="st5" points="159.2,241.3 172.1,239.1 183.4,254.3 170.3,256.5 		"/>
		<polygon class="st5" points="159.2,241.3 147,243.3 157.9,258.6 170.3,256.5 		"/>
		<polygon class="st5" points="134.2,245.5 147,243.3 157.9,258.6 144.9,260.9 		"/>
		<polygon class="st5" points="134.2,245.5 121.7,247.6 132.1,263.1 144.9,260.9 		"/>
		<polygon class="st5" points="97.4,251.7 121.7,247.6 132.1,263.1 107.4,267.3 		"/>
		<polygon class="st5" points="97.4,251.7 114.9,248.7 107.9,238.2 90.5,241 		"/>
		<polygon class="st5" points="83.4,229.9 100.6,227.2 107.9,238.2 90.5,241 		"/>
		<polygon class="st5" points="170.6,216.1 139.8,221.1 150.2,235.5 181.5,230.3 		"/>
		<polygon class="st5" points="131.4,222.5 139.8,221.1 147.4,231.7 138.9,233.1 		"/>
		<polygon class="st5" points="427.1,181.9 441.4,179.6 434.2,173.4 420,175.7 		"/>
		<polygon class="st5" points="427.1,181.9 419.9,183.1 412.9,176.9 420,175.7 		"/>
		<polygon class="st5" points="120.1,205.6 124.1,205 131.3,215.1 127.3,215.7 		"/>
		<polygon class="st1" points="336.6,162 68.8,203.6 67.8,202 336.6,160.3 		"/>
		<polygon class="st2" points="107.4,267.3 66.1,203 66.1,201.3 107.4,265.5 		"/>
		<polygon class="st2" points="112.2,246.4 82.2,201.6 82.2,199.8 113.3,246.2 		"/>
		<polygon class="st2" points="109.2,217.6 96.6,199.3 96.6,197.6 109.2,215.9 		"/>
		<polygon class="st1" points="345.2,165.7 392.3,158.3 392.3,160 346.8,167.2 		"/>
		<polygon class="st1" points="388.4,152.2 427.6,146.1 427.6,147.9 390.1,153.7 		"/>
		<polygon class="st2" points="125.5,215 112.6,196.8 112.6,195.1 125.5,213.2 		"/>
		<polygon class="st2" points="129.6,214.3 116.6,196.2 116.6,194.5 129.6,212.6 		"/>
		<polygon class="st2" points="141.5,212.4 128.2,194.4 128.2,192.6 141.5,210.7 		"/>
		<polygon class="st2" points="172.1,207.5 158.3,189.7 158.3,188 172.1,205.8 		"/>
		<polygon class="st2" points="180.1,206.2 166.1,188.5 166.1,186.8 180.1,204.5 		"/>
		<polygon class="st2" points="187.7,205 183.7,200 183.7,198.3 187.7,203.3 		"/>
		<polygon class="st2" points="195.8,203.7 181.5,186.1 181.5,184.4 195.8,202 		"/>
		<polygon class="st2" points="211.3,201.2 196.7,183.8 196.7,182 211.3,199.5 		"/>
		<polygon class="st2" points="226.5,198.8 211.9,181.4 211.9,179.6 226.8,197 		"/>
		<polygon class="st2" points="242.1,196.3 226.9,179.1 226.9,177.3 242.1,194.5 		"/>
		<polygon class="st2" points="257.5,193.8 242,176.7 242,175 257.5,192.1 		"/>
		<polygon class="st2" points="272.5,191.4 256.7,174.4 256.7,172.7 272.5,189.7 		"/>
		<polygon class="st2" points="287.5,189 271.5,172.1 271.5,170.4 287.5,187.2 		"/>
		<polygon class="st2" points="302.5,186.6 286.2,169.9 286.2,168.1 302.5,184.8 		"/>
		<polygon class="st2" points="317.2,184.2 300.7,167.6 300.7,165.9 317.2,182.5 		"/>
		<polygon class="st2" points="332.1,181.8 315.3,165.3 315.3,163.6 332.1,180.1 		"/>
		<polygon class="st2" points="353.8,178.4 336.6,162 336.6,160.3 353.8,176.6 		"/>
		<polygon class="st2" points="361.1,177.2 350,166.7 350,164.9 361.1,175.4 		"/>
		<polygon class="st2" points="389.8,172.6 378.3,162.2 378.3,160.5 389.8,170.8 		"/>
		<polygon class="st2" points="403.9,170.3 392.3,160 392.3,158.3 403.9,168.6 		"/>
		<polygon class="st1" points="134.3,223.1 133.2,221.5 347.5,186.7 347.5,188.5 		"/>
		<polygon class="st2" points="390.9,157.5 386.2,153.3 386.2,151.5 392.6,157.2 		"/>
		<polygon class="st2" points="418.1,168 399.7,152.2 399.7,150.4 418.1,166.3 		"/>
		<polygon class="st2" points="432.2,165.8 413.6,150 413.6,148.3 432.2,164 		"/>
		<polygon class="st2" points="441.3,172.2 434.5,166.4 434.5,164.7 441.3,170.5 		"/>
		<polygon class="st1" points="401.7,194.6 400.1,193.1 441.2,186.3 441.2,188.1 		"/>
		<polygon class="st1" points="358.9,186.6 357.3,185.1 383.8,180.8 383.8,182.6 		"/>
		<polygon class="st1" points="354.2,195 354.2,193.2 361.6,192 361.6,193.7 		"/>
		<polygon class="st2" points="419.9,183.1 412.9,176.9 412.9,175.1 419.9,181.3 		"/>
		<polygon class="st2" points="455.9,192 441.4,179.6 441.4,177.8 455.9,190.2 		"/>
		<polygon class="st2" points="468.8,204.3 455.6,193 455.6,191.3 468.8,202.6 		"/>
		<polygon class="st2" points="448.4,194.3 441.2,188.1 441.2,186.3 448.4,192.5 		"/>
		<polygon class="st2" points="446.7,208.1 426.7,190.5 426.7,188.7 446.7,206.3 		"/>
		<polygon class="st2" points="432,210.6 412.3,192.8 412.3,191.1 432,208.9 		"/>
		<polygon class="st2" points="417.1,213.2 383.8,182.6 383.8,180.8 417.1,211.4 		"/>
		<polygon class="st2" points="402.2,215.7 369.4,184.9 369.4,183.2 402.2,214 		"/>
		<polygon class="st2" points="361.9,192.7 355.2,186.2 355.2,184.5 361.9,190.9 		"/>
		<polygon class="st2" points="354.2,195 347.5,188.5 347.5,186.7 354.2,193.2 		"/>
		<polygon class="st2" points="387.2,218.3 361.6,193.7 361.6,192 387.2,216.6 		"/>
		<polygon class="st2" points="372,220.9 340.1,189.7 340.1,187.9 372,219.2 		"/>
		<polygon class="st2" points="356.4,223.6 325.1,192.1 325.1,190.4 356.4,221.8 		"/>
		<polygon class="st2" points="341,226.2 310.2,194.5 310.2,192.8 341,224.5 		"/>
		<polygon class="st2" points="325.4,228.9 295.1,197 295.1,195.2 325.4,227.1 		"/>
		<polygon class="st2" points="309.7,231.6 279.9,199.4 279.9,197.7 309.7,229.8 		"/>
		<polygon class="st2" points="294.1,234.3 264.8,201.9 264.8,200.1 294.1,232.5 		"/>
		<polygon class="st2" points="278.1,237 249.3,204.4 249.3,202.7 278.1,235.3 		"/>
		<polygon class="st2" points="262,239.8 233.8,206.9 233.8,205.2 262,238 		"/>
		<polygon class="st2" points="245.8,242.6 218.1,209.5 218.1,207.7 245.8,240.8 		"/>
		<polygon class="st2" points="229.6,245.3 202.5,212 202.5,210.2 229.6,243.6 		"/>
		<polygon class="st1" points="100.1,252.2 99,250.7 186,236.1 186,237.8 		"/>
		<polygon class="st2" points="213.2,248.1 186.7,214.6 186.7,212.8 213.2,246.4 		"/>
		<polygon class="st2" points="179.7,229.6 170.2,217.2 170.2,215.5 179.7,227.8 		"/>
		<polygon class="st2" points="186.4,236.7 181.5,230.3 181.5,228.5 186.4,235 		"/>
		<polygon class="st2" points="196.1,251.1 186,237.8 186,236.1 196.1,249.3 		"/>
		<polygon class="st2" points="181.6,253.6 171.7,240.2 171.7,238.5 181.6,251.8 		"/>
		<polygon class="st2" points="168.5,255.8 158.8,242.4 158.8,240.6 168.5,254.1 		"/>
		<polygon class="st2" points="156.2,257.9 146.6,244.4 146.6,242.7 156.2,256.2 		"/>
		<polygon class="st2" points="143.2,260.2 133.8,246.6 133.8,244.8 143.2,258.4 		"/>
		<polygon class="st2" points="130.4,262.3 121.2,248.7 121.2,246.9 130.4,260.6 		"/>
		<polygon class="st2" points="145.7,230.9 139.4,222.2 139.4,220.5 145.7,229.2 		"/>
		<polygon class="st2" points="138.9,233.1 131.4,222.5 131.4,220.8 138.9,231.3 		"/>
		<polygon class="st2" points="150.2,235.5 147.4,231.7 147.4,229.9 150.2,233.7 		"/>
		<polygon class="st2" points="490.9,200.5 427.6,147.9 427.6,146.1 490.9,198.8 		"/>
		<polygon class="st1" points="416.8,177.2 415.1,175.8 455.4,169.2 455.4,171 		"/>
		<polygon class="st1" points="452.7,186.2 451,184.7 470.2,181.6 470.2,183.3 		"/>
		<polygon class="st1" points="448.4,194.3 448.4,192.5 455.6,191.3 455.6,193 		"/>
		<polygon class="st1" points="434.5,166.4 97.2,220.6 96.2,219 434.5,164.7 		"/>
		<polygon class="st1" points="353.1,173.1 351.5,171.6 356.3,170.9 356.3,172.6 		"/>
		<polygon class="st1" points="183.7,198.3 183.7,200 179.6,200.7 178.4,199.1 		"/>
		<polygon class="st1" points="123.6,204.3 123.6,206.1 122.9,206.2 121.8,204.6 		"/>
		<polygon class="st2" points="439.1,178.9 433.9,174.5 433.9,172.7 439.1,177.2 		"/>
		<polygon class="st2" points="424.8,181.3 419.7,176.8 419.7,175 424.8,179.5 		"/>
		<polygon class="st1" points="138.9,233.1 138.9,231.3 147.4,229.9 147.4,231.7 		"/>
		<polygon class="st1" points="150.2,235.5 150.2,233.7 181.5,228.5 181.5,230.3 		"/>
		<polygon class="st1" points="86.1,230.5 85.1,228.9 100.1,226.5 100.1,228.3 		"/>
		<polygon class="st1" points="93.2,241.6 92.2,240 107.4,237.5 107.4,239.3 		"/>
		<polygon class="st1" points="107.4,267.3 107.4,265.5 493.2,199.4 493.2,201.1 		"/>
		<polygon class="st1" points="419.9,183.1 419.9,181.3 441.4,177.8 441.4,179.6 		"/>
		<g>
			<path class="st0" d="M82.2,199.8l16.6,24.9l-14.9,2.4L67.8,202L82.2,199.8 M82.6,198.7l-16.5,2.6l17.3,26.9l17.1-2.8L82.6,198.7
				L82.6,198.7z"/>
			<path class="st0" d="M96.6,197.6l12.6,18.3l-12.6,2l-12.3-18.4L96.6,197.6 M97.1,196.5l-14.4,2.2L96.2,219l14.8-2.4L97.1,196.5
				L97.1,196.5z"/>
			<path class="st0" d="M112.6,195.1l12.9,18.2l-14.1,2.3l-12.6-18.3L112.6,195.1 M113.1,194l-16,2.5l13.8,20.1l16.3-2.6L113.1,194
				L113.1,194z"/>
			<path class="st0" d="M116.6,194.5l5.8,8l-1.8,0.3l-5.7-8L116.6,194.5 M117,193.4l-4,0.6l7,9.9l4-0.6L117,193.4L117,193.4z"/>
			<path class="st0" d="M128.2,192.6l13.2,18l-9.7,1.6l-13-18.1L128.2,192.6 M128.7,191.6l-11.7,1.8l14.3,19.9l11.9-1.9L128.7,191.6
				L128.7,191.6z"/>
			<path class="st0" d="M158.3,188l13.8,17.8l-28.4,4.6l-13.2-18L158.3,188 M158.7,186.9l-30,4.7l14.6,19.8l30.7-4.9L158.7,186.9
				L158.7,186.9z"/>
			<path class="st0" d="M166.1,186.8l14,17.7l-5.7,0.9l-13.8-17.8L166.1,186.8 M166.5,185.7l-7.8,1.2l15.2,19.6l8-1.3L166.5,185.7
				L166.5,185.7z"/>
			<path class="st0" d="M183.7,198.3l4,5l-5.4,0.9l-3.9-5L183.7,198.3 M184.1,197.2l-7.6,1.2l5.4,6.8l7.6-1.2L184.1,197.2
				L184.1,197.2z"/>
			<path class="st0" d="M181.5,184.4l14.3,17.6l-5.8,0.9l-5.1-6.3l-0.4-0.5l-0.6,0.1l-7,1.1l-8.6-10.9l5.8-0.9l3.1-0.5L181.5,184.4
				 M181.9,183.3l-4.8,0.7l-3.1,0.5l-7.5,1.2l10.1,12.7l7.6-1.2l5.4,6.8l8.1-1.3L181.9,183.3L181.9,183.3z"/>
			<path class="st0" d="M196.7,182l14.6,17.5l-13.2,2.1L183.8,184L196.7,182 M197.1,180.9l-15.2,2.4l15.8,19.4l15.5-2.5L197.1,180.9
				L197.1,180.9z"/>
			<path class="st0" d="M211.9,179.6l14.9,17.3l-13.2,2.1L199,181.7L211.9,179.6 M212.3,178.6l-15.2,2.4l16.1,19.3l15.6-2.5
				L212.3,178.6L212.3,178.6z"/>
			<path class="st0" d="M226.9,177.3l15.2,17.2l-13,2.1l-14.9-17.3L226.9,177.3 M227.3,176.2l-15,2.3l16.4,19.1l15.4-2.5
				L227.3,176.2L227.3,176.2z"/>
			<path class="st0" d="M242,175l15.5,17.1l-13,2.1L229.3,177L242,175 M242.4,173.9l-15.1,2.3l16.7,19l15.4-2.5L242.4,173.9
				L242.4,173.9z"/>
			<path class="st0" d="M256.7,172.7l15.8,17l-12.6,2l-15.5-17.1L256.7,172.7 M257.1,171.6l-14.7,2.3l17.1,18.9l15-2.4L257.1,171.6
				L257.1,171.6z"/>
			<path class="st0" d="M271.5,170.4l16,16.9l-12.6,2l-15.7-17L271.5,170.4 M271.8,169.3l-14.7,2.3l17.4,18.7l15-2.4L271.8,169.3
				L271.8,169.3z"/>
			<path class="st0" d="M286.2,168.1l16.3,16.7l-12.6,2l-16-16.9L286.2,168.1 M286.5,167l-14.7,2.3l17.7,18.6l15-2.4L286.5,167
				L286.5,167z"/>
			<path class="st0" d="M300.7,165.9l16.6,16.6l-12.3,2l-16.3-16.7L300.7,165.9 M301,164.8l-14.5,2.2l18,18.5l14.8-2.4L301,164.8
				L301,164.8z"/>
			<path class="st0" d="M315.3,163.6l16.8,16.5l-12.5,2L303,165.5L315.3,163.6 M315.7,162.5l-14.7,2.3l18.3,18.4l14.9-2.4
				L315.7,162.5L315.7,162.5z"/>
			<path class="st0" d="M336.6,160.3l17.2,16.3l-19.2,3.1l-16.8-16.5L336.6,160.3 M336.9,159.2l-21.3,3.3l18.6,18.2l21.7-3.5
				L336.9,159.2L336.9,159.2z"/>
			<path class="st0" d="M356.3,170.9l4.8,4.5l-4.8,0.8l-4.8-4.6L356.3,170.9 M356.6,169.8l-7.3,1.2l6.6,6.3l7.3-1.2L356.6,169.8
				L356.6,169.8z"/>
			<path class="st0" d="M350,164.9l4.5,4.2l-4.8,0.8l-4.5-4.2L350,164.9 M350.3,163.9l-7.2,1.1l6.3,6l7.3-1.2L350.3,163.9
				L350.3,163.9z"/>
			<path class="st0" d="M378.3,160.5l11.5,10.3l-26.2,4.2l-11.2-10.5L378.3,160.5 M378.6,159.4l-28.3,4.5l13,12.2l28.7-4.6
				L378.6,159.4L378.6,159.4z"/>
			<path class="st0" d="M392.3,158.3l11.6,10.3l-11.6,1.9l-11.5-10.3L392.3,158.3 M392.6,157.2l-14,2.2l13.4,12.1l14.1-2.3
				L392.6,157.2L392.6,157.2z"/>
			<path class="st0" d="M399.7,150.4l18.3,15.8l-11.6,1.9l-18.1-15.9L399.7,150.4 M400.1,149.4l-13.9,2.2l20,17.7l14.2-2.3
				L400.1,149.4L400.1,149.4z"/>
			<path class="st0" d="M413.6,148.3l18.5,15.7l-11.5,1.9l-18.3-15.8L413.6,148.3 M413.9,147.2l-13.9,2.2l20.3,17.5l14.1-2.3
				L413.9,147.2L413.9,147.2z"/>
			<path class="st0" d="M427.6,146.1l25.7,21.4l-11.7,1.9l-25.4-21.5L427.6,146.1 M427.9,145.1l-14,2.2l27.4,23.3l14.3-2.3
				L427.9,145.1L427.9,145.1z"/>
			<path class="st0" d="M455.4,169.2l12.8,10.6l-19.1,3.2l-12.5-10.7L455.4,169.2 M455.7,168.2l-21.4,3.5l14.5,12.4l21.7-3.6
				L455.7,168.2L455.7,168.2z"/>
			<path class="st0" d="M470.2,181.6l20.7,17.2l-19.5,3.3L451,184.7L470.2,181.6 M470.5,180.5l-21.7,3.6l22.3,19.1l22.1-3.8
				L470.5,180.5L470.5,180.5z"/>
			<path class="st0" d="M441.2,186.3l6.8,5.9l0.4,0.3l0.5-0.1l6.8-1.1l13.1,11.3l-5.3,0.9l-3.7,0.6l-10.6,1.8l-20-17.6L441.2,186.3
				 M441.5,185.2l-14.4,2.4l21.9,19.3l11-1.9l3.7-0.6l7.4-1.3L456,190.2l-7.3,1.2L441.5,185.2L441.5,185.2z"/>
			<path class="st0" d="M426.7,188.7l20,17.6l-12.2,2.1l-19.7-17.7L426.7,188.7 M427.1,187.6l-14.4,2.4l21.6,19.5L449,207
				L427.1,187.6L427.1,187.6z"/>
			<path class="st0" d="M412.3,191.1l19.7,17.8l-12.5,2.1l-19.4-17.9L412.3,191.1 M412.6,190l-14.7,2.4l21.3,19.6l15-2.6L412.6,190
				L412.6,190z"/>
			<path class="st0" d="M383.8,180.8l33.3,30.6l-12.4,2.1l-32.8-30.7L383.8,180.8 M384.1,179.8l-14.4,2.3l34.6,32.5l14.9-2.6
				L384.1,179.8L384.1,179.8z"/>
			<path class="st0" d="M369.4,183.2l32.8,30.8l-12.6,2.2l-32.3-31L369.4,183.2 M369.7,182.1l-14.5,2.4l34.1,32.7l15-2.6
				L369.7,182.1L369.7,182.1z"/>
			<path class="st0" d="M347.5,186.7l6.3,6.1l0.4,0.4l0.5-0.1l6.9-1.1l25.6,24.6l-5.6,1l-3.3,0.6l-3.9,0.7l-31.8-31.2L347.5,186.7
				 M347.8,185.7l-7.4,1.2l33.6,33l4.4-0.8l3.3-0.6l7.6-1.3l-27.4-26.3l-7.4,1.2L347.8,185.7L347.8,185.7z"/>
			<path class="st0" d="M340.1,187.9l31.8,31.2l-13.1,2.3L327.5,190L340.1,187.9 M340.5,186.9l-15,2.4l33.1,33.2l15.6-2.7
				L340.5,186.9L340.5,186.9z"/>
			<path class="st0" d="M325.1,190.4l31.3,31.5l-13,2.2l-30.8-31.7L325.1,190.4 M325.4,189.3l-14.9,2.4l32.5,33.4l15.4-2.6
				L325.4,189.3L325.4,189.3z"/>
			<path class="st0" d="M310.2,192.8l30.8,31.7l-13.3,2.3l-30.2-32L310.2,192.8 M310.6,191.7l-15.1,2.5l32,33.7l15.7-2.7
				L310.6,191.7L310.6,191.7z"/>
			<path class="st0" d="M295.1,195.2l30.3,31.9l-13.3,2.3l-29.8-32.1L295.1,195.2 M295.4,194.2l-15.1,2.5l31.4,33.9l15.7-2.7
				L295.4,194.2L295.4,194.2z"/>
			<path class="st0" d="M279.9,197.7l29.8,32.1l-13.3,2.3l-29.3-32.3L279.9,197.7 M280.3,196.6l-15.1,2.5l30.9,34.1l15.7-2.7
				L280.3,196.6L280.3,196.6z"/>
			<path class="st0" d="M264.8,200.1l29.3,32.4l-13.7,2.4l-28.7-32.6L264.8,200.1 M265.2,199.1l-15.5,2.5L280,236l16.1-2.8
				L265.2,199.1L265.2,199.1z"/>
			<path class="st0" d="M249.3,202.7l28.8,32.6l-13.7,2.4l-28.3-32.9L249.3,202.7 M249.7,201.6l-15.5,2.5l29.7,34.6l16.1-2.8
				L249.7,201.6L249.7,201.6z"/>
			<path class="st0" d="M233.8,205.2l28.2,32.9l-14,2.4l-27.6-33.1L233.8,205.2 M234.2,204.1l-15.7,2.5l29.1,34.9l16.3-2.8
				L234.2,204.1L234.2,204.1z"/>
			<path class="st0" d="M218.1,207.7l27.7,33.1l-13.9,2.4l-27.1-33.3L218.1,207.7 M218.5,206.6l-15.6,2.5l28.5,35.1l16.2-2.8
				L218.5,206.6L218.5,206.6z"/>
			<path class="st0" d="M202.5,210.2l27.1,33.3l-14.2,2.4l-26.5-33.6L202.5,210.2 M202.9,209.2l-15.8,2.6l27.9,35.4l16.4-2.8
				L202.9,209.2L202.9,209.2z"/>
			<path class="st0" d="M186.7,212.8l26.5,33.6l-14.8,2.5l-25.9-33.8L186.7,212.8 M187.1,211.7l-16.4,2.7L198,250l17.1-2.9
				L187.1,211.7L187.1,211.7z"/>
			<path class="st0" d="M186,236.1l10.1,13.2l-12.3,2.1l-9.9-13.3L186,236.1 M186.4,235l-14.3,2.4l11.3,15.1l14.5-2.5L186.4,235
				L186.4,235z"/>
			<path class="st0" d="M171.7,238.5l9.9,13.3l-10.9,1.9l-9.8-13.4L171.7,238.5 M172.1,237.4l-12.9,2.2l11.1,15.2l13.1-2.2
				L172.1,237.4L172.1,237.4z"/>
			<path class="st0" d="M158.8,240.6l9.8,13.4l-10.2,1.7l-9.6-13.5L158.8,240.6 M159.2,239.6l-12.2,2l10.9,15.3l12.4-2.1
				L159.2,239.6L159.2,239.6z"/>
			<path class="st0" d="M146.6,242.7l9.6,13.5l-10.8,1.9l-9.4-13.6L146.6,242.7 M147,241.6l-12.8,2.1l10.7,15.4l13-2.2L147,241.6
				L147,241.6z"/>
			<path class="st0" d="M133.8,244.8l9.4,13.6l-10.6,1.8l-9.2-13.6L133.8,244.8 M134.2,243.7l-12.6,2.1l10.5,15.5l12.8-2.2
				L134.2,243.7L134.2,243.7z"/>
			<path class="st0" d="M121.2,246.9l9.2,13.7l-22.5,3.9L99,250.8L121.2,246.9 M121.7,245.8l-24.3,4.1l10.1,15.6l24.7-4.2
				L121.7,245.8L121.7,245.8z"/>
			<path class="st0" d="M107.4,237.5l5.8,8.7l-15.4,2.6l-5.7-8.8L107.4,237.5 M107.9,236.4l-17.4,2.9l6.8,10.6l17.6-2.9L107.9,236.4
				L107.9,236.4z"/>
			<path class="st0" d="M100.1,226.5l6.1,9.2L91,238.3l-6-9.3L100.1,226.5 M100.6,225.4l-17.1,2.8l7.1,11.1l17.4-2.9L100.6,225.4
				L100.6,225.4z"/>
			<path class="st0" d="M170.2,215.5l9.4,12.3l-29,4.8l-9-12.5L170.2,215.5 M170.6,214.4l-30.8,5l10.3,14.3l31.3-5.2L170.6,214.4
				L170.6,214.4z"/>
			<path class="st0" d="M139.4,220.5l6.3,8.7l-6.3,1l-6.2-8.7L139.4,220.5 M139.8,219.4l-8.4,1.4l7.5,10.6l8.5-1.4L139.8,219.4
				L139.8,219.4z"/>
			<path class="st0" d="M433.9,172.7l5.2,4.5l-11.7,1.9l-5.2-4.5L433.9,172.7 M434.2,171.6l-14.2,2.3l7.1,6.2l14.3-2.4L434.2,171.6
				L434.2,171.6z"/>
			<path class="st0" d="M419.7,175l5.2,4.5l-4.6,0.8l-5.1-4.5L419.7,175 M420,174l-7.1,1.2l7.1,6.2l7.2-1.2L420,174L420,174z"/>
			<path class="st0" d="M123.6,204.3l5.9,8.3l-1.8,0.3l-5.9-8.3L123.6,204.3 M124.1,203.2l-4,0.6l7.2,10.1l4-0.6L124.1,203.2
				L124.1,203.2z"/>
		</g>
		<text transform="matrix(1 0 0 1 -12.075 179.1517)" class="st6 st7 st8">Level 4</text>
	</g>
</g>
<g id="Level_5">
	<g>
		<g>
			<g>
				<path class="st0" d="M501.8,108.8L464,76.9l0,0l-28.4-23.7c-1.8-1.5-4.1-2.3-6.4-2.3c-0.5,0-1,0-1.6,0.1l-13.9,2.2l0,0
					l-13.6,2.1L386,57.5c-3.9,0.6-7,3.4-8.1,7.1c-0.1,0.4-0.2,0.7-0.2,1.1l-1.8,0.3l-28.2,4.5l-2.3,0.4l-2.7-2.5
					c-1.9-1.8-4.4-2.8-6.9-2.8c-0.5,0-1,0-1.6,0.1l-21.4,3.4l-14.4,2.3l-14.3,2.2l-14.8,2.3l-14.5,2.3l-14.4,2.3L217.8,84l0,0
					l-3.4,0.5l-4.1,0.6l-14.7,2.3l0,0l-15.2,2.4l-5.6,0.9l-1.9,0.3l-7.6,1.2c-3.5,0.6-6.5,3-7.8,6.3c-0.3,0.7-0.5,1.4-0.6,2.2
					l-25.1,4l-9.3,1.5l-1.1-1.5c-1.9-2.7-5-4.2-8.2-4.2c-0.5,0-1,0-1.6,0.1L64.7,108c-3.4,0.5-6.2,2.7-7.6,5.8s-1.1,6.7,0.8,9.6
					l17.9,27.6l24.1,37.1c1.9,2.9,5.1,4.6,8.4,4.6c0.6,0,1.1,0,1.7-0.1l75.1-12.8l24.7-4.2l24-4.1l16-2.7l15.9-2.7l15.9-2.7
					l16.1-2.8l15.4-2.6l15.9-2.7l15.3-2.6l45.8-7.8l15.3-2.6l14.8-2.5l15-2.6l14.9-2.5l24.8-4.2l21.8-3.7c3.9-0.7,7-3.5,8-7.3
					C506.1,115.3,504.8,111.3,501.8,108.8z"/>
			</g>
		</g>
		<path class="st3" d="M457.5,83.4l-28.4-23.7l-13.9,2.2L401.6,64l-14.1,2.2l6.6,5.9l-2.4,0.4l-14.3,2.3l-28.2,4.5l-7.2,1.1l-6.3-6
			l-21.4,3.4l-14.4,2.3l-14.3,2.2l-14.8,2.3l-14.5,2.3l-14.4,2.3l-22.6,3.5l-3.4,0.5l-4.1,0.6L191.5,97l-9.6,1.5l-5.6,0.9l-1.9,0.3
			l-7.6,1.2l5,6.3l-7.4,1.2l-31.1,4.9l-15.4,2.4l0.8,1.1l-5.5-7.6l-46.9,7.4l17.9,27.6l24.1,37.1l75.1-12.8l24.7-4.2l24-4.1l16-2.7
			l15.9-2.7l15.9-2.7l16.1-2.8l15.4-2.6l15.9-2.7l15.3-2.6l45.8-7.8l15.3-2.6l14.8-2.5l15-2.6l14.9-2.5l24.8-4.2l21.8-3.7
			L457.5,83.4z"/>
		<g>
			<polygon class="st4" points="132.6,136.3 84.3,144.2 66.3,116.6 113.2,109.3 			"/>
			<polygon class="st4" points="156.5,132.4 84.3,144.2 108.4,181.2 183.5,168.4 			"/>
			<polygon class="st4" points="156.5,132.4 180.2,128.6 208.2,164.2 183.5,168.4 			"/>
			<polygon class="st4" points="203.4,124.8 180.2,128.6 208.2,164.2 232.2,160.1 			"/>
			<polygon class="st4" points="203.4,124.8 218.8,122.3 248.2,157.4 232.2,160.1 			"/>
			<polygon class="st4" points="234.2,119.8 218.8,122.3 248.2,157.4 264.2,154.7 			"/>
			<polygon class="st4" points="234.2,119.8 249.5,117.3 280.1,152 264.2,154.7 			"/>
			<polygon class="st4" points="265.1,114.8 249.5,117.3 280.1,152 296.3,149.2 			"/>
			<polygon class="st4" points="265.1,114.8 279.9,112.3 311.6,146.6 296.3,149.2 			"/>
			<polygon class="st4" points="295.2,109.9 279.9,112.3 311.6,146.6 327.5,143.9 			"/>
			<polygon class="st4" points="295.2,109.9 310,107.4 342.9,141.3 327.5,143.9 			"/>
			<polygon class="st4" points="354.2,100.3 310,107.4 342.9,141.3 388.7,133.5 			"/>
			<polygon class="st4" points="354.2,100.3 368.9,97.9 404,130.9 388.7,133.5 			"/>
			<polygon class="st4" points="383.3,95.5 368.9,97.9 404,130.9 418.8,128.3 			"/>
			<polygon class="st4" points="383.3,95.5 397.7,93.2 433.8,125.8 418.8,128.3 			"/>
			<polygon class="st4" points="412.1,90.8 397.7,93.2 433.8,125.8 448.7,123.3 			"/>
			<polygon class="st4" points="412.1,90.8 436.1,86.9 473.5,119 448.7,123.3 			"/>
			<polygon class="st4" points="457.5,83.4 436.1,86.9 473.5,119 495.3,115.3 			"/>
			<polygon class="st4" points="457.5,83.4 443.2,85.8 415.1,61.9 429.1,59.7 			"/>
			<polygon class="st4" points="422.3,82 436.1,79.7 415.1,61.9 401.6,64.1 			"/>
			<polygon class="st4" points="422.3,82 407.9,84.3 387.5,66.3 401.6,64.1 			"/>
			<polygon class="st4" points="398.3,78.6 400.9,78.1 394.1,72.1 391.5,72.5 			"/>
			<polygon class="st4" points="398.3,78.6 400.9,78.1 407.9,84.3 405.2,84.7 			"/>
			<polygon class="st4" points="391.5,72.5 377.4,74.8 390.9,87 405.2,84.7 			"/>
			<polygon class="st4" points="349.2,79.2 377.4,74.8 390.9,87 362.3,91.6 			"/>
			<polygon class="st4" points="349.2,79.2 342,80.4 348.5,86.6 355.7,85.4 			"/>
			<polygon class="st4" points="362.3,91.6 355,92.8 348.5,86.6 355.7,85.4 			"/>
			<polygon class="st4" points="333.1,96.4 355,92.8 335.7,74.4 314.3,77.8 			"/>
			<polygon class="st4" points="333.1,96.4 318.4,98.7 299.8,80 314.3,77.8 			"/>
			<polygon class="st4" points="303.8,101.1 318.4,98.7 299.8,80 285.6,82.3 			"/>
			<polygon class="st4" points="303.8,101.1 288.7,103.5 270.8,84.6 285.6,82.3 			"/>
			<polygon class="st4" points="273.9,105.9 288.7,103.5 270.8,84.6 256.3,86.9 			"/>
			<polygon class="st4" points="273.9,105.9 251.5,109.5 253.1,101.5 241.9,89.1 256.3,86.9 			"/>
			<polygon class="st4" points="236.2,112 251.5,109.5 253.1,101.5 241.9,89.1 219.3,92.7 			"/>
			<polygon class="st4" points="198,118.2 213.5,115.6 197.2,96.2 182,98.6 			"/>
			<polygon class="st4" points="182.5,120.7 190.2,119.4 184.8,112.7 177.2,113.9 			"/>
			<polygon class="st4" points="182.5,120.7 175,121.9 164.5,108.5 171.9,107.3 			"/>
			<polygon class="st4" points="143.4,127 175,121.9 164.5,108.5 133.4,113.4 			"/>
			<polygon class="st4" points="143.4,127 127.7,129.5 117.9,115.8 133.4,113.4 			"/>
			<polygon class="st4" points="176.3,99.5 174.4,99.8 166.9,100.9 177.2,113.9 184.8,112.7 190.2,119.4 198,118.2 182,98.6 			"/>
			<polygon class="st4" points="228.5,113.2 213.5,115.6 208.2,109.2 223,106.9 			"/>
			<polygon class="st4" points="216,93.2 211.9,93.9 197.2,96.2 208.2,109.2 223,106.9 228.5,113.2 236.2,112 219.3,92.7 			"/>
		</g>
		<polygon class="st5" ng-class="{'pulsate': $ctrl.company.comproom == '5055'}" points="132.6,136.3 84.3,144.2 66.3,116.6 113.2,109.3 		"/>
		<polygon class="st5" ng-class="{'pulsate': $ctrl.company.comproom == '5053'}" points="156.5,132.4 84.3,144.2 108.4,181.2 183.5,168.4 		"/>
		<polygon class="st5" ng-class="{'pulsate': $ctrl.company.comproom == '5051'}" points="156.5,132.4 180.2,128.6 208.2,164.2 183.5,168.4 		"/>
		<polygon class="st5" ng-class="{'pulsate': $ctrl.company.comproom == '5049'}" points="203.4,124.8 180.2,128.6 208.2,164.2 232.2,160.1 		"/>
		<polygon class="st5" ng-class="{'pulsate': $ctrl.company.comproom == '5047'}" points="203.4,124.8 218.8,122.3 248.2,157.4 232.2,160.1 		"/>
		<polygon class="st5" ng-class="{'pulsate': $ctrl.company.comproom == '5045'}" points="234.2,119.8 218.8,122.3 248.2,157.4 264.2,154.7 		"/>
		<polygon class="st5" ng-class="{'pulsate': $ctrl.company.comproom == '5043'}" points="234.2,119.8 249.5,117.3 280.1,152 264.2,154.7 		"/>
		<polygon class="st5" ng-class="{'pulsate': $ctrl.company.comproom == '5041'}" points="265.1,114.8 249.5,117.3 280.1,152 296.3,149.2 		"/>
		<polygon class="st5" ng-class="{'pulsate': $ctrl.company.comproom == '5039'}" points="265.1,114.8 279.9,112.3 311.6,146.6 296.3,149.2 		"/>
		<polygon class="st5" ng-class="{'pulsate': $ctrl.company.comproom == '5037'}" points="295.2,109.9 279.9,112.3 311.6,146.6 327.5,143.9 		"/>
		<polygon class="st5" ng-class="{'pulsate': $ctrl.company.comproom == '5035'}" points="295.2,109.9 310,107.4 342.9,141.3 327.5,143.9 		"/>
		<polygon class="st5" ng-class="{'pulsate': $ctrl.company.comproom == '5033'}" points="354.2,100.3 310,107.4 342.9,141.3 388.7,133.5 		"/>
		<polygon class="st5" ng-class="{'pulsate': $ctrl.company.comproom == '5031'}" points="354.2,100.3 368.9,97.9 404,130.9 388.7,133.5 		"/>
		<polygon class="st5" ng-class="{'pulsate': $ctrl.company.comproom == '5029'}" points="383.3,95.5 368.9,97.9 404,130.9 418.8,128.3 		"/>
		<polygon class="st5" ng-class="{'pulsate': $ctrl.company.comproom == '5027'}" points="383.3,95.5 397.7,93.2 433.8,125.8 418.8,128.3 		"/>
		<polygon class="st5" ng-class="{'pulsate': $ctrl.company.comproom == '5025'}" points="412.1,90.8 397.7,93.2 433.8,125.8 448.7,123.3 		"/>
		<polygon class="st5" ng-class="{'pulsate': $ctrl.company.comproom == '5023'}" points="412.1,90.8 436.1,86.9 473.5,119 448.7,123.3 		"/>
		<polygon class="st5" ng-class="{'pulsate': $ctrl.company.comproom == '5021'}" points="457.5,83.4 436.1,86.9 473.5,119 495.3,115.3 		"/>
		<polygon class="st5" ng-class="{'pulsate': $ctrl.company.comproom == '5019'}" points="457.5,83.4 443.2,85.8 415.1,61.9 429.1,59.7 		"/>
		<polygon class="st5" ng-class="{'pulsate': $ctrl.company.comproom == '5017'}" points="422.3,82 436.1,79.7 415.1,61.9 401.6,64.1 		"/>
		<polygon class="st5" ng-class="{'pulsate': $ctrl.company.comproom == '5015'}" points="422.3,82 407.9,84.3 387.5,66.3 401.6,64.1 		"/>
		<polygon class="st5" points="398.3,78.6 400.9,78.1 394.1,72.1 391.5,72.5 		"/>
		<polygon class="st5" points="398.3,78.6 400.9,78.1 407.9,84.3 405.2,84.7 		"/>
		<polygon class="st5" points="391.5,72.5 377.4,74.8 390.9,87 405.2,84.7 		"/>
		<polygon class="st5" points="349.2,79.2 377.4,74.8 390.9,87 362.3,91.6 		"/>
		<polygon class="st5" points="349.2,79.2 342,80.4 348.5,86.6 355.7,85.4 		"/>
		<polygon class="st5" points="362.3,91.6 355,92.8 348.5,86.6 355.7,85.4 		"/>
		<polygon class="st5" ng-class="{'pulsate': $ctrl.company.comproom == '5014'}" points="333.1,96.4 355,92.8 335.7,74.4 314.3,77.8 		"/>
		<polygon class="st5" ng-class="{'pulsate': $ctrl.company.comproom == '5013'}" points="333.1,96.4 318.4,98.7 299.8,80 314.3,77.8 		"/>
		<polygon class="st5" ng-class="{'pulsate': $ctrl.company.comproom == '5012'}" points="303.8,101.1 318.4,98.7 299.8,80 285.6,82.3 		"/>
		<polygon class="st5" ng-class="{'pulsate': $ctrl.company.comproom == '5011'}" points="303.8,101.1 288.7,103.5 270.8,84.6 285.6,82.3 		"/>
		<polygon class="st5" ng-class="{'pulsate': $ctrl.company.comproom == '5010'}" points="273.9,105.9 288.7,103.5 270.8,84.6 256.3,86.9 		"/>
		<polygon class="st5" points="273.9,105.9 251.5,109.5 253.1,101.5 241.9,89.1 256.3,86.9 		"/>
		<polygon class="st5" points="236.2,112 251.5,109.5 253.1,101.5 241.9,89.1 219.3,92.7 		"/>
		<polygon class="st5" points="198,118.2 213.5,115.6 197.2,96.2 182,98.6 		"/>
		<polygon class="st5" points="182.5,120.7 190.2,119.4 184.8,112.7 177.2,113.9 		"/>
		<polygon class="st5" points="182.5,120.7 175,121.9 164.5,108.5 171.9,107.3 		"/>
		<polygon class="st5" points="143.4,127 175,121.9 164.5,108.5 133.4,113.4 		"/>
		<polygon class="st5" points="143.4,127 127.7,129.5 117.9,115.8 133.4,113.4 		"/>
		<polygon class="st5" points="176.3,99.5 174.4,99.8 166.9,100.9 177.2,113.9 184.8,112.7 190.2,119.4 198,118.2 182,98.6 		"/>
		<polygon class="st5" points="228.5,113.2 213.5,115.6 208.2,109.2 223,106.9 		"/>
		<polygon class="st5" points="216,93.2 211.9,93.9 197.2,96.2 208.2,109.2 223,106.9 228.5,113.2 236.2,112 219.3,92.7 		"/>
		<polygon class="st2" points="131.2,136.5 112.9,110.1 112.9,108.5 131.2,134.2 		"/>
		<polygon class="st1" points="68.6,117.1 112.9,110.1 112.9,108.5 67.7,115.6 		"/>
		<polygon class="st1" points="120.3,116.2 132.7,114.3 133,112.7 119.3,114.8 		"/>
		<polygon class="st1" points="135.8,113.8 163.8,109.3 164.1,107.7 134.8,112.4 		"/>
		<polygon class="st1" points="167,108.9 171.3,108.2 171.6,106.6 165.9,107.5 		"/>
		<polygon class="st1" points="169.4,101.3 181.3,99.5 181.6,97.8 168.3,99.9 		"/>
		<polygon class="st1" points="184.5,99 196.6,97.1 196.9,95.4 183.4,97.6 		"/>
		<polygon class="st1" points="199.9,96.5 218.7,93.6 219,92 198.7,95.2 		"/>
		<polygon class="st1" points="210.8,109.6 222.4,107.7 222.7,106.1 209.7,108.2 		"/>
		<polygon class="st1" points="179.4,114.4 184.2,113.6 184.5,112 178.6,112.9 		"/>
		<polygon class="st1" points="222.1,93.1 241.3,90 241.6,88.4 220.9,91.7 		"/>
		<polygon class="st1" points="244.7,89.5 255.7,87.8 256,86.2 243.5,88.1 		"/>
		<polygon class="st1" points="258.9,87.3 270.2,85.5 270.5,83.9 257.9,85.9 		"/>
		<polygon class="st1" points="273.6,85 285,83.2 285.3,81.6 272.4,83.6 		"/>
		<polygon class="st1" points="288.5,82.6 299.3,80.9 299.6,79.3 287.2,81.3 		"/>
		<polygon class="st1" points="302.7,80.4 313.7,78.7 314,77 301.5,79 		"/>
		<polygon class="st1" points="317.2,78.1 335.2,75.3 335.5,73.7 315.9,76.7 		"/>
		<polygon class="st1" points="344.8,80.7 348.6,80.1 348.9,78.5 343.7,79.3 		"/>
		<polygon class="st1" points="352,79.6 376.9,75.6 377.2,74 350.9,78.2 		"/>
		<polygon class="st1" points="380.1,75.2 393.6,73 393.9,71.4 379.2,73.7 		"/>
		<polygon class="st1" points="390.1,66.7 428.5,60.6 428.8,59 389.3,65.1 		"/>
		<polygon class="st2" points="141.7,126.4 132.7,114.3 133,112.7 142,124.8 		"/>
		<polygon class="st2" points="173.2,121.3 163.8,109.3 164.1,107.7 173.5,119.7 		"/>
		<polygon class="st2" points="180.8,120.1 171.3,108.2 171.6,106.6 181,118.5 		"/>
		<polygon class="st2" points="170.5,105.9 166.6,101 166.9,99.4 171.9,105.7 		"/>
		<polygon class="st2" points="188.5,118.9 184.2,113.6 184.5,112 188.8,117.3 		"/>
		<polygon class="st2" points="196.2,117.6 181.3,99.5 181.6,97.8 196.5,116 		"/>
		<polygon class="st2" points="211.7,115.1 196.6,97.1 196.9,95.4 212,113.5 		"/>
		<polygon class="st2" points="226.7,112.8 222.4,107.7 222.7,106.1 227,111.2 		"/>
		<polygon class="st2" points="108.4,181.2 66.3,116.6 66.3,115.1 108.4,179.7 		"/>
		<polygon class="st2" points="234.6,109.9 219,92 218.7,93.6 219,93.9 233.1,110.1 		"/>
		<polygon class="st2" points="241.3,90 241.6,88.4 252.2,100.2 251.9,101.8 		"/>
		<polygon class="st2" points="252.5,107 252.5,107 253.9,99.7 253.6,101.3 		"/>
		<polygon class="st2" points="255.7,87.8 256,86.2 272.3,103.8 270.8,104 		"/>
		<polygon class="st2" points="270.2,85.5 270.5,83.9 287.1,101.4 286.8,103 		"/>
		<polygon class="st2" points="285,83.2 285.3,81.6 302.2,99 301.9,100.6 		"/>
		<polygon class="st2" points="299.3,80.9 299.6,79.3 316.8,96.6 316.5,98.2 		"/>
		<polygon class="st2" points="313.7,78.7 314,77 331.5,94.2 331.2,95.9 		"/>
		<polygon class="st2" points="335.2,75.3 335.5,73.7 353.3,90.7 353,92.3 		"/>
		<polygon class="st2" points="348.6,80.1 348.9,78.5 360.6,89.5 360.3,91.1 		"/>
		<polygon class="st2" points="376.9,75.6 377.2,74 389.2,84.9 388.9,86.5 		"/>
		<polygon class="st2" points="391,73.4 391.3,71.8 403.5,82.6 403.2,84.2 		"/>
		<polygon class="st2" points="393.6,73 393.9,71.4 406.1,82.2 405.8,83.8 		"/>
		<polygon class="st2" points="387.2,66.3 387.5,64.7 394.1,70.5 392.3,70.8 		"/>
		<polygon class="st2" points="401,64.9 401.3,63.3 420.4,79.9 420.2,81.5 		"/>
		<polygon class="st2" points="414.6,62.8 414.9,61.2 434.3,77.7 434,79.3 		"/>
		<polygon class="st2" points="435.8,79.8 436.1,78.1 443.2,84.2 442.9,85.8 		"/>
		<polygon class="st1" points="128.6,129.4 435.8,79.8 436.1,78.1 127.7,127.9 		"/>
		<polygon class="st2" points="233.6,120.7 233.8,119.1 262.7,152.6 262.4,154.2 		"/>
		<polygon class="st2" points="428.5,60.6 428.8,59 493.8,113.2 493.5,114.8 		"/>
		<polygon class="st1" points="351.5,86.8 355.2,86.3 355.5,84.7 350.2,85.5 		"/>
		<polygon class="st1" points="86.5,144.6 456.9,84.3 457.2,82.7 85.6,143.2 		"/>
		<polygon class="st2" points="435.6,87.8 435.8,86.2 471.7,117 471.4,118.6 		"/>
		<polygon class="st2" points="179.6,129.5 179.9,127.9 206.7,162.1 206.4,163.7 		"/>
		<polygon class="st2" points="156.1,133.3 156.1,131.7 182.1,166.3 182.1,167.9 		"/>
		<polygon class="st2" points="218.2,123.2 218.5,121.6 246.7,155.3 246.4,156.9 		"/>
		<polygon class="st2" points="202.7,125.7 203,124.1 230.7,158 230.4,159.6 		"/>
		<polygon class="st2" points="248.9,118.2 249.2,116.6 278.6,149.9 278.3,151.5 		"/>
		<polygon class="st2" points="279.3,113.2 279.6,111.6 310,144.5 309.8,146.1 		"/>
		<polygon class="st2" points="264.5,115.6 264.8,114 294.7,147.1 294.4,148.7 		"/>
		<polygon class="st2" points="294.6,110.7 294.9,109.1 325.9,141.8 325.7,143.4 		"/>
		<polygon class="st2" points="309.4,108.3 309.7,106.7 341.3,139.2 341,140.8 		"/>
		<polygon class="st2" points="353.6,101.1 353.9,99.5 387,131.4 386.7,133 		"/>
		<polygon class="st2" points="368.4,98.7 368.7,97.1 402.2,128.8 402,130.4 		"/>
		<polygon class="st2" points="382.7,96.4 383,94.8 417.1,126.3 416.8,127.9 		"/>
		<polygon class="st2" points="397.2,94 397.5,92.4 432,123.7 431.7,125.3 		"/>
		<polygon class="st2" points="411.6,91.7 411.9,90.1 446.9,121.2 446.6,122.8 		"/>
		<g>
			<g>
				<path class="st0" d="M112.9,108.5l18.4,25.6l-46.6,7.6l-17-26.1L112.9,108.5 M113.2,107.7l-46.9,7.4l17.9,27.6l48.3-7.9
					L113.2,107.7L113.2,107.7z"/>
				<path class="st0" d="M156.1,131.7l25.9,34.6l-73.2,12.5l-23.2-35.6L156.1,131.7 M156.5,130.9l-72.2,11.8l24.1,37.1l75.1-12.8
					L156.5,130.9L156.5,130.9z"/>
				<path class="st0" d="M179.9,127.9l26.8,34.2l-22.9,3.9l-25.9-34.6L179.9,127.9 M180.2,127l-23.8,3.9l27,36l24.7-4.2L180.2,127
					L180.2,127z"/>
				<path class="st0" d="M203,124.1l27.7,33.9l-22.2,3.8l-26.8-34.2L203,124.1 M203.4,123.2l-23.1,3.8l27.9,35.7l24-4.1L203.4,123.2
					L203.4,123.2z"/>
				<path class="st0" d="M218.5,121.6l28.3,33.7l-14.2,2.4l-27.8-33.9L218.5,121.6 M218.8,120.7l-15.4,2.5l28.8,35.3l16-2.7
					L218.8,120.7L218.8,120.7z"/>
				<path class="st0" d="M233.8,119.1l28.8,33.5l-14.1,2.4l-28.2-33.7L233.8,119.1 M234.2,118.2l-15.4,2.5l29.4,35.1l15.9-2.7
					L234.2,118.2L234.2,118.2z"/>
				<path class="st0" d="M249.2,116.6l29.4,33.3l-14.1,2.4l-28.8-33.5L249.2,116.6 M249.5,115.7l-15.4,2.5l30,34.9l15.9-2.7
					L249.5,115.7L249.5,115.7z"/>
				<path class="st0" d="M264.8,114l29.9,33.1l-14.3,2.4L251,116.2L264.8,114 M265.1,113.2l-15.6,2.5l30.6,34.7l16.1-2.8
					L265.1,113.2L265.1,113.2z"/>
				<path class="st0" d="M279.6,111.6l30.5,32.9l-13.5,2.3l-29.9-33.1L279.6,111.6 M279.9,110.8l-14.8,2.4l31.2,34.5l15.4-2.6
					L279.9,110.8L279.9,110.8z"/>
				<path class="st0" d="M294.9,109.1l31,32.7l-14,2.4l-30.5-32.9L294.9,109.1 M295.2,108.3l-15.3,2.5l31.8,34.3l15.9-2.7
					L295.2,108.3L295.2,108.3z"/>
				<path class="st0" d="M309.7,106.7l31.5,32.5l-13.4,2.3l-31-32.6L309.7,106.7 M310,105.9l-14.8,2.4l32.3,34l15.3-2.6L310,105.9
					L310,105.9z"/>
				<path class="st0" d="M353.9,99.5l33.1,31.9l-43.8,7.5l-31.5-32.4L353.9,99.5 M354.2,98.7l-44.2,7.2l32.9,33.8l45.8-7.8
					L354.2,98.7L354.2,98.7z"/>
				<path class="st0" d="M368.7,97.1l33.6,31.7l-13.3,2.3l-33.1-31.8L368.7,97.1 M368.9,96.3l-14.7,2.4l34.5,33.2l15.3-2.6
					L368.9,96.3L368.9,96.3z"/>
				<path class="st0" d="M383,94.8l34.1,31.5l-12.9,2.2l-33.6-31.7L383,94.8 M383.3,93.9L369,96.2l35,33l14.8-2.5L383.3,93.9
					L383.3,93.9z"/>
				<path class="st0" d="M397.5,92.4l34.6,31.3l-13,2.2l-34-31.5L397.5,92.4 M397.7,91.6L383.2,94l35.5,32.8l15-2.6L397.7,91.6
					L397.7,91.6z"/>
				<path class="st0" d="M411.9,90.1l35,31.1l-12.9,2.2l-34.5-31.3L411.9,90.1 M412.1,89.2l-14.4,2.3l36,32.6l14.9-2.5L412.1,89.2
					L412.1,89.2z"/>
				<path class="st0" d="M435.9,86.2l35.8,30.8l-22.8,3.9l-35-31.1L435.9,86.2 M436.1,85.3l-24,3.9l36.6,32.4l24.8-4.2L436.1,85.3
					L436.1,85.3z"/>
				<path class="st0" d="M457.2,82.7l36.5,30.5l-20.1,3.4l-35.8-30.7L457.2,82.7 M457.5,81.9l-21.4,3.5l37.4,32.1l22.1-3.8
					L457.5,81.9L457.5,81.9z"/>
				<path class="st0" d="M428.8,59l26.8,22.4l-12.2,2L417,60.9L428.8,59 M429.1,58.2l-13.9,2.2l28,23.8l14.3-2.3L429.1,58.2
					L429.1,58.2z"/>
				<path class="st0" d="M414.9,61.2l19.4,16.5l-11.8,1.9L403.4,63L414.9,61.2 M415.1,60.3l-13.6,2.1l20.7,17.9l13.8-2.2L415.1,60.3
					L415.1,60.3z"/>
				<path class="st0" d="M401.3,63.3l19.1,16.6l-12.3,2l-18.8-16.7L401.3,63.3 M401.6,62.5l-14.1,2.2l20.4,18l14.4-2.3L401.6,62.5
					L401.6,62.5z"/>
				<path class="st0" d="M393.9,71.4l5.3,4.6l-0.6,0.1l-5.2-4.7L393.9,71.4 M394.1,70.5l-2.6,0.4l6.8,6l2.6-0.4L394.1,70.5
					L394.1,70.5z"/>
				<path class="st0" d="M400.7,77.4l5.4,4.8l-0.6,0.1l-5.4-4.8L400.7,77.4 M400.9,76.6l-2.6,0.4l7,6.2l2.7-0.4L400.9,76.6
					L400.9,76.6z"/>
				<path class="st0" d="M391.3,71.8l12.2,10.8l-12.3,2l-12-10.9L391.3,71.8 M391.5,71l-14.1,2.2l13.5,12.3l14.3-2.3L391.5,71
					L391.5,71z"/>
				<path class="st0" d="M377.2,74l12,10.9l-26.6,4.3l-11.7-11L377.2,74 M377.4,73.2l-28.2,4.5l13.2,12.4l28.6-4.6L377.4,73.2
					L377.4,73.2z"/>
				<path class="st0" d="M348.9,78.5l5.1,4.8l-5.3,0.8l-5-4.8L348.9,78.5 M349.2,77.7l-7.2,1.1l6.5,6.2l7.3-1.2L349.2,77.7
					L349.2,77.7z"/>
				<path class="st0" d="M355.5,84.7l5.2,4.9l-5.3,0.9l-5.1-4.9L355.5,84.7 M355.7,83.8l-7.3,1.2l6.6,6.3l7.3-1.2L355.7,83.8
					L355.7,83.8z"/>
				<path class="st0" d="M335.4,73.7l17.9,17l-19.9,3.2l-17.5-17.2L335.4,73.7 M335.7,72.8l-21.4,3.4l18.9,18.6l21.9-3.5L335.7,72.8
					L335.7,72.8z"/>
				<path class="st0" d="M314,77l17.5,17.2l-12.8,2.1L301.5,79L314,77 M314.3,76.2l-14.4,2.3l18.6,18.7l14.7-2.4L314.3,76.2
					L314.3,76.2z"/>
				<path class="st0" d="M299.6,79.3l17.2,17.3l-12.6,2l-16.9-17.4L299.6,79.3 M299.8,78.5l-14.3,2.2l18.3,18.8l14.6-2.4L299.8,78.5
					L299.8,78.5z"/>
				<path class="st0" d="M285.3,81.6L302.2,99l-13.2,2.1l-16.6-17.5L285.3,81.6 M285.6,80.7L270.8,83l17.9,18.9l15.1-2.4L285.6,80.7
					L285.6,80.7z"/>
				<path class="st0" d="M270.5,83.9l16.6,17.5l-12.9,2.1l-16.3-17.6L270.5,83.9 M270.8,83l-14.5,2.3l17.6,19l14.8-2.4L270.8,83
					L270.8,83z"/>
				<path class="st0" d="M256,86.2l16.3,17.6l-19.8,3.2l1.4-6.9l0.1-0.4l-0.3-0.3l-10.2-11.3L256,86.2 M256.3,85.3l-14.4,2.3
					l11.2,12.4l-1.6,8l22.4-3.6L256.3,85.3L256.3,85.3z"/>
				<path class="st0" d="M241.6,88.4l10.6,11.8l-1.4,7.1l-14.4,2.3l-15.6-17.9L241.6,88.4 M241.9,87.6l-22.6,3.5l16.8,19.3l15.3-2.5
					l1.6-8L241.9,87.6L241.9,87.6z"/>
				<path class="st0" d="M196.9,95.4l15.1,18.1l-13.8,2.2l-14.8-18.2L196.9,95.4 M197.2,94.6L182,97l16,19.6l15.6-2.5L197.2,94.6
					L197.2,94.6z"/>
				<path class="st0" d="M184.5,112l4.2,5.3l-5.9,1l-4.2-5.3L184.5,112 M184.8,111.1l-7.7,1.2l5.3,6.7l7.7-1.2L184.8,111.1
					L184.8,111.1z"/>
				<path class="st0" d="M171.6,106.6l9.5,11.9l-5.7,0.9l-9.4-12L171.6,106.6 M171.9,105.7l-7.4,1.2l10.5,13.4l7.5-1.2L171.9,105.7
					L171.9,105.7z"/>
				<path class="st0" d="M164.1,107.7l9.4,12l-29.8,4.8l-9-12.1L164.1,107.7 M164.5,106.9l-31.1,4.9l10,13.6l31.6-5.1L164.5,106.9
					L164.5,106.9z"/>
				<path class="st0" d="M133,112.7l9,12.1l-13.9,2.2l-8.8-12.2L133,112.7 M133.4,111.8l-15.4,2.4l9.8,13.7l15.7-2.5L133.4,111.8
					L133.4,111.8z"/>
				<path class="st0" d="M181.6,97.8l14.8,18.2l-5.9,1l-5.1-6.3l-0.3-0.4l-0.5,0.1l-7.2,1.2l-9.2-11.6l6.2-1l1.9-0.3L181.6,97.8
					 M181.9,97l-5.6,0.9l-1.9,0.3l-7.6,1.2l10.3,13l7.7-1.2l5.4,6.7l7.7-1.2L181.9,97L181.9,97z"/>
				<path class="st0" d="M222.7,106.1l4.3,5l-13.1,2.1l-4.2-5L222.7,106.1 M223,105.3l-14.9,2.4l5.4,6.4l15-2.4L223,105.3L223,105.3
					z"/>
				<path class="st0" d="M219,92l15.6,17.9l-5.8,0.9l-5.2-6l-0.3-0.3l-0.4,0.1l-14.4,2.3l-9.8-11.6l13.3-2.1l4.1-0.6L219,92
					 M219.3,91.1l-3.4,0.5l-4.1,0.6l-14.7,2.3l11,13.1l14.9-2.4l5.5,6.4l7.6-1.2L219.3,91.1L219.3,91.1z"/>
			</g>
		</g>
		<polygon class="st1" points="108.4,181.2 495.3,115.3 495.6,113.7 108.4,179.7 		"/>
		<text transform="matrix(1 0 0 1 -12.075 98.2568)" class="st6 st7 st8">Level 5</text>
	</g>
</g>
</svg>
